<?xml version="1.0" encoding="UTF-8" standalone="no"?>
<!-- Generator: Adobe Illustrator 16.0.0, SVG Export Plug-In . SVG Version: 6.00 Build 0)  -->

<svg
   xmlns:dc="http://purl.org/dc/elements/1.1/"
   xmlns:cc="http://creativecommons.org/ns#"
   xmlns:rdf="http://www.w3.org/1999/02/22-rdf-syntax-ns#"
   xmlns:svg="http://www.w3.org/2000/svg"
   xmlns="http://www.w3.org/2000/svg"
   xmlns:sodipodi="http://sodipodi.sourceforge.net/DTD/sodipodi-0.dtd"
   xmlns:inkscape="http://www.inkscape.org/namespaces/inkscape"
   version="1.1"
   x="0px"
   y="0px"
   width="1069.5234"
   height="197.644"
   viewBox="0 0 1069.5234 197.644"
   enable-background="new 0 0 1158.667 254.233"
   xml:space="preserve"
   id="svg2"
   inkscape:version="0.91 r"
   sodipodi:docname="masthead.svg"><metadata
     id="metadata180"><rdf:RDF><cc:Work
         rdf:about=""><dc:format>image/svg+xml</dc:format><dc:type
           rdf:resource="http://purl.org/dc/dcmitype/StillImage" /><dc:title></dc:title></cc:Work></rdf:RDF></metadata><defs
     id="defs178" /><sodipodi:namedview
     pagecolor="#ffffff"
     bordercolor="#666666"
     borderopacity="1"
     objecttolerance="10"
     gridtolerance="10"
     guidetolerance="10"
     inkscape:pageopacity="0"
     inkscape:pageshadow="2"
     inkscape:window-width="1920"
     inkscape:window-height="1026"
     id="namedview176"
     showgrid="false"
     fit-margin-top="0"
     fit-margin-left="0"
     fit-margin-right="0"
     fit-margin-bottom="0"
     inkscape:zoom="0.73965464"
     inkscape:cx="557.3782"
     inkscape:cy="22.350701"
     inkscape:window-x="0"
     inkscape:window-y="0"
     inkscape:window-maximized="1"
     inkscape:current-layer="svg2" /><g
     id="g3508"
     transform="translate(-73.589,-24.949)"><g
       id="Layer_1"><g
         id="g5"><path
           id="path7"
           d="m 73.589,56.081 14.76,-14.811 0,13.905 0,39.989 -14.76,0 0,-39.083 z m 14.76,25.553 19.27,0 0,13.53 -19.27,0 0,-13.53 z"
           inkscape:connector-curvature="0"
           style="fill:#e7731f" /><path
           id="path9"
           d="m 111.555,63.871 11.808,-11.859 0,43.152 -11.808,0 0,-31.293 z"
           inkscape:connector-curvature="0"
           style="fill:#e7731f" /><path
           id="path11"
           d="m 163.215,63.103 -13.657,0 c -3.073,0 -5.732,1.065 -7.981,3.194 -2.249,2.129 -3.373,4.715 -3.373,7.756 0,2.765 0.943,5.186 2.829,7.258 1.886,2.075 4.168,3.111 6.847,3.111 l 4.756,0 0,10.742 -5.412,0 c -5.74,0 -10.565,-2.074 -14.473,-6.226 -3.909,-4.151 -5.863,-9.114 -5.863,-14.887 0,-6.103 2.391,-11.298 7.175,-15.586 4.783,-4.289 10.427,-6.433 16.933,-6.433 l 23.288,0 -11.069,11.071 z m -10.578,32.062 0,-26.814 10.578,0 0,26.814 -10.578,0 z"
           inkscape:connector-curvature="0"
           style="fill:#e7731f" /><path
           id="path13"
           d="m 168.381,63.871 11.808,-11.859 0,11.199 0,31.953 -11.808,0 0,-31.293 z m 7.872,4.644 19.352,0 0,10.578 -15.416,0 -3.936,-10.578 z m 0.656,15.907 18.696,0 0,10.742 -15.416,0 -3.28,-10.742 z m 0.328,-21.258 2.952,-11.152 26.404,0 -11.152,11.152 -18.204,0 z"
           inkscape:connector-curvature="0"
           style="fill:#e7731f" /><path
           id="path15"
           d="m 201.18,63.848 11.726,-11.836 0,43.07 -11.726,0 0,-31.234 z m 23.124,-11.836 c 4.318,0 7.79,1.139 10.414,3.416 2.624,2.278 3.936,5.666 3.936,10.166 0,3.841 -1.285,7.052 -3.854,9.631 -2.57,2.579 -5.959,3.868 -10.168,3.868 l -0.902,0 c -0.328,0 -0.67,-0.041 -1.025,-0.123 -0.356,-0.082 -0.574,-0.15 -0.656,-0.205 -0.082,-0.054 -0.123,-0.109 -0.123,-0.164 l 0.328,-0.246 0.656,-0.328 -7.025,-5.439 5.317,0.027 c 1.744,0 3.079,-0.432 4.006,-1.297 0.928,-0.864 1.392,-2.077 1.392,-3.637 0,-1.394 -0.424,-2.495 -1.271,-3.303 -0.849,-0.809 -2.229,-1.213 -4.141,-1.213 l -8.282,0 0,-11.153 11.398,0 z m 14.021,43.379 -22.877,-22.776 14.042,-0.021 8.842,9.034 -0.007,13.763 z"
           inkscape:connector-curvature="0"
           style="fill:#e7731f" /><path
           id="path17"
           d="m 242.508,56.081 14.76,-14.811 0,53.895 -14.76,0 0,-39.084 z M 271.536,41.27 c 5.466,0 9.812,1.409 13.038,4.226 3.225,2.817 4.838,7.043 4.838,12.677 0,4.813 -1.599,8.82 -4.797,12.021 -3.198,3.201 -7.421,4.8 -12.669,4.8 l -10.906,0 0,-13.12 10.64,-0.082 c 1.044,0 1.896,-0.333 2.556,-1 0.66,-0.666 0.99,-1.499 0.99,-2.499 0,-0.888 -0.302,-1.637 -0.906,-2.249 -0.605,-0.61 -1.511,-0.916 -2.719,-0.916 l -14.333,0 0,-13.858 14.268,0 z m 0,20.521 c 5.466,0 9.812,1.371 13.038,4.11 3.225,2.741 4.838,6.877 4.838,12.413 0,4.823 -1.599,8.837 -4.797,12.042 -3.198,3.206 -7.421,4.809 -12.669,4.809 l -10.906,0 0,-13.53 10.578,0 c 1.038,0 1.899,-0.346 2.583,-1.038 0.683,-0.692 1.025,-1.535 1.025,-2.532 0,-0.83 -0.274,-1.549 -0.82,-2.159 -0.547,-0.609 -1.449,-0.914 -2.706,-0.914 l -10.66,0 0,-13.12 10.496,-0.081 z"
           inkscape:connector-curvature="0"
           style="fill:#e7731f" /><path
           id="path19"
           d="m 336.397,73.435 c 0,6.834 -2.201,12.232 -6.601,16.195 -4.401,3.964 -9.582,5.945 -15.539,5.945 -6.068,0 -11.275,-1.94 -15.621,-5.822 -4.346,-3.881 -6.519,-9.32 -6.519,-16.318 0,-6.942 2.2,-12.368 6.601,-16.277 4.4,-3.908 9.58,-5.863 15.539,-5.863 6.122,0 11.343,1.941 15.662,5.822 4.318,3.882 6.478,9.321 6.478,16.318 z m -33.128,0 c 0,3.335 1.079,5.973 3.239,7.913 2.159,1.941 4.687,2.911 7.585,2.911 3.006,0 5.562,-0.943 7.667,-2.829 2.104,-1.886 3.157,-4.551 3.157,-7.995 0,-3.334 -1.08,-5.972 -3.239,-7.913 -2.16,-1.94 -4.688,-2.911 -7.585,-2.911 -3.007,0 -5.563,0.93 -7.667,2.788 -2.105,1.859 -3.157,4.538 -3.157,8.036 z"
           inkscape:connector-curvature="0"
           style="fill:#e7731f" /><path
           id="path21"
           d="m 334.7,63.164 11.07,-11.152 26.378,0 -11.12,11.152 -26.328,0 z m 10.717,0.021 11.808,-11.172 0,11.199 0,31.953 -11.808,0 0,-31.98 z"
           inkscape:connector-curvature="0"
           style="fill:#e7731f" /><path
           id="path23"
           d="m 382.562,68.515 c 4.154,0 7.53,1.234 10.127,3.701 2.596,2.468 3.895,5.594 3.895,9.376 0,3.62 -1.285,6.787 -3.854,9.5 -2.57,2.715 -5.687,4.072 -9.348,4.072 l -10.25,0 -6.642,0 0,-10.742 15.744,0.082 c 0.709,0 1.312,-0.291 1.804,-0.874 0.492,-0.583 0.738,-1.264 0.738,-2.042 0,-1.554 -1.039,-2.332 -3.116,-2.332 -4.21,0 -7.695,-1.397 -10.455,-4.195 -2.761,-2.795 -4.141,-6.168 -4.141,-10.117 0,-3.454 1.394,-6.469 4.182,-9.047 2.788,-2.577 5.986,-3.865 9.594,-3.865 l 26.568,0 -11.234,11.152 -15.744,0 c -0.656,0 -1.244,0.181 -1.763,0.542 -0.52,0.361 -0.779,0.902 -0.779,1.623 0,1.223 0.41,2.055 1.23,2.499 1.038,0.445 2.186,0.667 3.444,0.667 z"
           inkscape:connector-curvature="0"
           style="fill:#e7731f" /><path
           id="path25"
           d="m 424.047,61.488 23.763,0 -1.08,5.065 -16.538,0 -1.229,5.811 15.495,0 -1.08,5.066 -15.495,0 -2.272,10.652 -7.226,0 5.662,-26.594 z"
           inkscape:connector-curvature="0"
           style="fill:#005da3" /><path
           id="path27"
           d="m 450.569,61.488 7.226,0 -5.661,26.594 -7.226,0 5.661,-26.594 z"
           inkscape:connector-curvature="0"
           style="fill:#005da3" /><path
           id="path29"
           d="m 462.489,61.488 19.331,0 c 7.375,0 7.636,4.507 7.077,7.226 -0.708,3.24 -2.459,5.326 -5.699,6.406 l 0,0.075 c 3.055,0.484 2.682,4.507 2.123,7.114 -0.261,1.304 -0.819,4.433 0.149,5.773 l -7.896,0 c -0.41,-1.229 -0.224,-2.309 0.372,-5.103 0.782,-3.725 -0.596,-4.656 -2.83,-4.656 l -8.977,0 -2.085,9.759 -7.226,0 5.661,-26.594 z m 4.73,11.77 9.572,0 c 1.602,0 3.65,-0.894 4.172,-3.39 0.559,-2.645 -1.379,-3.315 -3.129,-3.315 l -9.2,0 -1.415,6.705 z"
           inkscape:connector-curvature="0"
           style="fill:#005da3" /><path
           id="path31"
           d="m 510.205,69.198 c 0.298,-3.464 -2.942,-3.836 -5.848,-3.836 -2.98,0 -5.215,1.341 -5.587,3.129 -0.299,1.416 0.707,2.198 2.532,2.496 l 8.716,1.453 c 4.693,0.782 7.971,2.607 6.965,7.449 -1.08,4.954 -5.252,8.939 -15.718,8.939 -6.481,0 -14.75,-0.82 -13.036,-9.125 l 8.119,0 c -0.707,3.65 2.794,4.283 5.923,4.283 3.39,0 5.922,-1.006 6.406,-3.315 0.447,-2.048 -1.08,-2.607 -3.837,-3.054 l -6.406,-1.006 c -4.432,-0.708 -8.641,-2.085 -7.486,-7.523 1.267,-5.922 6.63,-8.343 14.973,-8.343 5.476,0 13.409,0.931 12.292,8.455 l -8.008,0 z"
           inkscape:connector-curvature="0"
           style="fill:#005da3" /><path
           id="path33"
           d="m 529.313,66.554 -9.87,0 1.08,-5.065 26.967,0 -1.08,5.065 -9.87,0 -4.582,21.529 -7.226,0 4.581,-21.529 z"
           inkscape:connector-curvature="0"
           style="fill:#005da3" /><path
           id="path35"
           d="m 535.754,86.635 c 0.195,-0.429 0.458,-0.794 0.788,-1.096 0.329,-0.301 0.71,-0.535 1.143,-0.7 0.432,-0.165 0.885,-0.247 1.357,-0.247 0.472,0 0.925,0.083 1.357,0.247 0.432,0.165 0.812,0.398 1.143,0.7 0.329,0.302 0.592,0.667 0.788,1.096 0.195,0.429 0.294,0.908 0.294,1.437 0,0.535 -0.099,1.017 -0.294,1.446 -0.196,0.429 -0.459,0.796 -0.788,1.101 -0.33,0.305 -0.711,0.538 -1.143,0.7 -0.433,0.162 -0.885,0.243 -1.357,0.243 -0.472,0 -0.926,-0.081 -1.357,-0.243 -0.433,-0.162 -0.813,-0.395 -1.143,-0.7 -0.33,-0.305 -0.593,-0.671 -0.788,-1.101 -0.196,-0.429 -0.294,-0.911 -0.294,-1.446 0,-0.529 0.098,-1.008 0.294,-1.437 z m 0.863,2.537 c 0.137,0.336 0.323,0.626 0.56,0.872 0.236,0.246 0.515,0.437 0.835,0.574 0.32,0.137 0.664,0.205 1.031,0.205 0.36,0 0.701,-0.068 1.021,-0.205 0.32,-0.137 0.598,-0.328 0.835,-0.574 0.236,-0.246 0.424,-0.536 0.563,-0.872 0.141,-0.336 0.21,-0.703 0.21,-1.101 0,-0.398 -0.069,-0.763 -0.21,-1.096 -0.14,-0.333 -0.327,-0.62 -0.563,-0.863 -0.237,-0.243 -0.515,-0.432 -0.835,-0.569 -0.32,-0.137 -0.661,-0.206 -1.021,-0.206 -0.367,0 -0.711,0.069 -1.031,0.206 -0.32,0.137 -0.599,0.326 -0.835,0.569 -0.236,0.243 -0.423,0.53 -0.56,0.863 -0.137,0.333 -0.205,0.698 -0.205,1.096 0,0.398 0.068,0.765 0.205,1.101 z m 2.509,-3.06 c 0.491,0 0.869,0.087 1.133,0.261 0.265,0.174 0.396,0.473 0.396,0.896 0,0.18 -0.026,0.334 -0.079,0.462 -0.053,0.128 -0.126,0.231 -0.219,0.312 -0.094,0.081 -0.202,0.143 -0.327,0.187 -0.124,0.043 -0.258,0.071 -0.4,0.084 l 1.044,1.707 -0.812,0 -0.951,-1.67 -0.485,0 0,1.67 -0.773,0 0,-3.909 1.473,0 z m -0.009,1.633 c 0.224,0 0.407,-0.031 0.551,-0.093 0.143,-0.062 0.214,-0.211 0.214,-0.448 0,-0.105 -0.024,-0.189 -0.074,-0.252 -0.05,-0.062 -0.113,-0.11 -0.191,-0.145 -0.078,-0.035 -0.165,-0.057 -0.261,-0.07 -0.097,-0.012 -0.188,-0.019 -0.275,-0.019 l -0.653,0 0,1.026 0.689,0 z"
           inkscape:connector-curvature="0"
           style="fill:#005da3" /><path
           id="path37"
           d="m 571.968,61.486 c 1.192,0 2.267,0.193 3.223,0.578 0.955,0.385 1.775,0.913 2.458,1.583 0.683,0.67 1.204,1.447 1.564,2.328 0.36,0.882 0.54,1.832 0.54,2.85 0,1.564 -0.329,2.918 -0.986,4.06 -0.658,1.143 -1.732,2.012 -3.223,2.608 l 0,0.074 c 0.72,0.199 1.316,0.503 1.788,0.913 0.472,0.41 0.856,0.894 1.155,1.453 0.298,0.559 0.515,1.173 0.651,1.844 0.136,0.671 0.229,1.341 0.279,2.011 0.024,0.423 0.05,0.919 0.074,1.49 0.024,0.571 0.068,1.155 0.131,1.75 0.062,0.596 0.161,1.161 0.298,1.695 0.137,0.535 0.341,0.987 0.614,1.36 l -5.848,0 c -0.323,-0.844 -0.521,-1.85 -0.596,-3.017 -0.075,-1.167 -0.187,-2.285 -0.336,-3.353 -0.199,-1.391 -0.621,-2.409 -1.267,-3.055 -0.646,-0.646 -1.701,-0.968 -3.166,-0.968 l -5.848,0 0,10.393 -5.849,0 0,-26.597 14.344,0 z m -2.086,12.032 c 1.341,0 2.347,-0.298 3.018,-0.894 0.671,-0.596 1.006,-1.564 1.006,-2.905 0,-1.291 -0.335,-2.229 -1.006,-2.812 -0.671,-0.583 -1.677,-0.875 -3.018,-0.875 l -6.406,0 0,7.487 6.406,0 z"
           inkscape:connector-curvature="0"
           style="fill:#005da3" /><path
           id="path39"
           d="m 583.132,74.281 c 0.472,-1.253 1.143,-2.322 2.012,-3.203 0.869,-0.881 1.912,-1.565 3.129,-2.049 1.217,-0.484 2.583,-0.727 4.098,-0.727 1.515,0 2.887,0.242 4.116,0.727 1.229,0.484 2.278,1.167 3.147,2.049 0.869,0.882 1.539,1.95 2.012,3.203 0.472,1.254 0.708,2.651 0.708,4.191 0,1.54 -0.236,2.93 -0.708,4.172 -0.473,1.242 -1.143,2.304 -2.012,3.185 -0.869,0.881 -1.918,1.559 -3.147,2.03 -1.229,0.472 -2.602,0.708 -4.116,0.708 -1.514,0 -2.881,-0.236 -4.098,-0.708 -1.217,-0.471 -2.26,-1.148 -3.129,-2.03 -0.869,-0.882 -1.54,-1.943 -2.012,-3.185 -0.472,-1.242 -0.708,-2.632 -0.708,-4.172 0,-1.539 0.237,-2.936 0.708,-4.191 z m 4.806,6.445 c 0.148,0.733 0.403,1.391 0.764,1.974 0.359,0.584 0.838,1.05 1.434,1.397 0.597,0.348 1.341,0.521 2.235,0.521 0.894,0 1.645,-0.173 2.254,-0.521 0.607,-0.347 1.092,-0.813 1.452,-1.397 0.36,-0.583 0.615,-1.241 0.764,-1.974 0.149,-0.732 0.224,-1.483 0.224,-2.253 0,-0.77 -0.074,-1.527 -0.224,-2.272 -0.148,-0.745 -0.403,-1.403 -0.764,-1.974 -0.36,-0.571 -0.845,-1.037 -1.452,-1.397 -0.609,-0.36 -1.36,-0.54 -2.254,-0.54 -0.895,0 -1.639,0.18 -2.235,0.54 -0.596,0.36 -1.074,0.826 -1.434,1.397 -0.36,0.571 -0.615,1.229 -0.764,1.974 -0.149,0.745 -0.224,1.503 -0.224,2.272 0,0.769 0.075,1.521 0.224,2.253 z"
           inkscape:connector-curvature="0"
           style="fill:#005da3" /><path
           id="path41"
           d="m 610.548,61.486 0,9.685 0.075,0 c 0.645,-0.993 1.521,-1.719 2.626,-2.179 1.104,-0.459 2.253,-0.689 3.445,-0.689 0.969,0 1.924,0.199 2.868,0.596 0.943,0.397 1.794,1.005 2.552,1.825 0.757,0.819 1.372,1.869 1.844,3.147 0.472,1.279 0.708,2.8 0.708,4.563 0,1.764 -0.236,3.285 -0.708,4.563 -0.472,1.279 -1.087,2.328 -1.844,3.147 -0.758,0.819 -1.608,1.428 -2.552,1.825 -0.944,0.397 -1.899,0.596 -2.868,0.596 -1.415,0 -2.682,-0.224 -3.8,-0.67 -1.117,-0.447 -1.962,-1.205 -2.532,-2.272 l -0.075,0 0,2.458 -5.028,0 0,-26.595 5.289,0 z m 8.568,14.639 c -0.174,-0.745 -0.446,-1.403 -0.819,-1.975 -0.372,-0.571 -0.838,-1.024 -1.396,-1.359 -0.559,-0.335 -1.236,-0.503 -2.03,-0.503 -0.771,0 -1.44,0.167 -2.012,0.503 -0.571,0.335 -1.043,0.789 -1.415,1.359 -0.373,0.572 -0.646,1.229 -0.819,1.975 -0.175,0.745 -0.261,1.527 -0.261,2.347 0,0.795 0.086,1.564 0.261,2.31 0.173,0.745 0.446,1.403 0.819,1.974 0.372,0.571 0.844,1.024 1.415,1.359 0.571,0.335 1.241,0.503 2.012,0.503 0.794,0 1.472,-0.167 2.03,-0.503 0.559,-0.335 1.024,-0.788 1.396,-1.359 0.373,-0.571 0.646,-1.229 0.819,-1.974 0.174,-0.745 0.261,-1.515 0.261,-2.31 -10e-4,-0.82 -0.087,-1.602 -0.261,-2.347 z"
           inkscape:connector-curvature="0"
           style="fill:#005da3" /><path
           id="path43"
           d="m 627.535,74.281 c 0.472,-1.253 1.143,-2.322 2.012,-3.203 0.869,-0.881 1.912,-1.565 3.129,-2.049 1.217,-0.484 2.583,-0.727 4.098,-0.727 1.515,0 2.887,0.242 4.116,0.727 1.229,0.484 2.278,1.167 3.147,2.049 0.869,0.882 1.539,1.95 2.012,3.203 0.472,1.254 0.708,2.651 0.708,4.191 0,1.54 -0.236,2.93 -0.708,4.172 -0.473,1.242 -1.143,2.304 -2.012,3.185 -0.869,0.881 -1.918,1.559 -3.147,2.03 -1.229,0.472 -2.602,0.708 -4.116,0.708 -1.514,0 -2.881,-0.236 -4.098,-0.708 -1.217,-0.471 -2.26,-1.148 -3.129,-2.03 -0.869,-0.882 -1.54,-1.943 -2.012,-3.185 -0.472,-1.242 -0.708,-2.632 -0.708,-4.172 0,-1.539 0.236,-2.936 0.708,-4.191 z m 4.805,6.445 c 0.148,0.733 0.403,1.391 0.764,1.974 0.359,0.584 0.838,1.05 1.434,1.397 0.597,0.348 1.341,0.521 2.235,0.521 0.894,0 1.645,-0.173 2.254,-0.521 0.607,-0.347 1.092,-0.813 1.452,-1.397 0.36,-0.583 0.615,-1.241 0.764,-1.974 0.149,-0.732 0.224,-1.483 0.224,-2.253 0,-0.77 -0.074,-1.527 -0.224,-2.272 -0.148,-0.745 -0.403,-1.403 -0.764,-1.974 -0.36,-0.571 -0.845,-1.037 -1.452,-1.397 -0.609,-0.36 -1.36,-0.54 -2.254,-0.54 -0.895,0 -1.639,0.18 -2.235,0.54 -0.596,0.36 -1.074,0.826 -1.434,1.397 -0.36,0.571 -0.615,1.229 -0.764,1.974 -0.149,0.745 -0.224,1.503 -0.224,2.272 10e-4,0.769 0.075,1.521 0.224,2.253 z"
           inkscape:connector-curvature="0"
           style="fill:#005da3" /><path
           id="path45"
           d="m 660.009,68.824 0,3.539 -3.874,0 0,9.536 c 0,0.894 0.148,1.49 0.446,1.788 0.299,0.298 0.895,0.447 1.788,0.447 0.298,0 0.584,-0.012 0.857,-0.037 0.272,-0.024 0.533,-0.062 0.782,-0.112 l 0,4.098 c -0.447,0.075 -0.944,0.124 -1.49,0.149 -0.547,0.024 -1.08,0.037 -1.602,0.037 -0.819,0 -1.597,-0.056 -2.328,-0.167 -0.733,-0.112 -1.379,-0.329 -1.938,-0.652 -0.559,-0.322 -1,-0.782 -1.322,-1.378 -0.323,-0.596 -0.484,-1.378 -0.484,-2.347 l 0,-11.362 -3.203,0 0,-3.539 3.203,0 0,-5.774 5.29,0 0,5.774 3.875,0 z"
           inkscape:connector-curvature="0"
           style="fill:#005da3" /><path
           id="path47"
           d="m 664.93,65.844 0,-4.358 5.29,0 0,4.358 -5.29,0 z m 5.29,2.98 0,19.258 -5.29,0 0,-19.258 5.29,0 z"
           inkscape:connector-curvature="0"
           style="fill:#005da3" /><path
           id="path49"
           d="m 683.41,72.289 c -0.844,0 -1.552,0.192 -2.123,0.577 -0.571,0.385 -1.037,0.882 -1.396,1.49 -0.36,0.609 -0.615,1.279 -0.764,2.011 -0.149,0.733 -0.224,1.459 -0.224,2.179 0,0.696 0.074,1.403 0.224,2.124 0.148,0.72 0.391,1.372 0.727,1.956 0.335,0.583 0.788,1.062 1.359,1.434 0.571,0.372 1.267,0.559 2.086,0.559 1.267,0 2.241,-0.354 2.924,-1.062 0.683,-0.708 1.111,-1.658 1.285,-2.85 l 5.104,0 c -0.348,2.558 -1.341,4.507 -2.98,5.848 -1.639,1.341 -3.737,2.012 -6.295,2.012 -1.44,0 -2.763,-0.242 -3.967,-0.727 -1.205,-0.484 -2.229,-1.161 -3.073,-2.03 -0.845,-0.869 -1.503,-1.905 -1.975,-3.11 -0.472,-1.204 -0.708,-2.526 -0.708,-3.967 0,-1.49 0.218,-2.874 0.652,-4.153 0.435,-1.279 1.074,-2.384 1.918,-3.315 0.845,-0.931 1.875,-1.658 3.092,-2.179 1.217,-0.521 2.607,-0.782 4.172,-0.782 1.143,0 2.241,0.149 3.297,0.447 1.056,0.298 1.999,0.751 2.831,1.359 0.832,0.609 1.509,1.366 2.03,2.272 0.521,0.907 0.819,1.98 0.894,3.222 l -5.178,0 c -0.349,-2.21 -1.653,-3.315 -3.912,-3.315 z"
           inkscape:connector-curvature="0"
           style="fill:#005da3" /><path
           id="path51"
           d="m 700.791,83.296 c 0.235,0.41 0.54,0.745 0.913,1.006 0.372,0.261 0.801,0.453 1.284,0.577 0.484,0.125 0.987,0.187 1.509,0.187 0.373,0 0.764,-0.043 1.174,-0.13 0.409,-0.087 0.782,-0.224 1.117,-0.41 0.335,-0.186 0.615,-0.434 0.838,-0.745 0.224,-0.311 0.336,-0.702 0.336,-1.173 0,-0.794 -0.528,-1.391 -1.583,-1.788 -1.057,-0.397 -2.527,-0.794 -4.414,-1.192 -0.771,-0.174 -1.521,-0.378 -2.254,-0.615 -0.733,-0.236 -1.385,-0.546 -1.956,-0.931 -0.571,-0.385 -1.03,-0.869 -1.378,-1.453 -0.348,-0.583 -0.521,-1.297 -0.521,-2.142 0,-1.242 0.242,-2.259 0.727,-3.055 0.484,-0.794 1.123,-1.421 1.918,-1.881 0.795,-0.46 1.688,-0.782 2.682,-0.969 0.993,-0.186 2.012,-0.279 3.055,-0.279 1.043,0 2.055,0.1 3.036,0.298 0.98,0.199 1.856,0.535 2.626,1.006 0.77,0.472 1.409,1.099 1.919,1.881 0.509,0.782 0.812,1.769 0.912,2.961 l -5.028,0 c -0.075,-1.018 -0.46,-1.708 -1.155,-2.067 -0.695,-0.359 -1.515,-0.541 -2.458,-0.541 -0.298,0 -0.621,0.019 -0.969,0.056 -0.348,0.037 -0.665,0.118 -0.95,0.242 -0.285,0.125 -0.527,0.304 -0.726,0.54 -0.199,0.236 -0.299,0.553 -0.299,0.95 0,0.472 0.174,0.857 0.521,1.155 0.347,0.298 0.801,0.54 1.36,0.727 0.559,0.186 1.197,0.354 1.918,0.503 0.72,0.149 1.453,0.311 2.198,0.484 0.769,0.174 1.521,0.386 2.253,0.633 0.732,0.249 1.385,0.578 1.956,0.987 0.57,0.41 1.03,0.919 1.378,1.527 0.348,0.609 0.521,1.359 0.521,2.253 0,1.267 -0.255,2.328 -0.764,3.185 -0.509,0.856 -1.173,1.546 -1.993,2.067 -0.819,0.521 -1.757,0.888 -2.812,1.099 -1.057,0.211 -2.13,0.317 -3.223,0.317 -1.117,0 -2.21,-0.112 -3.278,-0.335 -1.067,-0.224 -2.018,-0.596 -2.85,-1.117 -0.832,-0.522 -1.515,-1.211 -2.048,-2.067 -0.535,-0.857 -0.826,-1.931 -0.876,-3.222 l 5.029,0 c 10e-4,0.571 0.118,1.061 0.355,1.471 z"
           inkscape:connector-curvature="0"
           style="fill:#005da3" /><path
           id="path53"
           d="m 720.709,66.403 0,-4.917 21.791,0 0,4.917 -7.972,0 0,21.68 -5.848,0 0,-21.68 -7.971,0 z"
           inkscape:connector-curvature="0"
           style="fill:#005da3" /><path
           id="path55"
           d="m 746.937,83.463 c 0.794,0.77 1.937,1.155 3.427,1.155 1.067,0 1.986,-0.267 2.757,-0.801 0.769,-0.534 1.241,-1.099 1.415,-1.695 l 4.656,0 c -0.745,2.31 -1.888,3.961 -3.427,4.954 -1.54,0.994 -3.402,1.49 -5.588,1.49 -1.515,0 -2.881,-0.242 -4.098,-0.727 -1.217,-0.485 -2.247,-1.173 -3.092,-2.067 -0.844,-0.894 -1.496,-1.961 -1.955,-3.204 -0.46,-1.241 -0.689,-2.607 -0.689,-4.097 0,-1.44 0.236,-2.781 0.708,-4.023 0.472,-1.242 1.142,-2.315 2.012,-3.222 0.869,-0.906 1.905,-1.621 3.11,-2.142 1.204,-0.521 2.538,-0.782 4.004,-0.782 1.64,0 3.067,0.317 4.284,0.95 1.216,0.633 2.216,1.484 2.998,2.552 0.782,1.068 1.347,2.285 1.695,3.65 0.348,1.366 0.472,2.794 0.372,4.284 l -13.894,0 c 0.076,1.714 0.51,2.956 1.305,3.725 z m 5.979,-10.131 c -0.634,-0.695 -1.596,-1.043 -2.887,-1.043 -0.845,0 -1.546,0.143 -2.105,0.428 -0.559,0.286 -1.005,0.64 -1.341,1.062 -0.335,0.423 -0.571,0.87 -0.707,1.341 -0.138,0.472 -0.218,0.894 -0.242,1.267 l 8.604,0 c -0.249,-1.342 -0.69,-2.36 -1.322,-3.055 z"
           inkscape:connector-curvature="0"
           style="fill:#005da3" /><path
           id="path57"
           d="m 763.181,74.747 c 0.074,-1.242 0.385,-2.272 0.932,-3.092 0.546,-0.819 1.241,-1.477 2.086,-1.974 0.844,-0.497 1.793,-0.851 2.85,-1.062 1.055,-0.211 2.116,-0.317 3.185,-0.317 0.969,0 1.949,0.069 2.942,0.205 0.993,0.137 1.9,0.404 2.72,0.801 0.819,0.397 1.49,0.95 2.012,1.658 0.521,0.708 0.782,1.645 0.782,2.812 l 0,10.021 c 0,0.87 0.049,1.701 0.148,2.496 0.099,0.795 0.273,1.391 0.521,1.788 l -5.364,0 c -0.099,-0.298 -0.18,-0.602 -0.241,-0.913 -0.062,-0.31 -0.106,-0.627 -0.131,-0.95 -0.845,0.869 -1.838,1.478 -2.98,1.825 -1.142,0.347 -2.309,0.521 -3.501,0.521 -0.919,0 -1.775,-0.112 -2.57,-0.335 -0.795,-0.223 -1.49,-0.571 -2.086,-1.043 -0.596,-0.471 -1.062,-1.067 -1.396,-1.788 -0.336,-0.72 -0.503,-1.577 -0.503,-2.57 0,-1.092 0.191,-1.993 0.577,-2.7 0.385,-0.708 0.881,-1.272 1.49,-1.695 0.607,-0.422 1.304,-0.738 2.086,-0.95 0.782,-0.21 1.57,-0.378 2.365,-0.503 0.794,-0.124 1.576,-0.224 2.347,-0.298 0.77,-0.075 1.452,-0.187 2.049,-0.335 0.596,-0.149 1.067,-0.366 1.415,-0.652 0.348,-0.285 0.509,-0.701 0.484,-1.248 0,-0.571 -0.093,-1.024 -0.279,-1.36 -0.186,-0.336 -0.435,-0.596 -0.745,-0.782 -0.31,-0.186 -0.67,-0.31 -1.08,-0.373 -0.41,-0.062 -0.851,-0.093 -1.322,-0.093 -1.043,0 -1.862,0.224 -2.459,0.671 -0.596,0.447 -0.943,1.192 -1.043,2.235 l -5.291,0 z m 12.218,3.911 c -0.224,0.199 -0.503,0.354 -0.838,0.466 -0.335,0.112 -0.695,0.205 -1.08,0.279 -0.386,0.074 -0.789,0.137 -1.211,0.186 -0.423,0.05 -0.845,0.112 -1.267,0.187 -0.397,0.074 -0.788,0.174 -1.173,0.298 -0.386,0.125 -0.721,0.292 -1.006,0.503 -0.286,0.211 -0.516,0.479 -0.689,0.801 -0.174,0.323 -0.261,0.733 -0.261,1.229 0,0.472 0.087,0.87 0.261,1.192 0.174,0.323 0.41,0.577 0.708,0.764 0.298,0.186 0.646,0.316 1.043,0.391 0.396,0.074 0.807,0.112 1.229,0.112 1.043,0 1.85,-0.174 2.421,-0.521 0.571,-0.347 0.993,-0.764 1.267,-1.248 0.272,-0.484 0.44,-0.974 0.503,-1.471 0.062,-0.497 0.093,-0.894 0.093,-1.192 l 0,-1.976 z"
           inkscape:connector-curvature="0"
           style="fill:#005da3" /><path
           id="path59"
           d="m 790.676,68.824 0,2.607 0.074,0 c 0.695,-0.993 1.533,-1.763 2.515,-2.31 0.98,-0.546 2.104,-0.819 3.371,-0.819 1.216,0 2.328,0.236 3.334,0.708 1.005,0.472 1.769,1.304 2.29,2.496 0.571,-0.844 1.348,-1.589 2.328,-2.235 0.981,-0.646 2.143,-0.969 3.483,-0.969 1.018,0 1.961,0.125 2.831,0.373 0.869,0.249 1.614,0.646 2.234,1.192 0.621,0.546 1.105,1.261 1.453,2.142 0.348,0.882 0.521,1.943 0.521,3.185 l 0,12.889 -5.289,0 0,-10.915 c 0,-0.646 -0.025,-1.254 -0.075,-1.825 -0.05,-0.571 -0.186,-1.068 -0.409,-1.49 -0.224,-0.422 -0.553,-0.757 -0.987,-1.006 -0.435,-0.248 -1.024,-0.373 -1.77,-0.373 -0.746,0 -1.348,0.144 -1.807,0.429 -0.46,0.286 -0.819,0.658 -1.08,1.117 -0.261,0.46 -0.435,0.981 -0.521,1.564 -0.087,0.584 -0.131,1.173 -0.131,1.77 l 0,10.728 -5.289,0 0,-10.802 c 0,-0.571 -0.013,-1.136 -0.037,-1.695 -0.025,-0.559 -0.131,-1.074 -0.316,-1.546 -0.187,-0.471 -0.497,-0.85 -0.932,-1.136 -0.435,-0.285 -1.074,-0.429 -1.918,-0.429 -0.249,0 -0.578,0.056 -0.987,0.168 -0.41,0.111 -0.808,0.323 -1.192,0.633 -0.384,0.31 -0.714,0.758 -0.987,1.341 -0.273,0.583 -0.409,1.347 -0.409,2.291 l 0,11.175 -5.29,0 0,-19.258 4.992,0 z"
           inkscape:connector-curvature="0"
           style="fill:#005da3" /><path
           id="path61"
           d="m 827.3,67.875 c 0.397,-1.279 0.993,-2.396 1.788,-3.353 0.795,-0.956 1.794,-1.701 2.999,-2.235 1.204,-0.534 2.589,-0.801 4.153,-0.801 1.192,0 2.328,0.187 3.408,0.559 1.08,0.372 2.03,0.907 2.85,1.602 0.819,0.696 1.472,1.552 1.956,2.57 0.484,1.019 0.726,2.161 0.726,3.427 0,1.317 -0.211,2.446 -0.633,3.39 -0.423,0.944 -0.981,1.782 -1.676,2.514 -0.696,0.733 -1.484,1.397 -2.366,1.993 -0.882,0.596 -1.769,1.187 -2.663,1.77 -0.894,0.584 -1.764,1.211 -2.607,1.881 -0.845,0.67 -1.59,1.453 -2.235,2.347 l 12.33,0 0,4.544 -19.146,0 c 0,-1.515 0.217,-2.831 0.652,-3.949 0.434,-1.117 1.024,-2.117 1.769,-2.999 0.745,-0.881 1.621,-1.695 2.627,-2.44 1.005,-0.745 2.067,-1.502 3.185,-2.272 0.571,-0.397 1.179,-0.801 1.825,-1.211 0.646,-0.41 1.235,-0.862 1.77,-1.359 0.533,-0.497 0.98,-1.055 1.341,-1.676 0.359,-0.621 0.54,-1.328 0.54,-2.123 0,-1.267 -0.366,-2.254 -1.099,-2.961 -0.733,-0.708 -1.671,-1.062 -2.812,-1.062 -0.771,0 -1.422,0.18 -1.956,0.54 -0.534,0.36 -0.962,0.832 -1.285,1.416 -0.322,0.583 -0.553,1.229 -0.688,1.937 -0.137,0.708 -0.205,1.41 -0.205,2.104 l -5.066,0 c -0.053,-1.49 0.121,-2.874 0.518,-4.153 z"
           inkscape:connector-curvature="0"
           style="fill:#005da3" /><path
           id="path63"
           d="m 849.99,65.509 c 0.521,-0.894 1.198,-1.639 2.03,-2.235 0.832,-0.596 1.77,-1.043 2.812,-1.341 1.042,-0.298 2.099,-0.447 3.166,-0.447 1.614,0 2.98,0.249 4.098,0.745 1.117,0.497 2.018,1.099 2.7,1.807 0.684,0.708 1.174,1.466 1.472,2.272 0.298,0.807 0.447,1.534 0.447,2.179 0,1.292 -0.316,2.421 -0.95,3.39 -0.633,0.968 -1.583,1.664 -2.85,2.086 l 0,0.074 c 1.564,0.348 2.769,1.087 3.613,2.217 0.844,1.13 1.267,2.514 1.267,4.153 0,1.391 -0.279,2.595 -0.838,3.613 -0.559,1.019 -1.298,1.862 -2.217,2.533 -0.919,0.671 -1.962,1.173 -3.129,1.509 -1.167,0.335 -2.359,0.503 -3.576,0.503 -1.267,0 -2.489,-0.156 -3.669,-0.466 -1.18,-0.31 -2.235,-0.801 -3.166,-1.471 -0.932,-0.67 -1.677,-1.515 -2.235,-2.533 -0.559,-1.018 -0.838,-2.235 -0.838,-3.65 0,-1.664 0.429,-3.055 1.285,-4.172 0.856,-1.118 2.067,-1.863 3.632,-2.235 l 0,-0.074 c -1.267,-0.348 -2.223,-1.006 -2.868,-1.974 -0.646,-0.969 -0.969,-2.099 -0.969,-3.39 10e-4,-1.168 0.261,-2.199 0.783,-3.093 z m 3.8,16.502 c 0.248,0.546 0.577,1.012 0.987,1.397 0.409,0.385 0.899,0.683 1.471,0.894 0.572,0.211 1.167,0.316 1.788,0.316 0.646,0 1.235,-0.105 1.77,-0.316 0.535,-0.211 1.006,-0.509 1.416,-0.894 0.409,-0.385 0.726,-0.851 0.949,-1.397 0.224,-0.546 0.336,-1.142 0.336,-1.788 0,-0.62 -0.118,-1.186 -0.354,-1.695 -0.236,-0.509 -0.559,-0.95 -0.969,-1.322 -0.409,-0.373 -0.881,-0.658 -1.415,-0.857 -0.534,-0.198 -1.111,-0.298 -1.732,-0.298 -1.291,0 -2.384,0.354 -3.277,1.062 -0.895,0.708 -1.342,1.732 -1.342,3.073 -10e-4,0.67 0.123,1.279 0.372,1.825 z m 1.415,-10.374 c 0.795,0.583 1.727,0.875 2.794,0.875 1.117,0 2.049,-0.292 2.794,-0.875 0.745,-0.583 1.117,-1.434 1.117,-2.552 0,-0.348 -0.05,-0.726 -0.148,-1.136 -0.1,-0.41 -0.292,-0.801 -0.578,-1.173 -0.285,-0.373 -0.683,-0.683 -1.191,-0.931 -0.51,-0.248 -1.174,-0.373 -1.993,-0.373 -0.521,0 -1.024,0.081 -1.509,0.242 -0.484,0.162 -0.912,0.391 -1.285,0.689 -0.372,0.298 -0.664,0.671 -0.875,1.118 -0.211,0.447 -0.316,0.969 -0.316,1.564 -0.002,1.118 0.395,1.968 1.19,2.552 z"
           inkscape:connector-curvature="0"
           style="fill:#005da3" /><path
           id="path65"
           d="m 883.575,70.948 c -1.056,1.738 -1.937,3.588 -2.645,5.55 -0.708,1.962 -1.254,3.949 -1.639,5.96 -0.386,2.011 -0.59,3.887 -0.615,5.625 l -5.661,0 c 0.298,-3.898 1.21,-7.648 2.737,-11.25 1.527,-3.601 3.532,-6.903 6.016,-9.909 l -12.366,0 0,-4.917 17.805,0 0,4.545 c -1.366,1.192 -2.577,2.657 -3.632,4.396 z"
           inkscape:connector-curvature="0"
           style="fill:#005da3" /><path
           id="path67"
           d="m 903.917,70.948 c -1.056,1.738 -1.937,3.588 -2.645,5.55 -0.708,1.962 -1.254,3.949 -1.639,5.96 -0.386,2.011 -0.59,3.887 -0.615,5.625 l -5.661,0 c 0.298,-3.898 1.21,-7.648 2.737,-11.25 1.527,-3.601 3.532,-6.903 6.016,-9.909 l -12.366,0 0,-4.917 17.805,0 0,4.545 c -1.365,1.192 -2.576,2.657 -3.632,4.396 z"
           inkscape:connector-curvature="0"
           style="fill:#005da3" /></g></g><g
       id="Layer_2"><g
         id="g70"><path
           id="path72"
           d="m 173.111,115.991 5.96,9.58 0.04,0 0,-9.58 2.94,0 0,14.28 -3.14,0 -5.94,-9.56 -0.04,0 0,9.56 -2.94,0 0,-14.28 3.12,0 z"
           inkscape:connector-curvature="0"
           style="fill:#231f20" /><path
           id="path74"
           d="m 187.551,127.791 c 0.426,0.414 1.04,0.62 1.84,0.62 0.573,0 1.066,-0.143 1.48,-0.43 0.413,-0.287 0.667,-0.59 0.76,-0.91 l 2.5,0 c -0.4,1.24 -1.014,2.127 -1.84,2.66 -0.827,0.534 -1.827,0.8 -3,0.8 -0.813,0 -1.547,-0.13 -2.2,-0.39 -0.654,-0.26 -1.207,-0.63 -1.66,-1.11 -0.454,-0.48 -0.803,-1.053 -1.05,-1.72 -0.247,-0.667 -0.37,-1.4 -0.37,-2.2 0,-0.773 0.126,-1.493 0.38,-2.16 0.253,-0.667 0.613,-1.243 1.08,-1.73 0.466,-0.487 1.023,-0.87 1.67,-1.15 0.646,-0.28 1.363,-0.42 2.15,-0.42 0.88,0 1.646,0.17 2.3,0.51 0.653,0.34 1.19,0.797 1.61,1.37 0.42,0.574 0.723,1.227 0.91,1.96 0.187,0.733 0.253,1.5 0.2,2.3 l -7.46,0 c 0.04,0.92 0.273,1.587 0.7,2 z m 3.21,-5.44 c -0.34,-0.373 -0.857,-0.56 -1.55,-0.56 -0.453,0 -0.83,0.077 -1.13,0.23 -0.3,0.153 -0.54,0.343 -0.72,0.57 -0.18,0.227 -0.307,0.467 -0.38,0.72 -0.073,0.253 -0.117,0.48 -0.13,0.68 l 4.62,0 c -0.134,-0.72 -0.37,-1.266 -0.71,-1.64 z"
           inkscape:connector-curvature="0"
           style="fill:#231f20" /><path
           id="path76"
           d="m 204.891,130.271 -1.84,-6.94 -0.04,0 -1.76,6.94 -2.94,0 -3.28,-10.34 3,0 1.9,7.02 0.04,0 1.72,-7.02 2.76,0 1.76,7 0.04,0 1.9,-7 2.92,0 -3.26,10.34 -2.92,0 z"
           inkscape:connector-curvature="0"
           style="fill:#231f20" /><path
           id="path78"
           d="m 217.95,119.931 0,1.9 -2.08,0 0,5.12 c 0,0.48 0.08,0.8 0.24,0.96 0.16,0.16 0.48,0.24 0.96,0.24 0.16,0 0.313,-0.006 0.46,-0.02 0.146,-0.013 0.287,-0.033 0.42,-0.06 l 0,2.2 c -0.24,0.04 -0.507,0.066 -0.8,0.08 -0.293,0.013 -0.58,0.02 -0.86,0.02 -0.44,0 -0.857,-0.03 -1.25,-0.09 -0.394,-0.06 -0.74,-0.176 -1.04,-0.35 -0.3,-0.173 -0.537,-0.42 -0.71,-0.74 -0.173,-0.32 -0.26,-0.74 -0.26,-1.26 l 0,-6.1 -1.72,0 0,-1.9 1.72,0 0,-3.1 2.84,0 0,3.1 2.08,0 z"
           inkscape:connector-curvature="0"
           style="fill:#231f20" /><path
           id="path80"
           d="m 219.371,122.861 c 0.253,-0.673 0.613,-1.247 1.08,-1.72 0.466,-0.473 1.026,-0.84 1.68,-1.1 0.653,-0.26 1.387,-0.39 2.2,-0.39 0.813,0 1.55,0.13 2.21,0.39 0.66,0.26 1.223,0.627 1.69,1.1 0.467,0.473 0.827,1.047 1.08,1.72 0.253,0.674 0.38,1.424 0.38,2.25 0,0.827 -0.127,1.574 -0.38,2.24 -0.253,0.667 -0.613,1.237 -1.08,1.71 -0.467,0.474 -1.03,0.837 -1.69,1.09 -0.66,0.253 -1.397,0.38 -2.21,0.38 -0.813,0 -1.547,-0.126 -2.2,-0.38 -0.653,-0.253 -1.213,-0.616 -1.68,-1.09 -0.467,-0.473 -0.827,-1.043 -1.08,-1.71 -0.253,-0.667 -0.38,-1.413 -0.38,-2.24 -0.001,-0.826 0.126,-1.576 0.38,-2.25 z m 2.58,3.46 c 0.08,0.394 0.216,0.747 0.41,1.06 0.193,0.313 0.45,0.563 0.77,0.75 0.32,0.187 0.72,0.28 1.2,0.28 0.48,0 0.883,-0.093 1.21,-0.28 0.327,-0.187 0.586,-0.437 0.78,-0.75 0.193,-0.313 0.33,-0.667 0.41,-1.06 0.08,-0.393 0.12,-0.796 0.12,-1.21 0,-0.413 -0.04,-0.82 -0.12,-1.22 -0.08,-0.4 -0.217,-0.753 -0.41,-1.06 -0.193,-0.307 -0.453,-0.557 -0.78,-0.75 -0.327,-0.193 -0.73,-0.29 -1.21,-0.29 -0.48,0 -0.88,0.097 -1.2,0.29 -0.32,0.193 -0.577,0.443 -0.77,0.75 -0.193,0.307 -0.33,0.66 -0.41,1.06 -0.08,0.4 -0.12,0.807 -0.12,1.22 0,0.413 0.04,0.817 0.12,1.21 z"
           inkscape:connector-curvature="0"
           style="fill:#231f20" /><path
           id="path82"
           d="m 234.23,119.931 0,1.44 0.06,0 c 0.36,-0.6 0.827,-1.037 1.4,-1.31 0.573,-0.273 1.16,-0.41 1.76,-0.41 0.76,0 1.383,0.104 1.87,0.31 0.486,0.207 0.87,0.494 1.15,0.86 0.28,0.367 0.477,0.813 0.59,1.34 0.113,0.527 0.17,1.11 0.17,1.75 l 0,6.36 -2.84,0 0,-5.84 c 0,-0.854 -0.133,-1.49 -0.4,-1.91 -0.267,-0.42 -0.74,-0.63 -1.42,-0.63 -0.773,0 -1.333,0.23 -1.68,0.69 -0.347,0.46 -0.52,1.217 -0.52,2.27 l 0,5.42 -2.84,0 0,-10.34 2.7,0 z"
           inkscape:connector-curvature="0"
           style="fill:#231f20" /><path
           id="path84"
           d="m 252.37,115.991 5.96,9.58 0.04,0 0,-9.58 2.94,0 0,14.28 -3.14,0 -5.94,-9.56 -0.04,0 0,9.56 -2.94,0 0,-14.28 3.12,0 z"
           inkscape:connector-curvature="0"
           style="fill:#231f20" /><path
           id="path86"
           d="m 263.83,122.861 c 0.253,-0.673 0.613,-1.247 1.08,-1.72 0.466,-0.473 1.026,-0.84 1.68,-1.1 0.653,-0.26 1.387,-0.39 2.2,-0.39 0.813,0 1.55,0.13 2.21,0.39 0.66,0.26 1.223,0.627 1.69,1.1 0.467,0.473 0.827,1.047 1.08,1.72 0.253,0.674 0.38,1.424 0.38,2.25 0,0.827 -0.127,1.574 -0.38,2.24 -0.253,0.667 -0.613,1.237 -1.08,1.71 -0.467,0.474 -1.03,0.837 -1.69,1.09 -0.66,0.253 -1.397,0.38 -2.21,0.38 -0.813,0 -1.547,-0.126 -2.2,-0.38 -0.653,-0.253 -1.213,-0.616 -1.68,-1.09 -0.467,-0.473 -0.827,-1.043 -1.08,-1.71 -0.253,-0.667 -0.38,-1.413 -0.38,-2.24 0,-0.826 0.127,-1.576 0.38,-2.25 z m 2.58,3.46 c 0.08,0.394 0.216,0.747 0.41,1.06 0.193,0.313 0.45,0.563 0.77,0.75 0.32,0.187 0.72,0.28 1.2,0.28 0.48,0 0.883,-0.093 1.21,-0.28 0.327,-0.187 0.586,-0.437 0.78,-0.75 0.193,-0.313 0.33,-0.667 0.41,-1.06 0.08,-0.393 0.12,-0.796 0.12,-1.21 0,-0.413 -0.04,-0.82 -0.12,-1.22 -0.08,-0.4 -0.217,-0.753 -0.41,-1.06 -0.193,-0.307 -0.453,-0.557 -0.78,-0.75 -0.327,-0.193 -0.73,-0.29 -1.21,-0.29 -0.48,0 -0.88,0.097 -1.2,0.29 -0.32,0.193 -0.577,0.443 -0.77,0.75 -0.193,0.307 -0.33,0.66 -0.41,1.06 -0.08,0.4 -0.12,0.807 -0.12,1.22 0,0.413 0.04,0.817 0.12,1.21 z"
           inkscape:connector-curvature="0"
           style="fill:#231f20" /><path
           id="path88"
           d="m 278.689,119.931 0,1.92 0.04,0 c 0.133,-0.32 0.313,-0.617 0.54,-0.89 0.227,-0.273 0.487,-0.506 0.78,-0.7 0.293,-0.193 0.606,-0.343 0.94,-0.45 0.333,-0.106 0.68,-0.16 1.04,-0.16 0.187,0 0.393,0.034 0.62,0.1 l 0,2.64 c -0.134,-0.027 -0.293,-0.05 -0.48,-0.07 -0.187,-0.02 -0.367,-0.03 -0.54,-0.03 -0.52,0 -0.96,0.087 -1.32,0.26 -0.36,0.174 -0.65,0.41 -0.87,0.71 -0.22,0.3 -0.376,0.65 -0.47,1.05 -0.094,0.4 -0.14,0.833 -0.14,1.3 l 0,4.66 -2.84,0 0,-10.34 2.7,0 z"
           inkscape:connector-curvature="0"
           style="fill:#231f20" /><path
           id="path90"
           d="m 289.449,119.931 0,1.9 -2.08,0 0,5.12 c 0,0.48 0.08,0.8 0.24,0.96 0.16,0.16 0.48,0.24 0.96,0.24 0.16,0 0.313,-0.006 0.46,-0.02 0.146,-0.013 0.287,-0.033 0.42,-0.06 l 0,2.2 c -0.24,0.04 -0.507,0.066 -0.8,0.08 -0.293,0.013 -0.58,0.02 -0.86,0.02 -0.44,0 -0.857,-0.03 -1.25,-0.09 -0.394,-0.06 -0.74,-0.176 -1.04,-0.35 -0.3,-0.173 -0.537,-0.42 -0.71,-0.74 -0.173,-0.32 -0.26,-0.74 -0.26,-1.26 l 0,-6.1 -1.72,0 0,-1.9 1.72,0 0,-3.1 2.84,0 0,3.1 2.08,0 z"
           inkscape:connector-curvature="0"
           style="fill:#231f20" /><path
           id="path92"
           d="m 293.649,115.991 0,5.38 0.06,0 c 0.36,-0.6 0.82,-1.037 1.38,-1.31 0.56,-0.273 1.107,-0.41 1.64,-0.41 0.76,0 1.383,0.104 1.87,0.31 0.486,0.207 0.87,0.494 1.15,0.86 0.28,0.367 0.477,0.813 0.59,1.34 0.113,0.527 0.17,1.11 0.17,1.75 l 0,6.36 -2.84,0 0,-5.84 c 0,-0.854 -0.133,-1.49 -0.4,-1.91 -0.267,-0.42 -0.74,-0.63 -1.42,-0.63 -0.773,0 -1.333,0.23 -1.68,0.69 -0.347,0.46 -0.52,1.217 -0.52,2.27 l 0,5.42 -2.84,0 0,-14.28 2.84,0 z"
           inkscape:connector-curvature="0"
           style="fill:#231f20" /><path
           id="path94"
           d="m 308.109,123.111 c 0.04,-0.667 0.207,-1.22 0.5,-1.66 0.293,-0.44 0.667,-0.793 1.12,-1.06 0.453,-0.267 0.963,-0.457 1.53,-0.57 0.567,-0.113 1.137,-0.17 1.71,-0.17 0.52,0 1.047,0.037 1.58,0.11 0.533,0.073 1.02,0.217 1.46,0.43 0.44,0.213 0.8,0.51 1.08,0.89 0.28,0.38 0.42,0.883 0.42,1.51 l 0,5.38 c 0,0.467 0.027,0.913 0.08,1.34 0.053,0.427 0.146,0.747 0.28,0.96 l -2.88,0 c -0.053,-0.16 -0.097,-0.323 -0.13,-0.49 -0.033,-0.167 -0.057,-0.336 -0.07,-0.51 -0.454,0.467 -0.987,0.793 -1.6,0.98 -0.613,0.187 -1.24,0.28 -1.88,0.28 -0.494,0 -0.954,-0.06 -1.38,-0.18 -0.426,-0.12 -0.8,-0.307 -1.12,-0.56 -0.32,-0.253 -0.57,-0.573 -0.75,-0.96 -0.18,-0.387 -0.27,-0.847 -0.27,-1.38 0,-0.587 0.103,-1.07 0.31,-1.45 0.207,-0.38 0.473,-0.683 0.8,-0.91 0.327,-0.227 0.7,-0.396 1.12,-0.51 0.42,-0.114 0.843,-0.203 1.27,-0.27 0.426,-0.066 0.846,-0.12 1.26,-0.16 0.413,-0.04 0.78,-0.1 1.1,-0.18 0.32,-0.08 0.573,-0.197 0.76,-0.35 0.187,-0.153 0.273,-0.376 0.26,-0.67 0,-0.307 -0.05,-0.55 -0.15,-0.73 -0.1,-0.18 -0.233,-0.32 -0.4,-0.42 -0.167,-0.1 -0.36,-0.167 -0.58,-0.2 -0.22,-0.033 -0.457,-0.05 -0.71,-0.05 -0.56,0 -1,0.12 -1.32,0.36 -0.32,0.24 -0.507,0.64 -0.56,1.2 l -2.84,0 z m 6.56,2.1 c -0.12,0.107 -0.27,0.19 -0.45,0.25 -0.18,0.06 -0.373,0.11 -0.58,0.15 -0.207,0.04 -0.424,0.074 -0.65,0.1 -0.227,0.027 -0.453,0.06 -0.68,0.1 -0.213,0.04 -0.424,0.093 -0.63,0.16 -0.206,0.067 -0.387,0.157 -0.54,0.27 -0.154,0.113 -0.277,0.257 -0.37,0.43 -0.094,0.173 -0.14,0.394 -0.14,0.66 0,0.253 0.046,0.467 0.14,0.64 0.093,0.173 0.22,0.31 0.38,0.41 0.16,0.1 0.347,0.17 0.56,0.21 0.213,0.04 0.433,0.06 0.66,0.06 0.56,0 0.993,-0.093 1.3,-0.28 0.307,-0.187 0.533,-0.41 0.68,-0.67 0.146,-0.26 0.236,-0.523 0.27,-0.79 0.033,-0.267 0.05,-0.48 0.05,-0.64 l 0,-1.06 z"
           inkscape:connector-curvature="0"
           style="fill:#231f20" /><path
           id="path96"
           d="m 322.409,119.931 0,1.44 0.06,0 c 0.36,-0.6 0.827,-1.037 1.4,-1.31 0.573,-0.273 1.16,-0.41 1.76,-0.41 0.76,0 1.383,0.104 1.87,0.31 0.486,0.207 0.87,0.494 1.15,0.86 0.28,0.367 0.477,0.813 0.59,1.34 0.113,0.527 0.17,1.11 0.17,1.75 l 0,6.36 -2.84,0 0,-5.84 c 0,-0.854 -0.133,-1.49 -0.4,-1.91 -0.267,-0.42 -0.74,-0.63 -1.42,-0.63 -0.773,0 -1.333,0.23 -1.68,0.69 -0.347,0.46 -0.52,1.217 -0.52,2.27 l 0,5.42 -2.84,0 0,-10.34 2.7,0 z"
           inkscape:connector-curvature="0"
           style="fill:#231f20" /><path
           id="path98"
           d="m 338.909,128.951 c -0.333,0.56 -0.77,0.963 -1.31,1.21 -0.54,0.247 -1.15,0.37 -1.83,0.37 -0.773,0 -1.453,-0.15 -2.04,-0.45 -0.587,-0.3 -1.07,-0.707 -1.45,-1.22 -0.38,-0.513 -0.667,-1.103 -0.86,-1.77 -0.194,-0.667 -0.29,-1.36 -0.29,-2.08 0,-0.693 0.096,-1.363 0.29,-2.01 0.193,-0.646 0.48,-1.216 0.86,-1.71 0.38,-0.493 0.856,-0.89 1.43,-1.19 0.573,-0.3 1.24,-0.45 2,-0.45 0.613,0 1.196,0.13 1.75,0.39 0.553,0.26 0.99,0.644 1.31,1.15 l 0.04,0 0,-5.2 2.84,0 0,14.28 -2.7,0 0,-1.32 -0.04,0 z m -0.12,-5.11 c -0.08,-0.393 -0.217,-0.74 -0.41,-1.04 -0.193,-0.3 -0.443,-0.543 -0.75,-0.73 -0.307,-0.187 -0.693,-0.28 -1.16,-0.28 -0.467,0 -0.86,0.093 -1.18,0.28 -0.32,0.187 -0.577,0.434 -0.77,0.74 -0.193,0.306 -0.333,0.657 -0.42,1.05 -0.087,0.394 -0.13,0.804 -0.13,1.23 0,0.4 0.046,0.8 0.14,1.2 0.093,0.4 0.243,0.757 0.45,1.07 0.207,0.313 0.467,0.567 0.78,0.76 0.313,0.193 0.69,0.29 1.13,0.29 0.467,0 0.856,-0.093 1.17,-0.28 0.313,-0.187 0.563,-0.437 0.75,-0.75 0.187,-0.313 0.32,-0.67 0.4,-1.07 0.08,-0.4 0.12,-0.813 0.12,-1.24 0,-0.426 -0.04,-0.837 -0.12,-1.23 z"
           inkscape:connector-curvature="0"
           style="fill:#231f20" /><path
           id="path100"
           d="m 352.048,126.751 c 0.173,0.333 0.403,0.604 0.69,0.81 0.286,0.207 0.623,0.36 1.01,0.46 0.387,0.1 0.787,0.15 1.2,0.15 0.28,0 0.58,-0.023 0.9,-0.07 0.32,-0.047 0.62,-0.137 0.9,-0.27 0.28,-0.133 0.513,-0.316 0.7,-0.55 0.187,-0.233 0.28,-0.53 0.28,-0.89 0,-0.387 -0.124,-0.7 -0.37,-0.94 -0.247,-0.24 -0.57,-0.44 -0.97,-0.6 -0.4,-0.16 -0.854,-0.3 -1.36,-0.42 -0.507,-0.12 -1.02,-0.253 -1.54,-0.4 -0.534,-0.133 -1.054,-0.296 -1.56,-0.49 -0.507,-0.193 -0.96,-0.443 -1.36,-0.75 -0.4,-0.307 -0.723,-0.69 -0.97,-1.15 -0.247,-0.46 -0.37,-1.017 -0.37,-1.67 0,-0.733 0.157,-1.37 0.47,-1.91 0.313,-0.54 0.723,-0.99 1.23,-1.35 0.506,-0.36 1.08,-0.626 1.72,-0.8 0.64,-0.173 1.28,-0.26 1.92,-0.26 0.747,0 1.463,0.083 2.15,0.25 0.687,0.167 1.296,0.437 1.83,0.81 0.533,0.374 0.957,0.85 1.27,1.43 0.313,0.58 0.47,1.283 0.47,2.11 l -3.04,0 c -0.027,-0.427 -0.117,-0.78 -0.27,-1.06 -0.153,-0.28 -0.357,-0.5 -0.61,-0.66 -0.253,-0.16 -0.543,-0.273 -0.87,-0.34 -0.327,-0.066 -0.684,-0.1 -1.07,-0.1 -0.253,0 -0.507,0.027 -0.76,0.08 -0.253,0.054 -0.483,0.147 -0.69,0.28 -0.207,0.133 -0.377,0.3 -0.51,0.5 -0.134,0.2 -0.2,0.453 -0.2,0.76 0,0.28 0.053,0.507 0.16,0.68 0.106,0.173 0.316,0.333 0.63,0.48 0.313,0.147 0.747,0.293 1.3,0.44 0.553,0.147 1.277,0.333 2.17,0.56 0.267,0.053 0.637,0.15 1.11,0.29 0.473,0.14 0.943,0.363 1.41,0.67 0.467,0.307 0.87,0.717 1.21,1.23 0.34,0.513 0.51,1.17 0.51,1.97 0,0.654 -0.127,1.26 -0.38,1.82 -0.253,0.56 -0.63,1.043 -1.13,1.45 -0.5,0.407 -1.12,0.724 -1.86,0.95 -0.74,0.227 -1.597,0.34 -2.57,0.34 -0.787,0 -1.55,-0.097 -2.29,-0.29 -0.74,-0.193 -1.394,-0.497 -1.96,-0.91 -0.567,-0.413 -1.017,-0.94 -1.35,-1.58 -0.333,-0.64 -0.493,-1.4 -0.48,-2.28 l 3.04,0 c 10e-4,0.48 0.087,0.887 0.26,1.22 z"
           inkscape:connector-curvature="0"
           style="fill:#231f20" /><path
           id="path102"
           d="m 362.388,122.861 c 0.253,-0.673 0.613,-1.247 1.08,-1.72 0.466,-0.473 1.026,-0.84 1.68,-1.1 0.653,-0.26 1.387,-0.39 2.2,-0.39 0.813,0 1.55,0.13 2.21,0.39 0.66,0.26 1.223,0.627 1.69,1.1 0.467,0.473 0.827,1.047 1.08,1.72 0.253,0.674 0.38,1.424 0.38,2.25 0,0.827 -0.127,1.574 -0.38,2.24 -0.253,0.667 -0.613,1.237 -1.08,1.71 -0.467,0.474 -1.03,0.837 -1.69,1.09 -0.66,0.253 -1.397,0.38 -2.21,0.38 -0.813,0 -1.547,-0.126 -2.2,-0.38 -0.653,-0.253 -1.213,-0.616 -1.68,-1.09 -0.467,-0.473 -0.827,-1.043 -1.08,-1.71 -0.253,-0.667 -0.38,-1.413 -0.38,-2.24 0,-0.826 0.127,-1.576 0.38,-2.25 z m 2.58,3.46 c 0.08,0.394 0.216,0.747 0.41,1.06 0.193,0.313 0.45,0.563 0.77,0.75 0.32,0.187 0.72,0.28 1.2,0.28 0.48,0 0.883,-0.093 1.21,-0.28 0.327,-0.187 0.586,-0.437 0.78,-0.75 0.193,-0.313 0.33,-0.667 0.41,-1.06 0.08,-0.393 0.12,-0.796 0.12,-1.21 0,-0.413 -0.04,-0.82 -0.12,-1.22 -0.08,-0.4 -0.217,-0.753 -0.41,-1.06 -0.193,-0.307 -0.453,-0.557 -0.78,-0.75 -0.327,-0.193 -0.73,-0.29 -1.21,-0.29 -0.48,0 -0.88,0.097 -1.2,0.29 -0.32,0.193 -0.577,0.443 -0.77,0.75 -0.193,0.307 -0.33,0.66 -0.41,1.06 -0.08,0.4 -0.12,0.807 -0.12,1.22 0,0.413 0.04,0.817 0.12,1.21 z"
           inkscape:connector-curvature="0"
           style="fill:#231f20" /><path
           id="path104"
           d="m 381.548,130.271 0,-1.44 -0.06,0 c -0.36,0.6 -0.827,1.033 -1.4,1.3 -0.574,0.267 -1.16,0.4 -1.76,0.4 -0.76,0 -1.383,-0.1 -1.87,-0.3 -0.487,-0.2 -0.87,-0.483 -1.15,-0.85 -0.28,-0.366 -0.477,-0.813 -0.59,-1.34 -0.113,-0.526 -0.17,-1.11 -0.17,-1.75 l 0,-6.36 2.84,0 0,5.84 c 0,0.854 0.133,1.49 0.4,1.91 0.267,0.42 0.74,0.63 1.42,0.63 0.773,0 1.333,-0.23 1.68,-0.69 0.347,-0.46 0.52,-1.217 0.52,-2.27 l 0,-5.42 2.84,0 0,10.34 -2.7,0 z"
           inkscape:connector-curvature="0"
           style="fill:#231f20" /><path
           id="path106"
           d="m 392.087,119.931 0,1.9 -2.08,0 0,5.12 c 0,0.48 0.08,0.8 0.24,0.96 0.16,0.16 0.48,0.24 0.96,0.24 0.16,0 0.313,-0.006 0.46,-0.02 0.146,-0.013 0.287,-0.033 0.42,-0.06 l 0,2.2 c -0.24,0.04 -0.507,0.066 -0.8,0.08 -0.293,0.013 -0.58,0.02 -0.86,0.02 -0.44,0 -0.857,-0.03 -1.25,-0.09 -0.394,-0.06 -0.74,-0.176 -1.04,-0.35 -0.3,-0.173 -0.537,-0.42 -0.71,-0.74 -0.173,-0.32 -0.26,-0.74 -0.26,-1.26 l 0,-6.1 -1.72,0 0,-1.9 1.72,0 0,-3.1 2.84,0 0,3.1 2.08,0 z"
           inkscape:connector-curvature="0"
           style="fill:#231f20" /><path
           id="path108"
           d="m 396.288,115.991 0,5.38 0.06,0 c 0.36,-0.6 0.82,-1.037 1.38,-1.31 0.56,-0.273 1.107,-0.41 1.64,-0.41 0.76,0 1.383,0.104 1.87,0.31 0.486,0.207 0.87,0.494 1.149,0.86 0.28,0.367 0.477,0.813 0.591,1.34 0.112,0.527 0.17,1.11 0.17,1.75 l 0,6.36 -2.84,0 0,-5.84 c 0,-0.854 -0.134,-1.49 -0.4,-1.91 -0.266,-0.42 -0.74,-0.63 -1.42,-0.63 -0.773,0 -1.333,0.23 -1.68,0.69 -0.347,0.46 -0.52,1.217 -0.52,2.27 l 0,5.42 -2.84,0 0,-14.28 2.84,0 z"
           inkscape:connector-curvature="0"
           style="fill:#231f20" /><path
           id="path110"
           d="m 414.307,115.991 0,5.48 5.78,0 0,-5.48 3.141,0 0,14.28 -3.141,0 0,-6.16 -5.78,0 0,6.16 -3.14,0 0,-14.28 3.14,0 z"
           inkscape:connector-curvature="0"
           style="fill:#231f20" /><path
           id="path112"
           d="m 425.767,118.331 0,-2.34 2.84,0 0,2.34 -2.84,0 z m 2.84,1.6 0,10.34 -2.84,0 0,-10.34 2.84,0 z"
           inkscape:connector-curvature="0"
           style="fill:#231f20" /><path
           id="path114"
           d="m 440.617,131.031 c -0.113,0.533 -0.356,1.03 -0.729,1.49 -0.374,0.46 -0.913,0.85 -1.62,1.17 -0.707,0.32 -1.653,0.48 -2.84,0.48 -0.507,0 -1.023,-0.063 -1.55,-0.19 -0.527,-0.127 -1.007,-0.323 -1.44,-0.59 -0.434,-0.267 -0.793,-0.61 -1.08,-1.03 -0.287,-0.42 -0.45,-0.923 -0.49,-1.51 l 2.82,0 c 0.133,0.533 0.394,0.903 0.78,1.11 0.387,0.207 0.833,0.31 1.34,0.31 0.8,0 1.383,-0.24 1.75,-0.72 0.366,-0.48 0.543,-1.086 0.53,-1.82 l 0,-1.36 -0.04,0 c -0.308,0.547 -0.744,0.95 -1.311,1.21 -0.566,0.26 -1.163,0.39 -1.79,0.39 -0.773,0 -1.439,-0.137 -2,-0.41 -0.56,-0.273 -1.02,-0.646 -1.38,-1.12 -0.359,-0.473 -0.623,-1.026 -0.79,-1.66 -0.167,-0.633 -0.25,-1.303 -0.25,-2.01 0,-0.667 0.097,-1.31 0.29,-1.93 0.193,-0.62 0.477,-1.167 0.851,-1.64 0.373,-0.473 0.836,-0.85 1.39,-1.13 0.553,-0.28 1.19,-0.42 1.91,-0.42 0.68,0 1.276,0.127 1.79,0.38 0.513,0.254 0.943,0.68 1.29,1.28 l 0.04,0 0,-1.38 2.699,0 0,9.68 c 0,0.413 -0.057,0.887 -0.17,1.42 z m -3.89,-3.44 c 0.307,-0.16 0.56,-0.373 0.76,-0.64 0.2,-0.267 0.351,-0.57 0.45,-0.91 0.099,-0.34 0.15,-0.697 0.15,-1.07 0,-0.427 -0.04,-0.83 -0.12,-1.21 -0.08,-0.38 -0.214,-0.717 -0.4,-1.01 -0.187,-0.293 -0.434,-0.526 -0.74,-0.7 -0.307,-0.173 -0.693,-0.26 -1.159,-0.26 -0.4,0 -0.744,0.08 -1.03,0.24 -0.287,0.16 -0.527,0.377 -0.72,0.65 -0.193,0.273 -0.334,0.587 -0.42,0.94 -0.087,0.354 -0.131,0.723 -0.131,1.11 0,0.374 0.037,0.744 0.11,1.11 0.073,0.367 0.2,0.697 0.38,0.99 0.18,0.293 0.417,0.533 0.71,0.72 0.293,0.187 0.66,0.28 1.101,0.28 0.399,0 0.752,-0.08 1.059,-0.24 z"
           inkscape:connector-curvature="0"
           style="fill:#231f20" /><path
           id="path116"
           d="m 445.907,115.991 0,5.38 0.061,0 c 0.359,-0.6 0.819,-1.037 1.38,-1.31 0.56,-0.273 1.106,-0.41 1.64,-0.41 0.76,0 1.383,0.104 1.87,0.31 0.486,0.207 0.87,0.494 1.149,0.86 0.28,0.367 0.477,0.813 0.591,1.34 0.112,0.527 0.17,1.11 0.17,1.75 l 0,6.36 -2.84,0 0,-5.84 c 0,-0.854 -0.134,-1.49 -0.4,-1.91 -0.266,-0.42 -0.74,-0.63 -1.42,-0.63 -0.773,0 -1.334,0.23 -1.68,0.69 -0.348,0.46 -0.521,1.217 -0.521,2.27 l 0,5.42 -2.84,0 0,-14.28 2.84,0 z"
           inkscape:connector-curvature="0"
           style="fill:#231f20" /><path
           id="path118"
           d="m 463.187,126.751 c 0.173,0.333 0.403,0.604 0.689,0.81 0.287,0.207 0.623,0.36 1.011,0.46 0.386,0.1 0.786,0.15 1.199,0.15 0.28,0 0.58,-0.023 0.9,-0.07 0.32,-0.047 0.62,-0.137 0.9,-0.27 0.279,-0.133 0.513,-0.316 0.699,-0.55 0.187,-0.233 0.28,-0.53 0.28,-0.89 0,-0.387 -0.123,-0.7 -0.37,-0.94 -0.247,-0.24 -0.57,-0.44 -0.97,-0.6 -0.4,-0.16 -0.854,-0.3 -1.36,-0.42 -0.507,-0.12 -1.02,-0.253 -1.54,-0.4 -0.533,-0.133 -1.053,-0.296 -1.56,-0.49 -0.507,-0.194 -0.96,-0.443 -1.36,-0.75 -0.399,-0.307 -0.724,-0.69 -0.97,-1.15 -0.247,-0.46 -0.37,-1.017 -0.37,-1.67 0,-0.733 0.156,-1.37 0.47,-1.91 0.314,-0.54 0.724,-0.99 1.23,-1.35 0.506,-0.36 1.08,-0.626 1.72,-0.8 0.64,-0.174 1.28,-0.26 1.92,-0.26 0.747,0 1.463,0.083 2.15,0.25 0.687,0.167 1.296,0.437 1.83,0.81 0.533,0.374 0.956,0.85 1.27,1.43 0.314,0.58 0.47,1.283 0.47,2.11 l -3.039,0 c -0.027,-0.427 -0.117,-0.78 -0.271,-1.06 -0.153,-0.28 -0.356,-0.5 -0.61,-0.66 -0.253,-0.16 -0.543,-0.273 -0.869,-0.34 -0.327,-0.066 -0.684,-0.1 -1.07,-0.1 -0.254,0 -0.507,0.027 -0.76,0.08 -0.254,0.054 -0.483,0.147 -0.69,0.28 -0.207,0.133 -0.377,0.3 -0.51,0.5 -0.134,0.2 -0.2,0.453 -0.2,0.76 0,0.28 0.053,0.507 0.16,0.68 0.106,0.173 0.316,0.333 0.63,0.48 0.313,0.147 0.746,0.293 1.3,0.44 0.554,0.147 1.276,0.333 2.17,0.56 0.267,0.053 0.637,0.15 1.11,0.29 0.473,0.14 0.943,0.363 1.41,0.67 0.466,0.307 0.87,0.717 1.21,1.23 0.34,0.513 0.51,1.17 0.51,1.97 0,0.654 -0.127,1.26 -0.38,1.82 -0.254,0.56 -0.63,1.043 -1.13,1.45 -0.5,0.407 -1.12,0.724 -1.86,0.95 -0.74,0.226 -1.597,0.34 -2.57,0.34 -0.786,0 -1.55,-0.097 -2.29,-0.29 -0.739,-0.193 -1.393,-0.497 -1.96,-0.91 -0.566,-0.413 -1.017,-0.94 -1.35,-1.58 -0.333,-0.64 -0.493,-1.4 -0.479,-2.28 l 3.039,0 c 0,0.48 0.087,0.887 0.261,1.22 z"
           inkscape:connector-curvature="0"
           style="fill:#231f20" /><path
           id="path120"
           d="m 478.406,121.791 c -0.453,0 -0.833,0.104 -1.14,0.31 -0.307,0.207 -0.557,0.473 -0.75,0.8 -0.193,0.327 -0.33,0.687 -0.41,1.08 -0.08,0.394 -0.12,0.784 -0.12,1.17 0,0.374 0.04,0.753 0.12,1.14 0.08,0.387 0.21,0.737 0.391,1.05 0.18,0.313 0.423,0.57 0.729,0.77 0.307,0.2 0.68,0.3 1.12,0.3 0.68,0 1.203,-0.19 1.57,-0.57 0.366,-0.38 0.597,-0.89 0.689,-1.53 l 2.74,0 c -0.187,1.374 -0.72,2.42 -1.6,3.14 -0.88,0.72 -2.007,1.08 -3.38,1.08 -0.773,0 -1.484,-0.13 -2.131,-0.39 -0.646,-0.26 -1.196,-0.623 -1.649,-1.09 -0.454,-0.466 -0.807,-1.023 -1.061,-1.67 -0.253,-0.646 -0.38,-1.356 -0.38,-2.13 0,-0.8 0.117,-1.543 0.351,-2.23 0.232,-0.687 0.576,-1.28 1.029,-1.78 0.453,-0.5 1.007,-0.89 1.66,-1.17 0.653,-0.28 1.4,-0.42 2.24,-0.42 0.613,0 1.203,0.08 1.77,0.24 0.567,0.16 1.073,0.403 1.521,0.73 0.446,0.327 0.81,0.733 1.09,1.22 0.28,0.487 0.44,1.063 0.48,1.73 l -2.78,0 c -0.185,-1.187 -0.885,-1.78 -2.099,-1.78 z"
           inkscape:connector-curvature="0"
           style="fill:#231f20" /><path
           id="path122"
           d="m 487.787,115.991 0,5.38 0.061,0 c 0.359,-0.6 0.819,-1.037 1.38,-1.31 0.56,-0.273 1.106,-0.41 1.64,-0.41 0.76,0 1.383,0.104 1.87,0.31 0.486,0.207 0.87,0.494 1.149,0.86 0.28,0.367 0.477,0.813 0.591,1.34 0.112,0.527 0.17,1.11 0.17,1.75 l 0,6.36 -2.84,0 0,-5.84 c 0,-0.854 -0.134,-1.49 -0.4,-1.91 -0.266,-0.42 -0.74,-0.63 -1.42,-0.63 -0.773,0 -1.334,0.23 -1.68,0.69 -0.348,0.46 -0.521,1.217 -0.521,2.27 l 0,5.42 -2.84,0 0,-14.28 2.84,0 z"
           inkscape:connector-curvature="0"
           style="fill:#231f20" /><path
           id="path124"
           d="m 496.866,122.861 c 0.254,-0.673 0.613,-1.247 1.08,-1.72 0.467,-0.473 1.026,-0.84 1.681,-1.1 0.652,-0.26 1.386,-0.39 2.199,-0.39 0.813,0 1.551,0.13 2.21,0.39 0.66,0.26 1.224,0.627 1.69,1.1 0.466,0.473 0.826,1.047 1.08,1.72 0.253,0.674 0.38,1.424 0.38,2.25 0,0.827 -0.127,1.574 -0.38,2.24 -0.254,0.667 -0.613,1.237 -1.08,1.71 -0.467,0.474 -1.03,0.837 -1.69,1.09 -0.659,0.253 -1.396,0.38 -2.21,0.38 -0.814,0 -1.547,-0.126 -2.199,-0.38 -0.654,-0.253 -1.214,-0.616 -1.681,-1.09 -0.467,-0.473 -0.826,-1.043 -1.08,-1.71 -0.253,-0.667 -0.38,-1.413 -0.38,-2.24 0,-0.826 0.127,-1.576 0.38,-2.25 z m 2.58,3.46 c 0.08,0.394 0.217,0.747 0.41,1.06 0.193,0.313 0.45,0.563 0.771,0.75 0.319,0.187 0.72,0.28 1.199,0.28 0.48,0 0.884,-0.093 1.21,-0.28 0.327,-0.187 0.587,-0.437 0.78,-0.75 0.193,-0.313 0.33,-0.667 0.41,-1.06 0.08,-0.393 0.12,-0.796 0.12,-1.21 0,-0.413 -0.04,-0.82 -0.12,-1.22 -0.08,-0.4 -0.217,-0.753 -0.41,-1.06 -0.193,-0.307 -0.453,-0.557 -0.78,-0.75 -0.326,-0.193 -0.729,-0.29 -1.21,-0.29 -0.479,0 -0.88,0.097 -1.199,0.29 -0.32,0.193 -0.577,0.443 -0.771,0.75 -0.194,0.307 -0.33,0.66 -0.41,1.06 -0.08,0.4 -0.12,0.807 -0.12,1.22 0,0.413 0.04,0.817 0.12,1.21 z"
           inkscape:connector-curvature="0"
           style="fill:#231f20" /><path
           id="path126"
           d="m 509.085,122.861 c 0.254,-0.673 0.613,-1.247 1.08,-1.72 0.467,-0.473 1.026,-0.84 1.681,-1.1 0.652,-0.26 1.386,-0.39 2.199,-0.39 0.813,0 1.551,0.13 2.21,0.39 0.66,0.26 1.224,0.627 1.69,1.1 0.466,0.473 0.826,1.047 1.08,1.72 0.253,0.674 0.38,1.424 0.38,2.25 0,0.827 -0.127,1.574 -0.38,2.24 -0.254,0.667 -0.613,1.237 -1.08,1.71 -0.467,0.474 -1.03,0.837 -1.69,1.09 -0.659,0.253 -1.396,0.38 -2.21,0.38 -0.814,0 -1.547,-0.126 -2.199,-0.38 -0.654,-0.253 -1.214,-0.616 -1.681,-1.09 -0.467,-0.473 -0.826,-1.043 -1.08,-1.71 -0.253,-0.667 -0.38,-1.413 -0.38,-2.24 0.001,-0.826 0.128,-1.576 0.38,-2.25 z m 2.581,3.46 c 0.08,0.394 0.217,0.747 0.41,1.06 0.193,0.313 0.45,0.563 0.771,0.75 0.319,0.187 0.72,0.28 1.199,0.28 0.48,0 0.884,-0.093 1.21,-0.28 0.327,-0.187 0.587,-0.437 0.78,-0.75 0.193,-0.313 0.33,-0.667 0.41,-1.06 0.08,-0.393 0.12,-0.796 0.12,-1.21 0,-0.413 -0.04,-0.82 -0.12,-1.22 -0.08,-0.4 -0.217,-0.753 -0.41,-1.06 -0.193,-0.307 -0.453,-0.557 -0.78,-0.75 -0.326,-0.193 -0.729,-0.29 -1.21,-0.29 -0.479,0 -0.88,0.097 -1.199,0.29 -0.32,0.193 -0.577,0.443 -0.771,0.75 -0.194,0.307 -0.33,0.66 -0.41,1.06 -0.08,0.4 -0.12,0.807 -0.12,1.22 -10e-4,0.413 0.039,0.817 0.12,1.21 z"
           inkscape:connector-curvature="0"
           style="fill:#231f20" /><path
           id="path128"
           d="m 524.166,115.991 0,14.28 -2.84,0 0,-14.28 2.84,0 z"
           inkscape:connector-curvature="0"
           style="fill:#231f20" /><path
           id="path130"
           d="m 528.795,127.701 c 0.127,0.22 0.29,0.4 0.49,0.54 0.2,0.14 0.43,0.243 0.69,0.31 0.26,0.067 0.529,0.1 0.81,0.1 0.2,0 0.41,-0.023 0.63,-0.07 0.22,-0.046 0.42,-0.12 0.601,-0.22 0.18,-0.1 0.329,-0.233 0.449,-0.4 0.12,-0.167 0.181,-0.376 0.181,-0.63 0,-0.427 -0.284,-0.747 -0.851,-0.96 -0.567,-0.213 -1.356,-0.427 -2.37,-0.64 -0.413,-0.093 -0.816,-0.203 -1.21,-0.33 -0.394,-0.126 -0.743,-0.293 -1.05,-0.5 -0.307,-0.207 -0.554,-0.466 -0.74,-0.78 -0.187,-0.313 -0.279,-0.697 -0.279,-1.15 0,-0.667 0.13,-1.213 0.39,-1.64 0.26,-0.427 0.604,-0.763 1.03,-1.01 0.427,-0.247 0.906,-0.42 1.439,-0.52 0.533,-0.1 1.08,-0.15 1.641,-0.15 0.56,0 1.103,0.054 1.63,0.16 0.526,0.107 0.996,0.287 1.41,0.54 0.413,0.253 0.756,0.59 1.029,1.01 0.273,0.42 0.437,0.95 0.49,1.59 l -2.7,0 c -0.04,-0.547 -0.246,-0.917 -0.62,-1.11 -0.373,-0.193 -0.813,-0.29 -1.319,-0.29 -0.16,0 -0.334,0.01 -0.521,0.03 -0.187,0.02 -0.356,0.063 -0.51,0.13 -0.153,0.067 -0.283,0.164 -0.39,0.29 -0.107,0.127 -0.16,0.297 -0.16,0.51 0,0.253 0.093,0.46 0.28,0.62 0.187,0.16 0.43,0.29 0.729,0.39 0.299,0.1 0.644,0.19 1.03,0.27 0.386,0.08 0.78,0.167 1.18,0.26 0.413,0.094 0.816,0.207 1.21,0.34 0.394,0.133 0.743,0.31 1.05,0.53 0.307,0.22 0.554,0.494 0.74,0.82 0.186,0.326 0.28,0.73 0.28,1.21 0,0.68 -0.137,1.25 -0.41,1.71 -0.273,0.46 -0.63,0.83 -1.07,1.11 -0.439,0.28 -0.943,0.477 -1.51,0.59 -0.566,0.113 -1.144,0.17 -1.729,0.17 -0.601,0 -1.188,-0.06 -1.761,-0.18 -0.573,-0.12 -1.083,-0.32 -1.529,-0.6 -0.447,-0.28 -0.813,-0.65 -1.101,-1.11 -0.288,-0.46 -0.443,-1.037 -0.47,-1.73 l 2.7,0 c 0.002,0.307 0.064,0.57 0.191,0.79 z"
           inkscape:connector-curvature="0"
           style="fill:#231f20" /><path
           id="path132"
           d="m 560.016,128.271 -6.938,0 0,-6.938 6.938,0 0,6.938 z"
           inkscape:connector-curvature="0"
           style="fill:#e67425" /><path
           id="path134"
           d="m 581.538,115.991 5.96,9.58 0.04,0 0,-9.58 2.94,0 0,14.28 -3.141,0 -5.939,-9.56 -0.04,0 0,9.56 -2.94,0 0,-14.28 3.12,0 z"
           inkscape:connector-curvature="0"
           style="fill:#231f20" /><path
           id="path136"
           d="m 595.978,127.791 c 0.427,0.414 1.04,0.62 1.84,0.62 0.573,0 1.066,-0.143 1.48,-0.43 0.413,-0.287 0.666,-0.59 0.76,-0.91 l 2.5,0 c -0.4,1.24 -1.014,2.127 -1.84,2.66 -0.827,0.534 -1.827,0.8 -3,0.8 -0.813,0 -1.547,-0.13 -2.2,-0.39 -0.653,-0.26 -1.207,-0.63 -1.66,-1.11 -0.453,-0.48 -0.804,-1.053 -1.05,-1.72 -0.247,-0.667 -0.37,-1.4 -0.37,-2.2 0,-0.773 0.127,-1.493 0.38,-2.16 0.253,-0.667 0.613,-1.243 1.08,-1.73 0.467,-0.487 1.023,-0.87 1.67,-1.15 0.646,-0.28 1.363,-0.42 2.15,-0.42 0.88,0 1.646,0.17 2.3,0.51 0.653,0.34 1.189,0.797 1.609,1.37 0.421,0.574 0.724,1.227 0.91,1.96 0.186,0.733 0.254,1.5 0.2,2.3 l -7.46,0 c 0.041,0.92 0.274,1.587 0.701,2 z m 3.21,-5.44 c -0.34,-0.373 -0.857,-0.56 -1.55,-0.56 -0.454,0 -0.83,0.077 -1.13,0.23 -0.301,0.153 -0.54,0.343 -0.721,0.57 -0.18,0.227 -0.307,0.467 -0.38,0.72 -0.073,0.253 -0.116,0.48 -0.13,0.68 l 4.62,0 c -0.133,-0.72 -0.369,-1.266 -0.709,-1.64 z"
           inkscape:connector-curvature="0"
           style="fill:#231f20" /><path
           id="path138"
           d="m 613.318,130.271 -1.841,-6.94 -0.04,0 -1.76,6.94 -2.939,0 -3.28,-10.34 3,0 1.899,7.02 0.04,0 1.721,-7.02 2.76,0 1.76,7 0.04,0 1.9,-7 2.92,0 -3.26,10.34 -2.92,0 z"
           inkscape:connector-curvature="0"
           style="fill:#231f20" /><path
           id="path140"
           d="m 626.377,119.931 0,1.9 -2.08,0 0,5.12 c 0,0.48 0.08,0.8 0.24,0.96 0.16,0.16 0.48,0.24 0.96,0.24 0.16,0 0.313,-0.006 0.46,-0.02 0.146,-0.013 0.287,-0.033 0.42,-0.06 l 0,2.2 c -0.24,0.04 -0.507,0.066 -0.8,0.08 -0.293,0.013 -0.58,0.02 -0.86,0.02 -0.439,0 -0.856,-0.03 -1.25,-0.09 -0.393,-0.06 -0.739,-0.176 -1.04,-0.35 -0.3,-0.173 -0.536,-0.42 -0.71,-0.74 -0.173,-0.32 -0.26,-0.74 -0.26,-1.26 l 0,-6.1 -1.72,0 0,-1.9 1.72,0 0,-3.1 2.84,0 0,3.1 2.08,0 z"
           inkscape:connector-curvature="0"
           style="fill:#231f20" /><path
           id="path142"
           d="m 627.796,122.861 c 0.254,-0.673 0.613,-1.247 1.08,-1.72 0.467,-0.473 1.026,-0.84 1.681,-1.1 0.652,-0.26 1.386,-0.39 2.199,-0.39 0.813,0 1.551,0.13 2.21,0.39 0.66,0.26 1.224,0.627 1.69,1.1 0.466,0.473 0.826,1.047 1.08,1.72 0.253,0.674 0.38,1.424 0.38,2.25 0,0.827 -0.127,1.574 -0.38,2.24 -0.254,0.667 -0.613,1.237 -1.08,1.71 -0.467,0.474 -1.03,0.837 -1.69,1.09 -0.659,0.253 -1.396,0.38 -2.21,0.38 -0.814,0 -1.547,-0.126 -2.199,-0.38 -0.654,-0.253 -1.214,-0.616 -1.681,-1.09 -0.467,-0.473 -0.826,-1.043 -1.08,-1.71 -0.253,-0.667 -0.38,-1.413 -0.38,-2.24 10e-4,-0.826 0.127,-1.576 0.38,-2.25 z m 2.58,3.46 c 0.08,0.394 0.217,0.747 0.41,1.06 0.193,0.313 0.45,0.563 0.771,0.75 0.319,0.187 0.72,0.28 1.199,0.28 0.48,0 0.884,-0.093 1.21,-0.28 0.327,-0.187 0.587,-0.437 0.78,-0.75 0.193,-0.313 0.33,-0.667 0.41,-1.06 0.08,-0.393 0.12,-0.796 0.12,-1.21 0,-0.413 -0.04,-0.82 -0.12,-1.22 -0.08,-0.4 -0.217,-0.753 -0.41,-1.06 -0.193,-0.307 -0.453,-0.557 -0.78,-0.75 -0.326,-0.193 -0.729,-0.29 -1.21,-0.29 -0.479,0 -0.88,0.097 -1.199,0.29 -0.32,0.193 -0.577,0.443 -0.771,0.75 -0.194,0.307 -0.33,0.66 -0.41,1.06 -0.08,0.4 -0.12,0.807 -0.12,1.22 0,0.413 0.04,0.817 0.12,1.21 z"
           inkscape:connector-curvature="0"
           style="fill:#231f20" /><path
           id="path144"
           d="m 642.658,119.931 0,1.44 0.06,0 c 0.36,-0.6 0.827,-1.037 1.4,-1.31 0.573,-0.273 1.16,-0.41 1.76,-0.41 0.76,0 1.383,0.104 1.87,0.31 0.486,0.207 0.87,0.494 1.149,0.86 0.28,0.367 0.477,0.813 0.591,1.34 0.112,0.527 0.17,1.11 0.17,1.75 l 0,6.36 -2.84,0 0,-5.84 c 0,-0.854 -0.134,-1.49 -0.4,-1.91 -0.266,-0.42 -0.74,-0.63 -1.42,-0.63 -0.773,0 -1.334,0.23 -1.68,0.69 -0.348,0.46 -0.521,1.217 -0.521,2.27 l 0,5.42 -2.84,0 0,-10.34 2.701,0 z"
           inkscape:connector-curvature="0"
           style="fill:#231f20" /><path
           id="path146"
           d="m 655.097,127.191 0,3.08 c 0,0.453 -0.084,0.87 -0.25,1.25 -0.167,0.38 -0.391,0.71 -0.67,0.99 -0.28,0.28 -0.61,0.51 -0.99,0.69 -0.38,0.18 -0.783,0.303 -1.21,0.37 l 0,-1.44 c 0.2,-0.04 0.39,-0.12 0.569,-0.24 0.181,-0.12 0.337,-0.264 0.471,-0.43 0.133,-0.167 0.232,-0.354 0.3,-0.56 0.066,-0.207 0.093,-0.417 0.08,-0.63 l -1.44,0 0,-3.08 3.14,0 z"
           inkscape:connector-curvature="0"
           style="fill:#231f20" /><path
           id="path148"
           d="m 667.657,115.991 3.34,9.82 0.04,0 3.16,-9.82 4.42,0 0,14.28 -2.939,0 0,-10.12 -0.04,0 -3.5,10.12 -2.42,0 -3.5,-10.02 -0.04,0 0,10.02 -2.94,0 0,-14.28 4.419,0 z"
           inkscape:connector-curvature="0"
           style="fill:#231f20" /><path
           id="path150"
           d="m 680.957,123.111 c 0.04,-0.667 0.207,-1.22 0.5,-1.66 0.293,-0.44 0.667,-0.793 1.12,-1.06 0.453,-0.267 0.963,-0.457 1.53,-0.57 0.566,-0.113 1.136,-0.17 1.71,-0.17 0.52,0 1.046,0.037 1.58,0.11 0.533,0.073 1.02,0.217 1.46,0.43 0.439,0.213 0.8,0.51 1.08,0.89 0.279,0.38 0.42,0.883 0.42,1.51 l 0,5.38 c 0,0.467 0.026,0.913 0.08,1.34 0.053,0.427 0.146,0.747 0.279,0.96 l -2.88,0 c -0.054,-0.16 -0.097,-0.323 -0.13,-0.49 -0.033,-0.167 -0.057,-0.336 -0.07,-0.51 -0.453,0.467 -0.986,0.793 -1.6,0.98 -0.614,0.187 -1.24,0.28 -1.88,0.28 -0.493,0 -0.953,-0.06 -1.38,-0.18 -0.427,-0.12 -0.8,-0.307 -1.12,-0.56 -0.32,-0.253 -0.57,-0.573 -0.75,-0.96 -0.18,-0.387 -0.271,-0.847 -0.271,-1.38 0,-0.587 0.104,-1.07 0.311,-1.45 0.206,-0.38 0.473,-0.683 0.8,-0.91 0.326,-0.227 0.7,-0.396 1.12,-0.51 0.42,-0.114 0.843,-0.203 1.27,-0.27 0.427,-0.066 0.847,-0.12 1.261,-0.16 0.413,-0.04 0.779,-0.1 1.1,-0.18 0.32,-0.08 0.573,-0.197 0.76,-0.35 0.187,-0.153 0.273,-0.376 0.26,-0.67 0,-0.307 -0.05,-0.55 -0.149,-0.73 -0.101,-0.18 -0.233,-0.32 -0.4,-0.42 -0.167,-0.1 -0.359,-0.167 -0.58,-0.2 -0.22,-0.033 -0.456,-0.05 -0.71,-0.05 -0.56,0 -1,0.12 -1.319,0.36 -0.32,0.24 -0.507,0.64 -0.561,1.2 l -2.841,0 z m 6.559,2.1 c -0.119,0.107 -0.27,0.19 -0.449,0.25 -0.181,0.06 -0.374,0.11 -0.58,0.15 -0.207,0.04 -0.424,0.074 -0.65,0.1 -0.227,0.027 -0.453,0.06 -0.68,0.1 -0.214,0.04 -0.424,0.093 -0.63,0.16 -0.207,0.067 -0.387,0.157 -0.54,0.27 -0.153,0.113 -0.277,0.257 -0.37,0.43 -0.094,0.173 -0.14,0.394 -0.14,0.66 0,0.253 0.046,0.467 0.14,0.64 0.093,0.173 0.22,0.31 0.38,0.41 0.16,0.1 0.347,0.17 0.56,0.21 0.214,0.04 0.434,0.06 0.66,0.06 0.561,0 0.993,-0.093 1.3,-0.28 0.307,-0.187 0.533,-0.41 0.681,-0.67 0.146,-0.26 0.236,-0.523 0.27,-0.79 0.034,-0.267 0.05,-0.48 0.05,-0.64 l 0,-1.06 z"
           inkscape:connector-curvature="0"
           style="fill:#231f20" /><path
           id="path152"
           d="m 694.946,127.701 c 0.127,0.22 0.29,0.4 0.49,0.54 0.2,0.14 0.43,0.243 0.69,0.31 0.26,0.067 0.529,0.1 0.81,0.1 0.2,0 0.41,-0.023 0.63,-0.07 0.22,-0.046 0.42,-0.12 0.601,-0.22 0.18,-0.1 0.329,-0.233 0.449,-0.4 0.12,-0.167 0.181,-0.376 0.181,-0.63 0,-0.427 -0.284,-0.747 -0.851,-0.96 -0.567,-0.213 -1.356,-0.427 -2.37,-0.64 -0.413,-0.093 -0.816,-0.203 -1.21,-0.33 -0.394,-0.126 -0.743,-0.293 -1.05,-0.5 -0.307,-0.207 -0.554,-0.466 -0.74,-0.78 -0.187,-0.313 -0.279,-0.697 -0.279,-1.15 0,-0.667 0.13,-1.213 0.39,-1.64 0.26,-0.427 0.604,-0.763 1.03,-1.01 0.427,-0.247 0.906,-0.42 1.439,-0.52 0.533,-0.1 1.08,-0.15 1.641,-0.15 0.56,0 1.103,0.054 1.63,0.16 0.526,0.107 0.996,0.287 1.41,0.54 0.413,0.253 0.756,0.59 1.029,1.01 0.273,0.42 0.437,0.95 0.49,1.59 l -2.7,0 c -0.04,-0.547 -0.246,-0.917 -0.62,-1.11 -0.373,-0.193 -0.813,-0.29 -1.319,-0.29 -0.16,0 -0.334,0.01 -0.521,0.03 -0.187,0.02 -0.356,0.063 -0.51,0.13 -0.153,0.067 -0.283,0.164 -0.39,0.29 -0.107,0.127 -0.16,0.297 -0.16,0.51 0,0.253 0.093,0.46 0.28,0.62 0.187,0.16 0.43,0.29 0.729,0.39 0.299,0.1 0.644,0.19 1.03,0.27 0.386,0.08 0.78,0.167 1.18,0.26 0.413,0.094 0.816,0.207 1.21,0.34 0.394,0.133 0.743,0.31 1.05,0.53 0.307,0.22 0.554,0.494 0.74,0.82 0.186,0.326 0.28,0.73 0.28,1.21 0,0.68 -0.137,1.25 -0.41,1.71 -0.273,0.46 -0.63,0.83 -1.07,1.11 -0.439,0.28 -0.943,0.477 -1.51,0.59 -0.566,0.113 -1.144,0.17 -1.729,0.17 -0.601,0 -1.188,-0.06 -1.761,-0.18 -0.573,-0.12 -1.083,-0.32 -1.529,-0.6 -0.447,-0.28 -0.813,-0.65 -1.101,-1.11 -0.288,-0.46 -0.443,-1.037 -0.47,-1.73 l 2.7,0 c 10e-4,0.307 0.064,0.57 0.191,0.79 z"
           inkscape:connector-curvature="0"
           style="fill:#231f20" /><path
           id="path154"
           d="m 705.686,127.701 c 0.127,0.22 0.29,0.4 0.49,0.54 0.2,0.14 0.43,0.243 0.69,0.31 0.26,0.067 0.529,0.1 0.81,0.1 0.2,0 0.41,-0.023 0.63,-0.07 0.22,-0.046 0.42,-0.12 0.601,-0.22 0.18,-0.1 0.329,-0.233 0.449,-0.4 0.12,-0.167 0.181,-0.376 0.181,-0.63 0,-0.427 -0.284,-0.747 -0.851,-0.96 -0.567,-0.213 -1.356,-0.427 -2.37,-0.64 -0.413,-0.093 -0.816,-0.203 -1.21,-0.33 -0.394,-0.126 -0.743,-0.293 -1.05,-0.5 -0.307,-0.207 -0.554,-0.466 -0.74,-0.78 -0.187,-0.313 -0.279,-0.697 -0.279,-1.15 0,-0.667 0.13,-1.213 0.39,-1.64 0.26,-0.427 0.604,-0.763 1.03,-1.01 0.427,-0.247 0.906,-0.42 1.439,-0.52 0.533,-0.1 1.08,-0.15 1.641,-0.15 0.56,0 1.103,0.054 1.63,0.16 0.526,0.107 0.996,0.287 1.41,0.54 0.413,0.253 0.756,0.59 1.029,1.01 0.273,0.42 0.437,0.95 0.49,1.59 l -2.7,0 c -0.04,-0.547 -0.246,-0.917 -0.62,-1.11 -0.373,-0.193 -0.813,-0.29 -1.319,-0.29 -0.16,0 -0.334,0.01 -0.521,0.03 -0.187,0.02 -0.356,0.063 -0.51,0.13 -0.153,0.067 -0.283,0.164 -0.39,0.29 -0.107,0.127 -0.16,0.297 -0.16,0.51 0,0.253 0.093,0.46 0.28,0.62 0.187,0.16 0.43,0.29 0.729,0.39 0.299,0.1 0.644,0.19 1.03,0.27 0.386,0.08 0.78,0.167 1.18,0.26 0.413,0.094 0.816,0.207 1.21,0.34 0.394,0.133 0.743,0.31 1.05,0.53 0.307,0.22 0.554,0.494 0.74,0.82 0.186,0.326 0.28,0.73 0.28,1.21 0,0.68 -0.137,1.25 -0.41,1.71 -0.273,0.46 -0.63,0.83 -1.07,1.11 -0.439,0.28 -0.943,0.477 -1.51,0.59 -0.566,0.113 -1.144,0.17 -1.729,0.17 -0.601,0 -1.188,-0.06 -1.761,-0.18 -0.573,-0.12 -1.083,-0.32 -1.529,-0.6 -0.447,-0.28 -0.813,-0.65 -1.101,-1.11 -0.288,-0.46 -0.443,-1.037 -0.47,-1.73 l 2.7,0 c 0.002,0.307 0.064,0.57 0.191,0.79 z"
           inkscape:connector-curvature="0"
           style="fill:#231f20" /><path
           id="path156"
           d="m 713.916,123.111 c 0.04,-0.667 0.207,-1.22 0.5,-1.66 0.293,-0.44 0.667,-0.793 1.12,-1.06 0.453,-0.267 0.963,-0.457 1.53,-0.57 0.566,-0.113 1.136,-0.17 1.71,-0.17 0.52,0 1.046,0.037 1.58,0.11 0.533,0.073 1.02,0.217 1.46,0.43 0.439,0.213 0.8,0.51 1.08,0.89 0.279,0.38 0.42,0.883 0.42,1.51 l 0,5.38 c 0,0.467 0.026,0.913 0.08,1.34 0.053,0.427 0.146,0.747 0.279,0.96 l -2.88,0 c -0.054,-0.16 -0.097,-0.323 -0.13,-0.49 -0.033,-0.167 -0.057,-0.336 -0.07,-0.51 -0.453,0.467 -0.986,0.793 -1.6,0.98 -0.614,0.187 -1.24,0.28 -1.88,0.28 -0.493,0 -0.953,-0.06 -1.38,-0.18 -0.427,-0.12 -0.8,-0.307 -1.12,-0.56 -0.32,-0.253 -0.57,-0.573 -0.75,-0.96 -0.18,-0.387 -0.271,-0.847 -0.271,-1.38 0,-0.587 0.104,-1.07 0.311,-1.45 0.206,-0.38 0.473,-0.683 0.8,-0.91 0.326,-0.227 0.7,-0.396 1.12,-0.51 0.42,-0.114 0.843,-0.203 1.27,-0.27 0.427,-0.066 0.847,-0.12 1.261,-0.16 0.413,-0.04 0.779,-0.1 1.1,-0.18 0.32,-0.08 0.573,-0.197 0.76,-0.35 0.187,-0.153 0.273,-0.376 0.26,-0.67 0,-0.307 -0.05,-0.55 -0.149,-0.73 -0.101,-0.18 -0.233,-0.32 -0.4,-0.42 -0.167,-0.1 -0.359,-0.167 -0.58,-0.2 -0.22,-0.033 -0.456,-0.05 -0.71,-0.05 -0.56,0 -1,0.12 -1.319,0.36 -0.32,0.24 -0.507,0.64 -0.561,1.2 l -2.841,0 z m 6.559,2.1 c -0.119,0.107 -0.27,0.19 -0.449,0.25 -0.181,0.06 -0.374,0.11 -0.58,0.15 -0.207,0.04 -0.424,0.074 -0.65,0.1 -0.227,0.027 -0.453,0.06 -0.68,0.1 -0.214,0.04 -0.424,0.093 -0.63,0.16 -0.207,0.067 -0.387,0.157 -0.54,0.27 -0.153,0.113 -0.277,0.257 -0.37,0.43 -0.094,0.173 -0.14,0.394 -0.14,0.66 0,0.253 0.046,0.467 0.14,0.64 0.093,0.173 0.22,0.31 0.38,0.41 0.16,0.1 0.347,0.17 0.56,0.21 0.214,0.04 0.434,0.06 0.66,0.06 0.561,0 0.993,-0.093 1.3,-0.28 0.307,-0.187 0.533,-0.41 0.681,-0.67 0.146,-0.26 0.236,-0.523 0.27,-0.79 0.034,-0.267 0.05,-0.48 0.05,-0.64 l 0,-1.06 z"
           inkscape:connector-curvature="0"
           style="fill:#231f20" /><path
           id="path158"
           d="m 730.456,121.791 c -0.453,0 -0.833,0.104 -1.14,0.31 -0.307,0.207 -0.557,0.473 -0.75,0.8 -0.193,0.327 -0.33,0.687 -0.41,1.08 -0.08,0.394 -0.12,0.784 -0.12,1.17 0,0.374 0.04,0.753 0.12,1.14 0.08,0.387 0.21,0.737 0.391,1.05 0.18,0.313 0.423,0.57 0.729,0.77 0.307,0.2 0.68,0.3 1.12,0.3 0.68,0 1.203,-0.19 1.57,-0.57 0.366,-0.38 0.597,-0.89 0.689,-1.53 l 2.74,0 c -0.187,1.374 -0.72,2.42 -1.6,3.14 -0.88,0.72 -2.007,1.08 -3.38,1.08 -0.773,0 -1.484,-0.13 -2.131,-0.39 -0.646,-0.26 -1.196,-0.623 -1.649,-1.09 -0.454,-0.466 -0.807,-1.023 -1.061,-1.67 -0.253,-0.646 -0.38,-1.356 -0.38,-2.13 0,-0.8 0.117,-1.543 0.351,-2.23 0.232,-0.687 0.576,-1.28 1.029,-1.78 0.453,-0.5 1.007,-0.89 1.66,-1.17 0.653,-0.28 1.4,-0.42 2.24,-0.42 0.613,0 1.203,0.08 1.77,0.24 0.567,0.16 1.073,0.403 1.521,0.73 0.446,0.327 0.81,0.733 1.09,1.22 0.28,0.487 0.44,1.063 0.48,1.73 l -2.78,0 c -0.185,-1.187 -0.886,-1.78 -2.099,-1.78 z"
           inkscape:connector-curvature="0"
           style="fill:#231f20" /><path
           id="path160"
           d="m 739.835,115.991 0,5.38 0.061,0 c 0.359,-0.6 0.819,-1.037 1.38,-1.31 0.56,-0.273 1.106,-0.41 1.64,-0.41 0.76,0 1.383,0.104 1.87,0.31 0.486,0.207 0.87,0.494 1.149,0.86 0.28,0.367 0.477,0.813 0.591,1.34 0.112,0.527 0.17,1.11 0.17,1.75 l 0,6.36 -2.84,0 0,-5.84 c 0,-0.854 -0.134,-1.49 -0.4,-1.91 -0.266,-0.42 -0.74,-0.63 -1.42,-0.63 -0.773,0 -1.334,0.23 -1.68,0.69 -0.348,0.46 -0.521,1.217 -0.521,2.27 l 0,5.42 -2.84,0 0,-14.28 2.84,0 z"
           inkscape:connector-curvature="0"
           style="fill:#231f20" /><path
           id="path162"
           d="m 755.855,130.271 0,-1.44 -0.061,0 c -0.359,0.6 -0.826,1.033 -1.399,1.3 -0.573,0.267 -1.16,0.4 -1.76,0.4 -0.761,0 -1.384,-0.1 -1.87,-0.3 -0.487,-0.2 -0.87,-0.483 -1.15,-0.85 -0.28,-0.366 -0.477,-0.813 -0.59,-1.34 -0.113,-0.526 -0.17,-1.11 -0.17,-1.75 l 0,-6.36 2.84,0 0,5.84 c 0,0.854 0.133,1.49 0.4,1.91 0.267,0.42 0.739,0.63 1.42,0.63 0.772,0 1.333,-0.23 1.68,-0.69 0.347,-0.46 0.521,-1.217 0.521,-2.27 l 0,-5.42 2.84,0 0,10.34 -2.701,0 z"
           inkscape:connector-curvature="0"
           style="fill:#231f20" /><path
           id="path164"
           d="m 763.105,127.701 c 0.127,0.22 0.29,0.4 0.49,0.54 0.2,0.14 0.43,0.243 0.69,0.31 0.26,0.067 0.529,0.1 0.81,0.1 0.2,0 0.41,-0.023 0.63,-0.07 0.22,-0.046 0.42,-0.12 0.601,-0.22 0.18,-0.1 0.329,-0.233 0.449,-0.4 0.12,-0.167 0.181,-0.376 0.181,-0.63 0,-0.427 -0.284,-0.747 -0.851,-0.96 -0.567,-0.213 -1.356,-0.427 -2.37,-0.64 -0.413,-0.093 -0.816,-0.203 -1.21,-0.33 -0.394,-0.126 -0.743,-0.293 -1.05,-0.5 -0.307,-0.207 -0.554,-0.466 -0.74,-0.78 -0.187,-0.313 -0.279,-0.697 -0.279,-1.15 0,-0.667 0.13,-1.213 0.39,-1.64 0.26,-0.427 0.604,-0.763 1.03,-1.01 0.427,-0.247 0.906,-0.42 1.439,-0.52 0.533,-0.1 1.08,-0.15 1.641,-0.15 0.56,0 1.103,0.054 1.63,0.16 0.526,0.107 0.996,0.287 1.41,0.54 0.413,0.253 0.756,0.59 1.029,1.01 0.273,0.42 0.437,0.95 0.49,1.59 l -2.7,0 c -0.04,-0.547 -0.246,-0.917 -0.62,-1.11 -0.373,-0.193 -0.813,-0.29 -1.319,-0.29 -0.16,0 -0.334,0.01 -0.521,0.03 -0.187,0.02 -0.356,0.063 -0.51,0.13 -0.153,0.067 -0.283,0.164 -0.39,0.29 -0.107,0.127 -0.16,0.297 -0.16,0.51 0,0.253 0.093,0.46 0.28,0.62 0.187,0.16 0.43,0.29 0.729,0.39 0.299,0.1 0.644,0.19 1.03,0.27 0.386,0.08 0.78,0.167 1.18,0.26 0.413,0.094 0.816,0.207 1.21,0.34 0.394,0.133 0.743,0.31 1.05,0.53 0.307,0.22 0.554,0.494 0.74,0.82 0.186,0.326 0.28,0.73 0.28,1.21 0,0.68 -0.137,1.25 -0.41,1.71 -0.273,0.46 -0.63,0.83 -1.07,1.11 -0.439,0.28 -0.943,0.477 -1.51,0.59 -0.566,0.113 -1.144,0.17 -1.729,0.17 -0.601,0 -1.188,-0.06 -1.761,-0.18 -0.573,-0.12 -1.083,-0.32 -1.529,-0.6 -0.447,-0.28 -0.813,-0.65 -1.101,-1.11 -0.288,-0.46 -0.443,-1.037 -0.47,-1.73 l 2.7,0 c 0.002,0.307 0.064,0.57 0.191,0.79 z"
           inkscape:connector-curvature="0"
           style="fill:#231f20" /><path
           id="path166"
           d="m 774.495,127.791 c 0.427,0.414 1.04,0.62 1.84,0.62 0.573,0 1.066,-0.143 1.48,-0.43 0.413,-0.287 0.666,-0.59 0.76,-0.91 l 2.5,0 c -0.4,1.24 -1.014,2.127 -1.84,2.66 -0.827,0.534 -1.827,0.8 -3,0.8 -0.813,0 -1.547,-0.13 -2.2,-0.39 -0.653,-0.26 -1.207,-0.63 -1.66,-1.11 -0.453,-0.48 -0.804,-1.053 -1.05,-1.72 -0.247,-0.667 -0.37,-1.4 -0.37,-2.2 0,-0.773 0.127,-1.493 0.38,-2.16 0.253,-0.667 0.613,-1.243 1.08,-1.73 0.467,-0.487 1.023,-0.87 1.67,-1.15 0.646,-0.28 1.363,-0.42 2.15,-0.42 0.88,0 1.646,0.17 2.3,0.51 0.653,0.34 1.189,0.797 1.609,1.37 0.421,0.574 0.724,1.227 0.91,1.96 0.186,0.733 0.254,1.5 0.2,2.3 l -7.46,0 c 0.04,0.92 0.274,1.587 0.701,2 z m 3.21,-5.44 c -0.34,-0.373 -0.857,-0.56 -1.55,-0.56 -0.454,0 -0.83,0.077 -1.13,0.23 -0.301,0.153 -0.54,0.343 -0.721,0.57 -0.18,0.227 -0.307,0.467 -0.38,0.72 -0.073,0.253 -0.116,0.48 -0.13,0.68 l 4.62,0 c -0.133,-0.72 -0.37,-1.266 -0.709,-1.64 z"
           inkscape:connector-curvature="0"
           style="fill:#231f20" /><path
           id="path168"
           d="m 788.615,119.931 0,1.9 -2.08,0 0,5.12 c 0,0.48 0.08,0.8 0.24,0.96 0.16,0.16 0.48,0.24 0.96,0.24 0.16,0 0.313,-0.006 0.46,-0.02 0.146,-0.013 0.287,-0.033 0.42,-0.06 l 0,2.2 c -0.24,0.04 -0.507,0.066 -0.8,0.08 -0.293,0.013 -0.58,0.02 -0.86,0.02 -0.439,0 -0.856,-0.03 -1.25,-0.09 -0.393,-0.06 -0.739,-0.176 -1.04,-0.35 -0.3,-0.173 -0.536,-0.42 -0.71,-0.74 -0.173,-0.32 -0.26,-0.74 -0.26,-1.26 l 0,-6.1 -1.72,0 0,-1.9 1.72,0 0,-3.1 2.84,0 0,3.1 2.08,0 z"
           inkscape:connector-curvature="0"
           style="fill:#231f20" /><path
           id="path170"
           d="m 795.654,119.931 0,1.9 -2.08,0 0,5.12 c 0,0.48 0.08,0.8 0.24,0.96 0.16,0.16 0.48,0.24 0.96,0.24 0.16,0 0.313,-0.006 0.46,-0.02 0.146,-0.013 0.287,-0.033 0.42,-0.06 l 0,2.2 c -0.24,0.04 -0.507,0.066 -0.8,0.08 -0.293,0.013 -0.58,0.02 -0.86,0.02 -0.439,0 -0.856,-0.03 -1.25,-0.09 -0.393,-0.06 -0.739,-0.176 -1.04,-0.35 -0.3,-0.173 -0.536,-0.42 -0.71,-0.74 -0.173,-0.32 -0.26,-0.74 -0.26,-1.26 l 0,-6.1 -1.72,0 0,-1.9 1.72,0 0,-3.1 2.84,0 0,3.1 2.08,0 z"
           inkscape:connector-curvature="0"
           style="fill:#231f20" /><path
           id="path172"
           d="m 799.404,127.701 c 0.127,0.22 0.29,0.4 0.49,0.54 0.2,0.14 0.43,0.243 0.69,0.31 0.26,0.067 0.529,0.1 0.81,0.1 0.2,0 0.41,-0.023 0.63,-0.07 0.22,-0.046 0.42,-0.12 0.601,-0.22 0.18,-0.1 0.329,-0.233 0.449,-0.4 0.12,-0.167 0.181,-0.376 0.181,-0.63 0,-0.427 -0.284,-0.747 -0.851,-0.96 -0.567,-0.213 -1.356,-0.427 -2.37,-0.64 -0.413,-0.093 -0.816,-0.203 -1.21,-0.33 -0.394,-0.126 -0.743,-0.293 -1.05,-0.5 -0.307,-0.207 -0.554,-0.466 -0.74,-0.78 -0.187,-0.313 -0.279,-0.697 -0.279,-1.15 0,-0.667 0.13,-1.213 0.39,-1.64 0.26,-0.427 0.604,-0.763 1.03,-1.01 0.427,-0.247 0.906,-0.42 1.439,-0.52 0.533,-0.1 1.08,-0.15 1.641,-0.15 0.56,0 1.103,0.054 1.63,0.16 0.526,0.107 0.996,0.287 1.41,0.54 0.413,0.253 0.756,0.59 1.029,1.01 0.273,0.42 0.437,0.95 0.49,1.59 l -2.7,0 c -0.04,-0.547 -0.246,-0.917 -0.62,-1.11 -0.373,-0.193 -0.813,-0.29 -1.319,-0.29 -0.16,0 -0.334,0.01 -0.521,0.03 -0.187,0.02 -0.356,0.063 -0.51,0.13 -0.153,0.067 -0.283,0.164 -0.39,0.29 -0.107,0.127 -0.16,0.297 -0.16,0.51 0,0.253 0.093,0.46 0.28,0.62 0.187,0.16 0.43,0.29 0.729,0.39 0.299,0.1 0.644,0.19 1.03,0.27 0.386,0.08 0.78,0.167 1.18,0.26 0.413,0.094 0.816,0.207 1.21,0.34 0.394,0.133 0.743,0.31 1.05,0.53 0.307,0.22 0.554,0.494 0.74,0.82 0.186,0.326 0.28,0.73 0.28,1.21 0,0.68 -0.137,1.25 -0.41,1.71 -0.273,0.46 -0.63,0.83 -1.07,1.11 -0.439,0.28 -0.943,0.477 -1.51,0.59 -0.566,0.113 -1.144,0.17 -1.729,0.17 -0.601,0 -1.188,-0.06 -1.761,-0.18 -0.573,-0.12 -1.083,-0.32 -1.529,-0.6 -0.447,-0.28 -0.813,-0.65 -1.101,-1.11 -0.288,-0.46 -0.443,-1.037 -0.47,-1.73 l 2.7,0 c 0.001,0.307 0.064,0.57 0.191,0.79 z"
           inkscape:connector-curvature="0"
           style="fill:#231f20" /></g><path
         id="path174"
         d="m 1143.087,141.787 c -0.666,-2.914 -14.482,-28.504 -18.287,-33.254 -1.84,-3.255 -3.926,-6.263 -5.633,-9.648 1.842,0.92 3.73,1.837 4.979,2.439 2.996,1.444 4.361,2.102 5.051,2.361 0.027,0.015 0.049,0.026 0.062,0.034 l 0.01,-0.009 c 0.236,0.085 0.387,0.118 0.496,0.118 0.131,0 0.203,-0.047 0.301,-0.109 l 0.369,-0.235 -0.021,-0.437 c -0.023,-0.448 -0.273,-0.573 -0.875,-0.873 -0.854,-0.426 -3.057,-3.066 -5.391,-5.86 -4.762,-5.703 -11.172,-13.378 -17.418,-17.059 -7.213,-10.607 -16.668,-18.972 -25.504,-27.952 0.195,-5.614 7.988,-12.875 5.268,-20.026 -1.422,-3.738 -7.002,-5.185 -12.646,-5.272 -11.5,-0.179 -23.004,6.917 -31.625,7.38 -4.455,0.24 -9.891,-2.202 -15.479,-2.906 -30.312,-3.808 -54.93,0.054 -68.321,9.229 -1.663,-4.662 -3.297,-9.354 -4.216,-14.759 l -0.527,0 c -2.788,3.858 -5.881,10.368 -7.904,15.813 -2.086,5.6 -2.842,12.194 -5.271,17.392 -1.725,3.689 -5.755,7.775 -8.434,11.595 -4.404,6.286 -7.562,11.889 -15.812,13.705 11.378,-0.963 12.8,9.961 8.118,16.843 -2.775,0.895 -8.512,4.303 -12.357,17.276 l 1.338,0.637 c 1.282,-1.876 4.78,-6.303 7.898,-8.044 -0.197,1.928 -0.186,5.084 -0.535,7.381 -2.133,1.705 -2.809,6.225 -3.406,10.242 -0.33,2.225 -0.743,4.994 -1.305,5.463 -0.455,0.387 -0.43,0.975 -0.17,1.355 l 0.435,0.641 0.626,-0.455 c 1.289,-0.938 2.837,-2.6 4.115,-4.094 -0.254,1.742 -0.186,3.762 0.227,6.072 -1.508,3.781 -2.611,7.469 -3.577,10.748 -1.562,5.303 -2.911,9.881 -5.433,12.998 -0.353,0.439 -0.352,0.852 -0.344,0.967 l 0.089,1.215 1.045,-0.625 c 1.771,-1.062 5.934,-5.52 8.506,-8.367 -0.161,15.6 -4.923,26.594 -8.958,38.318 8.367,-8.674 13.871,-24.777 23.19,-34.258 6.608,19.215 7.737,43.914 12.647,64.826 l 0.527,0 c 2.085,-13.377 2.483,-28.436 10.542,-35.838 4.986,12.934 9.881,25.957 17.919,35.838 l 0.527,0 c -4.586,-5.809 -4.45,-19.609 4.216,-21.082 3.925,-0.666 9.212,1.826 13.177,2.109 2.436,0.174 5.055,0.166 7.378,0 23.851,-1.711 46.286,-14.297 60.081,-23.719 0.605,5.195 2.592,9.006 2.111,15.285 2.797,-3.354 1.834,-10.465 3.16,-15.285 3.143,6.348 4.234,14.744 5.801,22.664 6.109,-13.238 6.322,-33.531 1.578,-48.49 9.969,8.479 16.572,20.326 24.771,30.57 -3.447,-11.852 -5.316,-25.285 -5.73,-40.174 9.707,7.623 18.613,17.49 24.092,23.561 4.477,4.959 5.656,6.207 6.459,6.207 0.139,0 0.266,-0.037 0.396,-0.098 0.186,-0.086 0.604,-0.369 0.496,-1.121 -0.48,-3.373 -12.391,-29.422 -13.031,-30.822 -2.482,-7.459 -6.227,-13.656 -8.855,-20.969 5.086,2.272 14.467,8.02 22.338,12.844 11.4,6.988 14.586,8.82 15.854,8.82 0.232,0 0.4,-0.061 0.541,-0.162 0.292,-0.21 0.419,-0.571 0.335,-0.944 z M 1005.115,30.479 c 3.742,-0.197 9.195,0.125 13.25,0.625 -0.098,1.89 -1.328,3.253 -2.497,4.915 -4.554,6.467 -8.892,14.324 -8.435,26.878 -5.808,-5.201 -9.336,-25.757 -2.318,-32.418 z m -27.723,2.905 c 4.568,-1.27 10.478,-2.197 15.723,-2.531 -3.058,8.589 -9.055,22.341 -5.708,35.735 -10.215,-4.094 -11.614,-18.953 -10.015,-33.204 z m 15.812,67.989 c -0.985,15.183 -19.423,15.838 -22.663,1.052 4.857,-2.506 16.701,-3.104 22.663,-1.052 z m -78.318,12.441 c 3.146,-7.967 6.982,-10.79 9.229,-11.789 4.172,0.546 7.271,2.162 10.586,3.564 -3.635,-0.068 -9.111,0.445 -12.268,2.487 -2.642,0.632 -5.506,3.387 -7.547,5.738 z m 7.441,12.855 c -0.028,0.037 -2.067,2.758 -4.135,4.922 0.206,-0.961 0.389,-2.148 0.603,-3.582 0.555,-3.729 1.246,-8.37 3.076,-9.447 l -0.021,-0.037 c 4.097,-0.544 11.129,-0.168 13.907,2.35 -6.222,0.251 -11.044,1.941 -13.373,5.836 l -0.057,-0.042 z m 0.256,23.659 -0.033,-0.029 c -0.225,0.258 -0.503,0.572 -0.802,0.908 -0.074,0.078 -0.147,0.158 -0.222,0.234 0,0.006 0,0.012 0,0.016 -1.548,1.738 -3.824,4.234 -5.814,6.24 1.338,-2.795 2.313,-6.109 3.387,-9.754 1.01,-3.426 2.156,-7.295 3.77,-11.227 4.066,-3.51 14.453,-6.463 20.266,-2.139 -9.333,2.766 -14.693,9.51 -20.552,15.751 z m 19.8,-67.056 c 5.897,0.863 9.567,2.234 14.454,3.871 -4.14,4.929 -16.309,5.41 -14.454,-3.871 z M 959.74,40.229 c 3.872,-2.198 6.209,-3.583 10.271,-4.829 -1.29,9.821 -5.912,21.205 -3.686,31.189 -8.581,-2.436 -9.983,-16.766 -6.585,-26.36 z m 21.34,144.417 c -2.645,-4.674 -4.303,-10.916 -3.16,-17.92 3.498,4.584 5.354,10.809 9.487,14.756 0.659,-1.596 1.29,-1.773 2.108,0 0.707,-0.344 0.98,-1.125 1.053,-2.107 1.217,-0.16 0.586,1.523 1.582,1.582 0.619,-0.084 0.443,-0.961 0.528,-1.582 2.116,1.703 2.403,-0.291 4.216,0.527 -1.287,-5.08 0.121,-10.326 1.053,-14.758 3.004,3.85 4.584,9.121 6.852,13.705 -3.195,7.127 -14.864,8.858 -23.719,5.797 z m 25.826,-35.84 c -5.182,-5.359 -9.474,-11.604 -9.484,-22.135 -1.161,1.299 -1.171,3.746 -2.109,5.27 -1.007,-1.102 -1.699,-2.516 -2.108,-4.215 -1.673,1.135 -1.491,4.129 -2.107,6.324 -1.978,-1.361 -2.935,-3.742 -4.217,-5.799 -1.323,1.49 -1.578,4.043 -2.108,6.326 -2.486,-0.678 -2.532,-3.791 -4.216,-5.271 -1.233,1.928 -1.956,4.367 -2.636,6.852 -1.657,-1.682 -2.031,-4.643 -3.69,-6.324 -2.339,4.779 -1.786,14.35 -1.052,20.555 -7.576,-4.195 -11.366,-12.176 -11.596,-23.717 16.948,3.277 30.9,-4.708 49.016,-3.691 -1.742,8.099 -4.683,14.995 -3.693,25.825 z m 6.326,-62.719 c 4.113,-3.792 9.293,-6.519 14.231,-9.487 4.437,8.291 -5.668,12.247 -14.231,9.487 z m 92.652,-5.584 c 6.066,3.552 12.658,11.443 17.109,16.772 1.006,1.206 1.863,2.228 2.598,3.077 -2.342,-1.124 -5.199,-2.517 -7.451,-3.667 -0.01,-0.019 -0.018,-0.037 -0.025,-0.056 -14.805,-8.007 -43.6,-13.25 -62.719,-5.799 8.666,-11.639 32.898,-16.484 50.488,-10.327 z m 13.785,86.526 c -5.697,-6.312 -15.078,-16.697 -25.27,-24.496 0,-0.018 0,-0.033 0,-0.051 -0.205,-0.137 -0.408,-0.277 -0.611,-0.416 -0.223,-0.166 -0.441,-0.34 -0.664,-0.504 l -0.025,0.035 c -10.006,-6.832 -19.383,-14.299 -32.961,-17.562 24.508,-2.635 39.645,8.062 51.785,19.689 3.283,7.193 10.191,22.621 12.049,27.965 -1.07,-1.08 -2.656,-2.838 -4.301,-4.66 z m 7.471,-34.235 c -8.9,-5.457 -18.781,-11.508 -23.76,-13.432 -0.01,-0.024 -0.016,-0.047 -0.023,-0.071 -0.498,-0.143 -0.992,-0.288 -1.49,-0.433 -0.01,-0.002 -0.018,-0.006 -0.025,-0.008 -12.967,-3.775 -25.318,-8.164 -40.121,-10.099 17.621,-7.38 46.758,-9.869 62.129,0.993 3.766,4.908 15.051,26 17.371,31.314 -2.46,-1.139 -8.579,-4.891 -14.081,-8.264 z"
         inkscape:connector-curvature="0" /></g></g></svg>