<?xml version="1.0" encoding="UTF-8" standalone="no"?>
<svg
   xmlns:dc="http://purl.org/dc/elements/1.1/"
   xmlns:cc="http://creativecommons.org/ns#"
   xmlns:rdf="http://www.w3.org/1999/02/22-rdf-syntax-ns#"
   xmlns:svg="http://www.w3.org/2000/svg"
   xmlns="http://www.w3.org/2000/svg"
   viewBox="0 0 912.33331 185.28"
   height="185.28"
   width="912.33331"
   xml:space="preserve"
   version="1.1"
   id="svg2"><metadata
     id="metadata8"><rdf:RDF><cc:Work
         rdf:about=""><dc:format>image/svg+xml</dc:format><dc:type
           rdf:resource="http://purl.org/dc/dcmitype/StillImage" /></cc:Work></rdf:RDF></metadata><defs
     id="defs6"><clipPath
       id="clipPath18"
       clipPathUnits="userSpaceOnUse"><path
         id="path20"
         d="m 0,0 6842,0 0,1389.61 -6842,0 L 0,0 Z" /></clipPath></defs><g
     transform="matrix(1.3333333,0,0,-1.3333333,0,185.28)"
     id="g10"><g
       transform="scale(0.1)"
       id="g12"><g
         id="g14"><g
           clip-path="url(#clipPath18)"
           id="g16"><path
             id="path22"
             style="fill:#7e42a5;fill-opacity:1;fill-rule:nonzero;stroke:none"
             d="m 2510.11,369.84 119.031,0 0,676.273 -119.031,0 0,-676.273 z" /><path
             id="path24"
             style="fill:#7e42a5;fill-opacity:1;fill-rule:nonzero;stroke:none"
             d="m 3431.6,369.852 0,313.109 c 0,42.367 -16.69,69.199 -50.04,80.473 -12.63,3.601 -49.61,5.41 -110.91,5.41 -26.61,0 -48.25,-8.793 -64.92,-26.371 -10.82,-11.282 -16.23,-32.024 -16.23,-62.219 l 0,-310.402 -117.68,0 0,310.402 c 0,43.281 -14.43,70.551 -43.28,81.828 -14.87,4.5 -51.4,6.762 -109.55,6.762 -61.78,0 -92.65,-28.637 -92.65,-85.883 l -0.04,-313.109 -117.63,0 0,339.48 c 0,110.906 57.7,166.363 173.12,166.363 l 108.21,0 c 35.16,0 62.89,-4.629 83.18,-13.863 20.28,-9.246 39.66,-26.492 58.15,-51.734 32.91,43.722 80.48,65.597 142.7,65.597 l 106.17,0 c 52.75,0 94.34,-14.879 124.78,-44.636 30.43,-29.754 45.64,-70.332 45.64,-121.727 l 0,-339.48 -119.02,0" /><path
             id="path26"
             style="fill:#7e42a5;fill-opacity:1;fill-rule:nonzero;stroke:none"
             d="m 4691.49,878.492 -148.1,-446.43 c -15.79,-47.792 -48.69,-71.683 -98.74,-71.683 -47.79,0 -79.12,22.543 -94,67.625 L 4243.8,760.727 4141.68,428.004 c -13.98,-45.082 -46.44,-67.625 -97.38,-67.625 -48.69,0 -80.93,23.891 -96.71,71.683 l -146.75,446.43 116.32,0 133.23,-397.738 110.23,343.543 c 13.96,44.18 42.61,66.273 85.89,66.273 43.72,0 72.35,-22.093 85.89,-66.273 l 109.55,-343.543 133.22,397.738 116.32,0" /><path
             id="path28"
             style="fill:#7e42a5;fill-opacity:1;fill-rule:nonzero;stroke:none"
             d="m 5165.2,519.297 0,206.265 c 0,23.438 -9.25,40.575 -27.72,51.399 -14.89,10.363 -37.88,15.551 -68.99,15.551 l -141.34,0 c -32.46,0 -56.58,-5.188 -72.36,-15.551 -19.38,-10.824 -29.08,-27.961 -29.08,-51.399 l 0,-204.906 c 0,-22.101 9.7,-38.551 29.08,-49.371 14.88,-9.469 36.06,-14.203 63.57,-14.203 l 158.25,0 c 26.6,0 46.88,4.734 60.87,14.203 18.47,10.82 27.72,26.817 27.72,48.012 z m 119.02,-23.664 c 0,-43.285 -19.39,-76.422 -58.16,-99.41 -27.5,-17.594 -68.98,-26.383 -124.43,-26.383 l -206.26,0 c -63.13,0 -110.35,11.269 -141.68,33.816 -31.34,22.539 -47.01,53.196 -47.01,91.977 l 0,253.597 c 0,44.18 19.84,78.446 59.52,102.793 28.84,17.586 71.91,26.375 129.17,26.375 l 206.26,0 c 57.25,0 99.18,-8.789 125.79,-26.375 37.87,-22.988 56.8,-57.261 56.8,-102.793 l 0,-253.597" /><path
             id="path30"
             style="fill:#7e42a5;fill-opacity:1;fill-rule:nonzero;stroke:none"
             d="m 5694.46,795.215 c -91.97,0 -145.4,-1.805 -160.28,-5.41 -31.56,-9.461 -47.34,-32.235 -47.34,-68.301 l 0,-351.664 -123.08,0 0,375.336 c 0,91.515 64.25,137.281 192.74,137.281 l 137.96,0 0,-87.242" /><path
             id="path32"
             style="fill:#7e42a5;fill-opacity:1;fill-rule:nonzero;stroke:none"
             d="m 6297.17,369.84 -146.75,0 -253.6,225.199 c -13.97,11.719 -20.96,23 -20.96,33.82 0,11.711 7.89,24.786 23.67,39.219 l 239.4,208.969 142.7,0 -277.95,-248.188 293.49,-259.019 z m -428.07,0 -119.03,0 0,678.3 119.03,0 0,-678.3" /><path
             id="path34"
             style="fill:#7e42a5;fill-opacity:1;fill-rule:nonzero;stroke:none"
             d="m 6842.5,791.164 -314.47,0 c -28.41,0 -49.61,-3.387 -63.57,-10.148 -19.4,-9.024 -29.08,-21.422 -29.08,-37.196 l 0,-20.965 c 0,-35.164 31.78,-52.746 95.35,-52.746 l 155.54,0 c 45.08,0 82.17,-11.054 111.25,-33.136 29.08,-22.098 43.62,-50.278 43.62,-84.535 l 0,-62.219 c 0,-32.461 -14.66,-61.098 -43.96,-85.883 -17.59,-15.785 -36.07,-25.477 -55.46,-29.086 -15.78,-3.609 -38.99,-5.41 -69.64,-5.41 l -355.73,0 0,87.242 323.94,0 c 33.36,0 55.67,6.531 66.95,19.613 8.12,9.91 12.17,27.95 12.17,54.102 0,34.711 -25.93,52.074 -77.76,52.074 l -146.76,0 c -49.6,0 -90.62,9.688 -123.08,29.078 -36.07,21.641 -54.1,49.809 -54.1,84.535 l 0,68.301 c 0,37.871 20.73,68.301 62.22,91.301 25.24,14.871 64.01,22.312 116.32,22.312 l 346.25,0 0,-87.234" /><path
             id="path36"
             style="fill:#7e42a5;fill-opacity:1;fill-rule:nonzero;stroke:none"
             d="m 2312.99,628.859 -256.4,0 c -56.35,0 -84.53,-21.203 -84.53,-63.57 l 0,-50.043 c 0,-18.496 8.35,-32.578 25.02,-42.266 16.68,-9.703 36.96,-14.542 60.87,-14.542 l 255.04,0 0,170.421 z m 117.59,-259.007 -394.94,0 c -54.11,0 -97.39,10.136 -129.85,30.425 -35.16,22.082 -52.75,52.969 -52.75,92.649 l 0,89.941 c 0,41.02 15.66,72.582 47,94.684 31.33,22.078 74.27,33.137 128.83,33.137 l 284.04,0 c -0.92,28.402 -6.55,48.687 -16.91,60.859 -12.63,13.973 -37.43,20.961 -74.4,20.961 l -345.86,0 0,87.238 362.09,0 c 128.5,0 192.75,-43.062 192.75,-129.16 l 0,-380.734" /><path
             id="path38"
             style="fill:#c599d3;fill-opacity:1;fill-rule:nonzero;stroke:none"
             d="m 159.359,1151.21 c 0,43.65 36.164,79.04 79.801,79.04 l 191.012,0 75.828,80.21 -75.828,79.15 -191.012,0 C 108.023,1389.61 0,1282.36 0,1151.21 l 0,0.49 0,-439.825 79.1406,76.594 80.2184,-76.594 0,439.825 0,-0.49" /><path
             id="path40"
             style="fill:#c599d3;fill-opacity:1;fill-rule:nonzero;stroke:none"
             d="m 469.508,159.359 -231.602,0 0.492,0 c -43.652,0 -79.043,36.153 -79.043,79.801 l 0,406.887 -80.2183,75.828 -79.13279375,-75.828 0,-406.887 C 0.00390625,108.012 107.246,0 238.398,0 l -0.492,0 231.602,0 0,159.359" /><path
             id="path42"
             style="fill:#c599d3;fill-opacity:1;fill-rule:nonzero;stroke:none"
             d="m 1410.43,238.391 c 0,-43.653 -36.16,-79.032 -79.8,-79.032 l -191.01,0 L 1063.79,79.1406 1139.62,0 1330.63,0 c 131.14,0 239.16,107.238 239.16,238.391 l 0,-0.493 0,449.832 -79.14,-76.593 -80.22,76.593 0,-449.832 0,0.493" /><path
             id="path44"
             style="fill:#c599d3;fill-opacity:1;fill-rule:nonzero;stroke:none"
             d="m 1100.29,1230.25 231.6,0 -0.49,0 c 43.65,0 79.04,-36.16 79.04,-79.8 l 0,-396.891 80.22,-75.829 79.13,75.829 0,396.891 c 0,131.14 -107.24,239.16 -238.39,239.16 l 0.49,0 -231.6,0 0,-159.36" /><path
             id="path46"
             style="fill:#7e42a5;fill-opacity:1;fill-rule:nonzero;stroke:none"
             d="m 1005.84,713.938 -339.809,0 c -74.691,0 -112.023,-28.102 -112.023,-84.25 l 0,-66.325 c 0,-24.504 11.051,-43.175 33.148,-56.008 22.114,-12.859 48.992,-19.269 80.688,-19.269 l 337.996,-0.078 0,225.93 z m 155.82,-344.098 -523.398,0.039 c -71.703,0 -129.074,14.242 -172.078,41.129 -46.614,29.265 -69.914,70.199 -69.914,122.777 l 0,119.203 c 0,54.367 20.75,96.196 62.281,125.481 41.527,29.258 98.437,43.91 170.742,43.91 l 376.417,0 c -1.19,37.637 -8.659,64.527 -22.39,80.668 -16.738,18.512 -49.609,27.777 -98.597,27.777 l -464.875,0 0,115.616 486.382,0 c 170.29,0 255.43,-57.065 255.43,-171.186 l 0,-505.414" /></g></g></g></g></svg>