<?xml version="1.0" encoding="utf-8"?>
<!-- Generator: Adobe Illustrator 16.0.0, SVG Export Plug-In . SVG Version: 6.00 Build 0)  -->
<!DOCTYPE svg PUBLIC "-//W3C//DTD SVG 1.1//EN" "http://www.w3.org/Graphics/SVG/1.1/DTD/svg11.dtd">
<svg version="1.1" id="Layer_1" xmlns="http://www.w3.org/2000/svg" xmlns:xlink="http://www.w3.org/1999/xlink" x="0px" y="0px"
	 width="244px" height="55.667px" viewBox="0 0 244 55.667" enable-background="new 0 0 244 55.667" xml:space="preserve">
<g>
	<defs>
		<rect id="SVGID_1_" x="-191.333" y="-303.333" width="612" height="792"/>
	</defs>
	<clipPath id="SVGID_2_">
		<use xlink:href="#SVGID_1_"  overflow="visible"/>
	</clipPath>
	<path clip-path="url(#SVGID_2_)" fill="#0065A4" d="M51.137,47.676c0,0.928-0.75,1.678-1.676,1.678
		c-0.927,0-1.679-0.75-1.679-1.678c0-0.926,0.752-1.676,1.679-1.676C50.387,46,51.137,46.75,51.137,47.676"/>
	<path clip-path="url(#SVGID_2_)" fill="#0065A4" d="M105.925,47.676c0,0.928-0.753,1.678-1.677,1.678
		c-0.923,0-1.675-0.75-1.675-1.678c0-0.926,0.752-1.676,1.675-1.676C105.172,46,105.925,46.75,105.925,47.676"/>
	<path clip-path="url(#SVGID_2_)" fill="#00853F" d="M1.898,46.186v-0.029c0-2.45,1.998-4.621,4.982-4.621
		c1.676,0,2.711,0.435,3.707,1.191l-0.725,0.766c-0.767-0.602-1.619-1.024-3.026-1.024c-2.199,0-3.778,1.672-3.778,3.668v0.02
		c0,2.14,1.524,3.722,3.935,3.722c1.138,0,2.189-0.394,2.869-0.898v-2.219H6.836v-0.906h4.104v3.564
		c-0.921,0.743-2.311,1.366-3.99,1.366C3.827,50.786,1.898,48.741,1.898,46.186"/>
	<path clip-path="url(#SVGID_2_)" fill="#00853F" d="M13,44.029h1.097v1.723c0.538-1.098,1.602-1.893,2.995-1.84v1.062h-0.088
		c-1.605,0-2.907,1.034-2.907,3.026v2.633H13V44.029z"/>
	<path clip-path="url(#SVGID_2_)" fill="#00853F" d="M21.393,49.934c1.012,0,1.722-0.373,2.316-0.937l0.683,0.55
		c-0.739,0.745-1.634,1.239-3.027,1.239c-2.015,0-3.663-1.391-3.663-3.45c0-1.916,1.49-3.449,3.523-3.449
		c2.172,0,3.421,1.559,3.421,3.5c0,0.09,0,0.192-0.016,0.35h-5.817C18.968,49.127,20.104,49.934,21.393,49.934 M23.539,46.939
		c-0.13-1.201-0.896-2.221-2.343-2.221c-1.265,0-2.228,0.944-2.383,2.221H23.539z"/>
	<path clip-path="url(#SVGID_2_)" fill="#00853F" d="M29.517,49.934c1.01,0,1.72-0.373,2.316-0.937l0.682,0.55
		c-0.739,0.745-1.63,1.239-3.025,1.239c-2.016,0-3.666-1.391-3.666-3.45c0-1.916,1.492-3.449,3.525-3.449
		c2.17,0,3.419,1.559,3.419,3.5c0,0.09,0,0.192-0.013,0.35h-5.82C27.088,49.127,28.226,49.934,29.517,49.934 M31.664,46.939
		c-0.13-1.201-0.897-2.221-2.344-2.221c-1.263,0-2.231,0.944-2.385,2.221H31.664z"/>
	<path clip-path="url(#SVGID_2_)" fill="#00853F" d="M34.406,44.029h1.092v1.146c0.48-0.714,1.249-1.289,2.511-1.289
		c1.776,0,2.812,1.073,2.812,2.645v4.102h-1.095v-3.858c0-1.225-0.736-1.996-2.028-1.996c-1.263,0-2.2,0.834-2.2,2.072v3.782h-1.092
		V44.029z"/>
	<path clip-path="url(#SVGID_2_)" fill="#00853F" d="M58.518,46.186v-0.029c0-2.526,2.1-4.621,5.023-4.621
		c1.804,0,2.883,0.578,3.879,1.42l-0.765,0.738c-0.838-0.719-1.779-1.225-3.126-1.225c-2.2,0-3.849,1.61-3.849,3.668v0.02
		c0,2.074,1.662,3.697,3.849,3.697c1.362,0,2.259-0.471,3.209-1.289l0.74,0.65c-1.04,0.948-2.175,1.571-3.979,1.571
		C60.631,50.786,58.518,48.753,58.518,46.186"/>
	<rect x="69.066" y="41.305" clip-path="url(#SVGID_2_)" fill="#00853F" width="1.095" height="9.328"/>
	<path clip-path="url(#SVGID_2_)" fill="#00853F" d="M75.655,49.934c1.01,0,1.718-0.373,2.316-0.937l0.682,0.55
		c-0.739,0.745-1.63,1.239-3.025,1.239c-2.012,0-3.664-1.391-3.664-3.45c0-1.916,1.49-3.449,3.521-3.449
		c2.173,0,3.425,1.559,3.425,3.5c0,0.09,0,0.192-0.017,0.35h-5.821C73.229,49.127,74.365,49.934,75.655,49.934 M77.8,46.939
		c-0.127-1.201-0.896-2.221-2.342-2.221c-1.264,0-2.229,0.944-2.386,2.221H77.8z"/>
	<path clip-path="url(#SVGID_2_)" fill="#00853F" d="M79.988,48.717v-0.026c0-1.418,1.278-2.16,3.141-2.16
		c0.934,0,1.587,0.117,2.238,0.281v-0.203c0-1.174-0.792-1.787-2.171-1.787c-0.866,0-1.545,0.19-2.229,0.469l-0.328-0.805
		c0.812-0.33,1.591-0.56,2.671-0.56c1.041,0,1.848,0.256,2.372,0.728c0.51,0.457,0.767,1.098,0.767,1.942v4.037h-1.082v-0.985
		c-0.507,0.59-1.344,1.125-2.64,1.125C81.351,50.773,79.988,50.072,79.988,48.717 M85.384,48.205v-0.613
		c-0.54-0.139-1.249-0.28-2.145-0.28c-1.364,0-2.141,0.536-2.141,1.327v0.025c0,0.832,0.849,1.316,1.842,1.316
		C84.292,49.98,85.384,49.254,85.384,48.205"/>
	<path clip-path="url(#SVGID_2_)" fill="#00853F" d="M88.482,44.029h1.093v1.146c0.483-0.714,1.25-1.289,2.511-1.289
		c1.777,0,2.814,1.073,2.814,2.645v4.102h-1.095v-3.858c0-1.225-0.739-1.996-2.029-1.996c-1.264,0-2.201,0.834-2.201,2.072v3.782
		h-1.093V44.029z"/>
	<path clip-path="url(#SVGID_2_)" fill="#00853F" d="M112.399,49.33l0.693-0.742c1.038,0.846,2.033,1.265,3.413,1.265
		c1.334,0,2.213-0.638,2.213-1.519v-0.027c0-0.831-0.496-1.303-2.584-1.698c-2.284-0.453-3.334-1.113-3.334-2.58v-0.025
		c0-1.406,1.376-2.444,3.263-2.444c1.448,0,2.483,0.37,3.492,1.098l-0.651,0.779c-0.924-0.673-1.845-0.968-2.869-0.968
		c-1.291,0-2.115,0.638-2.115,1.443v0.023c0,0.844,0.511,1.317,2.699,1.739c2.213,0.435,3.237,1.166,3.237,2.531v0.025
		c0,1.534-1.419,2.53-3.394,2.53C114.885,50.76,113.589,50.291,112.399,49.33"/>
	<path clip-path="url(#SVGID_2_)" fill="#00853F" d="M121.56,48.131v-4.102h1.089v3.858c0,1.226,0.742,1.992,2.032,1.992
		c1.25,0,2.199-0.832,2.199-2.068v-3.782h1.083v6.604h-1.083v-1.148c-0.497,0.712-1.247,1.289-2.511,1.289
		C122.596,50.774,121.56,49.701,121.56,48.131"/>
	<path clip-path="url(#SVGID_2_)" fill="#00853F" d="M129.523,49.789l0.556-0.703c0.796,0.537,1.676,0.848,2.539,0.848
		c0.884,0,1.523-0.415,1.523-1.053v-0.022c0-0.666-0.867-0.922-1.832-1.164c-1.151-0.293-2.429-0.652-2.429-1.869v-0.023
		c0-1.139,1.052-1.891,2.499-1.891c0.895,0,1.889,0.283,2.641,0.731l-0.496,0.738c-0.68-0.396-1.463-0.639-2.174-0.639
		c-0.866,0-1.418,0.41-1.418,0.957v0.029c0,0.623,0.91,0.868,1.89,1.137c1.135,0.305,2.354,0.701,2.354,1.889v0.027
		c0,1.25-1.148,1.979-2.612,1.979C131.512,50.76,130.349,50.391,129.523,49.789"/>
	<path clip-path="url(#SVGID_2_)" fill="#00853F" d="M137.165,48.881v-3.982h-1.021v-0.87h1.021v-1.998h1.095v1.998h2.33v0.87h-2.33
		v3.855c0,0.807,0.495,1.1,1.235,1.1c0.367,0,0.681-0.065,1.065-0.231v0.844c-0.385,0.178-0.796,0.281-1.321,0.281
		C138.06,50.748,137.165,50.225,137.165,48.881"/>
	<path clip-path="url(#SVGID_2_)" fill="#00853F" d="M141.681,48.717v-0.026c0-1.418,1.277-2.16,3.139-2.16
		c0.935,0,1.587,0.117,2.243,0.281v-0.203c0-1.174-0.795-1.787-2.172-1.787c-0.863,0-1.551,0.19-2.232,0.469l-0.323-0.805
		c0.806-0.33,1.587-0.56,2.672-0.56c1.036,0,1.845,0.256,2.367,0.728c0.513,0.457,0.767,1.098,0.767,1.942v4.037h-1.078v-0.985
		c-0.512,0.59-1.348,1.125-2.641,1.125C143.044,50.773,141.681,50.072,141.681,48.717 M147.079,48.205v-0.613
		c-0.541-0.139-1.251-0.28-2.146-0.28c-1.364,0-2.144,0.536-2.144,1.327v0.025c0,0.832,0.854,1.316,1.847,1.316
		C145.985,49.98,147.079,49.254,147.079,48.205"/>
	<path clip-path="url(#SVGID_2_)" fill="#00853F" d="M150.202,41.497h1.251v1.088h-1.251V41.497z M150.274,44.029h1.092v6.604
		h-1.092V44.029z"/>
	<path clip-path="url(#SVGID_2_)" fill="#00853F" d="M153.626,44.029h1.093v1.146c0.483-0.714,1.25-1.289,2.512-1.289
		c1.776,0,2.813,1.073,2.813,2.645v4.102h-1.092v-3.858c0-1.225-0.738-1.996-2.034-1.996c-1.264,0-2.199,0.834-2.199,2.072v3.782
		h-1.093V44.029z"/>
	<path clip-path="url(#SVGID_2_)" fill="#00853F" d="M161.538,48.717v-0.026c0-1.418,1.273-2.16,3.134-2.16
		c0.938,0,1.591,0.117,2.247,0.281v-0.203c0-1.174-0.797-1.787-2.174-1.787c-0.868,0-1.548,0.19-2.23,0.469l-0.325-0.805
		c0.809-0.33,1.589-0.56,2.67-0.56c1.036,0,1.843,0.256,2.372,0.728c0.508,0.457,0.764,1.098,0.764,1.942v4.037h-1.076v-0.985
		c-0.514,0.59-1.351,1.125-2.644,1.125C162.899,50.773,161.538,50.072,161.538,48.717 M166.93,48.205v-0.613
		c-0.537-0.139-1.249-0.28-2.142-0.28c-1.364,0-2.145,0.536-2.145,1.327v0.025c0,0.832,0.852,1.316,1.847,1.316
		C165.836,49.98,166.93,49.254,166.93,48.205"/>
	<path clip-path="url(#SVGID_2_)" fill="#00853F" d="M171.119,49.368v1.265h-1.092v-9.328h1.092v4.051
		c0.596-0.793,1.465-1.469,2.815-1.469c1.762,0,3.507,1.252,3.507,3.426v0.023c0,2.16-1.733,3.438-3.507,3.438
		C172.569,50.773,171.686,50.112,171.119,49.368 M176.319,47.35v-0.027c0-1.559-1.194-2.555-2.584-2.555
		c-1.364,0-2.657,1.035-2.657,2.545v0.023c0,1.535,1.293,2.557,2.657,2.557C175.153,49.893,176.319,48.946,176.319,47.35"/>
	<rect x="179.274" y="41.305" clip-path="url(#SVGID_2_)" fill="#00853F" width="1.094" height="9.328"/>
	<path clip-path="url(#SVGID_2_)" fill="#00853F" d="M185.864,49.934c1.005,0,1.718-0.373,2.312-0.937l0.68,0.55
		c-0.735,0.745-1.631,1.239-3.021,1.239c-2.018,0-3.667-1.391-3.667-3.45c0-1.916,1.493-3.449,3.522-3.449
		c2.175,0,3.424,1.559,3.424,3.5c0,0.09,0,0.192-0.013,0.35h-5.825C183.435,49.127,184.571,49.934,185.864,49.934 M188.008,46.939
		c-0.132-1.201-0.896-2.221-2.344-2.221c-1.265,0-2.229,0.944-2.389,2.221H188.008z"/>
	<path clip-path="url(#SVGID_2_)" fill="#0065A4" d="M12.632,11.812h3.788l10.239,23.434h-4.322l-2.36-5.617H8.973L6.58,35.247
		H2.392L12.632,11.812z M18.482,26.005l-4.026-9.309l-3.989,9.309H18.482z"/>
	<polygon clip-path="url(#SVGID_2_)" fill="#0065A4" points="29.983,11.981 34.337,11.981 41.415,22.981 48.497,11.981 
		52.85,11.981 52.85,35.246 48.761,35.246 48.761,18.559 41.415,29.527 41.285,29.527 34.004,18.627 34.004,35.246 29.983,35.246 	
		"/>
	<polygon clip-path="url(#SVGID_2_)" fill="#0065A4" points="56.84,11.981 74.09,11.981 74.09,15.635 60.93,15.635 60.93,21.683 
		72.594,21.683 72.594,25.342 60.93,25.342 60.93,31.59 74.257,31.59 74.257,35.246 56.84,35.246 	"/>
	<path clip-path="url(#SVGID_2_)" fill="#0065A4" d="M77.782,11.981h10.371c2.925,0,5.218,0.861,6.717,2.325
		c1.225,1.262,1.927,2.994,1.927,5.018v0.067c0,3.82-2.293,6.115-5.553,7.048l6.285,8.807h-4.823l-5.716-8.111h-0.066h-5.052v8.111
		h-4.09V11.981z M87.852,23.516c2.929,0,4.79-1.534,4.79-3.892v-0.066c0-2.494-1.797-3.857-4.821-3.857h-5.949v7.815H87.852z"/>
	<polygon clip-path="url(#SVGID_2_)" fill="#0065A4" points="101.151,11.981 118.403,11.981 118.403,15.635 105.241,15.635 
		105.241,21.683 116.908,21.683 116.908,25.342 105.241,25.342 105.241,31.59 118.57,31.59 118.57,35.246 101.151,35.246 	"/>
	<path clip-path="url(#SVGID_2_)" fill="#0065A4" d="M121.197,31.855l2.459-2.926c2.228,1.932,4.455,3.028,7.345,3.028
		c2.527,0,4.123-1.165,4.123-2.926v-0.067c0-1.663-0.928-2.561-5.25-3.557c-4.953-1.195-7.747-2.659-7.747-6.947v-0.067
		c0-3.989,3.322-6.746,7.946-6.746c3.387,0,6.082,1.031,8.441,2.924l-2.195,3.09c-2.093-1.562-4.185-2.393-6.312-2.393
		c-2.396,0-3.789,1.231-3.789,2.761v0.066c0,1.793,1.062,2.592,5.516,3.657c4.92,1.195,7.482,2.959,7.482,6.814v0.064
		c0,4.358-3.426,6.95-8.312,6.95C127.346,35.581,123.986,34.352,121.197,31.855"/>
	<path clip-path="url(#SVGID_2_)" fill="#0065A4" d="M141.672,23.68v-0.069c0-6.616,4.954-12.031,12.001-12.031
		c4.288,0,6.88,1.495,9.106,3.622l-2.627,3.027c-1.861-1.73-3.854-2.895-6.516-2.895c-4.452,0-7.679,3.657-7.679,8.212v0.065
		c0,4.557,3.227,8.277,7.679,8.277c2.861,0,4.689-1.16,6.682-3.023l2.627,2.66c-2.424,2.526-5.083,4.123-9.44,4.123
		C146.725,35.648,141.672,30.363,141.672,23.68"/>
	<path clip-path="url(#SVGID_2_)" fill="#0065A4" d="M165.539,23.68v-0.069c0-6.547,5.056-12.031,12.199-12.031
		c7.146,0,12.135,5.415,12.135,11.966v0.065c0,6.549-5.055,12.037-12.203,12.037C170.526,35.648,165.539,30.226,165.539,23.68
		 M185.583,23.68v-0.069c0-4.518-3.291-8.277-7.913-8.277c-4.619,0-7.842,3.689-7.842,8.212v0.065c0,4.522,3.29,8.277,7.91,8.277
		C182.36,31.888,185.583,28.198,185.583,23.68"/>
	<path clip-path="url(#SVGID_2_)" fill="#0065A4" d="M213.797,14.641c-1.857,0.706-3.609,1.517-5.266,2.393
		c-0.178,0.478-0.346,0.968-0.511,1.465c1.854-1.059,3.882-2.026,6.062-2.855c4.377-1.666,8.678-2.508,12.48-2.65
		c-0.114-0.394-0.234-0.77-0.36-1.142C222.316,12.117,218.083,13.002,213.797,14.641 M242.603,18.414
		c-1.441-3.762-5.656-5.951-11.18-6.519c0.148,0.456,0.287,0.923,0.416,1.398c3.68,0.679,6.33,2.313,7.26,4.769
		c0.24,0.631,0.354,1.268,0.354,1.916c0.021,3.061-2.604,6.41-6.877,9.452c-0.002,0.004-0.002,0.008-0.002,0.012
		c-0.367,2.594-0.934,5.072-1.651,7.383c7.423-4.457,12.167-10.381,12.185-15.614C243.107,20.245,242.943,19.305,242.603,18.414
		 M206.498,38.393c-0.042,0-0.089,0.008-0.129,0.008c-0.521,0-1.021-0.026-1.514-0.061c-3.961-0.277-6.783-1.67-7.771-4.289
		c-0.251-0.662-0.379-1.355-0.379-2.078c-0.02-3.854,3.562-8.492,9.323-12.258c0.14-0.511,0.276-1.02,0.431-1.515
		c-7.417,4.455-12.158,10.382-12.176,15.611c0,0.957,0.16,1.898,0.507,2.795c1.441,3.76,5.654,5.949,11.172,6.514
		c0.591,0.058,1.202,0.089,1.822,0.111c0.37,0.012,0.724,0.047,1.104,0.047c4.465,0,9.555-0.946,14.704-2.899
		c0.223-0.084,0.436-0.177,0.656-0.265c0.903-2.11,1.671-4.5,2.25-7.114c-1.562,0.762-3.21,1.483-4.95,2.145
		C216.055,37.232,210.769,38.372,206.498,38.393"/>
	<path clip-path="url(#SVGID_2_)" fill="#00853F" d="M231.839,13.292c-0.129-0.475-0.268-0.941-0.416-1.397
		c-1.776-5.517-4.956-9.331-9.17-9.96c-0.362-0.052-0.726-0.076-1.081-0.076c-6.079,0.069-11.751,6.775-14.713,16.34
		c-0.154,0.495-0.291,1.004-0.431,1.515c-0.509,1.868-0.926,3.825-1.214,5.863c-0.306,2.204-0.454,4.366-0.454,6.45
		c0,2.209,0.18,4.32,0.494,6.312c0.492,0.036,0.993,0.061,1.514,0.061c0.04,0,0.087-0.008,0.129-0.008
		c-0.416-1.98-0.628-4.109-0.628-6.371c0-1.947,0.151-3.984,0.448-6.099c0.36-2.646,0.952-5.136,1.703-7.424
		c0.164-0.497,0.333-0.987,0.511-1.465c2.665-7.12,6.949-11.848,10.933-11.773c0.243,0,0.483,0.014,0.732,0.052
		c2.621,0.313,4.706,2.764,6.007,6.54c0.126,0.371,0.246,0.747,0.36,1.141c0.739,2.606,1.14,5.735,1.131,9.178
		c0.005,2.184-0.158,4.483-0.48,6.844c-0.188,1.373-0.432,2.703-0.715,3.985c-0.579,2.613-1.347,5.003-2.25,7.113
		c-2.466,5.75-5.946,9.371-9.437,9.299c-0.249,0.005-0.502-0.014-0.746-0.045c-2.54-0.346-4.711-2.573-6.282-6.137
		c-0.62-0.021-1.231-0.053-1.822-0.111c1.774,5.49,4.958,9.361,9.175,9.961c0.34,0.048,0.674,0.072,1.004,0.072
		c0.027,0,0.053-0.002,0.076-0.002c6.072-0.065,11.738-6.768,14.705-16.326c0.718-2.311,1.284-4.789,1.651-7.383
		c0-0.004,0-0.008,0.002-0.012c0.307-2.207,0.453-4.373,0.453-6.457C233.023,19.472,232.611,16.186,231.839,13.292"/>
	<path clip-path="url(#SVGID_2_)" fill="#0065A4" d="M237.941,40.301c0,1.408-1.133,2.525-2.57,2.525s-2.586-1.117-2.586-2.525
		c0-1.407,1.148-2.508,2.602-2.508C236.808,37.793,237.941,38.895,237.941,40.301 M233.427,40.301c0,1.117,0.842,2.004,1.959,2.004
		c1.086,0.015,1.912-0.887,1.912-1.989c0-1.115-0.826-2.018-1.943-2.018C234.269,38.298,233.427,39.201,233.427,40.301
		 M234.972,41.601h-0.58v-2.508c0.229-0.031,0.549-0.076,0.963-0.076c0.475,0,0.688,0.076,0.857,0.199
		c0.152,0.106,0.26,0.29,0.26,0.536c0,0.304-0.23,0.504-0.521,0.595v0.032c0.246,0.076,0.367,0.275,0.445,0.611
		c0.076,0.383,0.137,0.519,0.184,0.611h-0.612c-0.077-0.092-0.122-0.304-0.2-0.611c-0.045-0.26-0.197-0.383-0.52-0.383h-0.275
		V41.601z M234.988,40.195h0.275c0.32,0,0.582-0.107,0.582-0.367c0-0.231-0.169-0.383-0.537-0.383c-0.152,0-0.26,0.016-0.32,0.031
		V40.195z"/>
</g>
</svg>
