<?xml version="1.0" encoding="utf-8"?>
<!-- Generator: Adobe Illustrator 16.0.0, SVG Export Plug-In . SVG Version: 6.00 Build 0)  -->
<!DOCTYPE svg PUBLIC "-//W3C//DTD SVG 1.1//EN" "http://www.w3.org/Graphics/SVG/1.1/DTD/svg11.dtd">
<svg version="1.1" id="Layer_1" xmlns="http://www.w3.org/2000/svg" xmlns:xlink="http://www.w3.org/1999/xlink" x="0px" y="0px"
	 width="878px" height="495px" viewBox="0 0 878 495" enable-background="new 0 0 878 495" xml:space="preserve">
<path fill="none" d="M934-68.5c-2.1,0.4-1.9,0.2-3,1c0.7,0,1.3,0,2,0c0,0.7,0,1.3,0,2c0.3,0,0.7,0,1,0C934-66.5,934-67.5,934-68.5z"
	/>
<path fill="none" d="M-90-68.5c0.4,2.1,0.2,1.9,1,3c0.7-1,1.3-2,2-3C-88-68.5-89-68.5-90-68.5z"/>
<path fill="#939598" d="M740,46.5c0-5-1.2-9.2-2-13c-1.4-6.7,1.5-19.6-1-26c-1.9-0.7-3.9-1-7-1c-6.4,7.1-14,13.6-18,23
	c-3.8,9-3.9,18.6-10,25c-2-2.3-4.9-3.8-7-6c-3.2,0.9-4,3.1-6,4c-9,0.3-18,0.7-27,1c-5.7-0.3-8.3-5-15-3c-7.1,2.1-15,7.6-23,10
	c-5.4,1.6-11.7-1.2-15-2c-7.7-1-15.3-2-23-3c-7.8-2.4-14.8-6.9-21-10c-4.6-2.2-11.4,0.7-17-1c-0.9-0.3-3.8-2.7-5-3
	c-5.7-1.6-11.9,1.2-15,2c-8,0-16,0-24,0c-18.7,0-52.3,3.3-68-1c-4.1-1.1-10-4-14-5c-5,0-10,0-15,0c-18.7-4.7-40.6-8.7-57-15
	c-13-0.7-26-1.3-39-2c-5.3-1.7-10.7-3.3-16-5c-18.3,0-36.7,0-55,0c-9.8,2.5-26,3.3-36,7c-6.1,2.2-12,7.2-18,9
	c-12.5,3.8-24.2,2.9-34,7c-5.4,2.3-10.1,7.3-15,10c-6.1,3.4-12.8,4.2-19,8c-10.9,6.7-24.4,15.5-37,20c-17,6-38.8,5.1-59,5
	c-2.3-3.4-5.8-6.5-11-7c-0.6,1.7-0.9,3.2-1,6c2.7,2.7,5.3,5.3,8,8c0,0.3,0,0.7,0,1c-5.4,0.9-10.4,1.7-11,8c0.3,0.3,0.7,0.7,1,1
	c12.6,0,14.2,3.4,19,11c1.3,1.3,2.7,2.7,4,4c0.1,0.9-2.2,2.9-1,5c2.7,1,5.3,2,8,3c3.2,2.2,4.6,6.7,8,9c0,0.3,0,0.7,0,1
	c-3,0.8-3.1,1.5-5,3c0.6,1.8,0.2,1,1,2c2.1,2.4,5.4,2.2,10,2c3.6,2.4,11.7,0.9,16,1c-0.4,3.9-0.5,3.6,1,7c3.8,0.4,16.6,0.7,20,3
	c-8.2,8.8-7.1,25.8-13,37c-4.7,9-17.8,18-22,28c-4,9.5-2.1,21-7,29c-2.9,4.8-7.4,7.1-11,11c-2.3,2.4-1.1,7.1-3,10
	c-1,1.6-3.7,1.7-5,3c-2.9,3-6.6,11.2-8,15c-4.4,11.8-3.3,29.5-8,41c-5,12.3-5,28.4-5,45c0,5.6-1.2,14,1,18c1.4,2.5,14.5,16.1,17,17
	c4-0.3,8-0.7,12-1c2.4,1,6.2,5.9,9,7c13.4,5.1,36.5-8.8,39-15c0-5.3,0-10.7,0-16c-2-3.3-4-6.7-6-10c-4.8-3.8-13.6-3.8-16-10
	c-6.5-10.5,3.5-50.8,7-56c8-12,17.7-7.1,30-13c2-1,4.2-4.2,7-5c3.3-0.3,6.7-0.7,10-1c6.5-2.7,9.7-9.7,15-13c3.3-0.7,6.7-1.3,10-2
	c4.7-2.6,8.3-9.3,13-12c3-1,6-2,9-3c3.2-2.1,6.7-6,10-8c2-0.7,4-1.3,6-2c7.3-5.5,13.1-17.6,24-19c1-0.8,0.3-0.4,2-1c2,3,6.8,5.8,8,9
	c0,2.7,0,5.3,0,8c3.5,11.9,10.6,28.7,14,41c2.7,9.6-8,37.4-10,45c-2.3,8.9,0.4,20.2,0,27c7.6,5.2,11.5,16.5,17,24c3,2.7,6,5.3,9,8
	c6,8,10,16.8,16,25c4,3,8,6,12,9c3.9,3.8,5.6,8.7,9,13c4.5,5.7,21.5,12.9,29,16c14.3,5.9,51.6,0.3,56-9c0-6,0-12,0-18
	c-1.1-1.4-1.5-2.9-2-5c-5.4-3.4-10.3-9.1-17-11c-11.8-3.3-21.9,0-30-6c-4.4-3.2-5.8-9.5-9-14c-5.7-5.7-11.3-11.3-17-17
	c-13.2-29.9,8.6-69.3,18-90c3.1-6.8,3.3-14.4,6-22c2.4,0.8,2.5,2.4,4,3c3.3,0,6.7,0,10,0c4.3,2.8-1.4,4.5,8,5c0.2-0.1,2.9-2,3-2
	c2.1-0.6,2.2,4,6,3c0.7-1,1.3-2,2-3c3.5-1.4,11.4-2.2,12-2c2.4,3.6,0.6,5.9,6,7c1.5-1.5,4.3-2,6-1c4.3,4.6,6.8,13.5,15,14
	c3.6-1.9,4.7,2,9,0c5.1-2.3,4.7-6.6,13-7c-0.2,14.7-8.5,29.1-4,45c1.2,4.4,5.7,8.8,7,13c-0.3,8-0.7,16-1,24c0.6,1.9,3.4,5.8,4,8
	c2.9,11.8-10.8,22.3-6,39c2.5,8.7,9.4,16.5,12,26c3.3,12-1.3,22.5,4,31c7.1,11.4,22.5,24.2,37,28c14.2,3.7,41.7-8.6,46-15
	c2-3,2-7,2-12c-5-6.8-5-16.3-12-21c-4-2.6-12.7-0.4-17-3c-2.7-3-2.2-6.8-4-11c-1.6-3.8-5.7-7.7-7-12c0.3-8,0.7-16,1-24
	c-3.2-23.6,7.6-48.3,15-65c3.8-8.6,7.6-24.7,15-29c5.7-1.3,11.3-2.7,17-4c4.2-1.6,7.6-6.1,11-8c10.5-6,21.6-5.2,31-8
	c0.3,2.3,0.5,2.5,1,4c7.3,0,9.6,3.6,18,1c6.4-2,9.4-5.7,18-6c0.3,0.3,0.7,0.7,1,1c0.4,18.2,18.5,35.4,31,42c5.1,2.7,8.7,11.2,12,16
	c2.5,3.6,4.8,3.6,9,6c3.3,4,6.7,8,10,12c6.8,5,14.2,8,21,13c6.9,5.1,12.7,13.5,20,18c9.4,5.8,19,8.8,28,15c3.3,2.3,11.3,10.3,13,14
	c2.2,5,1.4,10.7,4,15c4.7,5,9.3,10,14,15c2.3,0.3,4.7,0.7,7,1c3.9,2.2,7,9.3,11,12c7.9,5.3,24.6,11.1,35,13c8-0.7,16-1.3,24-2
	c15.8-0.2,34.5,0.5,35-15c3.8-6-2.3-13-5-16c-5.5-6-10.5-10.9-22-11c-4.7,0-9.3,0-14,0c-3.4-0.8-7.1-2.7-12-3
	c-7.5-11.6-18.1-22-26-33c-0.3-1.3-0.7-2.7-1-4c-1.2-1.2-3.6-0.9-5-2c-3.3-2.4-4.5-6.7-7-10c-4-4-8-8-12-12c-4-7.3-8-14.7-12-22
	c-5.4-7.5-14.5-12.8-20-20c-3.2-4.2-4.7-8.9-8-13c-3.2-3.9-9.5-7.5-12-12c-2.6-4.7-1.9-10-4-15c-4.4-10.5-8.4-22.6-11-35
	c0.3-7.3,0.7-14.7,1-22c5.9-4,26.8-23.7,39-16c8.9,3.1,11.3,13.7,19,17c3.9,2.6,33.4,3.4,37,1c3-0.9,3.8-1.4,5-4
	c2.9-3.1,2.4-6.1,3-10c26.6-2.3,38.9-8.2,37-36c-15.8-12.8-10.5-40.8-19-63c-3.7-9.7-13.6-15.2-19-23c-3.6-5.2-4.6-9.9-9-14
	c-0.3-8.3-1.1-15.5,2-26c2.2-7.6,6.8-11.5,7-22c-2.4-2.5-4-7.3-7-9c-2.7-0.3-5.3-0.7-8-1c-2.9-1.4-7.7-6.5-10-9c-1.8,0.6-1,0.2-2,1
	c-2.5,1.5-1.8,1.3-2,5c3.5,2.9,5.4,15.9,6,21c-1.5,1.7-2.1,4.6-4,6c-2.5,1.8-5.1,1.7-7,4c-0.3,1-0.7,2-1,3c-3.5,2.9-8.1,4.5-11,8
	C751.8,50.6,748.7,46.8,740,46.5z"/>
<path fill="none" d="M934,584.5c-0.4-2.1-0.2-1.9-1-3c0,0.7,0,1.3,0,2c-0.7,0-1.3,0-2,0c0,0.3,0,0.7,0,1
	C932,584.5,933,584.5,934,584.5z"/>
<path fill="none" d="M-90,584.5c2.1-0.4,1.9-0.2,3-1c-0.3,0-0.7,0-1,0c-0.7-0.7-1.3-1.3-2-2C-90,582.5-90,583.5-90,584.5z"/>
</svg>
