<?xml version="1.0" encoding="utf-8"?>
<!-- Generator: Adobe Illustrator 16.0.0, SVG Export Plug-In . SVG Version: 6.00 Build 0)  -->
<!DOCTYPE svg PUBLIC "-//W3C//DTD SVG 1.1//EN" "http://www.w3.org/Graphics/SVG/1.1/DTD/svg11.dtd">
<svg version="1.1" id="Updated_061511" xmlns="http://www.w3.org/2000/svg" xmlns:xlink="http://www.w3.org/1999/xlink" x="0px"
	 y="0px" width="223.3px" height="26.2px" viewBox="0 0 223.3 26.2" style="enable-background:new 0 0 223.3 26.2;"
	 xml:space="preserve">
<g>
	<path d="M127,0.1c-2.3,0-4.3,1.3-5.3,3.1c-1,1.8-3.9,6.7-4.9,8.5c-1,1.8,0.3,3.7,2.1,3.7c1.8,0,16.9,0,16.9,0s-2.6,4.4-3,5.3
		c-0.5,0.8-1.3,1.3-2.2,1.3c-0.9,0-1.8,0-2.6,0c-0.9,0-1.2-0.9-0.9-1.5c0.3-0.6,1-1.8,1-1.8h-15.3c0,0-1.2,2.1-2.2,3.9
		c-1,1.8,0.3,3.8,2.1,3.8c1.8,0,26.4,0,28.7,0c2.3,0,4.3-1.2,5.4-3.1c1.1-1.9,3.7-6.4,4.8-8.3s-0.3-3.8-2.1-3.8
		c-1.8,0-16.9,0-16.9,0s2.8-4.8,3.1-5.4c0.4-0.6,1.2-1.1,2.1-1.1s1.8,0,2.6,0s1.2,0.9,1,1.4c-0.3,0.5-1.1,1.8-1.1,1.8h15.3
		c0,0,1.5-2.5,2.3-4c0.9-1.5-0.2-3.6-2.2-3.6S129.3,0.1,127,0.1z"/>
	<path d="M114.9,0.1c-1.9,0-26.6,0-28.7,0c-2.1,0-4.2,1.1-5.4,3c-1.1,1.9-10.2,17.7-11.2,19.4c-1,1.7,0.4,3.7,2.1,3.7s26.4,0,28.7,0
		c2.3,0,4.3-1.3,5.4-3.1c1-1.7,10.2-17.7,11.2-19.4C118,2.1,116.8,0.1,114.9,0.1z M100.4,6c-0.4,0.7-8,13.9-8.5,14.7
		c-0.4,0.7-1.2,1.2-2.1,1.2c-0.9,0-1.8,0-2.7,0c-0.9,0-1.2-0.9-0.9-1.5c0.3-0.6,8-13.9,8.5-14.7c0.5-0.8,1.4-1.2,2.1-1.2
		c0.8,0,1.9,0,2.7,0C100.3,4.4,100.8,5.3,100.4,6z"/>
	<path d="M74,0.1c-1.9,0-32.4,0-32.4,0L29.1,21.9L0,21.9v4.3c0,0,57.5,0,59.6,0c2.2,0,4.2-1.1,5.4-3.1c1.1-2,2.9-5.1,3.7-6.4
		c0.8-1.3,0-3.1-1.5-3.5c2.1,0,4.2-1.3,5.3-3c1-1.8,2.7-4.7,3.6-6.3C77.1,2.2,75.9,0.1,74,0.1z M56.8,16.8c-0.4,0.7-1.7,2.9-2.2,3.8
		c-0.5,0.9-1.4,1.2-2.1,1.2c-0.7,0-8.1,0-8.1,0l3.8-6.5c0,0,6.9,0,7.8,0S57.2,16.2,56.8,16.8z M63.1,6c-0.4,0.7-1.7,2.9-2.2,3.8
		c-0.5,0.9-1.4,1.2-2.1,1.2c-0.7,0-8.1,0-8.1,0l3.8-6.5c0,0,6.9,0,7.8,0C63,4.4,63.5,5.3,63.1,6z"/>
	<polygon points="164.3,0.1 149.2,26.2 185.8,26.2 188.3,21.9 167.1,21.9 170.9,15.3 192.1,15.3 194.6,11 173.4,11 177.1,4.4 
		216.9,4.4 216.9,0.1 	"/>
	<g>
		<path d="M221,0c1.3,0,2.3,1,2.3,2.3c0,1.3-1,2.3-2.3,2.3c-1.3,0-2.3-1-2.3-2.3C218.7,1,219.7,0,221,0z M221,4.2
			c1.1,0,1.9-0.8,1.9-1.9c0-1.1-0.8-1.9-1.9-1.9c-1.1,0-1.9,0.8-1.9,1.9C219.1,3.4,219.9,4.2,221,4.2z M221.4,2.5l0.6,1h-0.5
			L221,2.5h-0.4v0.9h-0.4V1.1h1.1c0.4,0,0.7,0.3,0.7,0.7v0.1C221.9,2.2,221.7,2.4,221.4,2.5z M220.6,2.2h0.6c0.2,0,0.4-0.1,0.4-0.3
			V1.8c0-0.2-0.2-0.4-0.4-0.4h-0.6V2.2z"/>
	</g>
</g>
</svg>
