<?xml version="1.0" encoding="utf-8"?>
<!-- Generator: Adobe Illustrator 16.0.0, SVG Export Plug-In . SVG Version: 6.00 Build 0)  -->
<!DOCTYPE svg PUBLIC "-//W3C//DTD SVG 1.1//EN" "http://www.w3.org/Graphics/SVG/1.1/DTD/svg11.dtd">
<svg version="1.1" id="Layer_1" xmlns="http://www.w3.org/2000/svg" xmlns:xlink="http://www.w3.org/1999/xlink" x="0px" y="0px"
	 width="360.955px" height="246.969px" viewBox="0 0 360.955 246.969" enable-background="new 0 0 360.955 246.969"
	 xml:space="preserve">
<path fill-rule="evenodd" clip-rule="evenodd" fill="#939598" d="M307.961,78.99c2.582,0.322,32.074,14.656,32.996,15.998
	c0,2.666,0,5.333,0,7.999c3.979,2.698,6.776,7.508,6.999,13.998c-4.704,3.493-6.555,6.792-14.997,7c0-0.667,0-1.333,0-2
	c1.301-0.555,0.74-0.03,0.999-1c-1.455-2.542,0.218-1.128-2.999-2c-1.335,3.145-2.92,4.855-4,7.999c3.166-0.01,1.868-1.423,3,2
	c-3.035,2.149-3.432,5.465-6.999,6.999c-3.832,2.68-8.787-0.592-9.999-3.999c3.238-1.272,2.632-0.879,2.999-5
	c-6.389-0.02-8.471-1.479-13.997-2c-4.732,6.222-10.336,13.675-12.999,21.998c8.998-1,17.999-2,26.996-3
	c7.927,13.368,44.746,11.725,44.995,30.996c-4.762,3.748-6.016,6.852-14.999,6.999c-2.967-3.689-8.208-4.099-11.998-6.999
	c-2.008-1.536-1.479-3.618-3.999-4.999c0,0.667,0,1.333,0,2c-3.423,5.72-0.826,9.649-9.999,9.998
	c-2.067-2.943-6.151-5.896-7.999-8.998c-1.823-3.062-0.305-8.87-1-9.999c-0.842-1.368-2.95-0.712-4.999-1
	c-1.797,3.617-6.203,4.496-9.999,5.999c-0.372-2.075-0.242-1.925-1-2.999c-4.654,3.692-31.482,11.85-42.994,10.998
	c-0.588-4.85-2.778-9.397-7.999-9.998c-2.584,1.357-2.714-0.893-6,0c-4.371,1.188-8.979,6.521-12.998,7.999
	c-5.483,2.014-32.062,2.631-33.995,1.999c-9.369-3.061-15.451-6.582-23.998-9.998c-5.311-2.124-7.815-0.525-11.999-2
	c-4.208,1.882-4.099,0.224-7.999,1c-0.333,0.666-0.667,1.333-1,1.999c-0.666,0-1.333,0-2,0c0-0.666,0-1.333,0-1.999
	c-3.499-0.708-5.681,2.432-7.999,2.999c-1.136,0.279-1.747-1.651-4-1c-11.046,3.194-20.014,13.509-25.997,21.997
	c-2.158,3.062-2.976,6.927-6,8.999c-16.092,11.029-47.34,8.825-62.992,19.997c-3.887,2.774-18.057,14.232-19.998,17.999
	c-2.021,3.92,0.206,6.602-3,8.999c-2.587,1.934-5.419,1.948-9.999,1.999c-2.356-4.116-3.933-6.109-4-12.998
	c1.495-1.398,2.885-3.244,4-5c-3.815-1.255-3.914-2.028-4-6.999c6.881-2.639,4.844-8.879,8.999-13.998
	c1.275-1.571,4.677-1.362,5.999-2.999c4.927-6.103,10.44-14.1,13.999-20.998c32.829-0.007,31.887-15.661,41.995-35.996
	c3.16-6.355,1.009-11.863,5.999-15.997c-1.557-2.433-0.549-4.225-2-7.999c-0.666-1.732-3.162-1.846-4-3
	c-2.025-2.789-1.193-6.092-3-8.999c-2.333-1.667-4.667-3.333-7-5c-0.667-2.666-1.333-5.333-2-7.999
	c-3.172-5.277-8.644-13.309-10.999-18.998c-1.853-4.476-5.133-25.686-4-30.996c0.855-4.005,3.642-10.916,2-16.998
	C43.141,21.429,32.852,12.013,31.996,2c1-0.333,2-0.667,3-1c1.991-1.337,6.506-1.104,9.999-1c5.627,5.43,13.85,8.1,16.998,15.998
	c2.646,6.639,3.906,22.519,2,31.996c-0.168,0.834-1.563,3.615-1,5.999c5.417,22.936,14.427,49.077,30.996,60.993
	c7.89,5.674,20.287,5.222,30.996,2c4.999,0,9.999,0,14.998,0c15.714-3.305,33.274-4.596,49.994-6.999
	c14.166-2.036,25.978-8.128,33.996-7.999c0-0.333,0-0.667,0-1c-0.943-1.764-0.221-0.013,0-2c0.666,0.333,1.333,0.667,1.999,1
	c0-0.333,0-0.667,0-1c3.844-3.931,5.866-10.429,11.998-11.999c7.643-4.646,19.214,2.96,28.997,1c4.71-0.944,14.668-3.718,19.997-5
	c8.769-2.108,14.099,1.334,20.997-1C307.961,80.99,307.961,79.99,307.961,78.99z"/>
</svg>
