<?xml version="1.0" encoding="utf-8"?>
<!-- Generator: Adobe Illustrator 16.0.0, SVG Export Plug-In . SVG Version: 6.00 Build 0)  -->
<!DOCTYPE svg PUBLIC "-//W3C//DTD SVG 1.1//EN" "http://www.w3.org/Graphics/SVG/1.1/DTD/svg11.dtd">
<svg version="1.1" id="Layer_1" xmlns="http://www.w3.org/2000/svg" xmlns:xlink="http://www.w3.org/1999/xlink" x="0px" y="0px"
	 width="361px" height="247px" viewBox="0 0 361 247" style="enable-background:new 0 0 361 247;" xml:space="preserve">
<style type="text/css">
<![CDATA[
	.st0{fill-rule:evenodd;clip-rule:evenodd;}
]]>
</style>
<path class="st0" d="M308,79c2.6,0.3,32.1,14.7,33,16c0,2.7,0,5.3,0,8c4,2.7,6.8,7.5,7,14c-4.7,3.5-6.6,6.8-15,7c0-0.7,0-1.3,0-2
	c1.3-0.6,0.7,0,1-1c-1.5-2.5,0.2-1.1-3-2c-1.3,3.1-2.9,4.9-4,8c3.2,0,1.9-1.4,3,2c-3,2.1-3.4,5.5-7,7c-3.8,2.7-8.8-0.6-10-4
	c3.2-1.3,2.6-0.9,3-5c-6.4,0-8.5-1.5-14-2c-4.7,6.2-10.3,13.7-13,22c9-1,18-2,27-3c7.9,13.4,44.7,11.7,45,31c-4.8,3.7-6,6.9-15,7
	c-3-3.7-8.2-4.1-12-7c-2-1.5-1.5-3.6-4-5c0,0.7,0,1.3,0,2c-3.4,5.7-0.8,9.6-10,10c-2.1-2.9-6.2-5.9-8-9c-1.8-3.1-0.3-8.9-1-10
	c-0.8-1.4-3-0.7-5-1c-1.8,3.6-6.2,4.5-10,6c-0.4-2.1-0.2-1.9-1-3c-4.7,3.7-31.5,11.9-43,11c-0.6-4.8-2.8-9.4-8-10
	c-2.6,1.4-2.7-0.9-6,0c-4.4,1.2-9,6.5-13,8c-5.5,2-32.1,2.6-34,2c-9.4-3.1-15.5-6.6-24-10c-5.3-2.1-7.8-0.5-12-2
	c-4.2,1.9-4.1,0.2-8,1c-0.3,0.7-0.7,1.3-1,2c-0.7,0-1.3,0-2,0c0-0.7,0-1.3,0-2c-3.5-0.7-5.7,2.4-8,3c-1.1,0.3-1.7-1.7-4-1
	c-11,3.2-20,13.5-26,22c-2.2,3.1-3,6.9-6,9c-16.1,11-47.3,8.8-63,20c-3.9,2.8-18.1,14.2-20,18c-2,3.9,0.2,6.6-3,9
	c-2.6,1.9-5.4,1.9-10,2c-2.4-4.1-3.9-6.1-4-13c1.5-1.4,2.9-3.2,4-5c-3.8-1.3-3.9-2-4-7c6.9-2.6,4.8-8.9,9-14c1.3-1.6,4.7-1.4,6-3
	c4.9-6.1,10.4-14.1,14-21c32.8,0,31.9-15.7,42-36c3.2-6.4,1-11.9,6-16c-1.6-2.4-0.5-4.2-2-8c-0.7-1.7-3.2-1.8-4-3
	c-2-2.8-1.2-6.1-3-9c-2.3-1.7-4.7-3.3-7-5c-0.7-2.7-1.3-5.3-2-8c-3.2-5.3-8.6-13.3-11-19c-1.9-4.5-5.1-25.7-4-31
	c0.9-4,3.6-10.9,2-17C43.1,21.4,32.9,12,32,2c1-0.3,2-0.7,3-1c2-1.3,6.5-1.1,10-1c5.6,5.4,13.9,8.1,17,16c2.6,6.6,3.9,22.5,2,32
	c-0.2,0.8-1.6,3.6-1,6c5.4,22.9,14.4,49.1,31,61c7.9,5.7,20.3,5.2,31,2c5,0,10,0,15,0c15.7-3.3,33.3-4.6,50-7c14.2-2,26-8.1,34-8
	c0-0.3,0-0.7,0-1c-0.9-1.8-0.2,0,0-2c0.7,0.3,1.3,0.7,2,1c0-0.3,0-0.7,0-1c3.8-3.9,5.9-10.4,12-12c7.6-4.6,19.2,3,29,1
	c4.7-0.9,14.7-3.7,20-5c8.8-2.1,14.1,1.3,21-1C308,81,308,80,308,79z"/>
</svg>
