<?xml version="1.0" encoding="utf-8"?>
<!-- Generator: Adobe Illustrator 16.0.0, SVG Export Plug-In . SVG Version: 6.00 Build 0)  -->
<!DOCTYPE svg PUBLIC "-//W3C//DTD SVG 1.1//EN" "http://www.w3.org/Graphics/SVG/1.1/DTD/svg11.dtd">
<svg version="1.1" id="Layer_1" xmlns="http://www.w3.org/2000/svg" xmlns:xlink="http://www.w3.org/1999/xlink" x="0px" y="0px"
	 width="651px" height="481px" viewBox="0 0 651 481" enable-background="new 0 0 651 481" xml:space="preserve">
<g>
	<defs>
		<rect id="SVGID_1_" x="-94" y="-40.276" width="841.89" height="595.276"/>
	</defs>
	<clipPath id="SVGID_2_">
		<use xlink:href="#SVGID_1_"  overflow="visible"/>
	</clipPath>
	<path clip-path="url(#SVGID_2_)" fill-rule="evenodd" clip-rule="evenodd" fill="#1F92D5" d="M288.535,36.058
		c0.39,1.532,0.273,3.756,0.773,5.443c0.197,0.659,0.774,1.048,1.092,1.556c0.614,0.996,1.087,4.104,0.621,5.91
		c-0.317,1.229-0.614,2.802-0.932,4.201c-0.055,1.19-0.104,2.385-0.159,3.576c-0.204,0.871-0.414,2.93-0.152,4.042
		c0.283,1.192,0.864,3.269,0.622,4.668c-0.263,1.512-0.408,4.638,0,6.375c0.435,1.851-0.805,3.301-0.311,5.287
		c0.518,2.1,0.725,4.964,1.243,7.154v3.116c0.311,1.252,0.494,3.34,0.777,4.505c0.473,1.964-1.454,4.738-1.399,7.313
		c0.021,1.015,0.429,1.48,0.622,2.175c0.587,2.095-1.104,5.657-0.469,8.244l1.246,4.199c0.314,1.29-0.1,3.193-0.307,4.044
		c-0.287,1.13,0.28,2.223,0.463,2.953v8.711c1.54,7.415,0.124,19.589,3.425,26.439c2.939-0.193,1.582-7.095,2.173-9.643v-2.799
		c-0.321-1.278-0.936-2.644-1.244-4.044c-0.414-1.87,0.891-3.262,1.244-4.51c0.462-1.646,0.428-3.303,0.777-4.823
		c0.107-6.066,0.207-12.128,0.31-18.196c0-3.39-0.276-7.565,0.159-10.265c0.166-1.05-0.145-2.096,0.304-2.796
		c0.166-0.124,0.042-0.057,0.318-0.162c0.919,2.2,0.905,7.487,1.554,10.426v2.177c0.355,1.613-0.138,3.089,0.311,4.978
		c0.528,2.226,0.836,5.708,0.31,8.086v9.489c-0.013,2.661-0.383,5.926,0.152,8.393c0.539,2.466-0.158,5.301,0.318,7.468v5.909
		c0.715,3.032,0.815,7.287,1.865,10.108c0.359,0.971,1.071,1.798,1.554,2.64c1.261-0.093,1.713-1.314,1.395-2.794
		c-0.573-2.743-0.152-6.048-0.152-9.175v-2.803c-0.587-2.754-0.463-5.95-0.463-9.174v-4.044c-0.231-0.834-0.866-1.74-1.091-2.642
		c0.052-0.782,0.101-1.559,0.159-2.331c-0.224-3.814,0.494-7.378,1.243-10.578c0.049-3.113,0.097-6.226,0.152-9.331
		c0-1.417-0.238-3.311,0.47-4.045c0.048-0.052,0.104-0.104,0.155-0.154c0.76,2.169,1.309,4.047,1.865,6.375v4.667
		c0.642,3.587-0.432,9.991,0.466,14.462c0.336,1.683-0.027,4.007-0.311,5.29c-0.493,2.226,0.08,7.449,0.463,9.176v2.797
		c0.463,1.93-0.214,4.874,0.318,6.998c0.456,1.841,0.825,4.326,1.706,5.756c0.269,0.1,0.152,0.029,0.311,0.153
		c0.621-0.074,0.994-0.224,1.247-0.62c0.279-0.444,0.003-1.091,0.155-1.712c0.404-1.68,1.147-4.666,0.621-6.997
		c-0.518-2.291-1.15-4.672-0.621-7.154c0.221-1.053-0.304-1.559,0-2.49c0.314-0.956,1.447-1.461,1.709-2.329
		c-0.051-0.366-0.1-0.73-0.151-1.091c-0.052-1.116,0.134-2.029,0.314-2.803c0.594-2.623-0.722-6.908,0.463-8.863
		c0.048-0.15,0.096-0.311,0.152-0.465c0.407,0.03,0.524,0.07,0.773,0.154c0.228,1.138-0.131,2.88,0.159,4.2
		c1.713,7.825,0.753,17.607,2.493,25.351c0.484,2.17,0.235,8.375,1.865,9.02c0.159,0.127,0.034,0.057,0.308,0.156
		c0.179-0.185,0.397-0.334,0.624-0.47c0.18-0.944-0.089-2.445,0.156-3.576c0.321-1.506,0.47-3.742,0.307-5.442
		c-0.076-0.843-0.383-2.345-0.152-3.421c0.484-2.24,0.512-8.179,0-10.575c0.104-4.51,0.207-9.021,0.315-13.53
		c0-3.184-0.38-8.013,0.152-10.422c0.383-1.734-0.097-3.207,0.932-4.198c0.466,1.164,0.929,2.86,0.777,4.508
		c-0.042,0.482-0.342,1.337-0.156,2.024c0.108,0.385,0.563,0.967,0.622,1.401c0.131,0.91,0,3.071,0,4.353v6.221
		c0.104,0.383,0.522,1.017,0.625,1.399v5.442c0.08,0.33,0.385,1.055,0.463,1.401v2.645c0.173,0.63,0.64,1.146,0.629,2.02
		l-0.629,4.199c-0.496,2.35,0.2,7.524,0.629,9.332c0.283,1.219-0.11,2.279,0.463,3.114c0.083,0.783,0.304,0.76,0.622,1.242
		c2.734-0.451,1.215-8.501,1.864-11.353c0.442-1.925,0.656-4.175,1.092-6.066v-2.799c0.007-1.228,0.083-2.794,0.311-3.887
		c0.214-1.031-0.214-2.284,0-3.265c0.242-1.121-0.124-2.671-0.311-3.58c-0.273-1.301,0.1-3.006,0.311-3.888v-3.733
		c0.525-2.423,0.238-6.035,1.554-7.776v-0.155c0.93,1.159,0.474,2.937,0.933,4.667c1.509,5.66-0.421,13.508,0.936,19.129
		c0.428,1.792,0.946,5.871,0.463,8.086c-0.532,2.457-0.888,6.584-0.311,9.335c0.204,0.951-0.439,1.752,0,2.484
		c-0.021,1.301,0.021,2.24,0.473,2.953c1.568-0.178,1.686-1.827,2.169-3.107c0.64-1.676,1.367-2.736,1.25-4.978v-1.709
		c-0.104-0.337-0.539-0.984-0.621-1.4c-0.173-0.829,0.314-1.875,0.462-2.487c0.056-0.675,0.104-1.352,0.159-2.024
		c0.466-1.588,0.981-3.722,1.399-5.289c0.154-2.484,0.31-4.974,0.466-7.462l-0.939-4.201c0.525-3.378,2.99-8.608,2.03-13.064
		c-0.635-2.934-0.2-6.712-0.318-9.953l-0.31-4.511c0.38-1.664,0.987-3.759,1.402-5.446c-0.053-2.483-0.104-4.973-0.152-7.462
		c0.007-5.885-0.349-12.939,0.777-18.196c0.361-1.713-0.937-3.07-1.247-4.2v-4.508c0.601-2.88-0.314-6.921-0.314-10.576v-2.798
		c0.729-2.985,1.44-6.14,2.18-9.179c0.345-1.407-0.353-2.714-0.152-3.731v-4.356c0.756-3.268,0.884-8.088-0.159-11.352
		c-0.345-1.097-1.188-1.963-1.554-2.954c-0.739-1.989,0.035-5.044-0.78-7c-0.384-0.938-2.618-3.832-3.419-4.354
		c-0.784-0.512-1.879-0.434-2.646-0.934c-1.356-0.889-2.306-2.383-3.729-3.263c-0.815-0.504-1.696-0.546-2.645-0.934
		c-3.348-1.375-6.352-2.559-11.201-2.489c-1.16,0.812-2.994,0.033-4.666,0.467c-0.828,0.217-1.699,0.464-2.638,0.775
		c-1.716,0.573-3.688,0.96-5.446,1.713c-0.898,0.382-1.571,1.207-2.331,1.711c-0.815,0.542-1.689,0.666-2.645,1.09
		c-0.936,0.407-1.713,1.169-2.487,1.707c-1.664,1.161-3.405,1.734-4.517,3.421c-0.88,1.917-1.754,3.838-2.638,5.757
		c-0.159,1.037-0.311,2.072-0.47,3.11c-0.794,2.168-2.079,5.492-1.395,8.555V36.058z M330.681,66.854
		c0.327-1.671,0.193-4.212,0.622-6.068c0.489-2.148-0.181-4.593,0.469-6.221h0.311c0.076,1.518,0.781,2.224,1.085,3.424
		c0.056,1.243,0.104,2.49,0.152,3.732c0.704,2.686,0.739,6.585,1.402,9.331c0.39,1.614-0.625,3.512-0.933,4.669
		c-0.291,1.11,0.148,2.519,0.311,3.263c-0.049,1.295-0.104,2.59-0.152,3.887c0.774,3.193,1.568,10.21,0.774,13.688
		c-0.27,1.184,0.252,3.21,0.466,4.201c0.625,2.814-0.442,5.879-0.933,7.927c-0.286,1.216,0,2.3-0.622,3.113
		c-0.052,0.102-0.104,0.207-0.148,0.311h-0.317c-0.939-2.062-1.333-5.467-1.864-7.777v-3.264c-0.166-0.718-0.608-1.49-0.781-2.025
		c0.056-1.14,0.104-2.279,0.159-3.419c-0.159-1.504-0.311-3.008-0.47-4.508c-0.031-0.613,0.21-1.516,0.311-2.024
		c-0.048-0.832-0.104-1.661-0.151-2.49c0.059-0.269,0.29-1.046,0.151-1.554c-1.174-4.519-0.353-11.075,0.47-15.552
		C330.888,68.615,330.784,67.737,330.681,66.854 M320.572,86.604c0.487-2.122,0.764-5.113,1.24-7.153
		c0.49-2.087-0.325-5.089,0.78-6.533c0.052-0.103,0.104-0.209,0.156-0.311h0.47c0.003,2.475,0.618,3.619,0.618,6.068
		c0,1.651-0.753,3.229-0.311,4.817c0.228,0.828,0.715,1.957,0.932,2.803v3.108c0.318,1.292,0.808,2.986,0.466,4.514
		c-0.217,0.984,0.163,2.018,0.315,2.642c0.359,1.474-0.315,5.306-0.936,6.221c0.017,2.162,0.501,5.89-0.308,7.465h-0.624
		c-0.142-0.84-0.577-1.415-0.778-2.175c-0.055-1.194-0.103-2.388-0.155-3.579c-0.459-1.834-0.95-4.16-1.402-6.064
		c-0.052-2.44-0.1-4.876-0.155-7.309C320.876,89.555,320.187,88.257,320.572,86.604 M316.528,106.356
		c1.14,1.014,0.442,2.388,0.933,4.042c0.904,3.051,1.336,6.929,0.621,10.421c-0.317,1.542,0.09,2.419-0.466,3.579
		c-0.266,0.1-0.155,0.03-0.314,0.152c-2.096-0.141-1.43-3.163-1.71-5.132c-0.155-1.138,0.242-2.32,0.311-3.571
		C316.086,112.572,315.542,108.735,316.528,106.356 M311.859,72.918c-0.055-3.265-0.103-6.532-0.152-9.795
		c0.325-1.428,0.777-3.032,1.085-4.355c0.587,0.509,1.184,2.685,0.936,3.885c-0.059,0.278-0.335,1.202-0.156,1.711
		c0.259,0.259,0.518,0.518,0.777,0.781c0.104,0.621,0.204,1.241,0.311,1.863c0.221,0.588,0.808,1.293,0.932,2.023
		c-0.1,1.919-0.207,3.837-0.314,5.754c-0.024,2.498,0.953,5.973,0.314,8.707c-0.145,0.636-0.473,1.546-0.621,2.178
		c-0.428,1.877,0.2,4.02-0.777,5.289c-0.138,0.338-0.138,0.228-0.311,0.468h-0.47c-0.269-1.359-0.794-2.531-1.084-3.578v-2.022
		c-0.125-0.492-0.497-1.217-0.622-1.709l-0.311-3.264c-0.193-0.666-0.756-1.309-0.932-2.025
		C309.843,76.356,311.466,74.602,311.859,72.918 M298.64,76.805c0.155-0.603,0.67-1.236,0.469-2.177
		c-0.621-2.881-0.179-5.101,0.463-7.774c0.345-1.425,0.014-2.683,0.47-3.731h0.311c0.013,1.315,0.255,2.087,0.462,2.952v4.512
		c0.346,1.478,0.739,3.367,1.091,4.976c0.256,1.178-0.666,5.569-0.929,6.69c-0.393,1.625,0.284,3.315-0.473,4.51v0.307h-0.614
		c-0.366-1.593-1.05-3.077-1.402-4.508C298.536,80.645,298.591,78.723,298.64,76.805 M447.786,166.542
		c0.055-1.967,0.104-3.94,0.159-5.909c-0.188-0.737-0.601-1.701-0.781-2.491c-0.47-2.069,0.76-4.022,0.155-6.215
		c-0.272-1.013-0.984-2.027-1.239-3.113c-0.325-1.35,0.684-2.383,0.308-3.887c-0.515-2.062-1.751-3.89-2.331-6.067
		c-0.35-1.311,0.279-3.088-0.159-4.509c-0.791-2.576-1.645-5.595-2.176-8.4c-0.207-1.102,0.553-2.181,0.159-3.421
		c-0.636-1.96-1.713-3.868-2.335-5.755c-0.677-2.055-0.836-4.027-1.872-5.752c-1.008-1.687-3.19-2.486-4.351-4.042
		c-1.036-1.39-1.347-3.507-2.331-4.98c-1.164-1.739-3.049-2.937-4.199-4.665c-2.138-3.208-2.904-7.506-5.136-10.573
		c-0.943-1.314-2.5-1.126-3.888-2.022c-0.256-0.264-0.519-0.523-0.774-0.782c-0.753-0.468-1.626-0.577-2.334-1.088
		c-0.574-0.57-1.14-1.138-1.706-1.711c-0.722-0.466-1.65-0.289-2.183-0.929c-0.359,0.112-0.345,0.157-0.622,0.309
		c0.263,1.155,1.741,1.583,2.335,2.486c0.546,0.84,0.666,1.853,1.243,2.644c0.648,0.903,1.768,1.634,2.646,2.336
		c0.773,0.61,1.505,2.114,2.021,2.953c0.742,1.217,0.925,2.678,1.709,3.889c0.435,0.666,1.333,1.162,1.713,1.868
		c0.615,1.148,0.698,2.503,1.402,3.579c0.625,0.955,1.713,1.829,2.327,2.794c0.359,0.559,0.21,1.185,0.47,1.868
		c0.483,1.297,1.468,2.801,2.017,4.042c0.107,0.468,0.211,0.937,0.314,1.399c0.771,1.808,2.349,3.01,3.107,4.823
		c1.154,2.744,1.303,5.8,2.338,8.554c0.57,1.528,1.858,2.638,2.487,4.042c0.311,0.708,0.104,1.28,0.311,2.179
		c0.317,1.352-0.214,3.436,0.159,4.977c0.283,1.215,0.483,3.22,0.773,4.353c0.532,2.108-0.773,3.676-0.312,5.601
		c0.34,1.418,1.645,5.054,0.463,6.84v0.312c-0.897-0.345-0.745-1.272-1.084-2.179c-0.518-1.141-1.035-2.276-1.554-3.42
		c-0.055-0.518-0.104-1.035-0.156-1.553c-0.376-1.304-1.039-2.908-1.397-4.353v-2.801c-0.09-0.286-0.512-0.766-0.622-1.088
		c-0.373-1.098-0.338-2.073-0.78-3.111c-0.097-0.231-0.542-0.589-0.626-0.775c-0.1-1.663-0.203-3.324-0.307-4.982
		c-0.78-2.79-2.97-3.027-4.199-4.819c-0.636-0.927-0.76-2.048-1.244-3.11c-0.165-0.352-0.621-0.725-0.78-1.09
		c-0.794-1.889-0.444-4.142-1.242-6.065c-0.436-1.05-1.265-2.185-1.71-3.266c-0.964-2.32-1.081-4.714-2.18-6.844
		c-0.896-1.739-2.523-3.145-3.418-4.978c-0.863-1.758-1.153-3.404-2.176-4.975c-0.905-1.383-2.493-3.198-4.048-3.89
		c-0.466-0.047-0.932-0.1-1.398-0.152c-0.895-0.411-1.661-1.63-2.486-2.181c-1.22-0.806-2.618-1.048-3.893-1.863
		c-2.523-1.634-4.303-4.153-7.307-5.289c-0.622-0.105-1.243-0.211-1.865-0.311c-1.616-0.611-3.578-1.768-5.132-2.492
		c-0.47-0.103-0.937-0.203-1.402-0.307c-0.154-0.261-0.313-0.518-0.463-0.78c-1.095-0.9-2.707-1.763-4.047-2.328
		c-1.036-0.444-2.017-0.411-3.112-0.78c-1.314-0.446-2.813-1.162-4.194-1.556c-1.824-0.522-4.324-0.314-5.599-1.397
		c-0.362,0.046-0.391,0.071-0.626,0.154c0.159,1.195,1.02,0.953,1.713,1.554c0.36,0.416,0.727,0.83,1.093,1.245
		c1.543,1.051,3.633,1.288,5.435,2.02c0.753,0.302,1.606,0.996,2.335,1.246c1.084,0.37,2.031,0.042,2.8,0.622
		c0.463,0.349,0.729,1.081,1.089,1.554c0.429,0.566,2.045,1.934,2.646,2.335c1.467,0.982,3.515,1.205,4.979,2.179
		c0.984,0.656,1.626,1.856,2.639,2.488c1.57,0.977,3.281,1.209,4.357,2.645c1.01,1.342,1.807,2.837,2.953,4.041
		c1.973,1.968,3.94,3.94,5.909,5.909c0.324,0.48,0.353,1.037,0.625,1.557c0.742,1.432,1.578,2.887,2.175,4.508
		c0.446,1.213,0.516,2.77,1.243,3.732v0.314c-0.721-0.362-1.08-1.399-1.553-2.023c-0.653-0.869-1.849-1.287-2.49-2.178
		c-0.342-0.475-0.505-1.316-0.933-1.711c-0.569-0.156-1.141-0.314-1.709-0.465c-0.877-0.564-1.824-2.66-2.49-3.579
		c-0.801-1.107-2.169-1.668-3.268-2.488c-1.015-0.76-1.599-2.197-2.646-2.958c-1.774-1.288-4.226-2.022-5.749-3.573
		c-0.581,0.107-0.549,0.223-0.936,0.467c0.247,1.426,1.464,1.854,2.175,2.799c0.991,1.31,1.976,2.574,3.111,3.731
		c0.439,0.44,1.182,0.768,1.555,1.247c0.843,1.062,1.356,3.144,2.489,3.885c0.898,0.589,2.072,0.69,2.646,1.557
		c0.249,0.371,0.125,0.801,0.311,1.243c0.276,0.631,0.908,1.285,1.243,1.866c0.388,0.663,0.37,1.431,0.781,2.023
		c1.512,2.179,3.785,3.754,5.29,5.909c0.667,0.962,0.897,2.132,1.396,3.263c0.745,1.698,1.879,3.44,2.798,4.98
		c0.514,0.841,0.579,1.822,1.091,2.642c1.522,2.459,3.509,4.652,4.666,7.466c0.479,1.168,0.808,2.558,1.088,3.733v3.419
		c0.507,2.053,1.146,4.685,1.712,6.688c0.049,0.572,0.104,1.145,0.152,1.714c0.27,0.764,0.997,1.561,1.247,2.489l-0.314,7.153
		c0.449,3.058,0.587,6.407,0,9.174v6.377c-0.622,2.777-0.649,5.605-1.706,7.777c-0.056,0.056-0.104,0.102-0.159,0.156h-0.151
		c-0.083-2.977,0.151-6.551,0.151-10.108v-3.58c-0.483-2.17-0.221-4.959-0.776-7.313c-0.294-1.246-0.784-2.591-1.089-3.885v-5.596
		c-0.262-1.036-0.98-1.844-1.242-2.799v-4.669c-0.401-1.739-0.871-3.93-1.562-5.595c-0.794-1.937-2.5-3.187-3.574-4.824
		c-0.991-1.521-1.8-3.947-2.331-5.752v-1.087c-0.477-1.414-1.927-3.224-2.955-4.203c-0.366-0.261-0.727-0.52-1.093-0.779
		c-0.448-0.647-0.304-1.146-0.613-2.017c-0.401-1.094-1.41-2.172-1.872-3.27c-0.152-0.57-0.309-1.142-0.463-1.711
		c-1.852-3.106-5.826-6.384-8.714-8.551c-1.502-1.134-2.393-3.022-4.041-4.047c-0.963-0.594-2.596-0.432-3.576-1.088
		c-0.653-0.437-1.078-1.383-1.559-2.02c-0.877-1.175-2.466-2.484-3.729-3.262c-0.832-0.52-4.295-2.694-5.445-2.029h-0.467
		c-0.101,0.271-0.027,0.155-0.151,0.313c0.187,1.315,3.937,3.051,4.817,4.201c1.254,1.633,2.319,3.339,3.578,4.976
		c0.403,0.53,1.17,0.839,1.709,1.245c0.473,0.354,0.697,0.956,1.088,1.398c1.19,1.14,2.386,2.282,3.578,3.417
		c0.494,0.652,0.82,1.327,1.401,1.872v0.308c-1.537-0.439-1.951-1.825-3.111-2.485c-0.512-0.297-1.084-0.164-1.555-0.468
		c-1.16-0.751-2.029-1.994-3.11-2.799c-1.345-1.003-3.016-2.393-4.663-2.953c-1.205-0.412-2.206-0.155-3.114-0.775
		c-0.287-0.207-0.354-0.729-0.618-0.939c-0.429-0.326-0.95-0.321-1.398-0.625c-1.074-0.706-2.008-1.787-3.271-2.328
		c-1.208-0.516-2.548-0.364-3.888-0.777c-1.555-0.725-3.108-1.454-4.666-2.179c-1.437-0.496-3.954-0.844-4.977-1.709
		c-0.601,0.091-0.69,0.239-1.088,0.468v0.31c0.259,0.361,0.521,0.726,0.777,1.086c0.573,0.157,1.14,0.315,1.71,0.472
		c0.452,0.191,0.86,0.69,1.246,0.929c0.498,0.305,1.074,0.292,1.554,0.623c0.919,0.627,2.024,2.893,2.646,3.267
		c0.939,0.558,2.09,0.489,3.107,0.927c1.416,0.615,2.726,2.128,4.2,2.648c0.984,0.105,1.968,0.208,2.96,0.312
		c0.618,0.621,1.239,1.243,1.864,1.865c0.61,0.418,1.282,0.513,1.865,0.937c1.43,1.033,2.738,2.321,4.198,3.417
		c1.296,1.349,2.595,2.694,3.887,4.043c4.475,3.382,8.433,7.683,11.665,12.287c0.836,1.19,1.34,2.535,2.176,3.735
		c0.967,1.369,2.227,2.775,3.115,4.199c0.948,1.528,1.525,3.54,2.176,5.288c0.259,0.699,0.233,1.459,0.621,2.023
		c-0.015,0.39-0.021,0.575-0.155,0.774c-0.156,0.122-0.038,0.058-0.307,0.153c-0.979-1.098-1.368-2.576-2.181-3.887
		c-2.351-3.788-4.638-8.103-7.313-11.663c-0.991-1.32-2.531-2.43-3.73-3.575c-3.836-3.652-6.879-6.986-11.662-9.799
		c-0.47-0.103-0.938-0.205-1.398-0.311c-0.915-0.35-1.562-1.231-2.337-1.711c-1.378-0.861-3.24-1.039-4.508-2.02
		c-0.445,0.019-0.667,0.061-0.936,0.152c0.345,2.167,4.448,3.992,5.912,5.446c1.205,1.193,2.3,2.97,3.732,3.89
		c0.309,0.047,0.625,0.102,0.93,0.152c0.47,0.201,1.589,1.294,1.869,1.713c0.154,0.516,0.31,1.038,0.469,1.554
		c1.095,1.839,2.615,3.6,3.885,5.287c1.105,1.461,3.858,2.575,4.666,4.044c0.366,0.656-0.104,1.666,0.155,2.49
		c0.215,0.675,0.822,1.515,1.092,2.179c0.335,0.803,0.283,1.523,0.621,2.331c0.995,2.325,2.584,4.92,3.578,7.306
		c0.151,0.727,0.311,1.456,0.47,2.179c0.214,0.523,0.76,1.124,0.925,1.713c-0.048,0.981-0.1,1.969-0.151,2.956
		c0.332,1.217,1.209,2.15,1.554,3.576c0.052,2.072,0.104,4.146,0.159,6.215c0.622,2.609,2.687,6.432,1.865,9.959
		c-0.497,2.093-1.058,4.075-1.558,6.375v5.597c-0.521,2.179-0.536,4.86-1.244,7.001c-0.632,1.912-1.902,3.478-2.642,5.288
		c-0.38,0.918-0.151,1.683-0.469,2.8c-0.181,0.65-0.72,1.428-0.934,2.021c-0.096,0.723-0.207,1.452-0.313,2.177
		c-0.971,3.175-2.749,6.235-4.196,9.019c-0.688,1.322-1.053,2.821-1.861,4.045c-2.317,3.476-5.432,6.33-7.939,9.64
		c-0.621,0.57-1.236,1.142-1.865,1.713c-1.187,1.591-2.811,4.139-4.351,5.286c-1.229,0.915-2.643,1.792-4.04,2.491
		c-0.471,0.154-0.94,0.309-1.406,0.461c-3.505,2.124-7.138,4.58-11.04,6.223c-3.105,1.313-6.396,1.795-9.642,3.114
		c-1.341,0.542-2.761,1.435-4.2,1.866c-0.519,0.056-1.036,0.101-1.558,0.156c-0.746,0.243-1.688,0.725-2.489,0.932h-1.865
		c-0.981,0.256-1.837,0.95-2.797,1.243c-1.084,0.334-2.515-0.19-3.734,0.158c-0.511,0.143-1.184,0.624-1.709,0.777
		c-1.499,0.422-2.614-0.38-4.196,0c-2.507,0.592-5.825-0.006-8.713,0.155c-0.67,0.036-1.312,0.331-1.864,0.464
		c-1.161,0.278-2.183-0.283-2.96-0.464h-2.331c-1.385-0.313-3.392-0.327-4.666-0.625c-3.06-0.049-6.116-0.102-9.176-0.149
		c-4.137-0.991-7.435-2.386-11.196-3.736c-0.776-0.054-1.56-0.106-2.334-0.156c-0.981-0.326-1.568-1.462-2.327-2.02
		c-1.361-0.993-2.829-1.633-4.203-2.647c-0.532-0.392-0.829-1.172-1.399-1.554c-1.267-0.845-2.766-1.169-4.041-2.024
		c-1.001-0.661-1.595-1.861-2.645-2.49c-0.729-0.203-1.454-0.411-2.179-0.618c-0.746-0.312-1.267-0.989-1.861-1.4
		c-0.401-0.273-0.822-0.247-1.095-0.623c-1.516-2.069-2.228-4.911-3.73-6.997c-0.739-1.022-1.896-1.944-2.648-2.958
		c-2.432-3.275-5.346-6.836-7.463-10.263c-1.482-2.396-1.744-5.555-2.956-8.246c-0.467-0.619-0.933-1.238-1.403-1.861
		c-0.58,0.057-0.573,0.119-0.932,0.309c0.045,5.448,1.796,10.081,3.889,13.532c0.404,0.665,1.08,1.451,1.402,2.176
		c0.265,0.599,0.625,1.229,0.777,1.713c0.456,1.419-0.542,2.832,0.151,4.042c0.546,0.938,1.416,1.777,2.024,2.644
		c0.753,1.076,1.25,2.224,2.024,3.265c1.45,1.398,2.901,2.802,4.355,4.199c1.115,1.478,2.642,2.59,3.733,4.046
		c0.929,1.243,1.851,2.518,3.108,3.42c2.155,1.549,4.438,2.699,6.686,4.202c0.842,0.559,1.45,1.46,2.334,2.02v0.154
		c-2.369-0.014-3.232-1.036-4.821-1.713c-1.326-0.556-2.652-0.601-3.888-1.242c-0.366-0.188-0.76-0.716-1.088-0.934
		c-1.419-0.936-2.89-1.502-4.196-2.487c-0.939-1.086-1.868-2.177-2.804-3.265c-0.856-0.644-1.758-1.067-2.638-1.713
		c-0.47-0.569-0.94-1.137-1.403-1.711c-0.725-0.618-1.457-1.243-2.175-1.866c-1.672-2.217-3.288-4.452-4.98-6.688
		c-1.126-1.483-2.877-2.56-3.889-4.197c-1.015-1.649-1.074-3.929-1.864-5.754c-0.536-1.227-1.851-2.203-2.335-3.424
		c-0.339-0.863-0.135-1.571-0.47-2.49c-0.127-0.376-0.614-0.866-0.773-1.241c-0.473-1.111-0.477-2.181-0.933-3.267
		c-0.801-1.889-2.089-4.082-2.645-6.063v-4.665c-0.338-1.447-0.777-3.74-0.466-5.756c0.1-0.657,0.369-2.065,0.155-2.957
		c-0.936-3.904-1.091-8.914-2.02-12.909c0.052-1.345,0.104-2.692,0.155-4.044c-0.386-1.646-0.507-4.275-0.932-6.061v-1.864
		c-0.131-0.52-0.653-1.261-0.466-2.03c0.494-2.042,1.84-3.826,2.331-5.905v-2.484c0.083-0.33,0.38-1.056,0.469-1.404
		c0.235-1.014-0.169-2.107,0.153-2.956c0.725-1.929,2.631-3.043,3.422-4.818c0.891-2.013,1.236-4.196,2.334-6.071
		c0.912-1.554,2.117-2.941,3.112-4.351c0.559-0.798,0.884-1.653,1.554-2.332c-0.062-2.072-1.616-1.536-2.645-0.78
		c-0.76,0.561-1.295,1.576-1.869,2.333c-1.25,1.654-2.869,3.227-4.044,4.981c-1.091,1.629-2.451,2.87-3.419,4.35
		c-0.918,1.402-1.181,3.025-1.864,4.667c-0.774,1.844-1.917,3.906-2.646,5.906c-0.597,1.638-0.397,3.082-0.932,4.822
		c-0.162,0.518-0.608,1.186-0.78,1.711c-0.629,1.938-0.16,5.595-0.622,7.622c-0.256,1.121,0.601,2.704,0,3.735v0.309
		c-2.01-0.998-0.67-4.462-1.244-6.996c-0.98-4.336,0.405-9.667,1.244-13.533l-0.156-5.132c0.142-0.569,0.605-1.224,0.778-1.713
		c0.297-0.823,0.151-1.574,0.469-2.33c0.491-1.185,1.526-2.304,2.017-3.418c0.359-0.808,0.186-1.573,0.47-2.493
		c0.307-0.988,1.112-2.131,1.712-2.953c0.809-1.117,1.855-0.98,3.109-1.713c0.776-0.726,1.553-1.452,2.334-2.174
		c1.64-2.18,4.627-5.212,7.307-6.221c0.574-0.104,1.144-0.209,1.713-0.313c1.396-0.573,2.839-1.529,4.358-2.025
		c2.01-0.653,3.931-0.478,5.747-1.238c1.209-0.513,3.184-1.452,4.358-2.179c0.504-0.314,1.029-0.969,1.554-1.248
		c0.705-0.372,1.385-0.351,2.024-0.774c1.544-1.033,3.398-3.048,4.351-4.664c0.453-0.771,0.442-1.654,0.933-2.334
		c0.808-1.111,2.5-1.508,3.273-2.645c1.057-1.567,1.938-3.813,2.487-5.752c0.152-0.988,0.304-1.972,0.463-2.957
		c0.252-0.695,0.856-1.46,1.091-2.175c0.283-0.877,0.29-2.184,0.466-2.956c0.422-1.886-0.494-3.2-0.78-4.358v-3.416
		c-0.156-0.639-0.591-1.438-0.777-2.025c-0.567-1.749-0.618-3.844-1.554-5.287c-2.083-3.216-5.733-4.329-9.024-6.377
		c-1.046-0.655-1.882-1.9-3.108-2.336c-3.668-1.294-8.475,0.443-12.287,0.316c-1.606-0.054-3.343-1.031-5.129-0.622
		c-10.174,2.326-18.676,3.447-22.398,12.441c0.144,0.143,0.21,0.269,0.31,0.466c1.302-0.164,4.158-2.086,5.132-1.556h1.713v0.154
		c-1.098,0.649-2.611,1.057-3.578,1.867c-0.552,0.464-0.815,1.448-1.395,1.868c-0.442,0.316-0.981,0.316-1.402,0.621
		c-1.285,0.923-2.273,2.556-3.578,3.423c-0.58,0.381-1.595,0.233-2.179,0.623c-0.78,0.515-0.846,1.407-1.398,2.174
		c-0.284,0.397-0.926,0.534-1.244,0.933h-0.466c0.162-2.017,2.165-5.536,3.578-6.377c-0.031-0.406-0.069-0.523-0.159-0.776
		c-1.326,0.121-1.679,0.961-2.49,1.553c-3.305,2.416-4.666,5.833-6.838,9.333c-1.581,2.547-2.783,5.392-3.578,8.711v2.177
		c-0.397,1.77-0.296,3.447-0.78,5.289c-0.425,1.615-1.399,2.863-1.865,4.507c-0.103,1.402-0.207,2.802-0.311,4.203
		c-0.732,2.6-1.871,4.895-2.797,7.152c-0.456,1.107-0.38,2.194-0.78,3.42c-0.594,1.822-1.568,3.725-2.176,5.598
		c-0.159,0.936-0.311,1.867-0.47,2.799c-0.442,1.573-1.098,3.362-1.554,4.978c-0.497,1.769-0.504,3.701-0.932,5.286
		c-0.611,2.279-0.919,8.848-0.466,10.888c0.376,1.691-0.28,3.259-0.308,4.664c-0.034,1.43-0.701,5.234-0.162,6.066v0.311
		c-0.148,0.052-0.311,0.105-0.466,0.157c-1.14-1.835-0.684-5.827-1.243-8.247v-3.26c-0.65-2.8-1.03-6.549-0.311-9.489v-2.641
		c0-1.452,0.228-2.452,0.469-3.424v-2.333c0.311-0.882,0.619-1.761,0.933-2.64c0.411-1.645,0.048-2.719,0.47-4.358
		c0.794-3.17,2.116-6.679,3.259-9.488c0.104-0.931,0.208-1.865,0.311-2.798c1.167-3.921,1.409-8.434,3.115-11.665
		c0.353-0.667,1.368-2.331,0.774-3.265c-0.208-0.423-0.377-0.544-0.774-0.315c-1.53,0.722-2.231,3.559-3.115,4.982
		c-0.525,0.841-1.333,1.823-1.709,2.799c-0.28,0.725-0.176,1.202-0.466,1.865c-1.182,2.704-2.832,5.688-3.889,8.552
		c-0.849,2.304-0.708,4.545-1.554,6.843c-0.836,2.267-1.982,4.498-2.645,7.157c-0.159,2.074-0.311,4.143-0.463,6.22
		c-0.915,3.529-1.796,7.58-2.645,11.196c0.051,1.504,0.103,3.006,0.152,4.512c-0.049,0.83-0.101,1.658-0.152,2.49
		c0.166,0.525,0.77,1.127,0.932,1.708v4.665c0.408,1.71,0.698,3.78,1.088,5.446c0.649,2.763-1.309,4.565-0.625,7.309
		c0.445,1.751,1.526,2.868,2.027,4.51c0.1,0.933,0.204,1.865,0.307,2.799c0.525,2.098,1.14,4.587,1.706,6.843v1.401
		c0.214,0.858,0.566,1.942,0.625,2.954v3.578c1.523,6.302,3.596,12.574,5.909,18.042c1.14,2.672,1.803,5.62,3.578,7.617
		c0.663-0.128,0.566-0.27,0.939-0.622c-0.293-3.186-2.217-5.669-3.115-8.395c-0.773-2.359-0.815-5.334-1.402-7.775
		c-0.048-1.252-0.097-2.49-0.152-3.735c-1.146-5.149-3.066-16.197-0.932-21.467c0.048-0.048,0.103-0.102,0.155-0.15h0.156
		c0.051,3.105,0.639,5.75,1.243,8.394c0.394,1.724-0.076,3.291,0.314,4.824c0.946,3.767,1.958,7.78,3.105,11.353
		c0.159,1.039,0.314,2.074,0.466,3.108c0.632,2.248,1.468,4.633,2.179,6.848c0.47,1.967,0.936,3.937,1.402,5.907
		c0.746,1.932,2.58,3.751,3.267,5.755c0.052,0.62,0.1,1.245,0.152,1.865c0.428,1.466,1.368,2.784,2.024,4.044
		c0.538,1.034,0.787,2.119,1.402,3.113c0.518,0.828,1.526,1.394,2.016,2.173c0.16,0.571,0.318,1.139,0.47,1.712
		c1.292,2.031,2.428,4.319,3.73,6.376c3.447,5.451,7.856,10.128,11.666,15.241c1.264,1.695,3.343,2.569,4.821,4.046
		c0.683,0.68,1.098,1.749,1.864,2.329c3.709,2.792,7.153,5.987,11.044,8.56c1.285,0.84,2.794,1.027,4.044,1.861
		c1.129,0.754,2.103,2.088,3.423,2.646c1.346,0.361,2.697,0.726,4.04,1.086c0.788,0.343,1.223,1.148,1.865,1.56
		c0.522,0.151,1.043,0.311,1.561,0.467c0.746,0.457,1.371,1.277,2.175,1.709c1.271,0.685,2.774,0.812,4.041,1.552
		c1.927,1.126,4.068,2.53,6.223,3.424c1.464,0.608,3.108,0.381,4.666,0.936c0.335,0.115,0.805,0.664,1.087,0.774
		c0.405,0.155,1.057-0.095,1.713,0.155c0.695,0.267,1.174,0.998,1.866,1.249c1.616,0.571,3.39,0.861,4.976,1.239h2.645
		c1.765,0.443,3.685,1.221,5.439,1.713c1.199,0.049,2.39,0.104,3.581,0.157c1.882,0.427,3.706,0.985,5.439,1.4
		c1.303-0.056,2.598-0.106,3.893-0.16c0.811,0.183,2.224,0.562,3.418,0.313c0.287-0.062,1.04-0.274,1.558-0.153
		c1.333,0.293,3.032,0.247,4.351,0c0.67-0.126,1.357,0.227,1.865,0.308c1.174,0.185,2.973,0.042,3.892-0.154
		c1.557-0.331,3.616,0.119,4.977-0.153c1.389-0.29,2.161,0.734,3.423,0.462c0.556-0.118,1.439-0.486,2.02-0.622
		c2.335-0.049,4.669-0.103,7.004-0.154c1.306-0.308,2.805-0.772,4.199-1.086h5.905c1.972-0.461,4.455-0.949,6.223-1.403
		c0.622-0.052,1.243-0.104,1.865-0.156c2.183-0.81,4.42-2.215,6.688-2.954c0.877-0.156,1.762-0.309,2.643-0.466
		c1.755-0.526,3.668-1.112,5.287-1.708c0.639-0.236,1.288-0.138,1.869-0.468c0.645-0.366,1.2-1.297,1.863-1.71
		c0.727-0.452,1.6-0.483,2.335-0.937c1.3-0.799,2.586-1.971,3.889-2.798c0.474-0.305,1.133-0.737,1.555-0.936l1.561-0.312
		c0.936-0.542,1.875-1.438,2.793-2.017v-0.779c-3.795,0.804-7.476,2.796-10.881,4.196c-1.872,0.774-3.854,0.898-5.761,1.711
		c-0.656,0.28-1.326,1.018-2.02,1.245c-0.509,0.166-3.36,0.386-3.733,0.313c-0.394-0.078-0.946-0.458-1.554-0.313
		c-1.348,0.325-2.708,1.325-3.89,1.713h-1.557c-1.188,0.297-2.431,0.812-3.73,1.09c-0.849,0.177-1.257-0.335-1.709-0.468
		c-1.389-0.406-4.379,0.518-5.442,0.778c-1.302,0.31-3.578-0.333-4.669,0.308c-1.357,0.021-3.163,0.15-4.04-0.308v-0.311
		c0.998-0.38,2.914-0.161,3.888-0.625l0.774-0.778c0.945-0.431,1.691-0.292,2.804-0.623c1.782-0.527,3.616-1.406,5.436-1.867
		c0.939-0.101,1.868-0.204,2.805-0.31c0.974-0.282,2.195-0.686,3.267-0.931c0.984-0.053,1.965-0.109,2.949-0.157
		c1.913-0.665,3.198-2.817,5.139-3.573c0.818-0.325,1.481-0.188,2.331-0.469c1.626-0.539,3.443-1.269,4.817-2.177
		c2.245-1.473,3.898-3.834,6.223-5.293c2.433-1.525,5.277-2.139,7.625-3.729c1.323-0.899,1.979-2.668,3.26-3.577
		c0.468-0.156,0.937-0.308,1.399-0.468c0.925-0.451,1.799-1.109,2.645-1.707c0.915-0.649,1.473-1.814,2.649-2.178
		c0.166-0.122,0.146-0.1,0.463-0.157c-0.317,1.983-2.39,3.146-3.419,4.51c-0.562,0.738-1.305,1.046-1.868,1.709
		c-0.587,0.692-0.992,1.801-1.706,2.335c-1.819,1.345-3.747,2.269-5.602,3.576c-1.191,0.841-1.778,2.325-3.111,3.115
		c0.048,0.354,0.069,0.382,0.152,0.619c2.838-0.189,4.645-2.492,6.844-3.421c0.878-0.371,1.9-0.288,2.643-0.777
		c0.535-0.349,1.088-1.161,1.717-1.401c1.194-0.456,2.31-0.192,3.259-0.775c2.011-1.24,3.503-3.501,5.45-4.825
		c1.451-0.992,3.129-1.753,4.2-3.107h0.15c-0.78,2.412-4.938,6.599-6.996,7.933c-0.539,0.347-1.534,2.336-2.023,2.954
		c-0.984,1.236-3.243,2.616-4.511,3.73c0.053,0.36,0.073,0.386,0.155,0.62c1.164-0.186,1.606-0.958,2.49-1.397
		c1.223-0.61,2.539-0.758,3.578-1.555c0.449-0.347,0.524-1.158,0.932-1.554c0.765-0.759,2.172-0.818,2.798-1.712
		c0.359-0.514,0.394-1.094,0.78-1.557c0.698-0.834,2.058-1.376,2.953-2.021c1.243-1.244,2.49-2.489,3.733-3.731
		c1.318-0.982,3.129-1.913,4.039-3.268c0.864-1.271,0.995-2.983,1.869-4.2c0.467-0.414,0.937-0.829,1.402-1.241
		c0.553-0.739,0.984-1.627,1.709-2.178c0.38-0.289,0.815-0.41,1.088-0.78c1.143-1.525,1.811-3.397,2.953-4.975
		c0.683-0.934,1.809-1.702,2.49-2.645c0.949-1.319,1.461-2.787,2.338-4.198c1.63-2.614,3.66-5.237,4.973-8.245
		c0.942-2.165,1.326-4.239,2.175-6.532c0.592-1.582,1.71-3.151,2.335-4.66c0.159-0.781,0.312-1.561,0.467-2.336
		c0.776-1.919,1.771-4.091,2.489-6.067l0.622-4.197c0.407-1.43,1.021-3.129,1.396-4.667c0.421-1.698,0.145-3.031,0.621-4.509
		c0.366-0.83,0.731-1.658,1.092-2.488c0.055-1.398,0.103-2.802,0.158-4.197c0.4-1.819,0.591-3.24,1.092-5.136
		c0.597-2.305,1.895-4.035,2.483-6.378c0.451-1.806-1.03-4.528-0.468-6.997c0.425-1.86,0.667-4.094,1.093-5.912
		c-0.056-1.086-0.104-2.176-0.159-3.263C447.71,168.916,448.007,167.602,447.786,166.542 M206.103,185.047
		c-2.397-1.136-1.824-3.944-2.639-6.687c-1.353-4.524-2.6-11.868-1.243-17.727c0.097-1.091,0.204-2.177,0.311-3.268
		c0.587-2.124,2.027-3.554,2.642-5.438h0.777c0.387,2.318-1.181,6.206-1.713,8.551v3.269c0,4.36,0.463,8.01,1.247,11.505
		c0.521,2.312-0.446,7.312,0.618,8.706V185.047z M256.96,276.656c-1.315-0.312-4.707-1.495-5.75-2.18
		c-0.559-0.362-1.119-1.086-1.713-1.401c-2.4-1.275-4.565-2.233-6.685-3.73c-1.451-1.02-2.649-2.528-4.048-3.578
		c-2.897-2.179-5.898-4.732-8.084-7.619c-0.853-1.126-2.428-1.693-3.271-2.805c-1.616-2.122-3.38-4.251-4.817-6.529
		c-1.454-2.31-2.148-4.976-3.574-7.312c-1.447-2.355-3.378-4.901-4.514-7.461c-0.397-0.888-0.397-1.72-0.777-2.644
		c-1.471-3.564-2.262-7.746-3.419-11.508c-0.214-1.143-0.418-2.283-0.629-3.423c-0.483-1.493-1.533-4.57-0.932-5.908
		c1.803,1.272,1.603,4.791,2.49,6.996c0.321,0.798,0.915,1.694,1.247,2.487c0.815,1.985,0.977,4.128,2.02,5.91
		c0.881,1.514,2.183,2.993,2.953,4.514c0.317,0.616,0.2,1.222,0.469,1.866c0.221,0.525,0.767,1.125,0.933,1.71
		c0.386,1.359-0.125,2.464,0.462,3.42c0.567,0.919,1.548,1.473,2.335,2.176c1.174,1.052,2.355,2.768,3.267,4.044
		c0.701,0.988,0.912,2.212,1.554,3.269c0.539,0.875,1.343,1.78,1.865,2.64c0.494,0.806,0.566,1.754,1.095,2.492
		c1.143,1.597,2.593,2.714,4.196,3.888c0.784,0.572,0.842,1.514,1.398,2.335c0.701,1.026,2.096,1.438,3.112,2.173
		c1.388,1.01,2.244,2.65,3.267,4.043c0.904,1.235,2.196,2.188,3.418,3.112c0.519,0.568,1.037,1.142,1.558,1.711
		c0.653,0.489,1.364,0.757,2.02,1.24c0.763,0.573,1.34,1.506,2.176,2.027c1.471,0.91,3.363,1.044,4.821,2.018
		c0.635,0.422,0.939,1.397,1.557,1.865V276.656z M256.96,253.948c-3.805,0.608-8.091-3.723-10.419-5.446
		c-0.901-0.663-1.992-1.28-2.645-2.174c-0.718-0.991-1.209-2.084-2.176-2.799c-0.511-0.383-1.042-0.553-1.554-0.937
		c-0.877-0.929-1.764-1.865-2.645-2.799c-0.566-0.43-1.309-0.817-1.706-1.399c-1.074-1.544-2.307-4.26-2.963-6.063
		c-0.152-0.987-0.307-1.97-0.459-2.952c-0.2-0.477-0.743-0.959-0.936-1.404c-0.746-1.677-1.071-3.276-1.713-4.978
		c2.887,1.053,5.387,8.298,7.311,10.89c0.88,0.776,1.765,1.552,2.642,2.329c1.474,1.981,2.565,4.082,4.044,6.065
		c0.949,1.269,2.614,2.156,3.892,3.115c0.462,0.514,0.929,1.032,1.398,1.554c2.829,2.134,4.904,4.857,7.929,6.841V253.948z
		 M296.775,259.701c0.732,0.059,1.16,0.334,1.713,0.468c2.179,0.05,4.354,0.106,6.53,0.156c0.964,0.269,1.765,0.972,2.953,1.241
		c1.699,0.384,3.726-0.198,4.821-0.464h2.649c0.949-0.221,1.913-0.72,2.797-0.934h3.422c1.699-0.381,5.456-0.392,6.687-1.246h0.932
		c0.049,0.053,0.104,0.102,0.156,0.155c-0.273,2.117-4.479,2.467-6.687,2.953h-3.422c-1.513,0.366-2.483,1.35-3.885,1.713
		c-2.732,0.706-7.077,0.248-9.335-0.31c-0.891-0.221-1.492,0.289-2.335,0c-0.421-0.15-0.911-0.769-1.243-0.938
		c-1.126-0.558-2.296-0.456-3.419-0.931c-0.794-0.331-1.422-1.003-2.182-1.397c-0.097-0.269-0.028-0.152-0.152-0.312V259.701z
		 M292.109,280.85h-2.02c-2.31,0.215-4.628-0.315-6.534-0.778c-1.499-0.359-2.435,0.33-3.733-0.15
		c-0.905-0.338-1.907-1.086-2.645-1.561c-1.095-0.694-2.235-0.653-2.953-1.704c-0.152-0.254-0.01-0.017,0-0.471
		c1.416,0.075,2.987,0.28,4.199,0.779c0.522,0.216,1.126,0.77,1.713,0.932h1.551c1.999,0.496,4.817,0.778,6.848,1.245
		c1.091,0.253,2.079-0.3,2.797-0.467c1.34-0.314,3.896,0.25,4.666,0.776c0.273,0.101,0.155,0.03,0.314,0.157
		c-0.684,0.351-1.378,0.218-2.335,0.463C293.39,280.23,292.617,280.703,292.109,280.85 M321.349,293.45
		c-2.655,0.002-4.828,0.038-7,0.936c-0.853,0.348-1.968,0.996-2.953,1.239c-2.541,0.639-5.29-0.393-6.689-0.929
		c-1.751-0.677-3.339-0.531-4.976-1.246l-0.622-0.622c-0.96-0.424-1.916-0.069-2.645-0.62c-0.104-0.057-0.211-0.105-0.311-0.158
		v-0.31c0.194-0.107,0.318-0.169,0.466-0.314c1.765,0.348,3.547,0.517,5.757,0.314c0.498-0.048,1.312-0.314,2.017-0.157
		c0.929,0.208,1.83,0.725,2.645,0.933c0.574-0.048,1.14-0.104,1.713-0.156c0.525,0.1,1.264,0.502,1.713,0.623
		c1.105,0.294,2.528-0.141,3.264-0.31c1.764-0.406,3.28-0.528,4.976-0.157c0.604,0.135,1.305-0.093,1.713,0.157
		c0.694,0.01,0.846,0.095,1.243,0.31C321.553,293.136,321.449,293.296,321.349,293.45 M367.688,264.992
		c-0.512,0.567-1.029,1.138-1.55,1.708c-1.71,1.233-3.699,1.898-5.44,3.108c-0.745,0.516-1.035,1.799-1.871,2.177
		c-0.773,0.161-1.551,0.311-2.332,0.468c-1.16,0.489-2.386,1.366-3.731,1.71h-1.714c-1.209,0.29-3.615,0.749-4.817,1.244
		c-0.353,0.146-0.784,0.626-1.088,0.778c-0.994,0.498-2.011,0.121-3.271,0.471c-0.77,0.207-1.623,0.716-2.485,0.927
		c-1.601,0.399-2.86,0.076-4.508,0.472c-1.016,0.238-2.432,1.068-3.736,0.778c-0.998-0.226-1.568-0.991-2.335-1.25
		c-1.657,0.057-3.315,0.107-4.972,0.161c-3.24-0.009-5.795-0.655-8.081-1.401c-0.971-0.315-1.931,0.019-2.653-0.467l-0.151-0.156
		h0.151c0.577-1.045,2.881-0.166,4.041-0.154c2.618,0.017,5.809,0.184,7.936-0.31h3.578c1.948-0.449,4.489-0.598,6.685-0.626h3.89
		c1.146-0.293,2.396-0.785,3.578-1.089c1.05-0.268,1.913-0.1,2.804-0.466c1.733-0.712,3.184-1.87,4.662-2.49
		c1.021-0.427,2.162-0.271,3.107-0.776c0.225-0.114,0.464-0.516,0.781-0.619c0.187,0.042,0.283,0.265,0.621,0.155
		c0.908-0.304,1.665-1.243,2.646-1.556c0.414-0.134,1.084,0.195,1.242,0.154c0.832-0.215,1.976-0.723,2.952-1.088
		c1.7-0.638,4.165-2.334,6.062-2.334V264.992z M412.485,214.755v-3.417c0.23-0.66,1.133-2.017,1.402-2.649
		c0.048-0.671,0.097-1.347,0.151-2.017c0.659-2.476,1.195-5.463,2.024-7.934c0.435-1.293,1.359-2.412,1.554-3.888
		c0.104,0.05,0.207,0.105,0.311,0.153c0.027,0.872,0.311,1.054,0.467,1.558c0.444,1.417-0.363,2.868-0.467,3.889
		c-0.18,1.774,0.684,3.339,0.311,4.822c-0.138,0.561-0.601,1.221-0.78,1.708c-0.263,1.243-0.518,2.488-0.776,3.731
		c-0.328,0.789-1.096,1.369-1.555,2.02c-0.933,1.335-1.717,2.563-2.489,4.045c-0.353-0.049-0.385-0.071-0.615-0.156
		C412.043,215.657,412.319,215.356,412.485,214.755 M394.289,231.086c-0.977,1.537-1.819,3.62-3.271,4.664
		c-0.593,0.435-1.422,0.503-2.023,0.931c-1.672,1.209-2.23,3.548-4.041,4.667c-1.312,0.814-2.88,1.066-4.196,1.868
		c-1.149,0.7-2.255,1.608-3.58,2.18c-1.447,0.461-2.901,0.932-4.355,1.398h-1.087c0.69-1.431,3.26-2.336,4.517-3.265
		c1.029-1.039,2.068-2.072,3.102-3.112c3.818-2.873,6.94-6.314,10.735-9.173c1.696-1.285,3.009-3.357,3.734-5.604
		c0.103-0.62,0.207-1.243,0.307-1.864c0.521-0.779,1.04-1.558,1.555-2.335c0.618-1.158,0.825-2.31,1.404-3.576
		c0.878-1.929,2.239-3.802,3.269-5.6h0.462l0.159,0.159c-0.048,2.715-1.257,4.344-1.865,6.529c-0.262,1.659-0.525,3.319-0.78,4.978
		C397.49,226.713,395.682,228.893,394.289,231.086 M417.151,243.216c-1.006,0.752-2.229,1.168-2.953,2.18
		c-0.701,0.967-0.801,2.503-1.561,3.418c-0.799,0.962-2.438,1.413-3.108,2.49c-0.397,0.632-0.788,1.805-1.402,2.176
		c-0.308,0.05-0.622,0.105-0.929,0.155c-0.57,0.574-1.143,1.14-1.713,1.708c-1.482,1.078-3.181,1.725-4.666,2.805
		c-0.462,0.465-0.932,0.931-1.402,1.398c-0.648,0.426-1.563,0.463-2.172,0.933h-0.47c0.487-1.461,1.91-1.881,3.112-2.646
		c1.043-0.661,3.773-3.206,4.51-4.198c1.271-1.707,2.031-3.626,3.267-5.442c1.302-1.917,4.165-2.632,5.442-4.512
		c0.629-0.927,0.843-2.992,1.398-3.731c0.681-0.896,2.18-1.346,3.112-2.021c1.177-0.858,1.789-2.533,2.646-3.733
		c0.365-0.366,0.725-0.728,1.084-1.091h0.311C421.63,235.98,418.812,241.982,417.151,243.216 M438.766,186.606v2.957
		c-0.607,2.201-1.437,5.238-2.017,7.461c-0.29,1.103,0.027,2.227-0.47,3.111c-0.47,0.416-0.933,0.831-1.399,1.247
		c-0.479,0.66-1.132,1.742-1.397,2.486c-0.057,0.518-0.104,1.036-0.159,1.558c-1.092,3.538-3.329,12.216-5.912,13.836v0.162h-0.151
		c0.147-2.448,1.356-4.372,2.022-6.38c0.688-2.079,0.587-4.386,1.243-6.689c0.415-1.035,0.829-2.072,1.244-3.108
		c0.051-0.883,0.103-1.765,0.159-2.642c0.176-0.734,0.594-1.758,0.772-2.49v-2.954c0.188-0.686,0.705-1.696,0.937-2.337
		c0.154-0.775,0.307-1.55,0.463-2.331c-0.053-0.309-0.104-0.621-0.156-0.93c0.042-0.178,0.429-0.639,0.463-0.779v-4.044
		c0.197-0.8,0.525-1.799,0.939-2.49c0.256-0.257,0.519-0.518,0.78-0.779c0.049-1.087,0.104-2.174,0.152-3.26
		c0.155-0.575,0.625-1.274,0.777-1.87v-2.334c0.783-3.33,0.432-7.562,0.776-11.2h0.933c0.007,3.417,0.332,6.705,0.311,10.421
		c-0.007,1.58-0.722,3.051-0.311,4.824C439.359,180.584,439.321,184.177,438.766,186.606 M386.819,68.406
		c0.625,0.276,1.25,1.031,1.869,1.247c1.039,0.357,1.521-0.366,2.33,0.157c0.373,0.24,0.477,0.784,0.78,1.088
		c0.436,0.425,1.058,0.565,1.555,0.931c0.622,0.459,0.945,1.435,1.554,1.866c1.323,0.939,3.319,1.223,4.821,1.868
		c0.912,0.387,4.8,2.012,5.757,1.553c0.176-0.178-0.508-1.112-0.777-1.395c-0.518-0.561-1.354-0.496-2.023-0.936
		c-0.411-0.518-0.829-1.038-1.243-1.556l-0.934-0.311c-1.091-0.773-1.449-2.37-2.645-3.108c-1.578-0.987-3.667-1.834-5.594-2.334
		c-0.781-0.052-1.555-0.102-2.338-0.156c-0.922-0.361-1.454-1.191-2.177-1.711c-1.315-0.944-3.474-1.143-5.754-1.086
		C381.003,66.479,385.293,67.735,386.819,68.406 M369.87,79.763c0.425,0.439,0.456,1.507,0.933,1.865
		c0.974,0.72,2.648,0.264,3.889,0.778c1.049,0.437,1.809,1.565,2.797,2.024c0.314,0.047,0.628,0.099,0.939,0.154
		c0.897,0.38,1.755,1.181,2.639,1.554c0.565,0.24,1.236,0.162,1.713,0.466c1.45,0.031,1.512-0.271,2.175-0.934
		c-0.29-1.683-2.313-2.483-3.729-3.108c-1.769-0.786-3.682-2.031-5.445-2.799c-1.295-0.366-2.59-0.725-3.886-1.088
		c-0.911-0.387-1.555-0.936-2.956-0.936c-0.252,0.173-1.105,0.221-1.398,0.312C367.774,79.041,369.255,79.126,369.87,79.763
		 M358.985,85.05c0.763,0.44,0.979,1.628,1.864,2.02c1.037,0.46,2.052,0.087,3.267,0.467c1.468,0.457,3.606,1.212,4.666,2.177
		c0.646-0.028,0.711-0.109,1.088-0.311c-0.125-1.195-1.351-1.647-2.02-2.333c-2.512-2.559-6.69-4.304-11.356-4.199
		C356.084,84.358,357.955,84.46,358.985,85.05 M366.138,105.424c-0.93-0.686-1.53-1.782-2.643-2.335
		c-0.725-0.1-1.454-0.206-2.183-0.309c-0.681-0.245-0.836-0.641-2.018-0.622c-0.252,0.161-0.994,0.154-1.242,0.31
		c-0.339,0.145-0.229,0.134-0.47,0.312c0.158,1.445,1.585,1.063,2.486,1.711c0.418,0.411,0.836,0.827,1.243,1.24
		c0.988,0.608,2.079,0.471,3.273,0.937c0.421,0.166,0.78,0.778,1.236,0.927c0.612,0.213,1.851,0.22,2.342,0.315
		c0.159-0.123,0.034-0.053,0.308-0.154C368.386,106.282,367.038,106.087,366.138,105.424 M391.333,139.792
		c-1.382-3.248-3.513-8.1-7.308-8.708c-0.507,0.862-0.452,1.306,0.148,2.179c0.946,1.342,2.293,2.597,2.959,4.196
		c0.826,1.981,0.746,4.503,1.862,6.22c0.767,1.165,2.436,1.326,2.959,2.801c0.667,1.88-0.521,4.163-0.313,5.447
		c0.304,1.825,1.254,3.928,1.713,5.593c0.104,1.352,0.207,2.699,0.313,4.048c-0.062,0.279-0.278,1.032-0.159,1.555
		c0.246,1.074-0.003,2.801,0.315,4.196c0.418,1.856,0.828,3.965,1.243,5.6c0.414,1.666-0.567,3.577-0.312,4.824
		c0.124,0.61,0.653,1.219,0.93,1.71c1.623-0.301,1.032-1.996,1.404-3.578c0.816-3.488,1.549-8.036,0.622-11.821
		c-0.456-1.834-0.282-4.154-0.779-6.22c-0.622-2.282-1.247-4.562-1.865-6.846c-0.328-1.37-0.073-2.326-0.47-3.574
		c-0.366-1.155-1.658-1.563-2.021-2.644v-2.958C392.162,141.144,391.744,140.47,391.333,139.792 M380.292,218.642
		c-0.711,1.031-2.41,1.06-3.114,2.179c-1.562,2.486-2.614,5.03-4.355,7.307c-0.514,0.676-1.481,1.043-2.172,1.556
		c-1.084,0.805-1.975,2.026-3.111,2.804c0.031,0.401,0.065,0.526,0.148,0.774c1.567-0.176,2.61-1.49,3.744-2.176
		c1.119-0.685,2.393-0.955,3.419-1.707c0.486-0.366,2.645-2.347,2.952-2.804c0.486-0.72,0.594-1.515,1.091-2.178
		c0.805-1.09,1.896-2.051,2.642-3.269c0.429-0.701,0.498-1.481,0.934-2.175c0.683-1.088,1.898-1.799,2.645-2.799
		c0.822-1.102,1.361-2.31,2.176-3.423c0.67-0.915,1.724-1.655,2.338-2.645c1.205-1.934,1.868-4.607,2.486-6.996
		c0.104-0.879,0.204-1.76,0.307-2.64c0.644-2.266,1.266-4.608,1.869-7.159v-4.668c0.445-1.614,1.053-3.358,0.777-5.441
		c-0.259-0.048-0.519-0.1-0.777-0.152c-0.971,1.523-0.929,3.573-1.558,5.593c-0.653,2.105-2.041,4.162-2.8,6.227
		c-0.305,1.504-0.619,3.006-0.937,4.508c-1.605,3.84-3.295,7.575-4.97,11.353c-0.252,0.57-0.842,1.13-1.088,1.713
		C381.991,214.643,381.57,216.791,380.292,218.642"/>
	<path clip-path="url(#SVGID_2_)" d="M33.083,335.962c3.553,0,6.977,0.762,10.272,2.277c3.293,1.518,6.181,3.517,8.662,5.996
		c2.479,2.481,4.478,5.37,5.997,8.663c1.517,3.296,2.276,6.718,2.276,10.271c0,1.482-0.555,2.796-1.665,3.942
		c-1.111,1.148-2.518,1.685-4.22,1.611H17.091c2.147,3.85,4.645,6.59,7.496,8.218c2.849,1.629,5.681,2.442,8.496,2.442
		c1.554,0,2.887-0.184,3.997-0.556c1.111-0.369,2.072-0.702,2.888-0.999c0.961-0.666,2.035-1,3.22-1
		c1.628,0.15,2.943,0.797,3.943,1.944c0.999,1.148,1.499,2.387,1.499,3.72c0,0.594-0.094,1.222-0.278,1.888
		c-0.185,0.666-0.574,1.261-1.166,1.777l0.111-0.222c-1.926,1.554-4.109,2.665-6.552,3.332c-2.443,0.666-5.035,1.034-7.774,1.109
		c-3.627,0.148-7.089-0.5-10.383-1.942c-3.295-1.445-6.182-3.425-8.662-5.942c-2.481-2.515-4.442-5.441-5.886-8.772
		c-1.443-3.331-2.165-6.848-2.165-10.551c0-3.554,0.722-6.976,2.165-10.271c1.444-3.293,3.424-6.182,5.942-8.663
		c2.516-2.479,5.403-4.479,8.662-5.996C25.901,336.724,29.38,335.962,33.083,335.962 M49.074,357.173
		c-1.777-2.96-4.053-5.386-6.83-7.272c-2.776-1.889-5.83-2.832-9.161-2.832c-3.481,0-6.608,0.962-9.384,2.887
		c-2.776,1.926-4.942,4.294-6.497,7.108c-0.149,0.148-0.222,0.297-0.222,0.443h32.205c-0.074,0-0.111-0.036-0.111-0.11V357.173z"/>
	<path clip-path="url(#SVGID_2_)" d="M82.499,336.185c2.221,0,4.459,0.428,6.719,1.277c2.257,0.852,4.497,2.24,6.719,4.164
		c4.664-3.627,9.178-5.441,13.548-5.441c2.515,0,4.941,0.482,7.274,1.443c2.332,0.963,4.386,2.277,6.163,3.943
		c1.777,1.666,3.182,3.628,4.22,5.885c1.036,2.26,1.555,4.684,1.555,7.274v30.316c0,1.26-0.575,2.388-1.721,3.388
		c-1.149,0.999-2.463,1.499-3.943,1.499c-1.482,0-2.759-0.536-3.831-1.609c-1.075-1.073-1.611-2.351-1.611-3.831v-29.43
		c0-2.146-0.759-3.997-2.276-5.553c-1.519-1.555-3.462-2.332-5.83-2.332c-1.999,0-3.832,0.666-5.497,1.999
		c-1.666,1.332-2.499,3.295-2.499,5.886v29.43c0,1.48-0.538,2.758-1.611,3.831c-1.073,1.073-2.387,1.609-3.941,1.609
		c-1.408,0-2.666-0.479-3.776-1.442c-1.111-0.962-1.666-2.111-1.666-3.444v-29.983c-0.075-2.368-0.927-4.274-2.555-5.72
		c-1.629-1.442-3.442-2.165-5.441-2.165c-2.148,0-4.017,0.741-5.608,2.222c-1.593,1.481-2.426,3.405-2.499,5.773v30.096
		c-0.222,1.186-0.852,2.26-1.888,3.222c-1.037,0.963-2.221,1.442-3.553,1.442c-1.482,0-2.815-0.5-3.998-1.499
		c-1.185-1-1.704-2.237-1.555-3.721V354.73c0-2.442,0.5-4.793,1.499-7.052c1-2.258,2.35-4.236,4.054-5.94
		c1.702-1.702,3.72-3.056,6.052-4.055S79.834,336.185,82.499,336.185"/>
	<path clip-path="url(#SVGID_2_)" d="M159.347,336.296c3.626,0,7.069,0.704,10.327,2.109c3.257,1.408,6.108,3.332,8.551,5.775
		c2.443,2.442,4.387,5.295,5.831,8.552c1.443,3.258,2.165,6.737,2.165,10.438c0,3.703-0.685,7.183-2.054,10.439
		c-1.371,3.258-3.259,6.108-5.664,8.551c-2.407,2.444-5.258,4.369-8.551,5.775c-3.295,1.407-6.83,2.109-10.605,2.109
		c-4.665,0-9.995-1.517-15.992-4.554v16.325c0,1.479-0.519,2.739-1.555,3.776c-1.037,1.035-2.37,1.555-3.998,1.555
		c-1.407,0-2.648-0.483-3.72-1.444c-1.074-0.963-1.648-2.147-1.721-3.554V363.17c0-3.626,0.722-7.068,2.165-10.327
		c1.444-3.258,3.388-6.108,5.83-8.552c2.444-2.442,5.293-4.387,8.552-5.83C152.165,337.019,155.644,336.296,159.347,336.296
		 M143.355,363.17c0,2.37,0.425,4.536,1.277,6.497c0.85,1.962,2.016,3.664,3.498,5.108c1.48,1.444,3.183,2.554,5.109,3.332
		c1.924,0.777,3.959,1.166,6.108,1.166c2.22,0,4.311-0.425,6.274-1.278c1.961-0.849,3.646-2.015,5.053-3.498
		c1.405-1.479,2.516-3.181,3.331-5.107c0.814-1.925,1.222-3.998,1.222-6.22c0-2.221-0.427-4.293-1.277-6.219
		c-0.852-1.925-1.999-3.608-3.443-5.052c-1.444-1.444-3.129-2.572-5.053-3.388c-1.926-0.814-3.961-1.222-6.107-1.222
		c-2.296,0-4.406,0.428-6.33,1.276c-1.927,0.853-3.61,2-5.053,3.444c-1.444,1.442-2.574,3.128-3.387,5.053
		C143.761,358.988,143.355,361.024,143.355,363.17"/>
	<path clip-path="url(#SVGID_2_)" d="M215.094,337.295c3.627,0,7.052,0.723,10.272,2.166c3.221,1.443,6.053,3.388,8.496,5.83
		s4.387,5.294,5.83,8.552c1.444,3.259,2.166,6.736,2.166,10.438c0,3.703-0.705,7.163-2.11,10.384
		c-1.408,3.222-3.314,6.053-5.72,8.495c-2.406,2.443-5.238,4.369-8.495,5.776c-3.258,1.405-6.774,2.108-10.55,2.108
		c-3.703,0-7.182-0.666-10.438-1.999c-3.259-1.331-6.108-3.2-8.552-5.607c-2.443-2.405-4.369-5.237-5.775-8.496
		c-1.407-3.256-2.11-6.81-2.11-10.661c0-3.701,0.684-7.162,2.055-10.383c1.369-3.22,3.276-6.033,5.719-8.44
		c2.443-2.403,5.311-4.331,8.607-5.773C207.782,338.239,211.318,337.444,215.094,337.295 M214.983,348.289
		c-2.148,0-4.203,0.408-6.163,1.223c-1.962,0.814-3.665,1.942-5.108,3.386c-1.444,1.445-2.593,3.129-3.443,5.053
		c-0.852,1.927-1.277,4.036-1.277,6.33c0,2.149,0.425,4.203,1.277,6.164c0.85,1.962,1.999,3.684,3.443,5.163
		c1.443,1.483,3.146,2.649,5.108,3.499c1.96,0.852,4.015,1.277,6.163,1.277c2.146,0,4.201-0.426,6.164-1.277
		c1.961-0.85,3.664-2.016,5.108-3.499c1.444-1.479,2.591-3.201,3.442-5.163c0.851-1.961,1.278-4.015,1.278-6.164
		c-0.222-4.367-1.777-8.051-4.664-11.05c-2.888-2.998-6.627-4.645-11.217-4.941H214.983z"/>
	<path clip-path="url(#SVGID_2_)" d="M264.401,389.934c-2.665,0-5.164-0.5-7.496-1.499c-2.332-1-4.35-2.35-6.052-4.054
		c-1.704-1.702-3.054-3.665-4.054-5.885c-0.999-2.221-1.499-4.59-1.499-7.108v-29.982c-0.149-1.481,0.37-2.723,1.555-3.722
		c1.183-0.999,2.516-1.499,3.998-1.499c1.332,0,2.516,0.482,3.553,1.443c1.036,0.963,1.666,2.074,1.888,3.332v30.095
		c0.073,2.296,0.906,4.185,2.499,5.664c1.591,1.482,3.46,2.222,5.608,2.222c1.999,0,3.812-0.703,5.441-2.11
		c1.628-1.406,2.48-3.293,2.555-5.664v-30.095c0-1.332,0.555-2.48,1.666-3.443c1.11-0.961,2.368-1.443,3.776-1.443
		c1.554,0,2.868,0.538,3.941,1.61c1.073,1.075,1.611,2.352,1.611,3.831v29.429c0,2.594,0.833,4.554,2.499,5.887
		c1.665,1.333,3.498,1.999,5.497,1.999c2.368,0,4.311-0.777,5.83-2.332c1.517-1.556,2.276-3.404,2.276-5.554v-29.429
		c0-1.479,0.536-2.756,1.611-3.831c1.072-1.072,2.349-1.61,3.831-1.61c1.48,0,2.794,0.5,3.943,1.499
		c1.146,0.999,1.721,2.13,1.721,3.388v30.316c0,2.594-0.519,5.018-1.555,7.275c-1.038,2.258-2.443,4.219-4.22,5.885
		c-1.777,1.665-3.831,2.981-6.163,3.943c-2.333,0.963-4.759,1.442-7.274,1.442c-4.517,0-9.034-1.812-13.548-5.44
		c-2.222,1.925-4.462,3.313-6.719,4.164C268.86,389.509,266.622,389.934,264.401,389.934"/>
	<path clip-path="url(#SVGID_2_)" fill="#1F92D5" d="M317.045,352.064c0-2.07,0.406-4.069,1.222-5.996
		c0.814-1.925,1.924-3.627,3.331-5.107c1.405-1.481,3.054-2.667,4.942-3.554c1.888-0.89,3.942-1.369,6.163-1.445h21.433
		c1.48,0,2.721,0.576,3.721,1.722c0.999,1.149,1.499,2.353,1.499,3.61c0,1.48-0.539,2.758-1.61,3.831
		c-1.074,1.074-2.276,1.609-3.609,1.609h-20.767c-1.776,0-3.128,0.519-4.054,1.556c-0.926,1.038-1.388,2.296-1.388,3.774
		c0,1.407,0.462,2.666,1.388,3.776c0.926,1.111,2.277,1.666,4.054,1.666h13.659c2.146,0,4.146,0.444,5.996,1.332
		c1.851,0.889,3.443,2.074,4.776,3.554c1.333,1.483,2.388,3.203,3.165,5.164c0.777,1.963,1.166,3.981,1.166,6.053
		c0,2.37-0.408,4.554-1.222,6.553c-0.815,1.999-1.981,3.719-3.498,5.164c-1.519,1.442-3.295,2.572-5.33,3.386
		c-2.037,0.815-4.276,1.222-6.719,1.222h-20.545c-1.481,0-2.684-0.516-3.608-1.555c-0.927-1.036-1.389-2.293-1.389-3.775
		c0-1.405,0.5-2.683,1.499-3.832c1-1.146,2.239-1.758,3.721-1.832h20.322c1.776,0,3.165-0.462,4.164-1.388
		c1-0.925,1.498-2.239,1.498-3.942c0-1.851-0.498-3.183-1.498-3.998c-0.999-0.814-2.388-1.222-4.164-1.222h-13.326
		c-2.074,0-4.018-0.425-5.83-1.276c-1.815-0.852-3.406-2.018-4.775-3.498c-1.371-1.481-2.444-3.222-3.221-5.221
		S317.045,354.287,317.045,352.064"/>
	<path clip-path="url(#SVGID_2_)" fill="#1F92D5" d="M371.126,318.86c1.628,0,2.979,0.574,4.054,1.723
		c1.072,1.147,1.683,2.572,1.832,4.274v9.994h25.653c1.555,0,2.849,0.574,3.887,1.722c1.036,1.148,1.555,2.463,1.555,3.942
		c0,1.482-0.556,2.815-1.666,3.998c-1.11,1.185-2.37,1.777-3.775,1.777h-25.653v16.214c0,2.147,0.406,4.202,1.222,6.163
		c0.813,1.963,1.943,3.683,3.387,5.164c1.444,1.48,3.146,2.665,5.108,3.553c1.961,0.889,4.054,1.333,6.274,1.333
		c2.517,0,4.646-0.35,6.386-1.055c1.738-0.702,3.276-1.684,4.608-2.943h-0.11c1.11-1.036,2.479-1.554,4.108-1.554
		c1.555,0,2.924,0.554,4.11,1.665c1.034,0.964,1.554,2.259,1.554,3.887c0,0.593-0.094,1.205-0.278,1.832
		c-0.186,0.63-0.537,1.166-1.055,1.611h0.111c-2.593,2.517-5.425,4.44-8.495,5.773c-3.073,1.333-6.424,1.999-10.051,1.999
		c-3.851,0-7.495-0.646-10.938-1.943c-3.442-1.295-6.441-3.146-8.995-5.553c-2.555-2.404-4.608-5.292-6.163-8.662
		c-1.556-3.367-2.371-7.125-2.443-11.271v-37.647c0-1.479,0.536-2.85,1.609-4.108S369.422,318.86,371.126,318.86"/>
	<path clip-path="url(#SVGID_2_)" fill="#1F92D5" d="M421.209,336.073c1.405,0.075,2.665,0.666,3.775,1.777s1.666,2.407,1.666,3.887
		v21.321c0,2.222,0.425,4.295,1.277,6.22c0.85,1.927,1.998,3.608,3.442,5.054c1.442,1.442,3.146,2.592,5.108,3.441
		c1.961,0.853,4.015,1.278,6.163,1.278c2.072,0,4.07-0.39,5.997-1.166c1.924-0.778,3.626-1.833,5.108-3.166
		c1.479-1.333,2.646-2.943,3.498-4.831c0.851-1.887,1.276-3.942,1.276-6.163v-22.099c0-0.961,0.223-1.851,0.666-2.665
		c0.37-0.37,0.704-0.778,1-1.223c1.259-1.109,2.517-1.666,3.776-1.666c1.405,0,2.738,0.557,3.998,1.666
		c0.591,0.595,0.999,1.186,1.221,1.776c0.223,0.594,0.37,1.222,0.444,1.889v21.654c0,3.703-0.704,7.183-2.109,10.44
		c-1.407,3.259-3.332,6.106-5.775,8.551c-2.442,2.442-5.312,4.369-8.606,5.773c-3.295,1.407-6.829,2.11-10.605,2.11
		c-3.554,0.148-6.96-0.462-10.218-1.832c-3.258-1.369-6.106-3.238-8.55-5.608c-2.443-2.367-4.405-5.163-5.886-8.385
		c-1.481-3.221-2.221-6.606-2.221-10.161v-22.32c0-1.481,0.536-2.758,1.61-3.831C418.339,336.723,419.654,336.148,421.209,336.073"
		/>
	<path clip-path="url(#SVGID_2_)" fill="#1F92D5" d="M520.488,319.082c1.258-0.072,2.443,0.428,3.554,1.5
		c1.11,1.074,1.665,2.24,1.665,3.498v38.979c0,3.63-0.74,7.071-2.221,10.328c-1.481,3.26-3.48,6.109-5.997,8.552
		c-2.518,2.442-5.386,4.387-8.606,5.83s-6.608,2.165-10.161,2.165c-3.628,0-7.071-0.702-10.328-2.109
		c-3.258-1.406-6.107-3.331-8.551-5.775c-2.443-2.442-4.387-5.292-5.83-8.551c-1.444-3.256-2.165-6.736-2.165-10.439
		c0-3.996,0.646-7.513,1.943-10.55c1.294-3.034,3.236-5.886,5.83-8.551v0.112c2.738-2.591,5.756-4.555,9.051-5.887
		c3.293-1.333,6.681-1.999,10.161-1.999c2.071,0,4.534,0.333,7.385,0.999c2.849,0.667,5.681,1.964,8.495,3.888v-16.437
		c0-0.738,0.146-1.442,0.444-2.108c0.295-0.667,0.684-1.278,1.166-1.833c0.481-0.556,1.056-0.981,1.722-1.277
		c0.666-0.295,1.333-0.406,1.999-0.334H520.488z M514.713,363.059c0-1.998-0.427-3.959-1.276-5.886
		c-0.853-1.924-2.019-3.645-3.498-5.163c-1.482-1.516-3.185-2.722-5.108-3.608c-1.928-0.89-3.962-1.333-6.108-1.333
		c-2.148,0-4.202,0.427-6.163,1.276c-1.963,0.853-3.665,1.999-5.108,3.443c-1.443,1.443-2.593,3.146-3.442,5.108
		c-0.853,1.963-1.277,4.017-1.277,6.162c0,2.223,0.425,4.296,1.277,6.221c0.85,1.926,1.999,3.607,3.442,5.052
		s3.146,2.592,5.108,3.443c1.961,0.851,4.015,1.276,6.163,1.276c2.146,0,4.181-0.426,6.108-1.276
		c1.924-0.852,3.626-1.999,5.108-3.443c1.479-1.444,2.646-3.126,3.498-5.052C514.286,367.354,514.713,365.281,514.713,363.059"/>
	<path clip-path="url(#SVGID_2_)" fill="#1F92D5" d="M540.922,324.746c0,1.629-0.556,3.018-1.666,4.165
		c-1.11,1.148-2.443,1.721-3.998,1.721c-1.629,0-3.018-0.572-4.164-1.721c-1.148-1.147-1.722-2.536-1.722-4.165
		c0-1.554,0.573-2.904,1.722-4.053c1.146-1.147,2.535-1.722,4.164-1.722c1.555,0,2.888,0.574,3.998,1.722
		C540.366,321.842,540.922,323.192,540.922,324.746 M535.258,389.934c-1.629,0-3.018-0.556-4.164-1.666
		c-1.148-1.109-1.722-2.516-1.722-4.22v-41.756c0-1.627,0.573-2.998,1.722-4.108c1.146-1.109,2.535-1.666,4.164-1.666
		c1.48,0,2.794,0.557,3.942,1.666c1.147,1.11,1.722,2.481,1.722,4.108v41.756c0,1.704-0.574,3.11-1.722,4.22
		C538.052,389.378,536.738,389.934,535.258,389.934"/>
	<path clip-path="url(#SVGID_2_)" fill="#1F92D5" d="M571.238,337.295c3.626,0,7.052,0.723,10.272,2.166
		c3.22,1.443,6.052,3.388,8.495,5.83s4.387,5.294,5.83,8.552c1.444,3.259,2.166,6.736,2.166,10.438c0,3.703-0.705,7.163-2.11,10.384
		c-1.407,3.222-3.314,6.053-5.719,8.495c-2.407,2.443-5.239,4.369-8.496,5.776c-3.259,1.405-6.773,2.108-10.55,2.108
		c-3.703,0-7.182-0.666-10.438-1.999c-3.26-1.331-6.109-3.2-8.552-5.607c-2.443-2.405-4.37-5.237-5.775-8.496
		c-1.407-3.256-2.109-6.81-2.109-10.661c0-3.701,0.685-7.162,2.054-10.383c1.369-3.22,3.276-6.033,5.72-8.44
		c2.443-2.403,5.312-4.331,8.606-5.773C563.926,338.239,567.463,337.444,571.238,337.295 M571.127,348.289
		c-2.148,0-4.202,0.408-6.163,1.223c-1.963,0.814-3.665,1.942-5.108,3.386c-1.443,1.445-2.593,3.129-3.442,5.053
		c-0.853,1.927-1.277,4.036-1.277,6.33c0,2.149,0.425,4.203,1.277,6.164c0.85,1.962,1.999,3.684,3.442,5.163
		c1.443,1.483,3.146,2.649,5.108,3.499c1.961,0.852,4.015,1.277,6.163,1.277c2.146,0,4.201-0.426,6.163-1.277
		c1.961-0.85,3.665-2.016,5.108-3.499c1.444-1.479,2.591-3.201,3.443-5.163c0.85-1.961,1.276-4.015,1.276-6.164
		c-0.222-4.367-1.776-8.051-4.664-11.05c-2.887-2.998-6.626-4.645-11.216-4.941H571.127z"/>
	<path clip-path="url(#SVGID_2_)" fill="#1F92D5" d="M600.889,352.064c0-2.07,0.406-4.069,1.222-5.996
		c0.813-1.925,1.925-3.627,3.331-5.107c1.406-1.481,3.055-2.667,4.942-3.554c1.888-0.89,3.942-1.369,6.163-1.445h21.434
		c1.479,0,2.721,0.576,3.72,1.722c1,1.149,1.499,2.353,1.499,3.61c0,1.48-0.539,2.758-1.61,3.831
		c-1.073,1.074-2.276,1.609-3.608,1.609h-20.768c-1.776,0-3.128,0.519-4.053,1.556c-0.927,1.038-1.389,2.296-1.389,3.774
		c0,1.407,0.462,2.666,1.389,3.776c0.925,1.111,2.276,1.666,4.053,1.666h13.66c2.146,0,4.146,0.444,5.996,1.332
		c1.851,0.889,3.443,2.074,4.775,3.554c1.333,1.483,2.388,3.203,3.165,5.164c0.777,1.963,1.166,3.981,1.166,6.053
		c0,2.37-0.407,4.554-1.222,6.553c-0.815,1.999-1.981,3.719-3.498,5.164c-1.518,1.442-3.295,2.572-5.33,3.386
		c-2.037,0.815-4.275,1.222-6.719,1.222h-20.545c-1.481,0-2.685-0.516-3.609-1.555c-0.926-1.036-1.388-2.293-1.388-3.775
		c0-1.405,0.5-2.683,1.499-3.832c1-1.146,2.238-1.758,3.721-1.832h20.322c1.776,0,3.165-0.462,4.164-1.388
		c1-0.925,1.5-2.239,1.5-3.942c0-1.851-0.5-3.183-1.5-3.998c-0.999-0.814-2.388-1.222-4.164-1.222h-13.326
		c-2.073,0-4.017-0.425-5.83-1.276c-1.815-0.852-3.406-2.018-4.775-3.498c-1.371-1.481-2.443-3.222-3.221-5.221
		S600.889,354.287,600.889,352.064"/>
	<path clip-path="url(#SVGID_2_)" d="M113.017,427.389c0-0.527,0.183-0.977,0.549-1.343c0.366-0.365,0.813-0.549,1.342-0.549h25.132
		c0.528,0,0.976,0.184,1.342,0.549c0.366,0.366,0.549,0.815,0.549,1.343c0,0.528-0.183,0.977-0.549,1.343
		c-0.366,0.365-0.814,0.549-1.342,0.549h-10.675v33.732c0,0.528-0.183,0.977-0.549,1.343c-0.366,0.365-0.814,0.549-1.342,0.549
		c-0.529,0-0.976-0.184-1.342-0.549c-0.366-0.366-0.549-0.814-0.549-1.343V429.28h-10.675c-0.529,0-0.976-0.184-1.342-0.549
		C113.2,428.365,113.017,427.917,113.017,427.389"/>
	<path clip-path="url(#SVGID_2_)" d="M141.138,451.972c0.203,1.303,0.63,2.512,1.281,3.629c0.65,1.119,1.453,2.085,2.41,2.897
		c0.955,0.815,2.043,1.455,3.263,1.922c1.22,0.468,2.501,0.701,3.843,0.701c1.504,0,2.907-0.274,4.209-0.823
		c1.301-0.549,2.46-1.311,3.477-2.287c0.366-0.366,0.813-0.55,1.342-0.55c0.528,0,0.976,0.184,1.342,0.55
		c0.366,0.365,0.549,0.814,0.549,1.342c0,0.528-0.183,0.976-0.549,1.343c-1.342,1.505-2.857,2.571-4.544,3.202
		c-1.688,0.631-3.63,0.945-5.826,0.945c-2.034,0-3.935-0.366-5.704-1.099c-1.769-0.731-3.324-1.748-4.666-3.049
		c-1.342-1.302-2.4-2.847-3.172-4.637c-0.773-1.789-1.159-3.74-1.159-5.856c0-2.033,0.376-3.935,1.129-5.703
		c0.752-1.769,1.788-3.314,3.111-4.635c1.32-1.322,2.887-2.38,4.696-3.173c1.809-0.793,3.772-1.23,5.887-1.312
		c1.952,0,3.792,0.388,5.521,1.159c1.728,0.773,3.263,1.811,4.605,3.112s2.41,2.826,3.203,4.574c0.793,1.749,1.229,3.62,1.311,5.611
		c0.081,0.693-0.092,1.221-0.518,1.586c-0.428,0.366-0.885,0.55-1.373,0.55H141.138z M151.935,439.223
		c-1.342,0-2.613,0.234-3.813,0.701c-1.2,0.468-2.277,1.099-3.232,1.892c-0.956,0.793-1.749,1.738-2.379,2.837
		c-0.632,1.097-1.068,2.277-1.312,3.538h21.533c-0.244-1.261-0.692-2.441-1.342-3.538c-0.651-1.099-1.455-2.044-2.41-2.837
		c-0.956-0.793-2.033-1.424-3.232-1.892C154.547,439.457,153.277,439.223,151.935,439.223"/>
	<path clip-path="url(#SVGID_2_)" d="M191.462,442.211c-1.017-0.894-2.176-1.615-3.477-2.165c-1.302-0.549-2.705-0.822-4.209-0.822
		c-1.505,0-2.918,0.283-4.239,0.853c-1.323,0.571-2.481,1.354-3.477,2.35c-0.997,0.996-1.78,2.164-2.349,3.508
		c-0.57,1.341-0.854,2.765-0.854,4.269c0,1.505,0.284,2.919,0.854,4.239c0.569,1.323,1.352,2.481,2.349,3.478
		c0.996,0.997,2.154,1.779,3.477,2.35c1.321,0.568,2.734,0.853,4.239,0.853c1.504,0,2.907-0.273,4.209-0.823
		c1.301-0.549,2.46-1.312,3.477-2.286c0.366-0.366,0.813-0.551,1.342-0.551c0.528,0,0.976,0.185,1.342,0.551
		c0.366,0.364,0.539,0.822,0.519,1.372c-0.021,0.549-0.255,1.048-0.702,1.493c-0.366,0.366-0.864,0.784-1.494,1.251
		c-0.632,0.469-1.383,0.905-2.257,1.312c-0.875,0.407-1.852,0.742-2.928,1.006c-1.078,0.265-2.248,0.397-3.508,0.397
		c-2.034,0-3.935-0.366-5.703-1.1c-1.769-0.73-3.325-1.748-4.667-3.05c-1.342-1.3-2.4-2.845-3.172-4.635
		c-0.773-1.789-1.159-3.742-1.159-5.857c0-2.033,0.376-3.934,1.129-5.703c0.752-1.769,1.789-3.313,3.111-4.636
		c1.321-1.321,2.887-2.38,4.697-3.173c1.808-0.792,3.771-1.229,5.886-1.312c1.22,0,2.349,0.153,3.386,0.458
		c1.036,0.306,1.971,0.672,2.805,1.099c0.833,0.427,1.576,0.884,2.227,1.373c0.65,0.486,1.179,0.915,1.586,1.279
		c0.244,0.204,0.457,0.58,0.641,1.13c0.183,0.549,0.05,1.048-0.397,1.493c-0.366,0.366-0.814,0.551-1.342,0.551
		C192.275,442.762,191.829,442.577,191.462,442.211"/>
	<path clip-path="url(#SVGID_2_)" d="M198.172,427.389c0-0.527,0.183-0.977,0.549-1.343c0.366-0.365,0.813-0.549,1.342-0.549
		c0.528,0,0.976,0.184,1.342,0.549c0.366,0.366,0.549,0.815,0.549,1.343v12.811c1.342-1.504,2.948-2.694,4.819-3.569
		c1.87-0.874,3.904-1.311,6.1-1.311c2.033,0,3.944,0.386,5.734,1.158c1.789,0.772,3.344,1.82,4.667,3.142
		c1.32,1.322,2.368,2.877,3.141,4.666c0.772,1.791,1.159,3.702,1.159,5.734v13.055c0,0.528-0.183,0.976-0.549,1.341
		c-0.366,0.367-0.814,0.549-1.342,0.549c-0.529,0-0.976-0.182-1.342-0.549c-0.366-0.365-0.549-0.812-0.549-1.341V450.02
		c0-1.504-0.285-2.918-0.854-4.238c-0.57-1.322-1.352-2.481-2.349-3.479c-0.997-0.996-2.156-1.777-3.477-2.349
		c-1.322-0.568-2.735-0.854-4.239-0.854c-1.464,0-2.847,0.274-4.148,0.823c-1.302,0.549-2.44,1.291-3.416,2.228
		c-0.976,0.935-1.769,2.043-2.379,3.323c-0.61,1.281-0.936,2.653-0.976,4.118v13.481c0,0.528-0.183,0.976-0.549,1.341
		c-0.366,0.367-0.814,0.549-1.342,0.549c-0.529,0-0.976-0.182-1.342-0.549c-0.366-0.365-0.549-0.812-0.549-1.341v-13.481V427.389z"
		/>
	<path clip-path="url(#SVGID_2_)" d="M245.995,426.046c0-0.526,0.183-0.976,0.549-1.342c0.366-0.366,0.813-0.549,1.342-0.549
		c0.528,0,0.976,0.183,1.342,0.549c0.366,0.366,0.549,0.815,0.549,1.342v46.665c0,0.528-0.183,0.978-0.549,1.344
		c-0.366,0.364-0.814,0.549-1.342,0.549c-0.529,0-0.976-0.185-1.342-0.549c-0.366-0.366-0.549-0.815-0.549-1.344V426.046z"/>
	<path clip-path="url(#SVGID_2_)" d="M294.122,452.337h-20.801v10.676c0,0.528-0.183,0.977-0.549,1.343
		c-0.366,0.365-0.814,0.549-1.342,0.549c-0.529,0-0.976-0.184-1.342-0.549c-0.366-0.366-0.549-0.814-0.549-1.343V439.71
		c0-1.951,0.366-3.791,1.098-5.52s1.739-3.233,3.02-4.515c1.281-1.281,2.785-2.297,4.514-3.05c1.728-0.752,3.568-1.129,5.52-1.129
		c1.952,0,3.792,0.377,5.521,1.129c1.728,0.753,3.233,1.769,4.514,3.05c1.281,1.281,2.297,2.786,3.05,4.515
		c0.752,1.729,1.128,3.568,1.128,5.52v23.303c0,0.528-0.183,0.977-0.549,1.343c-0.366,0.365-0.814,0.549-1.342,0.549
		c-0.529,0-0.976-0.184-1.342-0.549c-0.366-0.366-0.549-0.814-0.549-1.343V452.337z M273.321,448.556h20.801v-8.846
		c0-1.423-0.274-2.764-0.823-4.025c-0.549-1.261-1.302-2.368-2.257-3.324c-0.956-0.954-2.065-1.708-3.325-2.258
		c-1.261-0.549-2.603-0.822-4.026-0.822c-1.424,0-2.766,0.273-4.026,0.822c-1.261,0.55-2.359,1.304-3.294,2.258
		c-0.936,0.956-1.677,2.063-2.226,3.324c-0.549,1.262-0.824,2.603-0.824,4.025V448.556z"/>
	<path clip-path="url(#SVGID_2_)" d="M301.076,449.958c0-1.991,0.375-3.873,1.129-5.643c0.752-1.768,1.788-3.324,3.111-4.666
		c1.321-1.341,2.856-2.399,4.605-3.171c1.748-0.773,3.619-1.18,5.612-1.221c0.65,0,1.168,0.183,1.556,0.55
		c0.386,0.365,0.579,0.812,0.579,1.341c0,0.53-0.193,0.976-0.579,1.342c-0.388,0.366-0.906,0.549-1.556,0.549
		c-1.464,0.041-2.847,0.356-4.148,0.945c-1.302,0.591-2.44,1.373-3.416,2.349c-0.976,0.978-1.738,2.126-2.288,3.447
		c-0.548,1.322-0.823,2.714-0.823,4.178v13.056c0,0.527-0.183,0.975-0.549,1.341c-0.366,0.367-0.814,0.549-1.342,0.549
		c-0.529,0-0.976-0.182-1.342-0.549c-0.366-0.366-0.549-0.813-0.549-1.341V449.958z"/>
	<path clip-path="url(#SVGID_2_)" d="M319.498,427.327c0-0.527,0.183-0.976,0.549-1.342c0.366-0.366,0.813-0.549,1.342-0.549
		c0.528,0,0.976,0.183,1.342,0.549s0.549,0.814,0.549,1.342v7.81h13.481c0.65,0,1.169,0.182,1.556,0.548
		c0.386,0.367,0.578,0.813,0.578,1.342c0,0.53-0.192,0.977-0.578,1.342c-0.387,0.366-0.905,0.55-1.556,0.55H323.28v11.284
		c0,1.505,0.284,2.919,0.854,4.239c0.569,1.323,1.351,2.482,2.349,3.479c0.995,0.996,2.155,1.778,3.477,2.348
		c1.321,0.57,2.734,0.854,4.24,0.854c1.504,0,2.906-0.273,4.209-0.822c1.301-0.55,2.439-1.312,3.416-2.287
		c0.324-0.367,0.741-0.58,1.25-0.642c0.508-0.062,0.985,0.071,1.434,0.396c0.325,0.327,0.528,0.731,0.61,1.22
		c0.081,0.488-0.021,0.956-0.307,1.404c-1.341,1.423-2.927,2.531-4.757,3.324s-3.783,1.188-5.855,1.188
		c-2.034,0-3.945-0.386-5.734-1.159c-1.79-0.771-3.345-1.818-4.667-3.142c-1.321-1.32-2.369-2.876-3.141-4.666
		c-0.773-1.789-1.159-3.7-1.159-5.734V427.327z"/>
	<path clip-path="url(#SVGID_2_)" d="M347.375,463.013c0-0.527,0.183-0.977,0.549-1.343c0.366-0.365,0.812-0.549,1.342-0.549h13.176
		c1.18,0,2.197-0.426,3.051-1.281c0.854-0.853,1.281-1.869,1.281-3.05c0-1.178-0.428-2.195-1.281-3.049
		c-0.854-0.854-1.871-1.282-3.051-1.282h-7.137c-1.18,0-2.288-0.222-3.324-0.671c-1.037-0.447-1.942-1.056-2.715-1.83
		c-0.773-0.771-1.383-1.676-1.83-2.714c-0.448-1.037-0.671-2.144-0.671-3.325c0-1.178,0.223-2.297,0.671-3.354
		c0.447-1.059,1.057-1.973,1.83-2.745c0.772-0.773,1.678-1.382,2.715-1.83c1.036-0.448,2.145-0.671,3.324-0.671h12.443
		c0.529,0,0.977,0.182,1.342,0.548c0.367,0.367,0.551,0.814,0.551,1.342c0,0.53-0.184,0.978-0.551,1.343
		c-0.365,0.365-0.812,0.55-1.342,0.55h-12.443c-1.302,0.041-2.42,0.527-3.355,1.464c-0.936,0.935-1.402,2.053-1.402,3.354
		c0,1.303,0.467,2.42,1.402,3.356c0.936,0.935,2.054,1.402,3.355,1.402h7.137c1.098,0,2.145,0.213,3.143,0.641
		c0.996,0.427,1.859,1.007,2.592,1.738s1.312,1.597,1.738,2.593c0.428,0.997,0.641,2.044,0.641,3.141
		c0,1.099-0.213,2.146-0.641,3.142c-0.426,0.997-1.006,1.86-1.738,2.594c-0.732,0.73-1.596,1.311-2.592,1.737
		c-0.998,0.428-2.045,0.642-3.143,0.642h-13.176c-0.529,0-0.976-0.184-1.342-0.549C347.558,463.989,347.375,463.541,347.375,463.013
		"/>
	<path clip-path="url(#SVGID_2_)" d="M389.647,426.046c0-0.526,0.183-0.976,0.549-1.342s0.813-0.549,1.342-0.549
		s0.977,0.183,1.342,0.549c0.366,0.366,0.55,0.815,0.55,1.342v46.665c0,0.528-0.184,0.978-0.55,1.344
		c-0.365,0.364-0.813,0.549-1.342,0.549s-0.976-0.185-1.342-0.549c-0.366-0.366-0.549-0.815-0.549-1.344V426.046z"/>
	<path clip-path="url(#SVGID_2_)" d="M413.375,427.511c0-0.528,0.183-0.976,0.549-1.342s0.813-0.549,1.342-0.549h10.37
		c1.992,0,3.853,0.377,5.582,1.129c1.728,0.753,3.232,1.768,4.514,3.049c1.28,1.282,2.297,2.787,3.05,4.514
		c0.752,1.73,1.129,3.569,1.129,5.521s-0.377,3.793-1.129,5.52c-0.753,1.73-1.77,3.234-3.05,4.516
		c-1.281,1.279-2.786,2.286-4.514,3.019c-1.729,0.732-3.59,1.098-5.582,1.098h-8.479v8.968c0,0.528-0.184,0.976-0.55,1.342
		c-0.365,0.366-0.813,0.549-1.342,0.549s-0.976-0.183-1.342-0.549s-0.549-0.813-0.549-1.342V427.511z M417.157,429.401v20.802h8.479
		c1.464,0,2.826-0.275,4.087-0.823c1.26-0.549,2.369-1.291,3.324-2.228c0.955-0.935,1.708-2.032,2.257-3.294
		c0.55-1.26,0.824-2.603,0.824-4.025s-0.274-2.766-0.824-4.026c-0.549-1.26-1.302-2.369-2.257-3.325
		c-0.955-0.955-2.064-1.708-3.324-2.257c-1.261-0.549-2.623-0.823-4.087-0.823H417.157z"/>
	<path clip-path="url(#SVGID_2_)" d="M454,463.013c0,0.528-0.183,0.977-0.549,1.343c-0.366,0.365-0.814,0.549-1.342,0.549
		c-1.871-0.04-3.438-0.407-4.697-1.099c-1.261-0.69-2.288-1.545-3.081-2.562c-0.793-1.015-1.362-2.093-1.708-3.232
		c-0.346-1.139-0.52-2.154-0.52-3.051v-27.633c0-0.528,0.185-0.975,0.551-1.341c0.365-0.367,0.812-0.549,1.342-0.549
		c0.528,0,0.976,0.182,1.342,0.549c0.366,0.366,0.549,0.812,0.549,1.341v27.633c0,0.326,0.07,0.815,0.214,1.465
		c0.142,0.651,0.437,1.321,0.885,2.014c0.446,0.69,1.076,1.302,1.891,1.83c0.812,0.527,1.891,0.812,3.233,0.853
		c0.527,0,0.976,0.184,1.342,0.549C453.817,462.036,454,462.485,454,463.013"/>
	<path clip-path="url(#SVGID_2_)" d="M470.287,435.38c1.952,0,3.812,0.396,5.581,1.188c1.77,0.794,3.325,1.862,4.667,3.203
		c1.342,1.342,2.409,2.909,3.202,4.698s1.189,3.7,1.189,5.732v12.871c0,0.529-0.183,0.978-0.549,1.342
		c-0.366,0.366-0.813,0.55-1.342,0.55c-0.529,0-0.976-0.184-1.342-0.55c-0.366-0.364-0.549-0.812-0.549-1.342v-3.721
		c-1.343,1.505-2.96,2.796-4.85,3.873c-1.892,1.079-3.935,1.618-6.131,1.618c-2.034,0-3.935-0.367-5.703-1.1
		c-1.77-0.73-3.325-1.748-4.667-3.05c-1.342-1.301-2.399-2.846-3.172-4.636c-0.773-1.789-1.159-3.741-1.159-5.856
		c0-2.032,0.376-3.935,1.129-5.703c0.752-1.77,1.789-3.314,3.11-4.636c1.321-1.32,2.888-2.38,4.697-3.173
		S468.172,435.462,470.287,435.38 M459.246,450.202c0,1.505,0.284,2.919,0.854,4.239c0.569,1.323,1.352,2.482,2.349,3.479
		c0.996,0.996,2.155,1.778,3.478,2.348c1.321,0.57,2.734,0.854,4.239,0.854c1.464,0,2.846-0.273,4.148-0.822
		c1.301-0.55,2.449-1.312,3.446-2.287c0.996-0.978,1.789-2.125,2.379-3.448c0.588-1.32,0.925-2.775,1.007-4.361
		c0-1.504-0.285-2.928-0.854-4.27c-0.57-1.342-1.353-2.51-2.349-3.507c-0.997-0.996-2.165-1.779-3.507-2.35
		c-1.343-0.568-2.767-0.853-4.271-0.853c-1.505,0-2.918,0.284-4.239,0.853c-1.322,0.57-2.481,1.354-3.478,2.35
		c-0.997,0.997-1.779,2.165-2.349,3.507S459.246,448.698,459.246,450.202"/>
	<path clip-path="url(#SVGID_2_)" d="M516.586,474.054c0,0.527-0.184,0.977-0.549,1.343c-0.366,0.365-0.813,0.549-1.342,0.549
		c-0.529,0-0.977-0.184-1.342-0.549c-0.367-0.366-0.549-0.815-0.549-1.343v-14.029c-1.343,1.505-2.949,2.693-4.82,3.567
		c-1.87,0.875-3.903,1.312-6.1,1.312c-2.033,0-3.945-0.386-5.734-1.16c-1.789-0.771-3.345-1.819-4.667-3.141
		c-1.32-1.32-2.368-2.876-3.141-4.666c-0.772-1.789-1.158-3.7-1.158-5.735v-13.053c0-0.529,0.183-0.978,0.548-1.343
		c0.367-0.365,0.813-0.55,1.343-0.55c0.528,0,0.976,0.185,1.342,0.55s0.549,0.813,0.549,1.343v13.053
		c0,1.505,0.284,2.919,0.854,4.24c0.569,1.321,1.352,2.48,2.349,3.477c0.996,0.997,2.155,1.78,3.477,2.35
		c1.321,0.568,2.734,0.853,4.239,0.853c1.465,0,2.847-0.274,4.148-0.823c1.301-0.549,2.44-1.291,3.416-2.226
		c0.976-0.936,1.759-2.044,2.349-3.325c0.589-1.281,0.925-2.653,1.007-4.118v-13.479c0-0.529,0.182-0.978,0.549-1.343
		c0.365-0.365,0.812-0.55,1.342-0.55c0.528,0,0.976,0.185,1.342,0.55c0.365,0.365,0.549,0.813,0.549,1.343v13.479V474.054z"/>
</g>
</svg>
