<?xml version="1.0" encoding="utf-8"?>
<!-- Generator: Adobe Illustrator 16.0.0, SVG Export Plug-In . SVG Version: 6.00 Build 0)  -->
<!DOCTYPE svg PUBLIC "-//W3C//DTD SVG 1.1//EN" "http://www.w3.org/Graphics/SVG/1.1/DTD/svg11.dtd">
<svg version="1.1" id="Layer_1" xmlns="http://www.w3.org/2000/svg" xmlns:xlink="http://www.w3.org/1999/xlink" x="0px" y="0px"
	 width="576px" height="164.637px" viewBox="0 0 576 164.637" enable-background="new 0 0 576 164.637" xml:space="preserve">
<rect fill="#3F59A8" width="576" height="164.637"/>
<polygon fill="#FFFFFF" points="11.5,152.779 12,11.279 563.5,11.779 563.5,153.279 "/>
<path fill="#FFFFFF" d="M15,16.279"/>
<polygon fill="#3F59A8" points="559,15.612 559,149.111 16.5,148.611 16,15.612 "/>
<path fill="#FFFFFF" d="M382,96.529c0,0-0.25-33.5,46.75-35c0,0,47.25,0.25,44,36.5l-75.5,0.25c0,0,1,17.25,27.25,17.5
	c0,0,23,0.5,39.5-11.5l5,10.75c0,0-13.25,12.25-44,12C425,127.029,383.5,128.279,382,96.529z"/>
<path fill="#3F59A8" d="M400.25,86.779c0,0,4.25-13.75,27.5-13.5s28.5,13.5,28.5,13.5H400.25z"/>
<polygon fill="#FFFFFF" points="350,126.945 370.334,38.612 384.666,38.946 364.666,126.613 "/>
<polygon fill="#FFFFFF" points="237.333,64.612 252.333,64.279 256.333,106.279 288.333,64.946 300.666,65.279 312.666,107.945 
	338,64.612 353,64.946 317.334,126.945 303.334,127.279 291,82.946 257.667,126.945 243.667,126.945 "/>
<path fill="#FFFFFF" d="M183,63.279c0,0,48.667-1.002,48.667,31.666c0,0,2.666,32.336-47.667,32.668s-50-32.334-50-32.334
	S131.667,63.946,183,63.279z"/>
<path fill="#3F59A8" d="M148.667,94.945c0,0-3.333-18.333,35-20.333c0,0,36.334,0.333,35,21.333c0,0,3.666,20.002-34.667,19.668
	C184,115.613,150.001,117.943,148.667,94.945z"/>
<polygon fill="#FFFFFF" points="30,126.279 52,38.779 356.5,39.279 353,54.279 66,54.779 60.5,75.779 119,76.279 114,91.779 
	56.5,92.279 47,126.779 "/>
<path fill="#FFFFFF" d="M477.25,126.779l14-61.25l14-0.25l-1,5.75c0,0,7.5-6,19.25-5.75s11,1.75,20.25,7.5l-8.25,9.25
	c0,0-15-12.5-29.75,0.25c0,0-4.75,1.75-8.75,17.5s-6.5,27.25-6.5,27.25L477.25,126.779z"/>
<rect x="534" y="16.279" fill="none" width="25" height="29"/>
</svg>
