<?xml version="1.0" encoding="utf-8"?>
<!-- Generator: Adobe Illustrator 16.0.0, SVG Export Plug-In . SVG Version: 6.00 Build 0)  -->
<!DOCTYPE svg PUBLIC "-//W3C//DTD SVG 1.1//EN" "http://www.w3.org/Graphics/SVG/1.1/DTD/svg11.dtd">
<svg version="1.1" id="Layer_1" xmlns="http://www.w3.org/2000/svg" xmlns:xlink="http://www.w3.org/1999/xlink" x="0px" y="0px"
	 width="523.5px" height="519px" viewBox="0 0 523.5 519" enable-background="new 0 0 523.5 519" xml:space="preserve">
<rect x="113.235" y="100.509" fill="#FFD520" stroke="#25358E" stroke-width="10.0406" width="293.772" height="305.438"/>
<g>
	<polygon fill="#7E459B" points="323.377,134.45 356.59,147.899 396.941,166.875 426.209,188.242 450.725,214.34 475.238,253.884 
		484.727,287.116 486.32,323.493 457.842,295.019 424.611,269.708 400.902,253.884 370.043,247.559 336.828,247.559 
		336.037,183.495 303.611,184.28 	"/>
	<path fill="#BDD63E" d="M199.979,124.965l30.063-27.691l33.22-23.73l40.349-20.569l33.994-15.015l43.514-8.705l30.85-4.756
		l24.531,1.596l-18.215,12.649l-26.887,23.731l-23.727,23.732l-17.396,24.517l-11.873,18.985c0,0-8.691,20.555-11.066,24.52
		c-2.381,3.955-6.344,18.984-7.119,27.687c-0.787,8.689-132.887,1.581-132.887,1.581L199.979,124.965z"/>
	<path fill="#00A7DE" d="M174.673,256.256l-31.642-53.782l-41.126-50.626l-18.198-19.775l-27.675-23.715l-20.571-15.83h27.69
		l34.798,2.367l27.687,4.758l29.261,9.484l38.76,18.193l28.471,22.932c0,0,24.525,26.109,27.686,33.232
		c3.166,7.108-72.764-0.795-72.764-0.795L174.673,256.256z"/>
	<g>
		<path fill="none" stroke="#25358E" stroke-width="9.4919" d="M197.404,128.288c0,0,91.357-107.243,241.641-102.497
			c0,0-87.783,52.201-112.717,132.885"/>
		<path fill="none" stroke="#25358E" stroke-width="9.4919" d="M225.881,154.395c0,0-58.133-68.031-191.021-61.689
			c0,0,85.429,49.824,142.379,172.029"/>
		<path fill="none" stroke="#25358E" stroke-width="9.4919" d="M333.463,138.571c28.449,10.241,160.402,54.375,152.494,188.843
			c0,0-60.746-92.33-146.166-78.885"/>
	</g>
	<path fill="#25358E" d="M21.388,76.479c7.432,0,13.455,6.031,13.455,13.453c0,7.436-6.022,13.454-13.455,13.454
		c-7.425,0-13.451-6.018-13.451-13.454C7.937,82.51,13.963,76.479,21.388,76.479z"/>
	<path fill="#25358E" d="M454.85,10.028c7.42,0,13.449,6.033,13.449,13.462c0,7.428-6.029,13.463-13.449,13.463
		c-7.443,0-13.461-6.035-13.461-13.463C441.389,16.062,447.406,10.028,454.85,10.028z"/>
	<path fill="#25358E" d="M487.768,326.019c7.434,0,13.453,6.035,13.453,13.457c0,7.431-6.02,13.448-13.453,13.448
		s-13.461-6.018-13.461-13.448C474.307,332.054,480.334,326.019,487.768,326.019z"/>
	<path fill="#FFFFFF" stroke="#25358E" stroke-width="9.4919" d="M335.83,183.628H176.838l0.529,175.931
		c1.172,39.538,36.239,71.285,79.357,71.285c43.86,0,79.415-32.835,79.415-73.336C336.139,353.54,335.83,183.628,335.83,183.628z"/>
	<path fill="#25358E" d="M220.741,233.074c5.866,0,10.628,4.773,10.628,10.627c0,5.877-4.762,10.635-10.628,10.635
		c-5.875,0-10.625-4.758-10.625-10.635C210.116,237.848,214.866,233.074,220.741,233.074z"/>
	<path fill="#25358E" d="M289.553,201.43c5.865,0,10.631,4.773,10.631,10.635c0,5.877-4.766,10.639-10.631,10.639
		c-5.859,0-10.621-4.762-10.621-10.639C278.932,206.203,283.693,201.43,289.553,201.43z"/>
	<g>
		<path fill="#FFFFFF" stroke="#25358E" stroke-width="9.4919" d="M309.969,339.867c-8.402,73.958-70.884,78.313-98.57,39.543"/>
		<line fill="#FFFFFF" stroke="#25358E" stroke-width="9.4919" x1="323.842" y1="339.146" x2="296.479" y2="334.429"/>
	</g>
	<path fill="none" stroke="#25358E" stroke-width="9.4919" d="M252.683,209.179c11.861,35.594,26.889,124.19,16.606,146.333
		c0,0-15.024-3.951-33.219-16.605"/>
</g>
<path fill="#25358E" stroke="#25358E" stroke-width="1.3749" stroke-linecap="round" stroke-linejoin="round" d="M51.804,472.258
	c2.474,0.222,7.73,1.521,21.696-0.285c0,2.83,0.147,7.138,0.147,10.473c0,12.154-8.202,23.599-21.703,23.599
	c-16.677,0-24.666-13.632-24.666-27.773c0-15.061,12.301-28.121,26.223-28.121c7.775,0,11.804,0.705,17.389,4.517
	c-1.905,2.328-2.826,3.319-4.875,6.424c-1.698,2.548-2.474,4.237-4.104,6.787c-2.404-1.918-4.803-3.044-8.41-3.044
	c-6.289,0-9.748,5.938-9.748,14.491c0,6.082,3.812,12.234,8.191,12.234c8.058,0,6.785-7.208,6.648-8.202
	c-1.272-0.505-3.815-0.563-5.02-0.632c-1.344-0.073-1.416-0.073-2.337-0.073c0.079-1.694,0.219-2.899,0.285-4.594
	C51.596,475.87,51.736,473.463,51.804,472.258z"/>
<path fill="#25358E" stroke="#25358E" stroke-width="1.3749" stroke-linecap="round" stroke-linejoin="round" d="M117.297,467.164
	c0-10.666-8.898-16.956-18.586-16.956c-10.319,0-22.857,6.254-22.857,18.62c0,0,9.684,0.366,12.88,0.366
	c0.637-2.618,5.2-4.788,8.094-4.788c3.327,0,6.573,2.574,6.198,8.918c-2.336-0.714-5.02-1.271-7.988-1.271
	c-2.331,0-5.656,0.985-8.551,2.896c-5.587,3.677-7.708,9.819-7.708,15.54c0,8.979,7.493,14.773,14.136,14.773
	c4.1,0,8.342-2.039,11.312-3.957c0,0,0.138,2.272,0.07,3.754c2.404,0.136,5.935-0.22,8.405-0.28
	c1.489-0.075,3.398-0.075,5.311-0.289C118.078,488.59,117.297,478.768,117.297,467.164z M102.513,492.654l-0.583,0.408
	c-1.234,0.837-4.301,2.767-6.173,2.424c-2.381-0.427-3.919-1.259-4.833-2.574c-0.604-0.877-0.898-1.918-0.898-3.213
	c0-0.618,0.07-1.307,0.208-2.064c0.956-5.272,7.845-4.82,11.156-4.611l1.312,0.08L102.513,492.654z"/>
<path fill="#25358E" stroke="#25358E" stroke-width="1.3749" stroke-linecap="round" stroke-linejoin="round" d="M221.703,483.816
	l-15.206,1.971c0.07,3.19-1.297,4.877-4.194,4.877c-4.028,0-5.243-4.203-5.811-9.012l24.602-4.444l-0.281-2.114
	c-2.192-16.612-10.959-24.595-22.903-24.595c-13.924,0-20.776,15.119-20.776,30.871c0,15.631,10.6,24.183,25.023,24.183
	c11.161,0,19.636-9.23,19.636-20.531L221.703,483.816z M196.153,474.497c-0.115-4.938,0.389-9.694,4.775-10.779
	c0.7-0.178,2.825-0.702,4.825,0.605c1.935,1.27,3.193,3.846,3.854,7.866l0.219,1.32l-13.637,2.618L196.153,474.497z"/>
<path fill="#25358E" stroke="#25358E" stroke-width="1.3749" stroke-linecap="round" stroke-linejoin="round" d="M224.048,453.174
	l-0.641-2.966l13.455,0.089c0,0,4.343,20.329,6.595,20.396c3.084,0.209,3.179-14.749,3.179-14.749l13.009-0.244
	c0,0-0.535,21.595,2.697,21.595c3.562-0.219,6.872-29.449,6.872-29.449l12.937-0.808l-0.713,3.032
	c-2.117,9.319-4.242,18.163-5.582,25.582c-1.273,7-4.733,28.976-4.733,28.976l-14.915,0.636c0,0-0.805-14.595-4.171-14.701
	c-3.021-0.097-4.736,14.218-4.736,14.218l-13.854,0.416c0,0-1.484-9.961-2.261-14.983
	C228.853,475.87,227.23,467.386,224.048,453.174z"/>
<path fill="#25358E" stroke="#25358E" stroke-width="1.3749" stroke-linecap="round" stroke-linejoin="round" d="M311.928,482.516
	c1.488-0.568,3.111-1.074,4.383-2.114c3.885-3.263,6.426-7.43,6.426-12.944c0-13.851-16.963-15.754-27.779-16.878
	c-3.246-0.365-10.381-0.157-10.381-0.157s0.562,25.798,0.562,40.507c0,4.234,0,13.489,0,13.489l12.797,0.278
	c0,0-0.141-9.814-0.141-14.198c0-0.283,0-1.266,0-1.554c0,0,0.416,0,0.918,0l10.322,15.41c0,0,4.09-0.136,5.436-0.136
	c2.33,0,10.176,0.064,10.176,0.064L311.928,482.516z M301.494,475.415l-4.402,0.591l0.213-13.296l-0.213-1.62l1.594,0.275
	c0,0,4.66,0.826,4.604,0.81c5.293,1.754,6.09,4.795,6.09,6.446C309.379,474.705,304.82,475.116,301.494,475.415z"/>
<path fill="#25358E" stroke="#25358E" stroke-width="1.3749" stroke-linecap="round" stroke-linejoin="round" d="M335.461,450.507
	c2.898,0,9.119-0.567,9.119-0.567s-0.418,9.394-0.418,13.01c0,6.562-0.287,15.264-0.146,22.968c0.146,9.814,0.703,18.23,0.703,18.23
	s-1.48-0.073-3.316-0.139c-2.121-0.075-4.814,0.065-6.229,0.065c-1.336,0-6.213,0.635-6.213,0.635s-0.352-8.689-0.416-18.09
	c-0.086-7.628-0.225-15.823-0.225-20.069c0-5.307,0.857-16.544,0.857-16.544S333.91,450.507,335.461,450.507z"/>
<path fill="#25358E" stroke="#25358E" stroke-width="1.3749" stroke-linecap="round" stroke-linejoin="round" d="M372.482,472.258
	c2.309,0.208,10.197,1.937,21.707-0.285c0,2.83,0.141,7.138,0.141,10.473c0,12.154-8.197,23.599-21.701,23.599
	c-16.686,0-24.666-13.632-24.666-27.773c0-15.061,12.299-28.121,26.221-28.121c7.773,0,11.803,0.705,17.385,4.517
	c-1.906,2.328-2.816,3.319-4.877,6.424c-1.691,2.548-2.477,4.237-4.102,6.787c-2.389-1.918-4.793-3.044-8.406-3.044
	c-6.289,0-9.756,5.938-9.756,14.491c0,6.082,3.818,12.234,8.201,12.234c8.059,0,6.785-7.208,6.648-8.202
	c-1.285-0.505-6.441-0.705-7.352-0.705C371.99,480.957,372.418,473.463,372.482,472.258z"/>
<path fill="#25358E" stroke="#25358E" stroke-width="1.3749" stroke-linecap="round" stroke-linejoin="round" d="M416.428,491.417
	c0,4.309-0.143,6.563-0.143,10.815v2.607h-2.615c-1.404,0-8.861-0.35-10.244-0.35h-2.762c0,0,0.969-24.122-0.277-40.368
	c0-1.967-1.629-13.268-1.275-14.619c3.912,0.892,15.904,1.693,17.107,1.419c0.146,1.267,0.635,19.933,0.635,21.491
	c1.121,0,5.658,0.341,7.764,0c0-1.995,0.508-19.441,0.508-19.441h2.615c1.404,0,13.922,0.354,13.922,0.354
	s-1.553,14.409-1.553,19.004c0,5.94,0.486,32.793,0.486,32.793s-11.799-0.344-13.568-0.344h-2.479c0,0-0.627-19.797-0.627-21.214
	c-0.922,0-5.729,0.085-7.211,0.085C416.711,486.108,416.428,488.872,416.428,491.417z"/>
<path fill="#25358E" stroke="#25358E" stroke-width="1.3749" stroke-linecap="round" stroke-linejoin="round" d="M447.094,452.821
	l40.564-2.752l-0.434,14.978l-10.523,0.638l-0.572,40.498l-14.566-0.71l0.791-38.366l-15.342,0.413L447.094,452.821z"/>
<path fill="#25358E" stroke="#25358E" stroke-width="1.3749" stroke-linecap="round" stroke-linejoin="round" d="M132.619,453.807
	c4.027,0,4.33,0.431,4.33,0.431s7.911,16.851,10.305,16.681c3.25-0.238,9.985-17.586,9.985-17.586l2.376,0.048
	c4.171,0,13.505-1.055,13.505-1.055s-0.432,10.175-0.432,14.203c0,9.262,0,14.699,0,23.945c0,5.388,0.503,16.688,0.503,16.688
	s-7.982,0.012-11.657,0.012c-2.125,0,3.301-22.663-4.326-21.834c-2.06,0.197-4.433,18.465-4.433,18.465h-9.5
	c0,0-1.913-19.286-6.465-18.673c-3.501,0.616-0.479,20.865-3.092,21.012c-2.337,0.131-9.578-0.104-9.578-0.104
	s-0.144-7.283-0.144-11.451c0-8.484,0.208-13.288,0.208-21.637c0-6.839-0.492-9.4-0.768-16.239c0-1.066-0.145-2.842-0.145-2.842
	S128.52,453.807,132.619,453.807z"/>
<path fill="#25358E" d="M503.615,450.767c5.746,0,10.293,4.58,10.293,10.692c0,6.165-4.547,10.745-10.293,10.745
	c-5.852,0-10.385-4.58-10.385-10.745C493.23,455.347,497.764,450.767,503.615,450.767z M503.615,474.535
	c7.053,0,13.195-5.374,13.195-13.076c0-7.635-6.143-13.023-13.195-13.023c-7.148,0-13.297,5.389-13.297,13.023
	C490.318,469.161,496.467,474.535,503.615,474.535z M500.965,462.513h2.369l3.852,6.432h2.645l-4.182-6.551
	c2.289-0.251,3.932-1.371,3.932-4.069c0-3.059-1.82-4.288-5.449-4.288h-5.627v14.908h2.461V462.513z M500.965,460.466v-4.378h2.939
	c1.471,0,3.205,0.235,3.205,2.063c0,2.134-1.604,2.314-3.42,2.314H500.965z"/>
</svg>
