<?xml version="1.0" encoding="UTF-8" standalone="no"?>
<svg
   xmlns:dc="http://purl.org/dc/elements/1.1/"
   xmlns:cc="http://creativecommons.org/ns#"
   xmlns:rdf="http://www.w3.org/1999/02/22-rdf-syntax-ns#"
   xmlns:svg="http://www.w3.org/2000/svg"
   xmlns="http://www.w3.org/2000/svg"
   viewBox="0 0 806.67999 124.01333"
   height="124.01333"
   width="806.67999"
   xml:space="preserve"
   id="svg2"
   version="1.1"><metadata
     id="metadata8"><rdf:RDF><cc:Work
         rdf:about=""><dc:format>image/svg+xml</dc:format><dc:type
           rdf:resource="http://purl.org/dc/dcmitype/StillImage" /></cc:Work></rdf:RDF></metadata><defs
     id="defs6" /><g
     transform="matrix(1.3333333,0,0,-1.3333333,0,124.01333)"
     id="g10"><g
       transform="scale(0.1)"
       id="g12"><path
         id="path14"
         style="fill:#f68313;fill-opacity:1;fill-rule:nonzero;stroke:none"
         d="m 1643.18,225.695 v 250.672 h -222.3 V 225.695 h -149.46 v 600.676 h 149.46 V 596.504 h 222.3 v 229.867 h 149.46 V 225.695 h -149.46" /><path
         id="path16"
         style="fill:#f68313;fill-opacity:1;fill-rule:nonzero;stroke:none"
         d="m 2073.62,576.629 c -61.48,0 -89.88,-56.754 -89.88,-125.797 0,-69.043 27.44,-126.75 88.93,-126.75 61.5,0 89.86,56.731 89.86,126.75 0,69.043 -27.43,125.797 -88.91,125.797 z m 0,-360.399 c -142.84,0 -238.37,87.965 -238.37,234.602 0,145.672 95.53,233.648 237.42,233.648 142.83,0 238.38,-87.011 238.38,-233.648 0,-146.637 -95.55,-234.602 -237.43,-234.602" /><path
         id="path18"
         style="fill:#f68313;fill-opacity:1;fill-rule:nonzero;stroke:none"
         d="M 2904.19,225.695 V 482.98 c 0,47.301 -12.28,80.399 -58.64,80.399 -47.3,0 -68.12,-48.227 -72.85,-77.543 V 225.695 H 2627.02 V 482.98 c 0,47.301 -12.29,80.399 -58.62,80.399 -47.32,0 -68.11,-48.227 -72.84,-77.543 V 225.695 h -145.7 v 449.328 h 137.18 l 8.52,-69.062 c 31.2,48.238 71.87,78.519 132.42,78.519 61.49,0 108.78,-26.488 129.58,-83.23 35.96,49.168 78.54,83.23 146.63,83.23 92.72,0 145.68,-58.66 145.68,-169.328 V 225.695 h -145.68" /><path
         id="path20"
         style="fill:#f68313;fill-opacity:1;fill-rule:nonzero;stroke:none"
         d="m 3320.46,588.938 c -54.87,0 -81.34,-41.625 -86.08,-86.071 h 165.53 c 0,46.348 -25.52,86.071 -79.45,86.071 z m -83.25,-174.059 c 2.83,-66.211 53.92,-92.688 110.7,-92.688 56.73,0 111.59,26.477 129.55,41.59 l 47.32,-84.179 c 0,0 -61.48,-63.372 -197.71,-63.372 -136.2,0 -235.52,83.254 -235.52,233.649 0,151.371 100.26,234.601 234.56,234.601 134.35,0 210.96,-94.601 210.96,-231.757 v -37.844 h -299.86" /><path
         id="path22"
         style="fill:#5a666d;fill-opacity:1;fill-rule:nonzero;stroke:none"
         d="M 3813.83,742.047 3702.78,436.441 h 221.18 z m 184.44,-517.594 -55.05,154.141 h -259.7 l -55.07,-154.141 h -69.75 l 217.47,582.75 h 78.97 l 219.32,-582.75 h -76.19" /><path
         id="path24"
         style="fill:#5a666d;fill-opacity:1;fill-rule:nonzero;stroke:none"
         d="m 4264.34,599.793 c -78.9,0 -130.29,-74.328 -130.29,-164.266 0,-89.011 47.72,-164.289 125.74,-164.289 78.94,0 130.3,74.387 130.3,164.289 0,89.008 -47.72,164.266 -125.75,164.266 z m 133.1,-375.34 -10.11,66.965 c -1.85,-2.773 -40.39,-75.234 -143.13,-75.234 -110.15,0 -179.89,93.601 -179.89,219.343 0,124.801 78.03,218.414 188.1,218.414 94.53,0 130.34,-69.746 134.92,-79.847 v 251.48 h 67.02 V 224.453 h -56.91" /><path
         id="path26"
         style="fill:#5a666d;fill-opacity:1;fill-rule:nonzero;stroke:none"
         d="m 4723.17,224.453 h -70.66 L 4491,644.758 h 71.58 l 125.69,-354.223 125.78,354.223 h 70.66 L 4723.17,224.453" /><path
         id="path28"
         style="fill:#5a666d;fill-opacity:1;fill-rule:nonzero;stroke:none"
         d="m 4925.04,224.453 v 420.305 h 67.05 V 224.453 Z m 33.95,513.918 c -26.58,0 -48.64,20.18 -48.64,46.797 0,26.617 21.12,47.723 47.75,47.723 26.6,0 48.62,-20.192 48.62,-46.809 0,-26.613 -21.1,-47.711 -47.73,-47.711" /><path
         id="path30"
         style="fill:#5a666d;fill-opacity:1;fill-rule:nonzero;stroke:none"
         d="m 5311.41,254.758 c -24.81,-22.047 -63.35,-38.574 -118.39,-38.574 -88.12,0 -146.87,55.957 -161.52,74.351 l 39.42,41.297 c 22.07,-24.781 69.79,-61.488 123.93,-61.488 54.14,0 89.95,21.988 89.95,63.324 0,41.273 -43.15,55.957 -66.99,65.176 -23.86,8.246 -61.5,19.25 -81.67,28.39 -20.23,8.293 -83.52,33.993 -83.52,106.477 0,72.508 62.36,121.137 149.56,121.137 88.11,0 140.45,-52.282 143.18,-55.969 l -31.24,-45.883 c -21.98,22.024 -64.19,48.629 -111.94,48.629 -47.72,0 -86.27,-19.273 -86.27,-59.645 0,-41.261 40.4,-54.16 68.85,-64.25 27.53,-10.101 58.74,-19.3 78.87,-27.531 20.25,-8.25 86.31,-35.793 86.31,-107.359 0,-36.684 -15.63,-66.988 -38.53,-88.082" /><path
         id="path32"
         style="fill:#5a666d;fill-opacity:1;fill-rule:nonzero;stroke:none"
         d="m 5573.81,599.793 c -82.6,0 -129.39,-67.914 -129.39,-165.195 0,-97.243 46.79,-164.254 129.39,-164.254 82.62,0 129.38,67.011 129.38,164.254 0,97.281 -46.76,165.195 -129.38,165.195 z m 0,-383.609 c -118.38,0 -199.13,86.261 -199.13,218.414 0,133.058 80.75,219.343 199.13,219.343 118.37,0 199.12,-86.285 199.12,-219.343 0,-132.153 -79.82,-218.414 -199.12,-218.414" /><path
         id="path34"
         style="fill:#5a666d;fill-opacity:1;fill-rule:nonzero;stroke:none"
         d="m 6039.98,583.277 c 0,0 -11.02,5.5 -29.4,5.5 -19.25,0 -39.45,-3.668 -62.38,-20.191 -23.87,-16.516 -52.3,-51.379 -60.6,-100.957 V 224.453 h -66.96 v 420.305 h 61.49 l 5.47,-84.43 c 22.05,48.629 70.72,93.613 129.42,93.613 20.18,0 33.04,-4.582 33.04,-4.582 l -10.08,-66.082" /><path
         id="path36"
         style="fill:#5a666d;fill-opacity:1;fill-rule:nonzero;stroke:none"
         d="M 753.512,475.25 734.566,494.199 445.496,783.266 195.133,532.891 V 290.277 c 0,-35.683 28.945,-64.675 64.652,-64.675 H 555.449 L 781.078,0 v 225.602 h 126.399 c 35.707,0 64.695,28.992 64.695,64.675 V 475.25 H 780.305 753.512" /><path
         id="path38"
         style="fill:#f68313;fill-opacity:1;fill-rule:nonzero;stroke:none"
         d="M 777.508,930.055 H 390.188 L 0,539.938 H 110.68 L 445.496,874.742 780.305,539.938 H 1167.66 L 777.508,930.055" /></g></g></svg>