<?xml version="1.0" encoding="UTF-8" standalone="no"?>
<!-- Generator: Adobe Illustrator 16.0.0, SVG Export Plug-In . SVG Version: 6.00 Build 0)  -->

<svg
   xmlns:dc="http://purl.org/dc/elements/1.1/"
   xmlns:cc="http://creativecommons.org/ns#"
   xmlns:rdf="http://www.w3.org/1999/02/22-rdf-syntax-ns#"
   xmlns:svg="http://www.w3.org/2000/svg"
   xmlns="http://www.w3.org/2000/svg"
   xmlns:xlink="http://www.w3.org/1999/xlink"
   xmlns:sodipodi="http://sodipodi.sourceforge.net/DTD/sodipodi-0.dtd"
   xmlns:inkscape="http://www.inkscape.org/namespaces/inkscape"
   version="1.1"
   id="Layer_1"
   x="0px"
   y="0px"
   width="677.40002"
   height="175"
   viewBox="0 0 677.40002 175"
   xml:space="preserve"
   inkscape:version="0.91 r13725"
   sodipodi:docname="Honda_Village.svg"><metadata
     id="metadata51"><rdf:RDF><cc:Work
         rdf:about=""><dc:format>image/svg+xml</dc:format><dc:type
           rdf:resource="http://purl.org/dc/dcmitype/StillImage" /><dc:title></dc:title></cc:Work></rdf:RDF></metadata><defs
     id="defs49" /><sodipodi:namedview
     pagecolor="#ffffff"
     bordercolor="#666666"
     borderopacity="1"
     objecttolerance="10"
     gridtolerance="10"
     guidetolerance="10"
     inkscape:pageopacity="0"
     inkscape:pageshadow="2"
     inkscape:window-width="1920"
     inkscape:window-height="1026"
     id="namedview47"
     showgrid="false"
     fit-margin-top="0"
     fit-margin-left="0"
     fit-margin-right="0"
     fit-margin-bottom="0"
     inkscape:zoom="1"
     inkscape:cx="374.74508"
     inkscape:cy="-73.15"
     inkscape:window-x="0"
     inkscape:window-y="0"
     inkscape:window-maximized="1"
     inkscape:current-layer="Layer_1" /><style
     type="text/css"
     id="style3"><![CDATA[
	.st0{clip-path:url(#SVGID_2_);fill-rule:evenodd;clip-rule:evenodd;}
	.st1{clip-path:url(#SVGID_2_);}
	.st2{fill:none;}
	.st3{fill:#007CC3;}
	.st4{clip-path:url(#SVGID_2_);fill-rule:evenodd;clip-rule:evenodd;fill:#007CC3;}
	.st5{clip-path:url(#SVGID_2_);fill:#007CC3;}
]]></style><g
     id="g5"
     transform="translate(-3.4,-8.1)"><defs
       id="defs7"><rect
         id="SVGID_1_"
         x="-43.200001"
         y="-81"
         width="792"
         height="612" /></defs><clipPath
       id="SVGID_2_"><use
         xlink:href="#SVGID_1_"
         style="overflow:visible"
         id="use11"
         x="0"
         y="0"
         width="100%"
         height="100%" /></clipPath><path
       class="st5"
       d="m 160.2,147.5 c 0,14.6 -3,19.3 -26.7,19.3 -23.7,0 -26.7,-4.7 -26.7,-19.3 0,-14.7 3,-19.4 26.7,-19.4 23.7,0 26.7,4.7 26.7,19.4 z m -39.8,0.1 c 0,10.1 1,12.3 13.1,12.3 12.1,0 13.1,-2.2 13.1,-12.3 0,-10.2 -1,-12.5 -13.1,-12.5 -12.1,0 -13.1,2.3 -13.1,12.5 z"
       id="path13"
       clip-path="url(#SVGID_2_)"
       inkscape:connector-curvature="0"
       style="fill:#007cc3" /><path
       class="st5"
       d="m 185.2,128.6 0,5.7 0.4,0 c 3,-5.5 9.8,-6.1 17.8,-6.1 14.9,0 19.4,4.1 19.4,13.3 l 0,24.9 -13.6,0 0,-24 c 0,-5.5 -1.8,-7.3 -10.6,-7.3 -11.9,0 -13.5,3.7 -13.5,10.5 l 0,20.8 -13.6,0 0,-37.8 13.7,0 z"
       id="path15"
       clip-path="url(#SVGID_2_)"
       inkscape:connector-curvature="0"
       style="fill:#007cc3" /><path
       class="st5"
       d="m 273.8,160.7 -0.4,0 c -3.5,5 -9.7,6.1 -17.7,6.1 -21.1,0 -21.7,-8.9 -21.7,-20.4 0,-11.1 2.3,-18.2 21.7,-18.2 6.9,0 14.1,0.9 17.1,5.5 l 0.5,0 0,-21.2 13.6,0 0,54 -13.6,0 0.5,-5.8 z m -26.3,-14.3 c 0,8.6 -0.3,13.5 12.1,13.5 13.9,0 13.4,-4.5 13.4,-13.5 0,-8.1 -1.6,-11.3 -13.4,-11.3 -9.4,0 -12.1,1.8 -12.1,11.3 z"
       id="path17"
       clip-path="url(#SVGID_2_)"
       inkscape:connector-curvature="0"
       style="fill:#007cc3" /><path
       class="st5"
       d="m 337.2,161.6 -0.3,0 c -2.7,5 -11,5.2 -17.6,5.2 -12.9,0 -21.2,-1.8 -21.2,-12 0,-9.1 7.1,-11.6 21.2,-11.6 6.9,0 13.7,0.1 17,4.3 l 0.4,0 0,-4.9 c 0,-6.1 -0.8,-8.3 -12.1,-8.3 -5.9,0 -10.7,0.4 -10.7,5.3 l -13.6,0 c 0,-11 11.3,-11.4 24.3,-11.4 18.1,0 25.7,1.9 25.7,14.5 l 0,23.7 -13.6,0 0.5,-4.8 z m -25.5,-6.8 c 0,5.3 3.2,5.8 12.4,5.8 7.2,0 12.5,-0.4 12.5,-5.8 0,-5.3 -5.8,-5.4 -12.5,-5.4 -6.9,0 -12.4,0 -12.4,5.4 z"
       id="path19"
       clip-path="url(#SVGID_2_)"
       inkscape:connector-curvature="0"
       style="fill:#007cc3" /><path
       class="st1"
       d="m 429.7,166.4 -13.6,0 0,-37.8 13.6,0 0,37.8 z m 0,-46.3 -13.6,0 0,-7.7 13.6,0 0,7.7 z"
       id="path21"
       clip-path="url(#SVGID_2_)"
       inkscape:connector-curvature="0" /><path
       class="st1"
       d="m 456,166.4 -13.6,0 0,-54 13.6,0 0,54 z"
       id="path23"
       clip-path="url(#SVGID_2_)"
       inkscape:connector-curvature="0" /><path
       class="st1"
       d="m 483.2,166.4 -13.6,0 0,-54 13.6,0 0,54 z"
       id="path25"
       clip-path="url(#SVGID_2_)"
       inkscape:connector-curvature="0" /><path
       class="st1"
       d="m 533.7,161.6 -0.3,0 c -2.7,5 -11,5.2 -17.6,5.2 -12.9,0 -21.2,-1.8 -21.2,-12 0,-9.1 7.1,-11.6 21.2,-11.6 6.9,0 13.7,0.1 17,4.3 l 0.4,0 0,-4.9 c 0,-6.1 -0.8,-8.3 -12.1,-8.3 -5.9,0 -10.7,0.4 -10.7,5.3 l -13.6,0 c 0,-11 11.3,-11.4 24.3,-11.4 18.1,0 25.7,1.9 25.7,14.5 l 0,23.7 -13.6,0 0.5,-4.8 z m -25.4,-6.8 c 0,5.3 3.2,5.8 12.4,5.8 7.2,0 12.5,-0.4 12.5,-5.8 0,-5.3 -5.8,-5.4 -12.5,-5.4 -6.9,0 -12.4,0 -12.4,5.4 z"
       id="path27"
       clip-path="url(#SVGID_2_)"
       inkscape:connector-curvature="0" /><path
       class="st1"
       d="m 597.9,161 -0.3,0 c -3.6,5 -10.8,5.8 -17.7,5.8 -19.4,0 -21.7,-7.1 -21.7,-18.2 0,-11.6 0.6,-20.4 21.7,-20.4 8,0 14.3,1.2 17.7,6.1 l 0.4,0 -0.5,-5.7 13.6,0 0,37.7 c 0,13.6 -6.5,16.8 -27.2,16.8 -13.8,0 -24.2,-1.6 -23.3,-12.9 l 12.7,0 c 0,5.2 2.9,6 10.6,6 11.6,0 14,-1.6 14,-8.1 l 0,-7.1 z m -26.2,-14.6 c 0,8.6 0,13.5 12.1,13.5 13.6,0 13.6,-4.5 13.6,-13.5 0,-8.1 -1.8,-11.3 -13.6,-11.3 -9.4,0 -12.1,1.8 -12.1,11.3 z"
       id="path29"
       clip-path="url(#SVGID_2_)"
       inkscape:connector-curvature="0" /><path
       class="st1"
       d="m 674.9,154.4 c 0,11.9 -10.3,12.5 -26.5,12.5 -21.7,0 -26.1,-4.6 -26.1,-19.2 0,-13.5 3.2,-19.4 26.1,-19.4 23.3,0 26.5,4.5 26.5,21 l -39,0 c 0,8.1 0.3,10.7 12.5,10.7 7.6,0 12.9,0.1 12.9,-5.5 l 13.6,0 z m -13.6,-11 c 0,-7.8 -1.7,-8.4 -12.9,-8.4 -11.8,0 -12.5,1.7 -12.5,8.4 l 25.4,0 z"
       id="path31"
       clip-path="url(#SVGID_2_)"
       inkscape:connector-curvature="0" /><path
       class="st0"
       d="m 385.3,8.1 0,79.1 -29.8,-0.2 -54.4,0.7 30.4,-33 -44.2,0 -59.1,36 C 149,95.3 73.6,104.1 5.9,116.7 l -2.5,0 345.3,-108.6 15.3,0 -60.1,36.5 37,0 33.7,-36.5 10.7,0 0,0 z"
       id="path33"
       clip-path="url(#SVGID_2_)"
       inkscape:connector-curvature="0"
       style="clip-rule:evenodd;fill-rule:evenodd" /><path
       class="st4"
       d="M 392.4,8.1 406,8.1 457,85.5 435,8.2 680.8,112.4 C 593.4,97.7 494.6,89 392.3,87.4 l 0,-79.3 0.1,0 z"
       id="path35"
       clip-path="url(#SVGID_2_)"
       inkscape:connector-curvature="0"
       style="clip-rule:evenodd;fill:#007cc3;fill-rule:evenodd" /><g
       class="st1"
       id="g37"
       clip-path="url(#SVGID_2_)"><path
         class="st3"
         d="m 55.4,113.1 0,19.2 27.6,0 0,-19.2 12.8,0 0,53.6 -12.8,0 0,-19.4 -27.6,0 0,19.4 -12.7,0 0,-53.6 12.7,0 z"
         id="path39"
         inkscape:connector-curvature="0"
         style="fill:#007cc3" /></g><g
       class="st1"
       id="g41"
       clip-path="url(#SVGID_2_)"><path
         d="m 365.4,112.2 14.6,40.3 2.3,0 14.4,-40.3 13.3,0 -19.6,53.9 -18.7,0 -19.8,-53.9 13.5,0 z"
         id="path43"
         inkscape:connector-curvature="0" /></g></g><rect
     x="-46.600002"
     y="-89.099998"
     class="st2"
     width="792"
     height="612"
     id="rect45"
     style="fill:none" /></svg>