<?xml version="1.0" encoding="utf-8"?>
<!-- Generator: Adobe Illustrator 16.0.0, SVG Export Plug-In . SVG Version: 6.00 Build 0)  -->
<!DOCTYPE svg PUBLIC "-//W3C//DTD SVG 1.1//EN" "http://www.w3.org/Graphics/SVG/1.1/DTD/svg11.dtd">
<svg version="1.1" id="Layer_1" xmlns="http://www.w3.org/2000/svg" xmlns:xlink="http://www.w3.org/1999/xlink" x="0px" y="0px"
	 width="301.667px" height="208.333px" viewBox="0 0 301.667 208.333" enable-background="new 0 0 301.667 208.333"
	 xml:space="preserve">
<path fill-rule="evenodd" clip-rule="evenodd" fill="#939598" d="M270.374,2.874c0.01,11.267,12.643,8.797,17.04,14.88
	c1.631,2.256,1.144,5.044,2.16,8.16c0.854,2.62,2.4,5.315,4.08,7.2c1.958,2.197,7.397,5.158,5.76,9.84
	c-0.414,1.182-0.625,1.91-1.68,2.4c-1.084,0.667-2.804-0.703-3.6-1.2c0,0.08,0,0.16,0,0.24c0.08,0.08,0.16,0.16,0.24,0.24
	c1.04,0.48,2.08,0.96,3.12,1.44c-0.731,3.515-2.508,4.872-4.56,6.96c-0.24,0-0.48,0-0.72,0c-0.361,6.158-6.162,10.422-12.24,7.2
	c-2.661-1.411-4.737-4.888-6.96-6c-1.799,1.705-4.818,2.261-6.96,3.6c-3.528,2.205-7.629,5.86-9.6,9.6
	c-2.243,4.256-2.304,10.044-3.6,15.36c-0.417,1.708-0.161,3.018-0.72,4.56c-0.615,1.695-1.612,3.838-2.64,5.28
	c-1.196,1.679-2.817,1.845-2.88,4.8c-0.694,1.122-0.305,2.923-0.72,4.32c-0.791,2.663-1.735,5.682-3.12,7.92
	c-1.18,1.907-5.63,5.306-5.76,7.2c-0.8,3.439-1.6,6.88-2.4,10.32c-2.772,8.513-6.234,17.174-6.24,28.08
	c-0.002,3.801,0.062,11.762,1.44,13.92c0.745,0.441,2.067-0.019,3.12,0.24c1.766,0.434,3.954,0.949,5.28,1.92
	c2.189,1.604,6.138,9.342,3.12,12.96c-0.597,0.715-1.599,0.895-2.4,1.44c-1.198,0.815-2.382,2.273-3.6,3.12
	c-0.24-0.08-0.48-0.16-0.72-0.24c-1.23,0.439-3.014,1.028-4.56,1.44c-1.2,0-2.4,0-3.6,0c-1.163,0.314-2.705,1.39-4.56,0.96
	c-2.363-0.548-3.698-1.076-5.04-1.92c-0.16,0.08-0.32,0.16-0.48,0.24c-1.53-1.676-2.854-4.386-4.08-5.28
	c-1.904-1.39-5.12-3.27-6.24-6.24c-0.48-3.439-0.96-6.88-1.44-10.32c-1.768-7.044-2.641-14.721-4.8-21.36
	c-1.366-4.201-1.888-8.416-3.36-12.24c-0.548-1.424-0.349-3.438-1.92-3.84c-2.861,2.824-8.841,4.084-12.96,5.76
	c-3.046,1.239-6.816,2.01-10.32,2.88c-7.336,1.821-18.651,0.419-24.72-1.44c-7.283-2.231-13.915-3.718-20.64-6.48
	c-7.493-3.076-16.253-6.182-26.16-6.48c0,0.08,0,0.16,0,0.24c2.921,3.024,2.353,10.717,0.72,14.64
	c-4.528,10.882-12.68,18.695-17.28,29.76c-2.752,6.62,0.369,10.935,2.88,15.6c0.737,1.37,1.511,4.369,3.12,4.8
	c2.494,1.476,4.916-1.718,7.92-0.96c3.645,0.919,6.933,4.623,6,9.36c-1.427,0.602-6.101,3.103-7.2,2.88
	c-1.36-0.08-2.72-0.16-4.08-0.24c-2.509-0.854-4.112-1.938-6.72-2.64c-2.656-0.716-4.657,0.226-6.48-0.96
	c-2.659-1.73-4.188-4.588-6-7.2c-5.265-7.587-8.679-16.463-12.48-25.68c-0.08,0.08-0.16,0.16-0.24,0.24
	c-4.178,2.682-10.588,9.093-12,14.4c0,1.36,0,2.72,0,4.08c0.765,3.338,1.161,9.107,2.88,11.52c0.245,0.343,0.902,0.617,1.2,0.96
	c2.162-0.048,8.924-1.08,10.32-0.24c1.231,0.741,2.47,2.147,3.84,2.64c-0.081,1.144,0.322,2.466,0,4.08
	c-2.93,1.826-7.266,4.992-11.52,2.4c-0.45,1.63-3.841,3.163-6.48,2.4c-1.249-0.361-2.324-1.248-3.6-2.16
	c-0.543-0.388-1.241-0.228-1.92-0.48c-2.035-0.755-3.748-1.627-5.04-3.12c0.842-1.7-1.593-8.082-2.16-9.6
	c-1.677-4.488-2.302-8.812-4.08-13.2c-1.158-2.858-2.646-6.005-3.12-9.36c2.553-1.647,4.413-3.872,6.48-6
	c7.334-7.552,11.51-13.956,14.4-26.16c1.019-4.301,1.204-14.45,0.24-18.96c-0.383-1.794,0.079-4.267-0.24-5.76
	c-1.059-4.955,1.109-13.562,1.92-17.28c-0.08,0-0.16,0-0.24,0c0,0.16,0,0.32,0,0.48c-4.594,3.245-5.271,12.098-6.72,18.72
	c-0.666,3.041,0.148,6.703-0.48,9.6c-0.08,3.44-0.16,6.88-0.24,10.32c-0.4,2.4-0.8,4.8-1.2,7.2c-2.409,7.527-5.811,14.01-10.56,19.2
	c-3.9,4.262-8.681,7.879-15.36,9.36c-2.326,0.516-4.696-0.539-6-1.2c-4.287-2.173-10.512-9.93-8.16-17.52
	c0.788-2.542,2.625-3.219,4.32-4.8c3.903-0.004,5.254,1.059,6,4.08c0.91,3.686-1.945,9.177,1.44,10.56
	c1.63,1.318,4.632,0.27,6.48-0.72c4.871-2.609,7.872-7.484,10.08-12.72c2.208-5.235,2.671-11.343,4.08-17.52
	c0.592-2.599,0.188-5.305,0.72-7.68c1.028-4.598-0.005-9.625,0.96-13.92c0-0.96,0-1.92,0-2.88c0.836-3.711,0.668-7.665,1.68-11.28
	c2.655-9.486,7.474-17.841,14.64-22.8c9.052-6.264,19.821-9.78,31.92-13.2c3.8-1.074,7.973-1.241,11.76-2.16
	c5.439-0.56,10.881-1.12,16.32-1.68c2.588-0.578,5.375,0.034,7.68-0.48c4.48-0.08,8.96-0.16,13.44-0.24
	c3.034-0.676,7.587-0.478,10.8-0.48c1.28,0,2.56,0,3.84,0c2.689-0.602,5.919,0.184,8.88-0.48c5.533-1.241,11.443-0.516,16.8-1.92
	c4.731-1.24,12.363-2.604,15.84-5.04c0.988-0.691,3.562-5.63,4.56-6.96c2.603-3.467,7.729-6.162,11.76-8.16
	c2.119-1.05,4.226-1.236,6.48-2.16c4.711-1.93,10.004-3.711,14.4-5.76c1-0.466,2.009-0.572,2.88-1.2
	c0.907-0.654,1.253-2.197,1.92-3.12c0.802-1.109,2.113-1.946,2.88-3.12c-1.984-2.108-2.23-6.388-2.16-9.84c0.08,0,0.16,0,0.24,0
	c2.376,2.996,6.914,3.747,9.6,6.24c3.889-0.781,5.868-3.081,9.36-4.08c4.174-1.195,9.396,0.302,12.96,0.72
	c0.03-3.116,1.763-3.341,3.36-4.8C268.773,2.874,269.574,2.874,270.374,2.874z"/>
<path fill-rule="evenodd" clip-rule="evenodd" fill="#939598" d="M234.374,11.273c1.269,2.931,3.403,6.653,6.48,7.68
	c0.4-0.4,0.8-0.8,1.2-1.2c-0.245-0.193-0.066-0.085-0.48-0.24c-1.128-0.927-2.656-1.297-3.84-2.16
	C236.337,14.336,235.708,12.35,234.374,11.273z"/>
<path fill-rule="evenodd" clip-rule="evenodd" fill="#939598" d="M266.534,22.554c1.156,1.914,2.897,1.991,4.56,3.36
	c1.668,1.374,1.67,3.302,4.56,4.08c2,0.539,2.995-1.146,4.56-0.72c0.761,0.207,0.651,0.981,1.44,0.72
	c0.193-0.245,0.085-0.066,0.24-0.48c-0.08,0-0.16,0-0.24,0c-0.351-1.135-1.085-1.372-1.68-2.16c-3.145-4.17-5.176-2.528-10.56-2.64
	C268.784,23.909,267.394,23.101,266.534,22.554z"/>
<path fill-rule="evenodd" clip-rule="evenodd" fill="#939598" d="M221.894,172.554c1.646-0.097,3.604,0.32,5.28,0.72
	c0-0.08,0-0.16,0-0.24c-1.213-0.564-2.255-1.216-3.84-1.44c-0.06-3.016-0.599-6.19-1.2-8.88c-0.798-3.568,0.304-7.047-0.48-10.8
	c-1.154-5.526-0.145-15.617,0.96-20.4c0.734-3.176,0.063-8.826,2.88-9.84c0.929-0.684,2.062-0.561,3.36-0.96
	c2.479-0.762,4.958-1.86,6.24-3.84c-0.08,0-0.16,0-0.24,0c-2.341,2.875-10.7,1.109-12,4.8c-1.819,2.404-1.135,8.633-1.92,12.24
	C218.259,146.21,221.571,160.989,221.894,172.554z"/>
<path fill-rule="evenodd" clip-rule="evenodd" fill="#939598" d="M93.014,125.034c0.245,0.193,0.065,0.085,0.48,0.24
	C93.249,125.081,93.428,125.188,93.014,125.034z"/>
<path fill-rule="evenodd" clip-rule="evenodd" fill="#939598" d="M92.293,125.273c-1.067,0.975-2.814,1.139-4.08,1.92
	c-1.917,1.184-4.414,3.258-5.76,5.04c-3.479,4.603-6.73,9.704-9.84,14.64c-1.287,2.043-2.093,4.366-3.6,6.24
	c-2.186,2.718-4.794,5.503-6.72,8.4c0.08,0,0.16,0,0.24,0c0-0.08,0-0.16,0-0.24c3.049-2.063,5.074-6.092,7.2-9.12
	c5.709-8.13,14.087-22.394,23.04-26.64C92.528,125.32,92.708,125.428,92.293,125.273z"/>
</svg>
