<?xml version="1.0" encoding="utf-8"?>
<!-- Generator: Adobe Illustrator 16.0.0, SVG Export Plug-In . SVG Version: 6.00 Build 0)  -->
<!DOCTYPE svg PUBLIC "-//W3C//DTD SVG 1.1//EN" "http://www.w3.org/Graphics/SVG/1.1/DTD/svg11.dtd">
<svg version="1.1" id="Layer_1" xmlns="http://www.w3.org/2000/svg" xmlns:xlink="http://www.w3.org/1999/xlink" x="0px" y="0px"
	 width="312px" height="211px" viewBox="0 0 312 211" style="enable-background:new 0 0 312 211;" xml:space="preserve">
<style type="text/css">
<![CDATA[
	.st0{fill-rule:evenodd;clip-rule:evenodd;}
]]>
</style>
<path class="st0" d="M275,3.5c0,11.3,12.6,8.8,17,14.9c1.6,2.3,1.1,5,2.2,8.2c0.9,2.6,2.4,5.3,4.1,7.2c2,2.2,7.4,5.2,5.8,9.8
	c-0.4,1.2-0.6,1.9-1.7,2.4c-1.1,0.7-2.8-0.7-3.6-1.2c0,0.1,0,0.2,0,0.2c0.1,0.1,0.2,0.2,0.2,0.2c1,0.5,2.1,1,3.1,1.4
	c-0.7,3.5-2.5,4.9-4.6,7c-0.2,0-0.5,0-0.7,0c-0.4,6.2-6.2,10.4-12.2,7.2c-2.7-1.4-4.7-4.9-7-6c-1.8,1.7-4.8,2.3-7,3.6
	c-3.5,2.2-7.6,5.9-9.6,9.6c-2.2,4.3-2.3,10-3.6,15.4c-0.4,1.7-0.2,3-0.7,4.6c-0.6,1.7-1.6,3.8-2.6,5.3c-1.2,1.7-2.8,1.8-2.9,4.8
	c-0.7,1.1-0.3,2.9-0.7,4.3c-0.8,2.7-1.7,5.7-3.1,7.9c-1.2,1.9-5.6,5.3-5.8,7.2c-0.8,3.4-1.6,6.9-2.4,10.3
	c-2.8,8.5-6.2,17.2-6.2,28.1c0,3.8,0.1,11.8,1.4,13.9c0.7,0.4,2.1,0,3.1,0.2c1.8,0.4,4,0.9,5.3,1.9c2.2,1.6,6.1,9.3,3.1,13
	c-0.6,0.7-1.6,0.9-2.4,1.4c-1.2,0.8-2.4,2.3-3.6,3.1c-0.2-0.1-0.5-0.2-0.7-0.2c-1.2,0.4-3,1-4.6,1.4c-1.2,0-2.4,0-3.6,0
	c-1.2,0.3-2.7,1.4-4.6,1c-2.4-0.5-3.7-1.1-5-1.9c-0.2,0.1-0.3,0.2-0.5,0.2c-1.5-1.7-2.9-4.4-4.1-5.3c-1.9-1.4-5.1-3.3-6.2-6.2
	c-0.5-3.4-1-6.9-1.4-10.3c-1.8-7-2.6-14.7-4.8-21.4c-1.4-4.2-1.9-8.4-3.4-12.2c-0.5-1.4-0.3-3.4-1.9-3.8c-2.9,2.8-8.8,4.1-13,5.8
	c-3,1.2-6.8,2-10.3,2.9c-7.3,1.8-18.7,0.4-24.7-1.4c-7.3-2.2-13.9-3.7-20.6-6.5c-7.5-3.1-16.3-6.2-26.2-6.5c0,0.1,0,0.2,0,0.2
	c2.9,3,2.4,10.7,0.7,14.6c-4.5,10.9-12.7,18.7-17.3,29.8c-2.8,6.6,0.4,10.9,2.9,15.6c0.7,1.4,1.5,4.4,3.1,4.8c2.5,1.5,4.9-1.7,7.9-1
	c3.6,0.9,6.9,4.6,6,9.4c-1.4,0.6-6.1,3.1-7.2,2.9c-1.4-0.1-2.7-0.2-4.1-0.2c-2.5-0.9-4.1-1.9-6.7-2.6c-2.7-0.7-4.7,0.2-6.5-1
	c-2.7-1.7-4.2-4.6-6-7.2c-5.3-7.6-8.7-16.5-12.5-25.7c-0.1,0.1-0.2,0.2-0.2,0.2c-4.2,2.7-10.6,9.1-12,14.4c0,1.4,0,2.7,0,4.1
	c0.8,3.3,1.2,9.1,2.9,11.5c0.2,0.3,0.9,0.6,1.2,1c2.2,0,8.9-1.1,10.3-0.2c1.2,0.7,2.5,2.1,3.8,2.6c-0.1,1.1,0.3,2.5,0,4.1
	c-2.9,1.8-7.3,5-11.5,2.4c-0.5,1.6-3.8,3.2-6.5,2.4c-1.2-0.4-2.3-1.2-3.6-2.2c-0.5-0.4-1.2-0.2-1.9-0.5c-2-0.8-3.7-1.6-5-3.1
	c0.8-1.7-1.6-8.1-2.2-9.6c-1.7-4.5-2.3-8.8-4.1-13.2c-1.2-2.9-2.6-6-3.1-9.4c2.6-1.6,4.4-3.9,6.5-6c7.3-7.6,11.5-14,14.4-26.2
	c1-4.3,1.2-14.4,0.2-19c-0.4-1.8,0.1-4.3-0.2-5.8c-1.1-5,1.1-13.6,1.9-17.3c-0.1,0-0.2,0-0.2,0c0,0.2,0,0.3,0,0.5
	c-4.6,3.2-5.3,12.1-6.7,18.7c-0.7,3,0.1,6.7-0.5,9.6c-0.1,3.4-0.2,6.9-0.2,10.3c-0.4,2.4-0.8,4.8-1.2,7.2c-2.4,7.5-5.8,14-10.6,19.2
	c-3.9,4.3-8.7,7.9-15.4,9.4c-2.3,0.5-4.7-0.5-6-1.2c-4.3-2.2-10.5-9.9-8.2-17.5c0.8-2.5,2.6-3.2,4.3-4.8c3.9,0,5.3,1.1,6,4.1
	c0.9,3.7-1.9,9.2,1.4,10.6c1.6,1.3,4.6,0.3,6.5-0.7c4.9-2.6,7.9-7.5,10.1-12.7c2.2-5.2,2.7-11.3,4.1-17.5c0.6-2.6,0.2-5.3,0.7-7.7
	c1-4.6,0-9.6,1-13.9c0-1,0-1.9,0-2.9c0.8-3.7,0.7-7.7,1.7-11.3c2.7-9.5,7.5-17.8,14.6-22.8c9.1-6.3,19.8-9.8,31.9-13.2
	c3.8-1.1,8-1.2,11.8-2.2c5.4-0.6,10.9-1.1,16.3-1.7c2.6-0.6,5.4,0,7.7-0.5c4.5-0.1,9-0.2,13.4-0.2c3-0.7,7.6-0.5,10.8-0.5
	c1.3,0,2.6,0,3.8,0c2.7-0.6,5.9,0.2,8.9-0.5c5.5-1.2,11.4-0.5,16.8-1.9c4.7-1.2,12.4-2.6,15.8-5c1-0.7,3.6-5.6,4.6-7
	c2.6-3.5,7.7-6.2,11.8-8.2c2.1-1.1,4.2-1.2,6.5-2.2c4.7-1.9,10-3.7,14.4-5.8c1-0.5,2-0.6,2.9-1.2c0.9-0.7,1.3-2.2,1.9-3.1
	c0.8-1.1,2.1-1.9,2.9-3.1c-2-2.1-2.2-6.4-2.2-9.8c0.1,0,0.2,0,0.2,0c2.4,3,6.9,3.7,9.6,6.2c3.9-0.8,5.9-3.1,9.4-4.1
	c4.2-1.2,9.4,0.3,13,0.7c0-3.1,1.8-3.3,3.4-4.8C273.4,3.5,274.2,3.5,275,3.5z"/>
<path class="st0" d="M239,11.9c1.3,2.9,3.4,6.7,6.5,7.7c0.4-0.4,0.8-0.8,1.2-1.2c-0.2-0.2-0.1-0.1-0.5-0.2c-1.1-0.9-2.7-1.3-3.8-2.2
	C241,15,240.4,13,239,11.9z"/>
<path class="st0" d="M271.2,23.2c1.2,1.9,2.9,2,4.6,3.4c1.7,1.4,1.7,3.3,4.6,4.1c2,0.5,3-1.1,4.6-0.7c0.8,0.2,0.7,1,1.4,0.7
	c0.2-0.2,0.1-0.1,0.2-0.5c-0.1,0-0.2,0-0.2,0c-0.4-1.1-1.1-1.4-1.7-2.2c-3.1-4.2-5.2-2.5-10.6-2.6C273.5,24.6,272.1,23.8,271.2,23.2
	z"/>
<path class="st0" d="M226.6,173.2c1.6-0.1,3.6,0.3,5.3,0.7c0-0.1,0-0.2,0-0.2c-1.2-0.6-2.3-1.2-3.8-1.4c-0.1-3-0.6-6.2-1.2-8.9
	c-0.8-3.6,0.3-7-0.5-10.8c-1.2-5.5-0.1-15.6,1-20.4c0.7-3.2,0.1-8.8,2.9-9.8c0.9-0.7,2.1-0.6,3.4-1c2.5-0.8,5-1.9,6.2-3.8
	c-0.1,0-0.2,0-0.2,0c-2.3,2.9-10.7,1.1-12,4.8c-1.8,2.4-1.1,8.6-1.9,12.2C222.9,146.9,226.2,161.7,226.6,173.2z"/>
<path class="st0" d="M97.7,125.7c0.2,0.2,0.1,0.1,0.5,0.2C97.9,125.7,98.1,125.9,97.7,125.7z"/>
<path class="st0" d="M97,125.9c-1.1,1-2.8,1.1-4.1,1.9c-1.9,1.2-4.4,3.3-5.8,5c-3.5,4.6-6.7,9.7-9.8,14.6c-1.3,2-2.1,4.4-3.6,6.2
	c-2.2,2.7-4.8,5.5-6.7,8.4c0.1,0,0.2,0,0.2,0c0-0.1,0-0.2,0-0.2c3-2.1,5.1-6.1,7.2-9.1c5.7-8.1,14.1-22.4,23-26.6
	C97.2,126,97.4,126.1,97,125.9z"/>
</svg>
