<?xml version="1.0" encoding="utf-8"?>
<!-- Generator: Adobe Illustrator 16.0.0, SVG Export Plug-In . SVG Version: 6.00 Build 0)  -->
<!DOCTYPE svg PUBLIC "-//W3C//DTD SVG 1.1//EN" "http://www.w3.org/Graphics/SVG/1.1/DTD/svg11.dtd">
<svg version="1.1" id="Layer_1" xmlns="http://www.w3.org/2000/svg" xmlns:xlink="http://www.w3.org/1999/xlink" x="0px" y="0px"
	 width="1263px" height="911px" viewBox="0 0 1263 911" enable-background="new 0 0 1263 911" xml:space="preserve">
<path fill-rule="evenodd" clip-rule="evenodd" fill="#939598" d="M1249,8c-1.568,9.311-12.704,12.584-16,21
	c-1.334,3.406-0.404,17.618,0,18c-0.948,1.04-3.305,1.727-4,3c-0.469,0.857,1.387,2.031,0,4c-0.438,0.621-2.687,0.959-3,2
	c-0.988,3.282,1.547,2.03,2,3c-0.334,4.333-0.667,8.667-1,13c0.044,8.74,1.102,18.723,2,22c0.914,3.331-1.456,1.945-2,3
	c0,8.333,0,16.667,0,25c0.932,4.035,1.047,10.374,3,14c0.631,1.171,3.275,1.081,4,2c1,3.333,2,6.667,3,10c0.997,1.532,3.9,1.696,5,3
	c2.038,2.417-0.877,2.631,0,5c0.896,2.421,3.537,2.352,5,4c1.979,2.231,2.721,10.254,5,15c1.015,2.113,7.102,22.394,6,25
	c-7.097,16.786-7.089,38.993-13,50c-1.818,3.385-1.251,16.312-2,18c-7.015,15.806-15.725,24.995-16,52c-3.042-0.075-2.744-0.756-4,0
	c-1.387,2.043-1.263,9.273-5,12c-2.23,1.415-6.478,0.555-9,2c-1,1.667-2,3.333-3,5c-6.1,3.12-9.616-2.841-16,2
	c-10.508,13.704-3.973,30.4-10,43c0.333,3.333,0.666,6.667,1,10c-2.693,7.556-3.59,18.955-7,32c-1.169,4.471,1.307,7.097,0,10
	c-3.005,6.677-6.623,15.438-7,25c-2.076,0.372-1.925,0.242-3,1c2.029,4.443-3.149,7.207-2,15c1.036,7.025-1.018,33.886-2,39
	c-6.588,0.406-8.319,1.409-8,9c2.316,2.87,2.997,5.687,3,11c-3,0.666-6,1.334-9,2c0,5,0,10.001,0,15c-0.334,0-0.667,0-1,0
	c0.333,0.666,0.666,1.334,1,2c-5.402,0.74-6.701,2.018-11,4c1.66,19.466-13.061,30.212-17,48c0.333,2.333,0.666,4.667,1,7
	c-0.666,0-1.334,0-2,0c0.333,2.333,0.666,4.667,1,7c-2.574,7.034-1.417,20.59-4,28c0.333,7,0.666,14.001,1,21
	c-2.72,13.706-3.152,37.262,0,51c0.661,2.882-0.699,6.661-1,8c-1.191,5.29,1.186,10.536,2,13c-0.334,3.666-0.667,7.334-1,11
	c2.324,9.79,9.08,19.703,12,26c4.481,2.396,9.914,5.698,14,8c3.261-0.091,16.126,2.423,20,5c0.333,1,0.666,2,1,3
	c2.333,0.666,4.667,1.334,7,2c3.202,3.996,2.148,7.448,8,9c-0.107,3.692-1.063,8.142,1,13c0.666,0,1.334,0,2,0
	c1.678,3.881-3.065,14.641-4,19c-0.256,1.192,1.815,1.74,1,4c-2.689,7.449-13.228,10.687-15,19c-1.453,0.021-3.777-1.11-4-1
	c-1.163,0.578-1.11,3.326-2,4c0,0-21.595,3.026-24,2c-4.686-2-7.711-6.239-14-7c0.295-6.614-3.808-15.901-9-20
	c-4.214-3.89-31.381-11.674-43-12c0-1,0-2,0-3c-4.923-3.201-7.733-9.692-14-11c-0.447-7.027-4.998-16.803-10-18c0-1,0-2,0-3
	c-2.092-1.122-1.832-1.435-5-2c0,0.666,0,1.334,0,2c1.313,2.596-1.253,3.457,0,7c0.666,0,1.334,0,2,0c0.307,0.549,0.207,10.152,2,13
	c0.41,0.651,3.597,2.349,4,3c0.333,2,0.666,4,1,6c8.793,13.553,37.864,17.157,55,20c0,1,0,2,0,3c1.333,0,2.667,0,4,0
	c0.333,0.334,0.666,0.666,1,1c0.885,6.851,1.342,11.373,1,19c-4.252,2.109-4.194,5.547-7,9c-4.032,4.964-13.801,11.299-20,14
	c-2.333-0.334-4.667-0.666-7-1c-9.424,3.56-34.52,0.731-40-2c-3.96-1.973-11.355-0.877-15-3c-4.65-2.709-7.346-7.994-14-9
	c0-1,0-2,0-3c-12.445-8.305-21.199-19.813-33-29c-5.205-4.052-5.344-12.368-13-14c-0.668-7.045-5.888-8.093-8-13
	c-3.357-7.801-0.284-19.547-4-31c-1.418-4.371-7.552-17.952-6-23c-3.581-7.459-8.74-15.593-8-23c-1,0-2,0-3,0
	c-0.324-16.055-14.37-25.209-15-41c-1,0-2,0-3,0c-0.959-12.028-8.544-21.626-15-32c-4.959-7.969-5.912-22.486-11-31
	c-0.236-0.395,0.539-3.341,1-4c-8.365-11.971,8.017-28.69,10-40c-0.334,0-0.667,0-1,0c0,0.666,0,1.334,0,2c-0.334,0-0.667,0-1,0
	c-3,0.666-6.001,1.334-9,2c-2.271,1.071-3.4,4.146-6,5c-3.666,0.334-7.334,0.666-11,1c-17.032,6.886-37.438,10.078-57,10
	c-5.328-0.021-24.665,1.929-27,1c-7.006-2.786-17.553-5.107-24-6c0-1,0-2,0-3c-5.97-0.796-6.001-3.534-13-4c0-1,0-2,0-3
	c-2-0.334-4-0.666-6-1c-1.448-6.606-6.981-6.16-9-12c-0.334,0-0.667,0-1,0c0,6.332,0,12.668,0,19c0.066,0.154-2.074,16.527-4,19
	c-1,0.334-2,0.666-3,1c0,1.666,0,3.334,0,5c-1,0.334-2,0.666-3,1c0,0-0.174,3.812,0,4c-5.242,4.153-7.963,10.584-13,15
	c0,1.333,0,2.667,0,4c-1,0-2,0-3,0c-7.525,13.482-20.28,22.31-28,36c-1,0-2,0-3,0c0,1.333,0,2.667,0,4c-1.333,0-2.667,0-4,0
	c-1.492,4.479-21.753,27.502-26,28c0,1,0,2,0,3c-2.195,1.098-15.222,15.13-16,17c-0.752,1.073-0.602,0.945-1,3c-1,0-2,0-3,0
	c-1.283,2.072-2.077,2.303-3,5c-0.752,1.073-0.602,0.945-1,3c-1,0-2,0-3,0c-3.424,5.578-8.177,11.708-13,16c0,1.333,0,2.667,0,4
	c-2.076,0.372-1.924,0.242-3,1c-1.282,1.39-4.049,4.415-5,6c0,1.333,0,2.667,0,4c-0.587,0.834-3.407,0.932-4,2c-0.333,2-0.667,4-1,6
	c-0.468,0.663-4.7,3.619-5,4c-0.846,1.074-7.562,17.565-8,19c-2.321,7.615,2.431,11.492,3,17c1,0,2,0,3,0c0,1,0,2,0,3
	c3.016,1.758,4.092,6.14,7,8c2.075,1.327,3.049-0.48,4,0c6.719,3.393,10.305,7.66,22,9c0.372,2.076,0.242,1.924,1,3
	c2.294,2.444,4.927,4.293,9,5c0.883,3.268,4.573,10.678,6,14c1.64,3.817-2.969,22.515-4,24c-1.18,0.803-1.681,0.772-4,1c0,1,0,2,0,3
	c-8.441,0.615-16.459,2.527-24,5c-3.333-0.334-6.667-0.666-10-1c-3.758,0.067-4.378,1.465-6,2c-5-0.334-10-0.666-15-1
	c-0.333,0.666-0.667,1.334-1,2c-3.667-0.334-7.334-0.666-11-1c-4.854,1.05-25.012,4.652-30,3c-0.333-0.666-0.667-1.334-1-2
	c-6.293-2.349-15.798,0.79-21-3c-3.29-2.396-0.816-4.289-7-5c0-1,0-2,0-3c-2.464-1.533-2.275-2.291-6-3
	c-1.094-7.768-3.479-6.96-7-11c-2.691-3.088-0.903-6.94-3-11c-5.146-9.958-13.138-18.689-18-29c-1,0-2,0-3,0
	c-1.195-5.337-5.186-9.098-7-13c-0.913-1.964,0.778-2.952,1-4c-3.995-11.886-7.321-23.886-4-38c0.841-3.573,4.584-7.048,6-10
	c2.147-4.478-0.917-6.632,2-11c1.067-1.598,4.172-2.884,5-5c1.804-4.614,0.269-9.408,3-13c1-0.334,2-0.666,3-1c0-1.666,0-3.334,0-5
	c0.21-0.364,2.67-1.27,3-2c0.333-2.999,0.667-6,1-9c0.381-0.873,2.664-1.481,3-2c3.174-4.908,0.945-13.619,3-18c0.667,0,1.333,0,2,0
	c1.804-2.997-1.435-2.838,0-6c0.667,0,1.333,0,2,0c0.181-0.338,1-4,1-4c-0.333-2.333-0.667-4.667-1-7
	c3.832-11.349,3.295-25.736-1-37c-1.516-0.535-1.693-0.675-4-1c-0.372,2.076-0.242,1.924-1,3c0,0.334,0,0.666,0,1c-1,0-2,0-3,0
	c0,1.333,0,2.667,0,4c-7.896,3.303-10.238,17.189-15,24c-0.959,1.371-2.541,0.024-4,1c-4.346,2.906-5.706,7.884-9,12
	c-1.257,1.57-3.096-0.086-5,1c-6.086,3.472-10.192,10.504-17,14c0,1,0,2,0,3c-7.931,0.669-8.303,5.512-15,7c0,1,0,2,0,3
	c-7.365,0.775-14.901,8.897-21,11c-0.333,0-0.667,0-1,0l-12,1c-2.927-0.691-3.979-4.839-8-3c-8.732,3.992-21.233,13.223-36,15
	c0-1,0-2,0-3c-6.219-0.787-8.894-0.591-12,4c-12.575-5.17-23.329,0.844-35,6c-0.52-0.29-29.584,7.534-37,10
	c-5.254,1.748-7.436,4.448-12,6c-2.333,0-4.667,0-7,0c-6.54,2.085-15.568,5.081-23,9c-2.586,1.364-4.67-1.231-8,0
	c-2.6,0.961-14.313,4.578-15,5c0,0.666,0,1.334,0,2c-1.754,1.018-3.126-0.797-4-1c-2.943,1.029-17.432,5.623-18,6
	c0,0.666,0,1.334,0,2c-2.879,1.934-7.608,1.644-10,1c-9.19,3.839-17.843,7.146-26,13c-2.804,2.012-10.292,0.412-12,7
	c-3.681,0.758-2.806,1.46-7,2c0,1,0,2,0,3c-1.333,0-2.667,0-4,0c-3.618,6.178-6.476,10.675-9,16c-0.667,10.999-1.333,22.001-2,33
	c-1.675,3.828-5.733,2.499-7,8c-4.054,0.589-4.296,2.351-7,3c-3.628,0.872-7.165-2.02-12,0c0,0.666,0,1.334,0,2
	c-5.666-0.334-11.334-0.666-17-1c-20.675-0.006-24.387,1.968-35-8c-1.888-1.772-3.625-1.512-5-4c-6.33-9.106-0.418-18.891-3-32
	c-0.987-5.01,0.26-10.025,1-14c1.062-5.699-2.594-14.06-1-18c0.667,0,1.333,0,2,0c2.081-4.795-1.382-9.406,0-13
	c6.038-15.7,11.715-35.99,27-42c0-1,0-2,0-3c1.333,0,2.667,0,4,0c1.675-2.861,1.642-3.488,6-4c0-1,0-2,0-3
	c4.879,0.214,19.458-9.576,21-16c1,0,2,0,3,0c0-1,0-2,0-3c1.333,0,2.667,0,4,0c0.333-0.334,0.667-0.666,1-1c0-1,0-2,0-3
	c2.076-0.372,1.925-0.242,3-1c0.333,0,0.667,0,1,0c0-1,0-2,0-3c1.333,0,2.667,0,4,0c2.672-4.527,7.658-9.174,12-12c0-1,0-2,0-3
	c1,0,2,0,3,0c3.797-5.679,14.255-14.647,21-17c0-1,0-2,0-3c1.673-0.145,14.288-5.864,16-7c0.333-1,0.667-2,1-3c1.667,0,3.333,0,5,0
	c3.049-1.199,6.623-4.118,9-6c1.74,0.319,12.458-1.338,16-3c1.595-0.749,2.976-3.563,5-4c15.982-3.447,43.796-17.6,57-28
	c2-0.334,4-0.666,6-1c1.179-0.659,1.064-3.242,2-4c2.444-1.979,4.875-0.378,8-2c4.355-2.261,5.443-5.556,12-8c0-1,0-2,0-3
	c8.311-0.659,19.173-11.97,27-17c0-1,0-2,0-3c1.333,0,2.667,0,4,0c1.821-3.138,6.373-6.772,10-8c0-1.333,0-2.667,0-4
	c8.772-1.371,28.176-25.229,30-34c1,0,2,0,3,0c0.744-7.373,8.483-15.291,13-22c-0.9-6.328,4.029-11.844,6-15c1.394-2.231,2-13,2-13
	c4.952-7.357,4.794-13.286,8-23c0.539-1.634,4.35-8.275,3-11c-1.169-2.359-3.175-1.812-4-6c-14.56-0.321-36.052-2.294-42-7
	c-4.857-3.843-14.48-13.927-21-15c0-1,0-2,0-3c-17.657-11.961-20.712-40.659-11-62c1,0,2,0,3,0c0-1,0-2,0-3c1.333,0,2.667,0,4,0
	c1.47-2.271,2.103-3.009,5-4c0-1,0-2,0-3c7.599-0.649,15.236-8.708,26-5c0.333,0.667,0.667,1.333,1,2c3.993,1.381,7.059-1.55,12,1
	c4.499,2.322,6.707,5.664,15,6c0.372,2.076,0.242,1.924,1,3c3.273-1.209,2.886,1.111,6,2c4.956,1.414,23.266-1.105,29-3
	c9.954-3.289,15.739-6.347,23-10c2.614-1.315,5.295,1.071,9,0c2.163-0.625,7.784-1.615,10-3c0-0.667,0-1.333,0-2
	c2.667,0,5.333,0,8,0c0,0,3.427-0.731,4-1c0-0.667,0-1.333,0-2c2.957-1.391,5.407,1.814,9,0c0-0.667,0-1.333,0-2
	c0.692-0.336,11.41,0.008,15-1c0,0,3.419-0.725,4-1c0-0.667,0-1.333,0-2c2,0.333,4,0.667,6,1c0-0.667,0-1.333,0-2
	c2,0.333,4,0.667,6,1c0-0.667,0-1.333,0-2c2,0.333,4,0.667,6,1c0-0.667,0-1.333,0-2c2,0.333,4,0.667,6,1
	c0.844-0.206,2.775-2.895,3-3c3.24-1.521,8.387,1.997,13,0c0-0.667,0-1.333,0-2c2.333,0.333,4.667,0.667,7,1c0-0.667,0-1.333,0-2
	c1.645-0.731,11.024,0.623,14,0c3.03-0.634,7.906-3.039,10-4c2.333,0.333,4.667,0.667,7,1c0-0.667,0-1.333,0-2
	c2.333,0.333,4.667,0.667,7,1c0-0.667,0-1.333,0-2c2.333,0.333,4.667,0.667,7,1c0-0.667,0-1.333,0-2c2.667,0.333,5.333,0.667,8,1
	c0-0.667,0-1.333,0-2c2,0.333,4,0.667,6,1c0,0,3.57-0.801,4-1c0-0.667,0-1.333,0-2c2.778-1.273,11.688,1.281,15,0
	c0-0.667,0-1.333,0-2c2.901-1.294,11.615,1.279,15,0c13.871-5.243,35.022-3.295,48-9c2.333,0.333,4.667,0.667,7,1
	c3.627-0.763,15.026-1.301,19-3c13.105-5.604,39.703-4.584,52-10c2.333,0.333,4.667,0.667,7,1c30.544-6.453,54.853-9.732,85-15
	c10.789-1.885,23.58-7.889,32-7c12.356,1.305,23.782-9.016,33-7c3.65-1.183,11.992-1.716,16-4c0.378-0.215,1.21-2.709,2-3
	c2.744-1.009,5.844,0.652,10-1c3.776-1.501,13.114-6.411,15-6c4.549,0.991,8.395-7.968,13-5c3.664-2.912,10.465-9.434,19-10
	c0-1,0-2,0-3c1.666,0,3.334,0,5,0c0-1,0-2,0-3c1.333,0,2.667,0,4,0c3.158-4.436,10.188-8.273,15-11c0-1,0-2,0-3c1.333,0,2.667,0,4,0
	c3.707-5.849,11.527-10.298,13-18c1,0,2,0,3,0c3.619-12.501,14.1-22.407,20-33c2.888-5.184,1.557-12.237,8-14
	c0.018-7.741,3.731-11.52,7-16c1.725-2.363,2.543-7.721,2-9c4.367-7.012,11.707-22.716,13-34c1,0,2,0,3,0
	c0.764-10.696,8.857-11.617,10-22c-2.732-1.659-3.379-7.342-5-12c-1,0-2,0-3,0c0-1.333,0-2.667,0-4c-0.615-0.265-3.207-0.406-4-1
	c-1.615-1.209,0.089-3.122-1-5c-2.189-3.776-6.645-2.681-8-8c4.682,0.822,12.868,3.139,16,6c2.625,3.761,1.305,5.936,7,7
	c0,1.333,0,2.667,0,4c3.588,0.895,5.882,2.688,8,5c1.333,0,2.667,0,4,0c0,1,0,2,0,3c4.426,1.538,3.123,3.806,6,6
	c2,0.333,4,0.667,6,1c0.72,0.475,1.291,3.442,2,4c1,0,2,0,3,0c1.298,1.039,0.015,2.522,1,4c2.776,4.163,15.326,16.009,21,17
	c3.068-2.407,12.342-6.35,16-6c0.686,0.065,4.714,1.982,7,1c1.148-0.493-0.383-2.465,3-2c2.21,0.304,4.713,2.962,9,2
	c4.194-0.941,7.686-3.237,12-4c0-1,0-2,0-3c1.333,0,2.667,0,4,0c0-1,0-2,0-3c1.333,0,2.667,0,4,0c0.333-0.333,0.666-0.667,1-1
	c0-1,0-2,0-3c1.333,0,2.667,0,4,0c4.272-9.392,23.463-16.691,27-25c1.66-3.9-1.874-5.667,0-10c1.772-4.1,5.189-2.529,6-9
	c2.076-0.372,1.924-0.242,3-1c2.75-3.036,1.678-6.027,4-10C1229.633,20.076,1238.294,9.615,1249,8z"/>
</svg>
