<?xml version="1.0" encoding="utf-8"?>
<!-- Generator: Adobe Illustrator 16.0.0, SVG Export Plug-In . SVG Version: 6.00 Build 0)  -->
<!DOCTYPE svg PUBLIC "-//W3C//DTD SVG 1.1//EN" "http://www.w3.org/Graphics/SVG/1.1/DTD/svg11.dtd">
<svg version="1.1" id="Layer_1" xmlns="http://www.w3.org/2000/svg" xmlns:xlink="http://www.w3.org/1999/xlink" x="0px" y="0px"
	 width="1263px" height="911px" viewBox="0 0 1263 911" style="enable-background:new 0 0 1263 911;" xml:space="preserve">
<style type="text/css">
<![CDATA[
	.st0{fill-rule:evenodd;clip-rule:evenodd;}
]]>
</style>
<path class="st0" d="M1249,8c-1.6,9.3-12.7,12.6-16,21c-1.3,3.4-0.4,17.6,0,18c-0.9,1-3.3,1.7-4,3c-0.5,0.9,1.4,2,0,4
	c-0.4,0.6-2.7,1-3,2c-1,3.3,1.5,2,2,3c-0.3,4.3-0.7,8.7-1,13c0,8.7,1.1,18.7,2,22c0.9,3.3-1.5,1.9-2,3c0,8.3,0,16.7,0,25
	c0.9,4,1,10.4,3,14c0.6,1.2,3.3,1.1,4,2c1,3.3,2,6.7,3,10c1,1.5,3.9,1.7,5,3c2,2.4-0.9,2.6,0,5c0.9,2.4,3.5,2.4,5,4
	c2,2.2,2.7,10.3,5,15c1,2.1,7.1,22.4,6,25c-7.1,16.8-7.1,39-13,50c-1.8,3.4-1.3,16.3-2,18c-7,15.8-15.7,25-16,52c-3-0.1-2.7-0.8-4,0
	c-1.4,2-1.3,9.3-5,12c-2.2,1.4-6.5,0.6-9,2c-1,1.7-2,3.3-3,5c-6.1,3.1-9.6-2.8-16,2c-10.5,13.7-4,30.4-10,43c0.3,3.3,0.7,6.7,1,10
	c-2.7,7.6-3.6,19-7,32c-1.2,4.5,1.3,7.1,0,10c-3,6.7-6.6,15.4-7,25c-2.1,0.4-1.9,0.2-3,1c2,4.4-3.1,7.2-2,15c1,7-1,33.9-2,39
	c-6.6,0.4-8.3,1.4-8,9c2.3,2.9,3,5.7,3,11c-3,0.7-6,1.3-9,2c0,5,0,10,0,15c-0.3,0-0.7,0-1,0c0.3,0.7,0.7,1.3,1,2
	c-5.4,0.7-6.7,2-11,4c1.7,19.5-13.1,30.2-17,48c0.3,2.3,0.7,4.7,1,7c-0.7,0-1.3,0-2,0c0.3,2.3,0.7,4.7,1,7c-2.6,7-1.4,20.6-4,28
	c0.3,7,0.7,14,1,21c-2.7,13.7-3.2,37.3,0,51c0.7,2.9-0.7,6.7-1,8c-1.2,5.3,1.2,10.5,2,13c-0.3,3.7-0.7,7.3-1,11
	c2.3,9.8,9.1,19.7,12,26c4.5,2.4,9.9,5.7,14,8c3.3-0.1,16.1,2.4,20,5c0.3,1,0.7,2,1,3c2.3,0.7,4.7,1.3,7,2c3.2,4,2.1,7.4,8,9
	c-0.1,3.7-1.1,8.1,1,13c0.7,0,1.3,0,2,0c1.7,3.9-3.1,14.6-4,19c-0.3,1.2,1.8,1.7,1,4c-2.7,7.4-13.2,10.7-15,19c-1.5,0-3.8-1.1-4-1
	c-1.2,0.6-1.1,3.3-2,4c0,0-21.6,3-24,2c-4.7-2-7.7-6.2-14-7c0.3-6.6-3.8-15.9-9-20c-4.2-3.9-31.4-11.7-43-12c0-1,0-2,0-3
	c-4.9-3.2-7.7-9.7-14-11c-0.4-7-5-16.8-10-18c0-1,0-2,0-3c-2.1-1.1-1.8-1.4-5-2c0,0.7,0,1.3,0,2c1.3,2.6-1.3,3.5,0,7
	c0.7,0,1.3,0,2,0c0.3,0.5,0.2,10.2,2,13c0.4,0.7,3.6,2.3,4,3c0.3,2,0.7,4,1,6c8.8,13.6,37.9,17.2,55,20c0,1,0,2,0,3c1.3,0,2.7,0,4,0
	c0.3,0.3,0.7,0.7,1,1c0.9,6.9,1.3,11.4,1,19c-4.3,2.1-4.2,5.5-7,9c-4,5-13.8,11.3-20,14c-2.3-0.3-4.7-0.7-7-1
	c-9.4,3.6-34.5,0.7-40-2c-4-2-11.4-0.9-15-3c-4.7-2.7-7.3-8-14-9c0-1,0-2,0-3c-12.4-8.3-21.2-19.8-33-29c-5.2-4.1-5.3-12.4-13-14
	c-0.7-7-5.9-8.1-8-13c-3.4-7.8-0.3-19.5-4-31c-1.4-4.4-7.6-18-6-23c-3.6-7.5-8.7-15.6-8-23c-1,0-2,0-3,0c-0.3-16.1-14.4-25.2-15-41
	c-1,0-2,0-3,0c-1-12-8.5-21.6-15-32c-5-8-5.9-22.5-11-31c-0.2-0.4,0.5-3.3,1-4c-8.4-12,8-28.7,10-40c-0.3,0-0.7,0-1,0
	c0,0.7,0,1.3,0,2c-0.3,0-0.7,0-1,0c-3,0.7-6,1.3-9,2c-2.3,1.1-3.4,4.1-6,5c-3.7,0.3-7.3,0.7-11,1c-17,6.9-37.4,10.1-57,10
	c-5.3,0-24.7,1.9-27,1c-7-2.8-17.6-5.1-24-6c0-1,0-2,0-3c-6-0.8-6-3.5-13-4c0-1,0-2,0-3c-2-0.3-4-0.7-6-1c-1.4-6.6-7-6.2-9-12
	c-0.3,0-0.7,0-1,0c0,6.3,0,12.7,0,19c0.1,0.2-2.1,16.5-4,19c-1,0.3-2,0.7-3,1c0,1.7,0,3.3,0,5c-1,0.3-2,0.7-3,1c0,0-0.2,3.8,0,4
	c-5.2,4.2-8,10.6-13,15c0,1.3,0,2.7,0,4c-1,0-2,0-3,0c-7.5,13.5-20.3,22.3-28,36c-1,0-2,0-3,0c0,1.3,0,2.7,0,4c-1.3,0-2.7,0-4,0
	c-1.5,4.5-21.8,27.5-26,28c0,1,0,2,0,3c-2.2,1.1-15.2,15.1-16,17c-0.8,1.1-0.6,0.9-1,3c-1,0-2,0-3,0c-1.3,2.1-2.1,2.3-3,5
	c-0.8,1.1-0.6,0.9-1,3c-1,0-2,0-3,0c-3.4,5.6-8.2,11.7-13,16c0,1.3,0,2.7,0,4c-2.1,0.4-1.9,0.2-3,1c-1.3,1.4-4,4.4-5,6
	c0,1.3,0,2.7,0,4c-0.6,0.8-3.4,0.9-4,2c-0.3,2-0.7,4-1,6c-0.5,0.7-4.7,3.6-5,4c-0.8,1.1-7.6,17.6-8,19c-2.3,7.6,2.4,11.5,3,17
	c1,0,2,0,3,0c0,1,0,2,0,3c3,1.8,4.1,6.1,7,8c2.1,1.3,3-0.5,4,0c6.7,3.4,10.3,7.7,22,9c0.4,2.1,0.2,1.9,1,3c2.3,2.4,4.9,4.3,9,5
	c0.9,3.3,4.6,10.7,6,14c1.6,3.8-3,22.5-4,24c-1.2,0.8-1.7,0.8-4,1c0,1,0,2,0,3c-8.4,0.6-16.5,2.5-24,5c-3.3-0.3-6.7-0.7-10-1
	c-3.8,0.1-4.4,1.5-6,2c-5-0.3-10-0.7-15-1c-0.3,0.7-0.7,1.3-1,2c-3.7-0.3-7.3-0.7-11-1c-4.9,1-25,4.7-30,3c-0.3-0.7-0.7-1.3-1-2
	c-6.3-2.3-15.8,0.8-21-3c-3.3-2.4-0.8-4.3-7-5c0-1,0-2,0-3c-2.5-1.5-2.3-2.3-6-3c-1.1-7.8-3.5-7-7-11c-2.7-3.1-0.9-6.9-3-11
	c-5.1-10-13.1-18.7-18-29c-1,0-2,0-3,0c-1.2-5.3-5.2-9.1-7-13c-0.9-2,0.8-3,1-4c-4-11.9-7.3-23.9-4-38c0.8-3.6,4.6-7,6-10
	c2.1-4.5-0.9-6.6,2-11c1.1-1.6,4.2-2.9,5-5c1.8-4.6,0.3-9.4,3-13c1-0.3,2-0.7,3-1c0-1.7,0-3.3,0-5c0.2-0.4,2.7-1.3,3-2
	c0.3-3,0.7-6,1-9c0.4-0.9,2.7-1.5,3-2c3.2-4.9,0.9-13.6,3-18c0.7,0,1.3,0,2,0c1.8-3-1.4-2.8,0-6c0.7,0,1.3,0,2,0c0.2-0.3,1-4,1-4
	c-0.3-2.3-0.7-4.7-1-7c3.8-11.3,3.3-25.7-1-37c-1.5-0.5-1.7-0.7-4-1c-0.4,2.1-0.2,1.9-1,3c0,0.3,0,0.7,0,1c-1,0-2,0-3,0
	c0,1.3,0,2.7,0,4c-7.9,3.3-10.2,17.2-15,24c-1,1.4-2.5,0-4,1c-4.3,2.9-5.7,7.9-9,12c-1.3,1.6-3.1-0.1-5,1c-6.1,3.5-10.2,10.5-17,14
	c0,1,0,2,0,3c-7.9,0.7-8.3,5.5-15,7c0,1,0,2,0,3c-7.4,0.8-14.9,8.9-21,11c-0.3,0-0.7,0-1,0l-12,1c-2.9-0.7-4-4.8-8-3
	c-8.7,4-21.2,13.2-36,15c0-1,0-2,0-3c-6.2-0.8-8.9-0.6-12,4c-12.6-5.2-23.3,0.8-35,6c-0.5-0.3-29.6,7.5-37,10c-5.3,1.7-7.4,4.4-12,6
	c-2.3,0-4.7,0-7,0c-6.5,2.1-15.6,5.1-23,9c-2.6,1.4-4.7-1.2-8,0c-2.6,1-14.3,4.6-15,5c0,0.7,0,1.3,0,2c-1.8,1-3.1-0.8-4-1
	c-2.9,1-17.4,5.6-18,6c0,0.7,0,1.3,0,2c-2.9,1.9-7.6,1.6-10,1c-9.2,3.8-17.8,7.1-26,13c-2.8,2-10.3,0.4-12,7c-3.7,0.8-2.8,1.5-7,2
	c0,1,0,2,0,3c-1.3,0-2.7,0-4,0c-3.6,6.2-6.5,10.7-9,16c-0.7,11-1.3,22-2,33c-1.7,3.8-5.7,2.5-7,8c-4.1,0.6-4.3,2.4-7,3
	c-3.6,0.9-7.2-2-12,0c0,0.7,0,1.3,0,2c-5.7-0.3-11.3-0.7-17-1c-20.7,0-24.4,2-35-8c-1.9-1.8-3.6-1.5-5-4c-6.3-9.1-0.4-18.9-3-32
	c-1-5,0.3-10,1-14c1.1-5.7-2.6-14.1-1-18c0.7,0,1.3,0,2,0c2.1-4.8-1.4-9.4,0-13c6-15.7,11.7-36,27-42c0-1,0-2,0-3c1.3,0,2.7,0,4,0
	c1.7-2.9,1.6-3.5,6-4c0-1,0-2,0-3c4.9,0.2,19.5-9.6,21-16c1,0,2,0,3,0c0-1,0-2,0-3c1.3,0,2.7,0,4,0c0.3-0.3,0.7-0.7,1-1c0-1,0-2,0-3
	c2.1-0.4,1.9-0.2,3-1c0.3,0,0.7,0,1,0c0-1,0-2,0-3c1.3,0,2.7,0,4,0c2.7-4.5,7.7-9.2,12-12c0-1,0-2,0-3c1,0,2,0,3,0
	c3.8-5.7,14.3-14.6,21-17c0-1,0-2,0-3c1.7-0.1,14.3-5.9,16-7c0.3-1,0.7-2,1-3c1.7,0,3.3,0,5,0c3-1.2,6.6-4.1,9-6
	c1.7,0.3,12.5-1.3,16-3c1.6-0.7,3-3.6,5-4c16-3.4,43.8-17.6,57-28c2-0.3,4-0.7,6-1c1.2-0.7,1.1-3.2,2-4c2.4-2,4.9-0.4,8-2
	c4.4-2.3,5.4-5.6,12-8c0-1,0-2,0-3c8.3-0.7,19.2-12,27-17c0-1,0-2,0-3c1.3,0,2.7,0,4,0c1.8-3.1,6.4-6.8,10-8c0-1.3,0-2.7,0-4
	c8.8-1.4,28.2-25.2,30-34c1,0,2,0,3,0c0.7-7.4,8.5-15.3,13-22c-0.9-6.3,4-11.8,6-15c1.4-2.2,2-13,2-13c5-7.4,4.8-13.3,8-23
	c0.5-1.6,4.3-8.3,3-11c-1.2-2.4-3.2-1.8-4-6c-14.6-0.3-36.1-2.3-42-7c-4.9-3.8-14.5-13.9-21-15c0-1,0-2,0-3
	c-17.7-12-20.7-40.7-11-62c1,0,2,0,3,0c0-1,0-2,0-3c1.3,0,2.7,0,4,0c1.5-2.3,2.1-3,5-4c0-1,0-2,0-3c7.6-0.6,15.2-8.7,26-5
	c0.3,0.7,0.7,1.3,1,2c4,1.4,7.1-1.6,12,1c4.5,2.3,6.7,5.7,15,6c0.4,2.1,0.2,1.9,1,3c3.3-1.2,2.9,1.1,6,2c5,1.4,23.3-1.1,29-3
	c10-3.3,15.7-6.3,23-10c2.6-1.3,5.3,1.1,9,0c2.2-0.6,7.8-1.6,10-3c0-0.7,0-1.3,0-2c2.7,0,5.3,0,8,0c0,0,3.4-0.7,4-1c0-0.7,0-1.3,0-2
	c3-1.4,5.4,1.8,9,0c0-0.7,0-1.3,0-2c0.7-0.3,11.4,0,15-1c0,0,3.4-0.7,4-1c0-0.7,0-1.3,0-2c2,0.3,4,0.7,6,1c0-0.7,0-1.3,0-2
	c2,0.3,4,0.7,6,1c0-0.7,0-1.3,0-2c2,0.3,4,0.7,6,1c0-0.7,0-1.3,0-2c2,0.3,4,0.7,6,1c0.8-0.2,2.8-2.9,3-3c3.2-1.5,8.4,2,13,0
	c0-0.7,0-1.3,0-2c2.3,0.3,4.7,0.7,7,1c0-0.7,0-1.3,0-2c1.6-0.7,11,0.6,14,0c3-0.6,7.9-3,10-4c2.3,0.3,4.7,0.7,7,1c0-0.7,0-1.3,0-2
	c2.3,0.3,4.7,0.7,7,1c0-0.7,0-1.3,0-2c2.3,0.3,4.7,0.7,7,1c0-0.7,0-1.3,0-2c2.7,0.3,5.3,0.7,8,1c0-0.7,0-1.3,0-2c2,0.3,4,0.7,6,1
	c0,0,3.6-0.8,4-1c0-0.7,0-1.3,0-2c2.8-1.3,11.7,1.3,15,0c0-0.7,0-1.3,0-2c2.9-1.3,11.6,1.3,15,0c13.9-5.2,35-3.3,48-9
	c2.3,0.3,4.7,0.7,7,1c3.6-0.8,15-1.3,19-3c13.1-5.6,39.7-4.6,52-10c2.3,0.3,4.7,0.7,7,1c30.5-6.5,54.9-9.7,85-15
	c10.8-1.9,23.6-7.9,32-7c12.4,1.3,23.8-9,33-7c3.7-1.2,12-1.7,16-4c0.4-0.2,1.2-2.7,2-3c2.7-1,5.8,0.7,10-1c3.8-1.5,13.1-6.4,15-6
	c4.5,1,8.4-8,13-5c3.7-2.9,10.5-9.4,19-10c0-1,0-2,0-3c1.7,0,3.3,0,5,0c0-1,0-2,0-3c1.3,0,2.7,0,4,0c3.2-4.4,10.2-8.3,15-11
	c0-1,0-2,0-3c1.3,0,2.7,0,4,0c3.7-5.8,11.5-10.3,13-18c1,0,2,0,3,0c3.6-12.5,14.1-22.4,20-33c2.9-5.2,1.6-12.2,8-14
	c0-7.7,3.7-11.5,7-16c1.7-2.4,2.5-7.7,2-9c4.4-7,11.7-22.7,13-34c1,0,2,0,3,0c0.8-10.7,8.9-11.6,10-22c-2.7-1.7-3.4-7.3-5-12
	c-1,0-2,0-3,0c0-1.3,0-2.7,0-4c-0.6-0.3-3.2-0.4-4-1c-1.6-1.2,0.1-3.1-1-5c-2.2-3.8-6.6-2.7-8-8c4.7,0.8,12.9,3.1,16,6
	c2.6,3.8,1.3,5.9,7,7c0,1.3,0,2.7,0,4c3.6,0.9,5.9,2.7,8,5c1.3,0,2.7,0,4,0c0,1,0,2,0,3c4.4,1.5,3.1,3.8,6,6c2,0.3,4,0.7,6,1
	c0.7,0.5,1.3,3.4,2,4c1,0,2,0,3,0c1.3,1,0,2.5,1,4c2.8,4.2,15.3,16,21,17c3.1-2.4,12.3-6.3,16-6c0.7,0.1,4.7,2,7,1
	c1.1-0.5-0.4-2.5,3-2c2.2,0.3,4.7,3,9,2c4.2-0.9,7.7-3.2,12-4c0-1,0-2,0-3c1.3,0,2.7,0,4,0c0-1,0-2,0-3c1.3,0,2.7,0,4,0
	c0.3-0.3,0.7-0.7,1-1c0-1,0-2,0-3c1.3,0,2.7,0,4,0c4.3-9.4,23.5-16.7,27-25c1.7-3.9-1.9-5.7,0-10c1.8-4.1,5.2-2.5,6-9
	c2.1-0.4,1.9-0.2,3-1c2.8-3,1.7-6,4-10C1229.6,20.1,1238.3,9.6,1249,8z"/>
</svg>
