<?xml version="1.0" encoding="utf-8"?>
<!-- Generator: Adobe Illustrator 16.0.0, SVG Export Plug-In . SVG Version: 6.00 Build 0)  -->
<!DOCTYPE svg PUBLIC "-//W3C//DTD SVG 1.1//EN" "http://www.w3.org/Graphics/SVG/1.1/DTD/svg11.dtd">
<svg version="1.1" id="Layer_1" xmlns="http://www.w3.org/2000/svg" xmlns:xlink="http://www.w3.org/1999/xlink" x="0px" y="0px"
	 width="165px" height="67.333px" viewBox="0 0 165 67.333" enable-background="new 0 0 165 67.333" xml:space="preserve">
<g>
	<defs>
		<rect id="SVGID_1_" x="-7" y="-3" width="180" height="72"/>
	</defs>
	<clipPath id="SVGID_2_">
		<use xlink:href="#SVGID_1_"  overflow="visible"/>
	</clipPath>
	<path clip-path="url(#SVGID_2_)" d="M153.147,49.947c1.092,0.76,2.574,1.14,4.447,1.14c2.062,0,3.62-0.453,4.673-1.36
		c1.053-0.906,1.579-1.989,1.579-3.249c0-1.156-0.38-2.058-1.139-2.705c-0.769-0.639-2.121-1.178-4.059-1.618
		c-1.938-0.439-3.069-0.78-3.397-1.022c-0.242-0.181-0.363-0.401-0.363-0.66c0-0.302,0.138-0.548,0.415-0.738
		c0.414-0.267,1.1-0.4,2.058-0.4c0.76,0,1.345,0.142,1.754,0.427c0.41,0.285,0.688,0.695,0.836,1.229l3.43-0.635
		c-0.345-1.199-0.976-2.104-1.891-2.718c-0.914-0.613-2.312-0.919-4.193-0.919c-1.977,0-3.436,0.406-4.375,1.217
		c-0.941,0.812-1.411,1.812-1.411,3.003c0,1.32,0.543,2.353,1.631,3.094c0.785,0.535,2.646,1.126,5.579,1.773
		c0.63,0.147,1.036,0.307,1.217,0.479c0.172,0.181,0.259,0.409,0.259,0.686c0,0.406-0.159,0.729-0.479,0.971
		c-0.475,0.346-1.183,0.519-2.123,0.519c-0.854,0-1.519-0.184-1.994-0.55c-0.474-0.367-0.789-0.904-0.945-1.612l-3.649,0.557
		C151.343,48.156,152.057,49.188,153.147,49.947 M145.453,46.529c0-2.338,0.101-3.875,0.304-4.607
		c0.202-0.734,0.48-1.241,0.835-1.521c0.354-0.28,0.785-0.421,1.294-0.421c0.527,0,1.096,0.199,1.709,0.595l1.126-3.171
		c-0.768-0.457-1.566-0.686-2.395-0.686c-0.588,0-1.111,0.146-1.572,0.439c-0.462,0.295-0.982,0.902-1.561,1.825v-1.954h-3.379
		v13.747h3.639V46.529z M129.634,40.77c0.646-0.725,1.445-1.088,2.395-1.088s1.745,0.363,2.389,1.088
		c0.643,0.726,0.965,1.76,0.965,3.106c0,1.381-0.322,2.434-0.965,3.159c-0.644,0.725-1.439,1.087-2.389,1.087
		s-1.748-0.362-2.395-1.087c-0.647-0.726-0.971-1.77-0.971-3.134C128.663,42.539,128.986,41.495,129.634,40.77 M125.828,47.727
		c0.596,1.102,1.465,1.937,2.608,2.505c1.144,0.57,2.345,0.855,3.605,0.855c2.036,0,3.726-0.685,5.067-2.052
		c1.342-1.368,2.014-3.093,2.014-5.173c0-2.062-0.665-3.769-1.994-5.118c-1.329-1.352-3.033-2.026-5.113-2.026
		c-1.346,0-2.564,0.298-3.657,0.893c-1.092,0.597-1.935,1.459-2.53,2.589c-0.596,1.132-0.894,2.301-0.894,3.509
		C124.935,45.287,125.232,46.627,125.828,47.727 M111.893,49.947c1.092,0.76,2.574,1.14,4.447,1.14c2.062,0,3.62-0.453,4.673-1.36
		c1.053-0.906,1.579-1.989,1.579-3.249c0-1.156-0.38-2.058-1.139-2.705c-0.769-0.639-2.121-1.178-4.059-1.618
		c-1.938-0.439-3.07-0.78-3.397-1.022c-0.242-0.181-0.363-0.401-0.363-0.66c0-0.302,0.138-0.548,0.414-0.738
		c0.415-0.267,1.101-0.4,2.059-0.4c0.759,0,1.345,0.142,1.754,0.427s0.688,0.695,0.835,1.229l3.431-0.635
		c-0.346-1.199-0.976-2.104-1.891-2.718s-2.312-0.919-4.193-0.919c-1.977,0-3.436,0.406-4.375,1.217
		c-0.941,0.812-1.411,1.812-1.411,3.003c0,1.32,0.543,2.353,1.631,3.094c0.785,0.535,2.645,1.126,5.579,1.773
		c0.63,0.147,1.035,0.307,1.217,0.479c0.172,0.181,0.259,0.409,0.259,0.686c0,0.406-0.16,0.729-0.479,0.971
		c-0.476,0.346-1.184,0.519-2.123,0.519c-0.855,0-1.52-0.184-1.994-0.55c-0.475-0.367-0.789-0.904-0.945-1.612l-3.649,0.557
		C110.087,48.156,110.801,49.188,111.893,49.947 M107.304,37.028h-3.637v13.747h3.637V37.028z M107.304,31.799h-3.637v3.366h3.637
		V31.799z M95.977,50.775l5.463-13.747h-3.741l-2.614,7.017c-0.139,0.388-0.268,0.775-0.389,1.165
		c-0.052,0.189-0.177,0.582-0.375,1.178l-0.751-2.343l-2.589-7.017h-3.818l5.54,13.747H95.977z M76.501,40.529
		c0.582-0.686,1.305-1.028,2.168-1.028c0.889,0,1.618,0.348,2.188,1.042c0.569,0.694,0.854,1.832,0.854,3.411
		c0,1.416-0.293,2.479-0.88,3.19c-0.587,0.712-1.299,1.068-2.136,1.068c-1.053,0-1.873-0.476-2.459-1.424
		c-0.406-0.656-0.609-1.718-0.609-3.185C75.628,42.24,75.919,41.216,76.501,40.529 M85.337,31.799h-3.638v6.835
		c-1.122-1.277-2.451-1.916-3.987-1.916c-1.674,0-3.059,0.605-4.155,1.819c-1.096,1.212-1.644,2.982-1.644,5.313
		c0,2.278,0.563,4.053,1.689,5.326c1.127,1.272,2.479,1.91,4.059,1.91c0.776,0,1.546-0.192,2.31-0.576s1.426-0.969,1.987-1.754
		v2.019h3.379V31.799z M58.489,43.268l2.563-7.042l2.615,7.042H58.489z M63.123,31.799h-4.051L51.68,50.775h4.065l1.566-4.311h7.586
		l1.657,4.311h4.168L63.123,31.799z M34.968,50.775l2.822-4.259l2.797,4.259h4.466l-5.088-7.235l4.66-6.512h-4.271l-2.564,3.779
		l-2.433-3.779h-4.44l4.75,6.666l-4.957,7.081H34.968z M25.299,44.898c0,0.872-0.048,1.463-0.143,1.773
		c-0.138,0.475-0.427,0.876-0.867,1.204c-0.595,0.432-1.221,0.647-1.877,0.647c-0.587,0-1.07-0.186-1.45-0.557
		c-0.38-0.371-0.569-0.812-0.569-1.32c0-0.518,0.237-0.944,0.712-1.282c0.31-0.207,0.97-0.418,1.98-0.634
		c1.01-0.216,1.748-0.401,2.214-0.557V44.898z M21.312,39.883c0.362-0.255,0.867-0.382,1.514-0.382c0.958,0,1.61,0.148,1.955,0.446
		c0.345,0.298,0.518,0.797,0.518,1.495v0.362c-0.656,0.277-1.834,0.574-3.534,0.893c-1.26,0.242-2.225,0.525-2.893,0.849
		c-0.669,0.324-1.189,0.79-1.56,1.397c-0.371,0.609-0.557,1.302-0.557,2.078c0,1.174,0.408,2.146,1.223,2.913
		c0.816,0.769,1.931,1.152,3.347,1.152c0.802,0,1.557-0.151,2.265-0.453c0.707-0.302,1.372-0.755,1.993-1.36
		c0.026,0.07,0.069,0.212,0.13,0.429c0.138,0.474,0.254,0.832,0.349,1.073h3.599c-0.319-0.655-0.537-1.271-0.654-1.845
		c-0.116-0.573-0.174-1.464-0.174-2.673l0.038-4.246c0-1.579-0.161-2.664-0.485-3.255c-0.324-0.591-0.882-1.079-1.676-1.463
		c-0.794-0.384-2.003-0.576-3.625-0.576c-1.786,0-3.133,0.319-4.039,0.958c-0.906,0.639-1.545,1.622-1.916,2.951l3.301,0.596
		C20.656,40.584,20.949,40.138,21.312,39.883 M11.616,50.775V35.009h5.618v-3.21H2.153v3.21h5.631v15.767H11.616z"/>
	<path clip-path="url(#SVGID_2_)" d="M123.298,12.724c-0.009-0.992,0.246-1.777,0.764-2.356c0.518-0.578,1.174-0.867,1.968-0.867
		c0.742,0,1.372,0.274,1.89,0.822c0.519,0.548,0.79,1.349,0.815,2.401H123.298z M127.647,17.902
		c-0.389,0.311-0.867,0.466-1.438,0.466c-0.837,0-1.536-0.3-2.097-0.899c-0.562-0.6-0.854-1.439-0.88-2.518h9.112
		c0.053-2.788-0.513-4.857-1.695-6.207c-1.183-1.351-2.796-2.026-4.841-2.026c-1.821,0-3.327,0.645-4.519,1.935
		s-1.786,3.075-1.786,5.353c0,1.907,0.453,3.486,1.359,4.738c1.147,1.562,2.917,2.343,5.307,2.343c1.511,0,2.769-0.348,3.774-1.042
		c1.005-0.695,1.741-1.707,2.207-3.036l-3.625-0.608C128.329,17.091,128.035,17.592,127.647,17.902 M116.838,7.029h-3.637v13.747
		h3.637V7.029z M116.838,1.799h-3.637v3.366h3.637V1.799z M108.191,7.029V2.174l-3.65,2.123v2.732h-1.67v2.899h1.67v5.994
		c0,1.286,0.038,2.14,0.116,2.563c0.095,0.595,0.265,1.068,0.511,1.417c0.246,0.35,0.632,0.635,1.159,0.855
		c0.526,0.22,1.117,0.33,1.772,0.33c1.07,0,2.028-0.182,2.874-0.544l-0.31-2.822c-0.639,0.233-1.127,0.35-1.463,0.35
		c-0.242,0-0.447-0.061-0.615-0.182c-0.168-0.12-0.275-0.274-0.324-0.459c-0.047-0.186-0.07-0.839-0.07-1.961V9.928h2.484V7.029
		H108.191z M99.363,7.029V2.174l-3.651,2.123v2.732h-1.67v2.899h1.67v5.994c0,1.286,0.039,2.14,0.117,2.563
		c0.095,0.595,0.265,1.068,0.511,1.417c0.246,0.35,0.632,0.635,1.159,0.855c0.526,0.22,1.117,0.33,1.773,0.33
		c1.069,0,2.027-0.182,2.874-0.544l-0.312-2.822c-0.639,0.233-1.126,0.35-1.463,0.35c-0.241,0-0.446-0.061-0.615-0.182
		c-0.168-0.12-0.275-0.274-0.322-0.459c-0.049-0.186-0.071-0.839-0.071-1.961V9.928h2.484V7.029H99.363z M91.816,7.029h-3.638
		v13.747h3.638V7.029z M91.816,1.799h-3.638v3.366h3.638V1.799z M79.932,20.776l6.797-18.977h-4.065l-4.647,14.045L73.214,1.799
		h-4.155l6.783,18.977H79.932z M67.148,7.799c-0.988-0.721-2.319-1.081-3.993-1.081c-2.045,0-3.668,0.632-4.867,1.896
		c-1.2,1.265-1.8,3.032-1.8,5.301c0,2.244,0.598,4,1.793,5.269c1.195,1.268,2.798,1.903,4.809,1.903c1.769,0,3.18-0.419,4.233-1.256
		c1.053-0.837,1.765-2.075,2.136-3.715l-3.573-0.609c-0.181,0.958-0.492,1.634-0.932,2.026c-0.44,0.393-1.005,0.589-1.695,0.589
		c-0.924,0-1.66-0.336-2.208-1.009c-0.548-0.674-0.822-1.826-0.822-3.457c0-1.467,0.27-2.513,0.809-3.139
		c0.54-0.625,1.263-0.938,2.169-0.938c0.681,0,1.236,0.181,1.663,0.543c0.427,0.363,0.701,0.902,0.822,1.618l3.586-0.647
		C68.846,9.618,68.136,8.519,67.148,7.799 M38.741,20.776V5.838l3.754,14.938h3.689l3.767-14.938v14.938h3.56V1.799h-5.747
		l-3.405,12.945L40.916,1.799h-5.735v18.977H38.741z"/>
</g>
<line fill="none" stroke="#ED1C24" stroke-width="2" x1="2.278" y1="63.201" x2="163.678" y2="63.201"/>
</svg>
