<?xml version="1.0" encoding="UTF-8" standalone="no"?>
<!-- Generator: Adobe Illustrator 16.0.0, SVG Export Plug-In . SVG Version: 6.00 Build 0)  -->

<svg
   xmlns:dc="http://purl.org/dc/elements/1.1/"
   xmlns:cc="http://creativecommons.org/ns#"
   xmlns:rdf="http://www.w3.org/1999/02/22-rdf-syntax-ns#"
   xmlns:svg="http://www.w3.org/2000/svg"
   xmlns="http://www.w3.org/2000/svg"
   xmlns:sodipodi="http://sodipodi.sourceforge.net/DTD/sodipodi-0.dtd"
   xmlns:inkscape="http://www.inkscape.org/namespaces/inkscape"
   version="1.1"
   id="Type_105_x25_"
   x="0px"
   y="0px"
   width="369.75"
   height="125.06843"
   viewBox="0 0 369.75 125.06842"
   enable-background="new 0 0 444.668 206.001"
   xml:space="preserve"
   inkscape:version="0.91 r13725"
   sodipodi:docname="NPS_Logo_Color_large_outlines.svg"><metadata
     id="metadata119"><rdf:RDF><cc:Work
         rdf:about=""><dc:format>image/svg+xml</dc:format><dc:type
           rdf:resource="http://purl.org/dc/dcmitype/StillImage" /><dc:title></dc:title></cc:Work></rdf:RDF></metadata><defs
     id="defs117" /><sodipodi:namedview
     pagecolor="#ffffff"
     bordercolor="#666666"
     borderopacity="1"
     objecttolerance="10"
     gridtolerance="10"
     guidetolerance="10"
     inkscape:pageopacity="0"
     inkscape:pageshadow="2"
     inkscape:window-width="932"
     inkscape:window-height="648"
     id="namedview115"
     showgrid="false"
     fit-margin-top="0"
     fit-margin-left="0"
     fit-margin-right="0"
     fit-margin-bottom="0"
     inkscape:zoom="0.68590499"
     inkscape:cx="198.907"
     inkscape:cy="66.011712"
     inkscape:window-x="275"
     inkscape:window-y="101"
     inkscape:window-maximized="0"
     inkscape:current-layer="Type_105_x25_" /><g
     id="g3"
     style="opacity:0.3"
     transform="translate(-23.427,-43.943787)"><path
       d="m 101.23,111.63 c 0,0 3.217,10.071 -2.518,22.022 -5.15,10.725 -34.49,10.914 -22.653,32.719 5.979,11.009 -10.744,-15.419 -10.696,-23.914 0.035,-6.26 2.849,-15.088 10.697,-22.02 0,0 8.583,-4.984 10.042,-5.654 1.104,-0.508 4.611,-1.775 6.556,-2.896 3.288,-1.894 4.637,-2.927 4.797,-4.033 0,0 -0.79,12.942 -13.359,17.616 0,0 3.411,2.683 11.786,-3.774 2.844,-2.192 4.459,-6.072 4.459,-6.072 l 0.889,-3.994 z"
       id="path5"
       inkscape:connector-curvature="0"
       style="fill:#afc66b" /><path
       d="m 93.205,103.202 c 0,0 -8.431,7.751 -21.332,10.897 -12.898,3.148 -28.625,-11.013 -48.446,7.867 0,0 0.314,-7.238 10.696,-18.88 C 44.503,91.448 52.199,89.89 63.722,90.935 l 13.188,3.346 c 0,0 11.642,2.83 11.642,3.146 0,0.313 -6.295,4.706 -18.881,5.649 0,0 -18.487,0.495 5.735,2.845 0,0 10.629,-0.468 12.516,-1.335 1.885,-0.867 5.283,-1.384 5.283,-1.384 z"
       id="path7"
       inkscape:connector-curvature="0"
       style="fill:#7e923a" /><path
       d="m 100.82,87.635 c 0,0 -0.543,0 -1.662,-0.953 0,0 -3.791,-4.016 -7.147,-10.371 -5.977,-11.328 -3.459,-12.9 -20.45,-22.653 -16.99,-9.751 -31.776,-9.122 -31.776,-9.122 0,0 5.661,4.09 9.752,16.359 4.091,12.269 15.732,22.335 16.988,22.021 1.889,1.572 20.766,8.183 23.912,8.809 3.148,0.628 -15.099,-5.979 -17.302,-20.135 -0.245,-1.57 0.586,10.253 23.594,15.73 6.606,1.575 4.091,0.315 4.091,0.315 z"
       id="path9"
       inkscape:connector-curvature="0"
       style="fill:#5d7132" /><path
       d="m 108.735,98.89 c 0,0 -10.82,-14.649 -13.58,-2.226 1.186,13.85 17.47,11.504 15.055,8.744 0,0 0.423,2.322 -0.597,-4.226 -0.264,-1.728 -2.886,-4.94 -0.878,-2.292 z"
       id="path11"
       inkscape:connector-curvature="0"
       style="fill:#806041" /><path
       stroke-miterlimit="10"
       d="m 99.031,97.225 c 0,0 2.334,4.062 6.44,6.756"
       id="path13"
       inkscape:connector-curvature="0"
       style="fill:none;stroke:#000000;stroke-width:0.05;stroke-miterlimit:10" /></g><g
     id="g15"
     transform="translate(-23.427,-43.943787)"><g
       id="g17"><path
         d="m 118.434,100.762 0,-48.815 33.333,34.872 0,-31.763 6.897,0 0,48.488 -33.332,-34.782 0,32 -6.898,0 z"
         id="path19"
         inkscape:connector-curvature="0" /><path
         d="m 194.837,61.538 -18.324,0 0,10.982 17.791,0 0,6.483 -17.791,0 0,15.274 18.324,0 0,6.483 -25.221,0 0,-45.704 25.221,0 0,6.482 z"
         id="path21"
         inkscape:connector-curvature="0" /><path
         d="m 206.146,55.056 11.9,30.55 12.434,-32.771 11.9,32.771 12.639,-30.55 7.49,0 -20.426,48.607 -11.752,-32.386 -12.256,32.415 -19.419,-48.637 7.49,0 z"
         id="path23"
         inkscape:connector-curvature="0" /><path
         d="m 283.224,61.538 0,39.224 -6.897,0 0,-39.224 -10.509,0 0,-6.482 27.886,0 0,6.482 -10.48,0 z"
         id="path25"
         inkscape:connector-curvature="0" /><path
         d="m 295.523,77.701 c 0,-6.434 2.357,-11.959 7.075,-16.577 4.696,-4.618 10.341,-6.927 16.933,-6.927 6.512,0 12.097,2.328 16.755,6.986 4.677,4.657 7.016,10.252 7.016,16.784 0,6.571 -2.349,12.147 -7.046,16.726 -4.717,4.599 -10.41,6.897 -17.08,6.897 -5.901,0 -11.2,-2.043 -15.896,-6.128 -5.172,-4.518 -7.757,-10.439 -7.757,-17.761 z m 6.956,0.089 c 0,5.053 1.697,9.206 5.092,12.463 3.375,3.256 7.272,4.885 11.693,4.885 4.796,0 8.841,-1.658 12.137,-4.974 3.296,-3.354 4.943,-7.44 4.943,-12.256 0,-4.874 -1.628,-8.959 -4.884,-12.255 -3.237,-3.315 -7.243,-4.974 -12.019,-4.974 -4.757,0 -8.772,1.658 -12.049,4.974 -3.274,3.277 -4.913,7.323 -4.913,12.137 z"
         id="path27"
         inkscape:connector-curvature="0" /><path
         d="m 351.976,100.762 0,-48.815 33.332,34.872 0,-31.763 6.897,0 0,48.488 -33.332,-34.782 0,32 -6.897,0 z"
         id="path29"
         inkscape:connector-curvature="0" /></g><g
       id="g31"><path
         stroke-miterlimit="10"
         d="m 133.968,124.312 c 0,2.057 -0.88,3.657 -2.639,4.803 -1.103,0.721 -2.502,1.081 -4.198,1.081 -0.721,0 -1.538,-0.074 -2.449,-0.223 l 0,9.031 c 0,0.487 0.021,0.795 0.063,0.922 0.106,0.297 0.339,0.478 0.7,0.541 0.615,0.085 1.208,0.127 1.781,0.127 0.233,0 0.35,0.074 0.35,0.223 0,0.212 -0.149,0.318 -0.445,0.318 -0.127,0 -0.233,0 -0.318,0 -1.167,0 -3.36,0 -6.583,0 l -0.413,0 c -0.636,0 -0.954,-0.106 -0.954,-0.319 0,-0.148 0.223,-0.223 0.668,-0.223 0.996,0 1.568,-0.096 1.717,-0.286 0.169,-0.085 0.265,-0.297 0.287,-0.637 l 0,-18.79 c 0,-0.658 -0.181,-1.062 -0.541,-1.211 -0.212,-0.084 -0.583,-0.127 -1.113,-0.127 l -0.318,0 c -0.064,0 -0.138,0 -0.223,0 -0.318,0 -0.477,-0.085 -0.477,-0.256 0,-0.189 0.296,-0.285 0.89,-0.285 l 6.996,0 c 2.417,0 4.187,0.425 5.311,1.272 1.273,0.956 1.908,2.302 1.908,4.039 z m -3.339,0.032 c 0,-3.2 -1.335,-4.801 -4.007,-4.801 -0.891,0 -1.474,0.149 -1.749,0.448 -0.127,0.128 -0.191,0.458 -0.191,0.991 l 0,8.514 c 0.169,0.021 0.36,0.032 0.572,0.032 1.399,0 2.586,-0.31 3.562,-0.929 1.209,-0.767 1.813,-2.186 1.813,-4.255 z"
         id="path33"
         inkscape:connector-curvature="0"
         style="stroke:#000000;stroke-width:0.125;stroke-miterlimit:10" /><path
         stroke-miterlimit="10"
         d="m 157.119,119.318 c 0,0.171 -0.19,0.256 -0.572,0.256 -0.063,0 -0.276,0 -0.636,0 -0.106,0 -0.254,0 -0.445,0 -0.53,0 -0.848,0.138 -0.954,0.413 -0.042,0.148 -0.063,0.392 -0.063,0.73 l 0,11.908 c 0,3.091 -0.578,5.34 -1.733,6.747 -1.156,1.408 -3.016,2.112 -5.581,2.112 -3.074,0 -5.237,-0.869 -6.487,-2.607 -0.827,-1.166 -1.24,-3.085 -1.24,-5.756 l 0,-12.751 c -0.065,-0.382 -0.322,-0.615 -0.773,-0.7 -0.129,-0.021 -0.526,-0.031 -1.191,-0.031 -0.365,-0.043 -0.547,-0.148 -0.547,-0.318 0,-0.19 0.148,-0.286 0.445,-0.286 l 0.573,0 c 0.105,0 0.35,0 0.731,0 0.339,0 0.646,0 0.922,0 l 4.548,0 c 0.105,0 0.233,0 0.381,0 0.36,0 0.541,0.116 0.541,0.35 0,0.147 -0.063,0.232 -0.191,0.254 -0.127,0.021 -0.551,0.042 -1.272,0.063 -0.297,0 -0.498,0.021 -0.604,0.063 -0.212,0.084 -0.329,0.232 -0.35,0.444 -0.021,0.085 -0.032,0.688 -0.032,1.81 l 0,11.368 c 0,2.794 0.445,4.7 1.336,5.716 0.89,1.017 2.215,1.524 3.975,1.524 3.222,0 5.045,-1.828 5.469,-5.485 0.064,-0.55 0.096,-2.875 0.096,-6.976 l 0,-1.808 0,-2.536 0,-2.188 c 0,-0.211 0,-0.443 0,-0.697 0,-0.274 0,-0.391 0,-0.349 0,-0.465 -0.22,-0.75 -0.66,-0.856 -0.146,-0.042 -0.576,-0.063 -1.288,-0.063 -0.419,0 -0.628,-0.116 -0.628,-0.349 0,-0.189 0.148,-0.285 0.445,-0.285 0.169,0 0.307,0 0.414,0 0.254,0 1.177,0 2.767,0 0.233,0 0.498,0 0.795,0 0.275,0 0.477,0 0.604,0 l 0.477,0 c 0.484,-10e-4 0.728,0.094 0.728,0.283 z"
         id="path35"
         inkscape:connector-curvature="0"
         style="stroke:#000000;stroke-width:0.125;stroke-miterlimit:10" /><path
         stroke-miterlimit="10"
         d="m 176.167,135.315 c 0,2.163 -0.986,3.764 -2.958,4.803 -0.954,0.509 -2.321,0.826 -4.103,0.953 -0.488,0.021 -1.929,0.032 -4.325,0.032 l -3.879,0 c -0.361,0 -0.541,-0.09 -0.541,-0.271 0,-0.18 0.328,-0.271 0.985,-0.271 0.764,0 1.214,-0.079 1.352,-0.238 0.138,-0.159 0.207,-0.641 0.207,-1.446 l 0,-17.204 c 0,-0.933 -0.043,-1.474 -0.127,-1.622 -0.148,-0.255 -0.689,-0.393 -1.622,-0.413 -0.573,0 -0.859,-0.111 -0.859,-0.335 0,-0.201 0.265,-0.302 0.795,-0.302 0.021,0 0.148,0 0.382,0 0.233,0.063 0.445,0.096 0.636,0.096 l 6.201,0 c 2.29,0.021 3.996,0.403 5.12,1.145 1.314,0.87 1.972,2.131 1.972,3.784 0,1.442 -0.541,2.624 -1.622,3.546 -1.081,0.923 -2.597,1.5 -4.547,1.733 l 0,0.19 c 1.929,0.128 3.435,0.53 4.516,1.209 1.611,1.019 2.417,2.556 2.417,4.611 z m -4.261,-10.97 c 0,-2.035 -0.467,-3.392 -1.399,-4.07 -0.488,-0.36 -1.41,-0.541 -2.767,-0.541 -0.361,0 -0.922,0.032 -1.686,0.096 l 0,9.222 0.286,0 1.749,-0.063 c 1.208,-0.042 2.147,-0.472 2.814,-1.288 0.669,-0.817 1.003,-1.935 1.003,-3.356 z m 0.922,10.621 c 0,-2.671 -1.081,-4.324 -3.244,-4.961 -0.636,-0.19 -1.812,-0.286 -3.53,-0.286 l 0,9.477 c 0,0.615 0.064,0.965 0.191,1.05 0.212,0.148 0.806,0.223 1.781,0.223 1.463,0 2.628,-0.467 3.498,-1.399 0.87,-0.934 1.304,-2.301 1.304,-4.104 z"
         id="path37"
         inkscape:connector-curvature="0"
         style="stroke:#000000;stroke-width:0.125;stroke-miterlimit:10" /><path
         stroke-miterlimit="10"
         d="m 197.314,138.591 c 0,0.552 -0.032,1.463 -0.095,2.735 l -0.349,0 c -0.127,0 -0.435,-0.021 -0.921,-0.063 -0.487,-0.043 -1.037,-0.063 -1.65,-0.063 l -13.204,-0.096 c -0.36,0 -0.54,-0.096 -0.54,-0.286 0,-0.148 0.287,-0.243 0.859,-0.286 0.805,-0.042 1.288,-0.132 1.447,-0.271 0.159,-0.138 0.239,-0.535 0.239,-1.192 l 0,-17.872 c 0,-0.784 -0.08,-1.24 -0.239,-1.367 -0.159,-0.127 -0.727,-0.19 -1.701,-0.19 -0.403,0 -0.604,-0.116 -0.604,-0.351 0,-0.19 0.127,-0.286 0.382,-0.286 l 0.286,0 c 0.7,0.063 2.088,0.096 4.166,0.096 0.191,0 0.562,-0.016 1.113,-0.048 0.551,-0.031 1.007,-0.048 1.368,-0.048 l 0.35,0 c 0.382,0 0.572,0.106 0.572,0.318 0,0.127 -0.059,0.207 -0.175,0.238 -0.117,0.032 -0.482,0.059 -1.097,0.08 -0.615,0.021 -0.981,0.122 -1.097,0.302 -0.117,0.181 -0.175,0.737 -0.175,1.67 l 0,18.762 c 0.572,0.021 1.368,0.032 2.385,0.032 2.48,0 4.229,-0.128 5.247,-0.382 1.018,-0.255 1.706,-0.731 2.067,-1.432 0.36,-0.699 0.572,-1.643 0.636,-2.83 0.02,-0.275 0.143,-0.413 0.366,-0.413 0.265,0 0.387,0.159 0.366,0.477 l 0,0.796 c 0,0.042 0,0.138 0,0.286 0,0.148 0,0.297 0,0.445 l 0,1.239 z"
         id="path39"
         inkscape:connector-curvature="0"
         style="stroke:#000000;stroke-width:0.125;stroke-miterlimit:10" /><path
         stroke-miterlimit="10"
         d="m 208.856,140.833 c 0,0.181 -0.127,0.271 -0.381,0.271 l -0.318,0 c -0.127,-0.063 -1.569,-0.096 -4.324,-0.096 -0.53,0 -1.061,0.021 -1.59,0.063 -0.276,0.021 -0.7,0.032 -1.272,0.032 -0.276,0 -0.414,-0.096 -0.414,-0.286 0,-0.17 0.275,-0.265 0.827,-0.286 0.848,-0.021 1.346,-0.122 1.495,-0.303 0.148,-0.181 0.223,-0.792 0.223,-1.835 l 0,-16.777 c 0,-1.042 -0.054,-1.627 -0.161,-1.754 -0.129,-0.213 -0.72,-0.34 -1.771,-0.383 -0.408,-0.019 -0.612,-0.094 -0.612,-0.225 0,-0.168 0.128,-0.253 0.385,-0.253 l 4.326,0 c 0.32,0 0.94,0.012 1.858,0.032 l 1.218,-0.032 c 0.342,0 0.512,0.091 0.512,0.271 0,0.161 -0.473,0.262 -1.416,0.301 -0.537,0.021 -0.864,0.117 -0.982,0.287 -0.119,0.17 -0.177,0.614 -0.177,1.335 l 0,16.981 c 0,1.209 0.053,1.866 0.159,1.972 0.233,0.233 0.922,0.371 2.066,0.413 0.234,0.001 0.349,0.092 0.349,0.272 z"
         id="path41"
         inkscape:connector-curvature="0"
         style="stroke:#000000;stroke-width:0.125;stroke-miterlimit:10" /><path
         stroke-miterlimit="10"
         d="m 231.117,134.012 c 0,-0.042 -0.021,0.244 -0.063,0.859 -0.085,1.229 -0.127,2.416 -0.127,3.562 0,0.127 0.021,0.387 0.063,0.778 0.042,0.393 0.063,0.864 0.063,1.416 l 0,0.286 c 0,0.274 -0.085,0.413 -0.254,0.413 -0.17,0 -0.318,-0.159 -0.445,-0.478 -0.298,-0.699 -0.594,-1.154 -0.891,-1.367 -1.526,1.336 -3.36,2.004 -5.502,2.004 -3.116,0 -5.697,-1.086 -7.743,-3.26 -2.046,-2.173 -3.068,-4.913 -3.068,-8.221 0,-3.328 0.938,-6.047 2.814,-8.156 1.876,-2.109 4.298,-3.164 7.266,-3.164 1.082,0 1.945,0.09 2.592,0.271 0.646,0.18 1.447,0.546 2.401,1.097 0.466,0.275 0.815,0.413 1.05,0.413 0.19,0 0.37,-0.169 0.54,-0.509 0.275,-0.593 0.498,-0.891 0.668,-0.891 0.169,0 0.254,0.085 0.254,0.255 0,0.085 -0.021,0.223 -0.063,0.413 -0.233,1.018 -0.35,2.926 -0.35,5.725 0,0.402 -0.031,0.636 -0.096,0.699 -0.063,0.063 -0.148,0.096 -0.254,0.096 -0.212,0 -0.35,-0.201 -0.413,-0.604 -0.276,-1.695 -0.668,-2.957 -1.177,-3.784 -1.039,-1.695 -2.672,-2.544 -4.897,-2.544 -1.717,0 -3.074,0.572 -4.07,1.717 -1.803,2.057 -2.703,5.067 -2.703,9.031 0,3.541 0.742,6.286 2.226,8.236 1.293,1.696 3.011,2.544 5.152,2.544 1.102,0 2.109,-0.27 3.021,-0.811 0.911,-0.54 1.611,-1.277 2.099,-2.21 0.552,-1.081 0.943,-2.258 1.177,-3.53 0.085,-0.509 0.223,-0.763 0.414,-0.763 0.21,0 0.316,0.159 0.316,0.477 z"
         id="path43"
         inkscape:connector-curvature="0"
         style="stroke:#000000;stroke-width:0.125;stroke-miterlimit:10" /><path
         stroke-miterlimit="10"
         d="m 257.479,134.902 c 0,1.823 -0.694,3.376 -2.083,4.659 -1.389,1.282 -3.058,1.924 -5.008,1.924 -1.146,0 -2.513,-0.35 -4.103,-1.05 -0.425,-0.19 -0.742,-0.286 -0.954,-0.286 -0.254,0 -0.413,0.294 -0.477,0.881 -0.021,0.303 -0.159,0.455 -0.414,0.455 -0.212,0 -0.317,-0.127 -0.317,-0.382 0,-0.17 0.01,-0.297 0.031,-0.382 0.17,-1.293 0.255,-2.49 0.255,-3.593 0,-0.212 -0.021,-0.806 -0.063,-1.781 -0.021,-0.127 -0.032,-0.297 -0.032,-0.509 0,-0.318 0.127,-0.477 0.382,-0.477 0.212,0 0.36,0.257 0.445,0.771 0.551,3.811 2.342,5.716 5.374,5.716 1.293,0 2.295,-0.365 3.005,-1.097 0.71,-0.732 1.065,-1.765 1.065,-3.101 0,-1.187 -0.345,-2.199 -1.033,-3.037 -0.689,-0.837 -1.871,-1.669 -3.546,-2.496 -2.015,-0.996 -3.414,-1.961 -4.198,-2.894 -0.784,-0.933 -1.176,-2.088 -1.176,-3.467 0,-1.759 0.566,-3.212 1.701,-4.356 1.134,-1.145 2.57,-1.717 4.309,-1.717 0.721,0 1.718,0.244 2.989,0.731 0.445,0.17 0.773,0.254 0.986,0.254 0.232,0 0.386,-0.042 0.461,-0.127 0.074,-0.085 0.143,-0.308 0.206,-0.668 0.043,-0.212 0.159,-0.318 0.351,-0.318 0.211,0 0.317,0.128 0.317,0.382 0,0.17 -0.011,0.297 -0.031,0.382 -0.063,0.509 -0.096,1.124 -0.096,1.845 0,1.018 0.053,1.823 0.159,2.416 l 0.031,0.51 c 0.021,0.233 -0.074,0.35 -0.286,0.35 -0.233,0 -0.393,-0.244 -0.477,-0.731 -0.233,-1.251 -0.785,-2.295 -1.653,-3.133 -0.87,-0.837 -1.845,-1.256 -2.926,-1.256 -1.061,0 -1.903,0.339 -2.528,1.018 -0.626,0.679 -0.938,1.601 -0.938,2.767 0,1.357 0.456,2.448 1.368,3.275 0.509,0.467 1.61,1.124 3.307,1.972 1.992,0.997 3.424,2.009 4.293,3.037 0.869,1.028 1.304,2.199 1.304,3.513 z"
         id="path45"
         inkscape:connector-curvature="0"
         style="stroke:#000000;stroke-width:0.125;stroke-miterlimit:10" /><path
         stroke-miterlimit="10"
         d="m 279.834,134.012 c 0,-0.042 -0.021,0.244 -0.063,0.859 -0.085,1.229 -0.127,2.416 -0.127,3.562 0,0.127 0.021,0.387 0.063,0.778 0.042,0.393 0.063,0.864 0.063,1.416 l 0,0.286 c 0,0.274 -0.085,0.413 -0.254,0.413 -0.17,0 -0.318,-0.159 -0.445,-0.478 -0.298,-0.699 -0.594,-1.154 -0.891,-1.367 -1.526,1.336 -3.36,2.004 -5.502,2.004 -3.116,0 -5.697,-1.086 -7.743,-3.26 -2.046,-2.173 -3.068,-4.913 -3.068,-8.221 0,-3.328 0.938,-6.047 2.814,-8.156 1.876,-2.109 4.298,-3.164 7.266,-3.164 1.082,0 1.945,0.09 2.592,0.271 0.646,0.18 1.447,0.546 2.401,1.097 0.466,0.275 0.815,0.413 1.05,0.413 0.19,0 0.37,-0.169 0.54,-0.509 0.275,-0.593 0.498,-0.891 0.668,-0.891 0.169,0 0.254,0.085 0.254,0.255 0,0.085 -0.021,0.223 -0.063,0.413 -0.233,1.018 -0.35,2.926 -0.35,5.725 0,0.402 -0.031,0.636 -0.096,0.699 -0.063,0.063 -0.148,0.096 -0.254,0.096 -0.212,0 -0.35,-0.201 -0.413,-0.604 -0.276,-1.695 -0.668,-2.957 -1.177,-3.784 -1.039,-1.695 -2.672,-2.544 -4.897,-2.544 -1.717,0 -3.074,0.572 -4.07,1.717 -1.803,2.057 -2.703,5.067 -2.703,9.031 0,3.541 0.742,6.286 2.226,8.236 1.293,1.696 3.011,2.544 5.152,2.544 1.102,0 2.109,-0.27 3.021,-0.811 0.911,-0.54 1.611,-1.277 2.099,-2.21 0.552,-1.081 0.943,-2.258 1.177,-3.53 0.085,-0.509 0.223,-0.763 0.414,-0.763 0.21,0 0.316,0.159 0.316,0.477 z"
         id="path47"
         inkscape:connector-curvature="0"
         style="stroke:#000000;stroke-width:0.125;stroke-miterlimit:10" /><path
         stroke-miterlimit="10"
         d="m 305.021,140.817 c 0,0.19 -0.2,0.286 -0.6,0.286 l -4.354,0 c -0.295,0 -0.726,0 -1.294,0 -0.567,0 -0.988,0 -1.262,0 -0.421,0 -0.631,-0.084 -0.631,-0.254 0,-0.169 0.491,-0.285 1.476,-0.349 0.523,-0.042 0.826,-0.132 0.91,-0.27 0.084,-0.137 0.126,-0.629 0.126,-1.475 l 0,-9.261 -9.571,0 0,9 c 0,0.954 0.073,1.516 0.222,1.686 0.149,0.17 0.646,0.286 1.495,0.35 0.551,0.043 0.827,0.138 0.827,0.286 0,0.19 -0.213,0.286 -0.637,0.286 l -0.286,0 c -0.509,0 -1.044,0 -1.605,0 -0.562,0 -0.896,0 -1.002,0 -0.297,0 -0.742,0 -1.336,0 -0.594,0 -1.483,0 -2.671,0 -0.424,0 -0.636,-0.084 -0.636,-0.254 0,-0.169 0.212,-0.274 0.636,-0.317 0.275,-0.021 0.562,-0.042 0.858,-0.063 0.467,-0.043 0.764,-0.148 0.891,-0.317 0.063,-0.106 0.096,-0.699 0.096,-1.778 l 0,-16.766 c 0,-0.953 -0.048,-1.514 -0.144,-1.684 -0.095,-0.169 -0.429,-0.265 -1.002,-0.285 -0.657,-0.045 -1.044,-0.078 -1.16,-0.101 -0.117,-0.022 -0.175,-0.111 -0.175,-0.268 0,-0.179 0.138,-0.269 0.413,-0.269 0.085,0 0.265,0.012 0.541,0.032 0.529,0.043 1.78,0.063 3.752,0.063 1.081,0 1.834,-0.016 2.258,-0.048 0.148,-0.031 0.339,-0.048 0.572,-0.048 0.382,0 0.572,0.106 0.572,0.319 0,0.191 -0.345,0.287 -1.033,0.287 -0.689,0 -1.103,0.08 -1.24,0.239 -0.138,0.16 -0.206,0.665 -0.206,1.516 l 0,7.338 9.571,0 0,-6.859 c 0,-1.127 -0.085,-1.792 -0.254,-1.994 -0.17,-0.201 -0.764,-0.292 -1.781,-0.271 -0.318,0 -0.477,-0.096 -0.477,-0.288 0,-0.19 0.18,-0.287 0.54,-0.287 l 0.159,0 c 0.297,0 0.815,0 1.559,0 0.763,0 1.335,0 1.717,0 1.293,0 2.167,0 2.624,0 0.455,0 0.747,0 0.874,0 0.445,0 0.668,0.096 0.668,0.286 0,0.191 -0.467,0.298 -1.399,0.318 -0.275,0 -0.477,0.021 -0.604,0.063 -0.212,0.063 -0.345,0.181 -0.397,0.35 -0.053,0.17 -0.079,0.668 -0.079,1.495 l 0,16.918 c 0,1.018 0.052,1.611 0.157,1.78 0.209,0.233 0.816,0.35 1.82,0.35 0.334,-0.038 0.502,0.046 0.502,0.258 z"
         id="path49"
         inkscape:connector-curvature="0"
         style="stroke:#000000;stroke-width:0.125;stroke-miterlimit:10" /><path
         stroke-miterlimit="10"
         d="m 329.569,130.196 c 0,3.159 -0.949,5.83 -2.846,8.014 -1.897,2.184 -4.225,3.275 -6.98,3.275 -2.926,0 -5.385,-1.107 -7.378,-3.323 -1.993,-2.215 -2.989,-4.945 -2.989,-8.188 0,-3.308 0.959,-6.016 2.878,-8.125 1.919,-2.109 4.373,-3.164 7.362,-3.164 2.819,0 5.184,1.103 7.091,3.307 1.908,2.204 2.862,4.94 2.862,8.204 z m -3.561,0.16 c 0,-3.892 -0.795,-6.922 -2.385,-9.091 -0.997,-1.36 -2.386,-2.041 -4.166,-2.041 -1.696,0 -3.011,0.521 -3.943,1.562 -1.717,1.914 -2.576,5.029 -2.576,9.346 0,3.423 0.599,6.081 1.797,7.974 1.197,1.892 2.878,2.838 5.041,2.838 2.014,0 3.529,-0.893 4.547,-2.679 1.122,-1.977 1.685,-4.614 1.685,-7.909 z"
         id="path51"
         inkscape:connector-curvature="0"
         style="stroke:#000000;stroke-width:0.125;stroke-miterlimit:10" /><path
         stroke-miterlimit="10"
         d="m 354.532,130.196 c 0,3.159 -0.949,5.83 -2.846,8.014 -1.897,2.184 -4.225,3.275 -6.98,3.275 -2.926,0 -5.385,-1.107 -7.378,-3.323 -1.993,-2.215 -2.989,-4.945 -2.989,-8.188 0,-3.308 0.959,-6.016 2.878,-8.125 1.919,-2.109 4.373,-3.164 7.362,-3.164 2.819,0 5.184,1.103 7.091,3.307 1.908,2.204 2.862,4.94 2.862,8.204 z m -3.561,0.16 c 0,-3.892 -0.795,-6.922 -2.385,-9.091 -0.997,-1.36 -2.386,-2.041 -4.166,-2.041 -1.696,0 -3.011,0.521 -3.943,1.562 -1.717,1.914 -2.576,5.029 -2.576,9.346 0,3.423 0.599,6.081 1.797,7.974 1.197,1.892 2.878,2.838 5.041,2.838 2.014,0 3.529,-0.893 4.547,-2.679 1.122,-1.977 1.685,-4.614 1.685,-7.909 z"
         id="path53"
         inkscape:connector-curvature="0"
         style="stroke:#000000;stroke-width:0.125;stroke-miterlimit:10" /><path
         stroke-miterlimit="10"
         d="m 375.552,138.591 c 0,0.552 -0.031,1.463 -0.095,2.735 l -0.35,0 c -0.127,0 -0.434,-0.021 -0.92,-0.063 -0.487,-0.043 -1.037,-0.063 -1.65,-0.063 l -13.204,-0.096 c -0.36,0 -0.54,-0.096 -0.54,-0.286 0,-0.148 0.286,-0.243 0.858,-0.286 0.806,-0.042 1.288,-0.132 1.447,-0.271 0.159,-0.138 0.238,-0.535 0.238,-1.192 l 0,-17.872 c 0,-0.784 -0.079,-1.24 -0.238,-1.367 -0.159,-0.127 -0.727,-0.19 -1.701,-0.19 -0.403,0 -0.604,-0.116 -0.604,-0.351 0,-0.19 0.127,-0.286 0.382,-0.286 l 0.286,0 c 0.699,0.063 2.088,0.096 4.166,0.096 0.19,0 0.562,-0.016 1.113,-0.048 0.551,-0.031 1.006,-0.048 1.367,-0.048 l 0.35,0 c 0.382,0 0.572,0.106 0.572,0.318 0,0.127 -0.059,0.207 -0.175,0.238 -0.117,0.032 -0.482,0.059 -1.097,0.08 -0.615,0.021 -0.981,0.122 -1.098,0.302 -0.116,0.181 -0.175,0.737 -0.175,1.67 l 0,18.762 c 0.572,0.021 1.367,0.032 2.385,0.032 2.48,0 4.229,-0.128 5.247,-0.382 1.018,-0.255 1.707,-0.731 2.067,-1.432 0.36,-0.699 0.572,-1.643 0.636,-2.83 0.021,-0.275 0.143,-0.413 0.366,-0.413 0.265,0 0.387,0.159 0.365,0.477 l 0,0.796 c 0,0.042 0,0.138 0,0.286 0,0.148 0,0.297 0,0.445 l 0,1.239 z"
         id="path55"
         inkscape:connector-curvature="0"
         style="stroke:#000000;stroke-width:0.125;stroke-miterlimit:10" /><path
         stroke-miterlimit="10"
         d="m 392.851,134.902 c 0,1.823 -0.694,3.376 -2.083,4.659 -1.389,1.282 -3.058,1.924 -5.008,1.924 -1.146,0 -2.513,-0.35 -4.103,-1.05 -0.425,-0.19 -0.742,-0.286 -0.954,-0.286 -0.254,0 -0.413,0.294 -0.477,0.881 -0.021,0.303 -0.159,0.455 -0.414,0.455 -0.212,0 -0.317,-0.127 -0.317,-0.382 0,-0.17 0.01,-0.297 0.031,-0.382 0.17,-1.293 0.255,-2.49 0.255,-3.593 0,-0.212 -0.021,-0.806 -0.063,-1.781 -0.021,-0.127 -0.032,-0.297 -0.032,-0.509 0,-0.318 0.127,-0.477 0.382,-0.477 0.212,0 0.36,0.257 0.445,0.771 0.551,3.811 2.342,5.716 5.374,5.716 1.293,0 2.295,-0.365 3.005,-1.097 0.71,-0.732 1.065,-1.765 1.065,-3.101 0,-1.187 -0.345,-2.199 -1.033,-3.037 -0.689,-0.837 -1.871,-1.669 -3.546,-2.496 -2.015,-0.996 -3.414,-1.961 -4.198,-2.894 -0.784,-0.933 -1.176,-2.088 -1.176,-3.467 0,-1.759 0.566,-3.212 1.701,-4.356 1.134,-1.145 2.57,-1.717 4.309,-1.717 0.721,0 1.718,0.244 2.989,0.731 0.445,0.17 0.773,0.254 0.986,0.254 0.232,0 0.386,-0.042 0.461,-0.127 0.074,-0.085 0.143,-0.308 0.206,-0.668 0.043,-0.212 0.159,-0.318 0.351,-0.318 0.211,0 0.317,0.128 0.317,0.382 0,0.17 -0.011,0.297 -0.031,0.382 -0.063,0.509 -0.096,1.124 -0.096,1.845 0,1.018 0.053,1.823 0.159,2.416 l 0.031,0.51 c 0.021,0.233 -0.074,0.35 -0.286,0.35 -0.233,0 -0.393,-0.244 -0.477,-0.731 -0.233,-1.251 -0.785,-2.295 -1.653,-3.133 -0.87,-0.837 -1.845,-1.256 -2.926,-1.256 -1.061,0 -1.903,0.339 -2.528,1.018 -0.626,0.679 -0.938,1.601 -0.938,2.767 0,1.357 0.456,2.448 1.368,3.275 0.509,0.467 1.61,1.124 3.307,1.972 1.992,0.997 3.424,2.009 4.293,3.037 0.869,1.028 1.304,2.199 1.304,3.513 z"
         id="path57"
         inkscape:connector-curvature="0"
         style="stroke:#000000;stroke-width:0.125;stroke-miterlimit:10" /></g><line
       stroke-miterlimit="10"
       x1="118.364"
       y1="109.772"
       x2="393.177"
       y2="109.772"
       id="line59"
       style="fill:none;stroke:#000000;stroke-miterlimit:10" /><g
       id="g61"><g
         id="g63"><path
           stroke-miterlimit="10"
           d="m 279.301,150.288 c 0,0.012 -0.011,0.04 -0.033,0.085 -0.056,0.091 -0.116,0.25 -0.183,0.477 -0.188,0.669 -0.34,1.238 -0.456,1.708 -0.116,0.471 -0.219,0.705 -0.308,0.705 -0.066,0 -0.1,-0.044 -0.1,-0.134 l 0.017,-0.118 c 0.144,-0.358 0.216,-0.79 0.216,-1.295 0,-0.549 -0.174,-0.894 -0.522,-1.034 -0.349,-0.14 -0.938,-0.216 -1.769,-0.227 l -1.112,0 c -0.188,0 -0.326,0.111 -0.415,0.334 l -0.564,1.503 -1.245,3.208 c 0.398,0.045 0.658,0.066 0.78,0.066 0.564,0 1.057,-0.146 1.478,-0.437 0.421,-0.292 0.714,-0.689 0.88,-1.194 0.056,-0.168 0.122,-0.252 0.199,-0.252 0.1,0 0.149,0.045 0.149,0.135 0,0.022 -0.022,0.084 -0.066,0.185 -0.631,1.368 -1.179,2.764 -1.644,4.188 -0.033,0.157 -0.089,0.235 -0.166,0.235 -0.077,0 -0.116,-0.04 -0.116,-0.119 0,-0.045 0.011,-0.106 0.033,-0.186 0.166,-0.599 0.249,-1.032 0.249,-1.304 0,-0.361 -0.122,-0.614 -0.365,-0.762 -0.243,-0.146 -0.675,-0.22 -1.295,-0.22 -0.177,0 -0.31,0.112 -0.398,0.337 l -1.793,4.487 c -0.133,0.337 -0.199,0.534 -0.199,0.59 0,0.102 0.1,0.157 0.299,0.169 l 0.863,0.033 c 0.288,0.012 0.587,0.018 0.896,0.018 1.604,0 2.706,-0.354 3.304,-1.06 0.31,-0.359 0.598,-0.947 0.863,-1.766 0.077,-0.225 0.172,-0.337 0.282,-0.337 0.077,0 0.116,0.04 0.116,0.118 0,0.046 -0.056,0.215 -0.166,0.508 -0.421,1.115 -0.73,1.988 -0.93,2.62 -0.044,0.116 -0.094,0.19 -0.149,0.222 -0.055,0.032 -0.183,0.047 -0.382,0.047 l -5.628,0 c -1.372,0 -2.172,-0.006 -2.399,-0.017 -0.227,-0.011 -0.34,-0.056 -0.34,-0.134 0,-0.067 0.05,-0.106 0.149,-0.118 0.1,-0.011 0.421,-0.017 0.963,-0.017 0.21,0 0.354,-0.039 0.432,-0.117 0.078,-0.078 0.193,-0.309 0.349,-0.688 l 3.354,-8.194 c 0.1,-0.213 0.246,-0.56 0.44,-1.041 0.193,-0.481 0.29,-0.778 0.29,-0.891 0,-0.089 -0.053,-0.143 -0.157,-0.159 -0.105,-0.017 -0.468,-0.03 -1.088,-0.042 -0.133,0 -0.199,-0.036 -0.199,-0.107 0,-0.119 0.105,-0.179 0.315,-0.179 0.022,0 0.183,0 0.481,0 0.299,0.012 0.664,0.017 1.096,0.017 l 4.947,0.034 c 0.199,0 0.321,-0.017 0.365,-0.051 l 0.1,0 c 0.188,0.001 0.282,0.058 0.282,0.171 z"
           id="path65"
           inkscape:connector-curvature="0"
           style="fill:#5d7132;stroke:#5d7132;stroke-width:0.125;stroke-miterlimit:10" /><path
           stroke-miterlimit="10"
           d="m 285.709,154.642 c 0,0.057 -0.11,0.365 -0.332,0.925 l -4.018,10.208 0.448,0.033 c 0.398,0.034 0.598,0.084 0.598,0.151 0,0.078 -0.105,0.118 -0.315,0.118 -0.21,0 -0.522,-0.012 -0.938,-0.034 -0.416,-0.022 -0.729,-0.033 -0.938,-0.033 -0.033,0 -0.139,0.011 -0.315,0.033 -0.176,0.022 -0.426,0.034 -0.747,0.034 l -0.299,0 c -0.11,0 -0.166,-0.032 -0.166,-0.095 0,-0.105 0.232,-0.164 0.697,-0.175 0.332,-0.012 0.525,-0.045 0.581,-0.102 l 0.116,-0.204 c 0.044,-0.079 0.11,-0.232 0.199,-0.459 l 1.312,-3.436 c 0.066,-0.079 0.116,-0.187 0.149,-0.323 -0.354,0.27 -0.653,0.463 -0.896,0.58 -0.243,0.118 -0.542,0.177 -0.896,0.177 -0.608,0 -1.115,-0.205 -1.519,-0.613 -0.404,-0.409 -0.606,-0.923 -0.606,-1.539 0,-0.594 0.152,-1.225 0.457,-1.892 0.304,-0.667 0.711,-1.259 1.22,-1.774 1.085,-1.099 2.158,-1.648 3.221,-1.648 0.687,0 1.156,0.348 1.411,1.043 l 0.083,-0.269 0.083,-0.337 c 0.056,-0.235 0.139,-0.353 0.249,-0.353 0.1,0 0.193,0.005 0.282,0.017 l 0.1,0 c 0.232,0 0.421,-0.039 0.564,-0.118 0.066,-0.022 0.11,-0.033 0.133,-0.033 0.055,0 0.082,0.039 0.082,0.118 z m -1.826,1.276 c 0,-0.28 -0.11,-0.512 -0.332,-0.696 -0.222,-0.184 -0.498,-0.277 -0.83,-0.277 -0.786,0 -1.5,0.521 -2.142,1.561 -0.919,1.476 -1.378,2.745 -1.378,3.808 0,0.392 0.103,0.707 0.308,0.947 0.204,0.241 0.479,0.361 0.821,0.361 0.542,0 1.046,-0.285 1.511,-0.855 0.288,-0.358 0.614,-0.995 0.979,-1.912 l 0.813,-2.063 c 0.167,-0.427 0.25,-0.718 0.25,-0.874 z"
           id="path67"
           inkscape:connector-curvature="0"
           style="fill:#5d7132;stroke:#5d7132;stroke-width:0.125;stroke-miterlimit:10" /><path
           stroke-miterlimit="10"
           d="m 293.611,154.777 -0.033,0.085 -0.116,0.271 -1.859,4.432 c -0.376,0.895 -0.564,1.449 -0.564,1.664 0,0.306 0.144,0.458 0.432,0.458 0.409,0 0.863,-0.309 1.361,-0.928 0.122,-0.154 0.205,-0.232 0.249,-0.232 0.066,0 0.1,0.034 0.1,0.103 0,0.271 -0.326,0.612 -0.979,1.021 -0.388,0.238 -0.786,0.357 -1.195,0.357 -0.321,0 -0.604,-0.091 -0.847,-0.271 -0.243,-0.18 -0.365,-0.39 -0.365,-0.627 0,-0.136 0.05,-0.345 0.149,-0.628 l 0.199,-0.576 c -0.741,0.878 -1.303,1.447 -1.685,1.709 -0.382,0.262 -0.85,0.394 -1.403,0.394 -0.432,0 -0.786,-0.088 -1.062,-0.263 -0.276,-0.174 -0.415,-0.402 -0.415,-0.684 0,-0.305 0.122,-0.732 0.365,-1.284 l 1.71,-3.904 c 0.044,-0.101 0.139,-0.298 0.282,-0.591 0.033,-0.057 0.05,-0.096 0.05,-0.118 0,-0.09 -0.133,-0.136 -0.398,-0.136 -0.354,0 -0.531,-0.062 -0.531,-0.185 0,-0.078 0.039,-0.118 0.116,-0.118 0.089,0 0.216,0.012 0.382,0.034 0.166,0.022 0.293,0.033 0.382,0.033 0.575,0 1.002,-0.05 1.278,-0.151 0.066,-0.022 0.11,-0.033 0.133,-0.033 0.056,0 0.083,0.034 0.083,0.102 0,0.09 -0.11,0.374 -0.332,0.853 -0.222,0.479 -0.426,0.972 -0.614,1.479 -0.044,0.124 -0.216,0.535 -0.515,1.233 l -0.664,1.555 c -0.276,0.643 -0.415,1.099 -0.415,1.369 0,0.326 0.205,0.489 0.614,0.489 0.432,0 0.99,-0.358 1.677,-1.076 0.774,-0.807 1.417,-1.827 1.926,-3.061 l 1.062,-2.556 c 0.056,-0.135 0.116,-0.202 0.183,-0.202 -0.011,0 0.105,0 0.349,0 l 0.133,0 c 0.299,0 0.492,-0.017 0.581,-0.05 0.056,-0.022 0.094,-0.034 0.116,-0.034 0.053,-0.001 0.08,0.021 0.08,0.067 z"
           id="path69"
           inkscape:connector-curvature="0"
           style="fill:#5d7132;stroke:#5d7132;stroke-width:0.125;stroke-miterlimit:10" /><path
           stroke-miterlimit="10"
           d="m 297.695,154.676 c 0,0.033 -0.027,0.101 -0.083,0.201 -0.077,0.134 -0.205,0.408 -0.382,0.822 l -1.909,4.412 c -0.255,0.593 -0.382,0.962 -0.382,1.106 0,0.303 0.155,0.453 0.465,0.453 0.21,0 0.451,-0.074 0.723,-0.223 0.271,-0.148 0.479,-0.328 0.622,-0.537 0.1,-0.132 0.177,-0.198 0.232,-0.198 0.066,0 0.1,0.033 0.1,0.1 0,0.133 -0.155,0.332 -0.465,0.598 -0.465,0.398 -0.99,0.598 -1.577,0.598 -0.388,0 -0.705,-0.102 -0.954,-0.303 -0.249,-0.201 -0.374,-0.458 -0.374,-0.771 0,-0.279 0.139,-0.732 0.415,-1.358 l 1.727,-3.893 c 0.056,-0.189 0.122,-0.335 0.199,-0.437 0.033,-0.044 0.05,-0.083 0.05,-0.117 0,-0.101 -0.243,-0.167 -0.73,-0.201 -0.089,-0.022 -0.133,-0.062 -0.133,-0.117 0,-0.102 0.044,-0.151 0.133,-0.151 0.011,0 0.094,0.011 0.249,0.033 0.155,0.022 0.404,0.033 0.747,0.033 0.465,0 0.791,-0.039 0.979,-0.117 0.11,-0.045 0.188,-0.067 0.232,-0.067 0.077,-0.001 0.116,0.044 0.116,0.134 z m 1.146,-3.145 c 0,0.471 -0.216,0.706 -0.647,0.706 -0.222,0 -0.404,-0.07 -0.548,-0.21 -0.144,-0.141 -0.216,-0.317 -0.216,-0.53 0,-0.459 0.255,-0.689 0.764,-0.689 0.431,0 0.647,0.241 0.647,0.723 z"
           id="path71"
           inkscape:connector-curvature="0"
           style="fill:#5d7132;stroke:#5d7132;stroke-width:0.125;stroke-miterlimit:10" /><path
           stroke-miterlimit="10"
           d="m 303.041,154.76 c 0,0.157 -0.232,0.241 -0.697,0.252 l -0.631,0 -0.299,0 -2.241,5.096 c -0.243,0.549 -0.365,0.896 -0.365,1.042 0,0.236 0.172,0.354 0.515,0.354 0.498,0 0.94,-0.265 1.328,-0.793 0.089,-0.11 0.155,-0.165 0.199,-0.165 0.089,0 0.133,0.039 0.133,0.117 0,0.146 -0.183,0.381 -0.548,0.706 -0.421,0.37 -0.924,0.556 -1.511,0.556 -0.398,0 -0.722,-0.102 -0.971,-0.303 -0.249,-0.201 -0.374,-0.458 -0.374,-0.771 0,-0.201 0.127,-0.576 0.382,-1.124 l 2.175,-4.714 -0.681,0 c -0.188,0 -0.282,-0.037 -0.282,-0.111 0,-0.139 0.077,-0.208 0.232,-0.208 l 0.149,0 c 0.056,-0.011 0.144,-0.017 0.266,-0.017 0.155,0 0.305,-0.006 0.448,-0.017 l 0.282,-0.724 c 0.1,-0.246 0.177,-0.37 0.232,-0.37 0.055,0 0.142,0.009 0.258,0.025 0.116,0.016 0.207,0.025 0.273,0.025 0.122,0 0.299,-0.052 0.531,-0.154 0.044,-0.021 0.083,-0.03 0.116,-0.03 0.056,0 0.083,0.021 0.083,0.066 l -0.183,0.397 -0.365,0.797 0.398,0 0.631,0 c 0.056,0 0.122,-0.011 0.199,-0.033 0.077,-0.022 0.122,-0.034 0.133,-0.034 0.124,0 0.185,0.045 0.185,0.135 z"
           id="path73"
           inkscape:connector-curvature="0"
           style="fill:#5d7132;stroke:#5d7132;stroke-width:0.125;stroke-miterlimit:10" /><path
           stroke-miterlimit="10"
           d="m 310.711,155.113 c 0,0.392 -0.188,0.588 -0.564,0.588 -0.177,0 -0.305,-0.106 -0.382,-0.319 -0.022,-0.045 -0.05,-0.067 -0.083,-0.067 -0.11,0 -0.349,0.304 -0.714,0.909 l -1.71,2.83 c -0.066,0.123 -0.847,1.336 -2.341,3.638 -0.774,1.201 -1.577,2.145 -2.407,2.83 -0.487,0.403 -0.969,0.605 -1.444,0.605 -0.498,0 -0.747,-0.185 -0.747,-0.555 0,-0.19 0.066,-0.348 0.199,-0.471 0.133,-0.123 0.299,-0.185 0.498,-0.185 0.144,0 0.235,0.022 0.273,0.067 0.039,0.044 0.064,0.179 0.075,0.403 0.011,0.168 0.088,0.252 0.231,0.252 0.198,0 0.503,-0.18 0.916,-0.539 0.413,-0.359 0.801,-0.78 1.165,-1.263 0.55,-0.73 0.825,-1.365 0.825,-1.903 0,-0.157 0,-0.298 0,-0.421 l 0,-0.405 0,-4.851 c 0,-0.774 -0.169,-1.162 -0.506,-1.162 -0.405,0 -0.793,0.432 -1.164,1.295 -0.135,0.314 -0.247,0.471 -0.337,0.471 -0.09,0 -0.135,-0.05 -0.135,-0.151 0,-0.224 0.166,-0.588 0.498,-1.093 0.498,-0.751 1.085,-1.127 1.76,-1.127 0.498,0 0.813,0.169 0.946,0.505 0.1,0.258 0.149,0.689 0.149,1.295 l 0,0.454 -0.05,2.993 c 0,0.415 0.011,0.83 0.033,1.244 l 0.266,-0.403 c 0.11,-0.202 0.288,-0.505 0.531,-0.908 l 0.531,-0.824 1.428,-2.388 c 0.542,-0.896 0.894,-1.44 1.055,-1.631 0.16,-0.19 0.367,-0.286 0.622,-0.286 0.39,0.001 0.583,0.191 0.583,0.573 z"
           id="path75"
           inkscape:connector-curvature="0"
           style="fill:#5d7132;stroke:#5d7132;stroke-width:0.125;stroke-miterlimit:10" /><path
           stroke-miterlimit="10"
           d="m 324.291,156.861 c 0,0.46 -0.227,0.689 -0.681,0.689 -0.354,0 -0.537,-0.185 -0.548,-0.555 -0.011,-0.325 -0.116,-0.487 -0.315,-0.487 -0.276,0 -0.675,0.341 -1.195,1.022 -0.442,0.581 -0.797,1.134 -1.062,1.659 0.321,0.815 0.64,1.394 0.955,1.734 0.315,0.34 0.683,0.511 1.104,0.511 0.542,0 0.979,-0.259 1.312,-0.777 0.1,-0.154 0.183,-0.231 0.249,-0.231 0.056,0 0.083,0.027 0.083,0.083 0,0.134 -0.183,0.378 -0.548,0.732 -0.521,0.51 -1.123,0.766 -1.81,0.766 -0.554,0 -0.996,-0.105 -1.328,-0.316 -0.332,-0.211 -0.664,-0.604 -0.996,-1.181 -0.786,0.998 -1.771,1.497 -2.955,1.497 -0.974,0 -1.737,-0.249 -2.291,-0.746 -0.554,-0.498 -0.83,-1.183 -0.83,-2.055 0,-1.252 0.647,-2.253 1.942,-3.002 0.421,-0.246 1.14,-0.592 2.158,-1.039 -0.266,-1.052 -0.398,-1.789 -0.398,-2.214 0,-0.872 0.296,-1.594 0.889,-2.163 0.592,-0.57 1.342,-0.855 2.249,-0.855 0.687,0 1.256,0.185 1.71,0.555 0.454,0.37 0.681,0.835 0.681,1.396 0,0.695 -0.338,1.272 -1.013,1.732 -0.321,0.213 -1.106,0.616 -2.357,1.211 -0.056,0.033 -0.149,0.078 -0.282,0.135 0.122,0.481 0.343,1.166 0.664,2.051 0.122,0.325 0.332,0.931 0.631,1.816 0.642,-1.076 1.176,-1.813 1.603,-2.211 0.426,-0.398 0.882,-0.598 1.369,-0.598 0.299,0 0.542,0.079 0.73,0.235 0.186,0.158 0.28,0.36 0.28,0.606 z m -4.98,3.287 c -0.575,-1.215 -1.146,-2.793 -1.71,-4.733 l -0.282,0.151 c -0.786,0.424 -1.322,0.791 -1.61,1.104 -0.564,0.624 -0.847,1.383 -0.847,2.274 0,0.758 0.199,1.377 0.598,1.856 0.399,0.479 0.907,0.719 1.527,0.719 1.029,0.001 1.803,-0.457 2.324,-1.371 z m 2.141,-8.348 c 0,-1.064 -0.438,-1.598 -1.312,-1.598 -0.509,0 -0.913,0.193 -1.212,0.58 -0.299,0.387 -0.448,0.911 -0.448,1.572 0,0.65 0.144,1.413 0.432,2.287 0.044,-0.033 0.144,-0.084 0.299,-0.151 0.83,-0.403 1.395,-0.784 1.693,-1.144 0.366,-0.448 0.548,-0.963 0.548,-1.546 z"
           id="path77"
           inkscape:connector-curvature="0"
           style="fill:#5d7132;stroke:#5d7132;stroke-width:0.125;stroke-miterlimit:10" /><path
           stroke-miterlimit="10"
           d="m 339.249,150.288 c 0,0.012 -0.011,0.04 -0.033,0.085 -0.056,0.091 -0.116,0.25 -0.183,0.477 -0.188,0.669 -0.34,1.238 -0.456,1.708 -0.116,0.471 -0.219,0.705 -0.308,0.705 -0.066,0 -0.1,-0.044 -0.1,-0.134 l 0.017,-0.118 c 0.144,-0.358 0.216,-0.79 0.216,-1.295 0,-0.549 -0.174,-0.894 -0.522,-1.034 -0.349,-0.14 -0.938,-0.216 -1.769,-0.227 l -1.112,0 c -0.188,0 -0.326,0.111 -0.415,0.334 l -0.564,1.503 -1.245,3.208 c 0.398,0.045 0.658,0.066 0.78,0.066 0.564,0 1.057,-0.146 1.478,-0.437 0.421,-0.292 0.714,-0.689 0.88,-1.194 0.056,-0.168 0.122,-0.252 0.199,-0.252 0.1,0 0.149,0.045 0.149,0.135 0,0.022 -0.022,0.084 -0.066,0.185 -0.631,1.368 -1.179,2.764 -1.644,4.188 -0.033,0.157 -0.089,0.235 -0.166,0.235 -0.077,0 -0.116,-0.04 -0.116,-0.119 0,-0.045 0.011,-0.106 0.033,-0.186 0.166,-0.599 0.249,-1.032 0.249,-1.304 0,-0.361 -0.122,-0.614 -0.365,-0.762 -0.243,-0.146 -0.675,-0.22 -1.295,-0.22 -0.177,0 -0.31,0.112 -0.398,0.337 l -1.793,4.487 c -0.133,0.337 -0.199,0.534 -0.199,0.59 0,0.102 0.1,0.157 0.299,0.169 l 0.863,0.033 c 0.288,0.012 0.587,0.018 0.896,0.018 1.604,0 2.706,-0.354 3.304,-1.06 0.31,-0.359 0.598,-0.947 0.863,-1.766 0.077,-0.225 0.172,-0.337 0.282,-0.337 0.077,0 0.116,0.04 0.116,0.118 0,0.046 -0.056,0.215 -0.166,0.508 -0.421,1.115 -0.73,1.988 -0.93,2.62 -0.044,0.116 -0.094,0.19 -0.149,0.222 -0.055,0.032 -0.183,0.047 -0.382,0.047 l -5.628,0 c -1.372,0 -2.172,-0.006 -2.399,-0.017 -0.227,-0.011 -0.34,-0.056 -0.34,-0.134 0,-0.067 0.05,-0.106 0.149,-0.118 0.1,-0.011 0.421,-0.017 0.963,-0.017 0.21,0 0.354,-0.039 0.432,-0.117 0.078,-0.078 0.193,-0.309 0.349,-0.688 l 3.354,-8.194 c 0.1,-0.213 0.246,-0.56 0.44,-1.041 0.193,-0.481 0.29,-0.778 0.29,-0.891 0,-0.089 -0.053,-0.143 -0.157,-0.159 -0.105,-0.017 -0.468,-0.03 -1.088,-0.042 -0.133,0 -0.199,-0.036 -0.199,-0.107 0,-0.119 0.105,-0.179 0.315,-0.179 0.022,0 0.183,0 0.481,0 0.299,0.012 0.664,0.017 1.096,0.017 l 4.947,0.034 c 0.199,0 0.321,-0.017 0.365,-0.051 l 0.1,0 c 0.188,0.001 0.282,0.058 0.282,0.171 z"
           id="path79"
           inkscape:connector-curvature="0"
           style="fill:#5d7132;stroke:#5d7132;stroke-width:0.125;stroke-miterlimit:10" /><path
           stroke-miterlimit="10"
           d="m 346.122,155.466 c 0,0.393 -0.183,0.589 -0.548,0.589 -0.321,0 -0.481,-0.135 -0.481,-0.403 0,-0.09 0.077,-0.196 0.232,-0.32 0.044,-0.033 0.066,-0.095 0.066,-0.185 0,-0.225 -0.139,-0.336 -0.415,-0.336 -0.388,0 -0.841,0.318 -1.361,0.956 -0.321,0.392 -0.554,0.722 -0.697,0.989 -0.155,0.313 -0.332,0.789 -0.531,1.426 l -0.133,0.437 c -0.266,0.872 -0.398,1.6 -0.398,2.181 0,0.627 0.232,0.939 0.697,0.939 0.321,0 0.656,-0.143 1.005,-0.429 0.349,-0.286 0.633,-0.642 0.854,-1.067 0.133,-0.258 0.232,-0.387 0.299,-0.387 0.056,0 0.083,0.033 0.083,0.1 0,0.223 -0.166,0.545 -0.498,0.968 -0.575,0.723 -1.268,1.085 -2.075,1.085 -1.073,0 -1.61,-0.484 -1.61,-1.452 0,-0.2 0.017,-0.422 0.05,-0.667 -0.398,0.763 -0.788,1.306 -1.17,1.631 -0.382,0.325 -0.816,0.488 -1.304,0.488 -0.774,0 -1.162,-0.342 -1.162,-1.026 0,-0.224 0.066,-0.414 0.199,-0.571 0.133,-0.157 0.299,-0.235 0.498,-0.235 0.354,0 0.531,0.158 0.531,0.476 0,0.147 -0.139,0.329 -0.415,0.544 -0.044,0.012 -0.066,0.068 -0.066,0.17 0,0.25 0.183,0.374 0.548,0.374 0.498,0 1.005,-0.342 1.52,-1.025 0.515,-0.683 0.904,-1.524 1.17,-2.522 l 0.199,-0.74 c 0.188,-0.695 0.282,-1.188 0.282,-1.479 0,-0.65 -0.232,-0.976 -0.697,-0.976 -0.675,0 -1.289,0.433 -1.843,1.298 -0.133,0.2 -0.243,0.3 -0.332,0.3 -0.066,0 -0.1,-0.039 -0.1,-0.118 0,-0.168 0.199,-0.459 0.598,-0.874 0.653,-0.684 1.322,-1.026 2.009,-1.026 0.575,0 0.993,0.135 1.254,0.404 0.26,0.269 0.412,0.723 0.456,1.362 0.73,-1.178 1.488,-1.767 2.274,-1.767 0.299,0 0.542,0.085 0.73,0.253 0.188,0.168 0.282,0.377 0.282,0.635 z"
           id="path81"
           inkscape:connector-curvature="0"
           style="fill:#5d7132;stroke:#5d7132;stroke-width:0.125;stroke-miterlimit:10" /><path
           stroke-miterlimit="10"
           d="m 351.982,155.819 c 0,0.549 -0.227,0.824 -0.681,0.824 -0.155,0 -0.293,-0.06 -0.415,-0.177 -0.122,-0.118 -0.183,-0.25 -0.183,-0.396 0,-0.269 0.149,-0.403 0.448,-0.403 l 0.133,0.017 c 0.077,0.033 0.144,0.057 0.199,0.067 0.089,0 0.133,-0.062 0.133,-0.186 0,-0.179 -0.107,-0.339 -0.323,-0.479 -0.216,-0.141 -0.457,-0.211 -0.723,-0.211 -0.819,0 -1.61,0.615 -2.374,1.846 -0.786,1.264 -1.179,2.443 -1.179,3.539 0,0.939 0.421,1.409 1.262,1.409 0.631,0 1.268,-0.382 1.909,-1.146 0.11,-0.133 0.199,-0.199 0.266,-0.199 0.056,0 0.083,0.033 0.083,0.1 0,0.134 -0.144,0.344 -0.432,0.633 -0.631,0.633 -1.339,0.949 -2.125,0.949 -0.72,0 -1.298,-0.21 -1.734,-0.629 -0.438,-0.42 -0.656,-0.977 -0.656,-1.67 0,-1.175 0.62,-2.377 1.859,-3.607 1.019,-1.018 2.069,-1.527 3.154,-1.527 0.409,0 0.741,0.115 0.996,0.345 0.256,0.231 0.383,0.531 0.383,0.901 z"
           id="path83"
           inkscape:connector-curvature="0"
           style="fill:#5d7132;stroke:#5d7132;stroke-width:0.125;stroke-miterlimit:10" /><path
           stroke-miterlimit="10"
           d="m 358.125,155.712 c 0,0.603 -0.321,1.102 -0.963,1.498 -0.642,0.396 -1.455,0.594 -2.44,0.594 -0.354,0 -0.747,-0.022 -1.179,-0.067 -0.409,0.859 -0.614,1.657 -0.614,2.395 0,0.993 0.438,1.49 1.312,1.49 0.675,0 1.334,-0.354 1.976,-1.062 0.144,-0.155 0.238,-0.232 0.282,-0.232 0.056,0 0.083,0.027 0.083,0.083 0,0.255 -0.26,0.571 -0.78,0.949 -0.598,0.433 -1.218,0.649 -1.859,0.649 -0.72,0 -1.312,-0.213 -1.776,-0.638 -0.464,-0.425 -0.697,-0.962 -0.697,-1.611 0,-1.252 0.675,-2.466 2.025,-3.641 1.185,-1.028 2.241,-1.544 3.171,-1.544 0.972,-10e-4 1.459,0.379 1.459,1.137 z m -1.179,-0.279 c 0,-0.348 -0.172,-0.521 -0.515,-0.521 -0.354,0 -0.703,0.135 -1.046,0.403 -0.62,0.493 -1.189,1.228 -1.71,2.203 0.133,0.012 0.282,0.017 0.448,0.017 0.62,0 1.223,-0.19 1.81,-0.571 0.675,-0.427 1.013,-0.938 1.013,-1.531 z"
           id="path85"
           inkscape:connector-curvature="0"
           style="fill:#5d7132;stroke:#5d7132;stroke-width:0.125;stroke-miterlimit:10" /><path
           stroke-miterlimit="10"
           d="m 363.537,150.034 c 0,0.022 -0.027,0.101 -0.083,0.235 -0.033,0.09 -0.089,0.225 -0.166,0.403 l -3.719,9.199 c -0.276,0.684 -0.415,1.126 -0.415,1.328 0,0.303 0.199,0.454 0.598,0.454 0.399,0 0.797,-0.235 1.195,-0.706 0.166,-0.202 0.271,-0.303 0.315,-0.303 0.077,0 0.116,0.039 0.116,0.117 0,0.146 -0.183,0.382 -0.548,0.707 -0.421,0.381 -0.963,0.571 -1.627,0.571 -0.907,0 -1.361,-0.343 -1.361,-1.028 0,-0.226 0.139,-0.681 0.415,-1.366 l 3.719,-9.208 c 0.033,-0.067 0.05,-0.106 0.05,-0.118 0,-0.101 -0.105,-0.151 -0.315,-0.151 -0.487,0 -0.73,-0.038 -0.73,-0.115 0,-0.058 0.05,-0.087 0.149,-0.087 0.099,0 0.252,0 0.457,0 0.204,0 0.356,0 0.456,0 0.476,0 0.83,-0.015 1.062,-0.045 0.122,-0.015 0.205,-0.022 0.249,-0.022 0.123,0 0.183,0.045 0.183,0.135 z"
           id="path87"
           inkscape:connector-curvature="0"
           style="fill:#5d7132;stroke:#5d7132;stroke-width:0.125;stroke-miterlimit:10" /><path
           stroke-miterlimit="10"
           d="m 367.571,150.034 c 0,0.022 -0.027,0.101 -0.083,0.235 -0.033,0.09 -0.089,0.225 -0.166,0.403 l -3.719,9.199 c -0.276,0.684 -0.415,1.126 -0.415,1.328 0,0.303 0.199,0.454 0.598,0.454 0.399,0 0.797,-0.235 1.195,-0.706 0.166,-0.202 0.271,-0.303 0.315,-0.303 0.077,0 0.116,0.039 0.116,0.117 0,0.146 -0.183,0.382 -0.548,0.707 -0.421,0.381 -0.963,0.571 -1.627,0.571 -0.907,0 -1.361,-0.343 -1.361,-1.028 0,-0.226 0.139,-0.681 0.415,-1.366 l 3.719,-9.208 c 0.033,-0.067 0.05,-0.106 0.05,-0.118 0,-0.101 -0.105,-0.151 -0.315,-0.151 -0.487,0 -0.73,-0.038 -0.73,-0.115 0,-0.058 0.05,-0.087 0.149,-0.087 0.099,0 0.252,0 0.457,0 0.204,0 0.356,0 0.456,0 0.476,0 0.83,-0.015 1.062,-0.045 0.122,-0.015 0.205,-0.022 0.249,-0.022 0.123,0 0.183,0.045 0.183,0.135 z"
           id="path89"
           inkscape:connector-curvature="0"
           style="fill:#5d7132;stroke:#5d7132;stroke-width:0.125;stroke-miterlimit:10" /><path
           stroke-miterlimit="10"
           d="m 372.502,155.712 c 0,0.603 -0.321,1.102 -0.963,1.498 -0.642,0.396 -1.455,0.594 -2.44,0.594 -0.354,0 -0.747,-0.022 -1.179,-0.067 -0.409,0.859 -0.614,1.657 -0.614,2.395 0,0.993 0.438,1.49 1.312,1.49 0.675,0 1.334,-0.354 1.976,-1.062 0.144,-0.155 0.238,-0.232 0.282,-0.232 0.056,0 0.083,0.027 0.083,0.083 0,0.255 -0.26,0.571 -0.78,0.949 -0.598,0.433 -1.218,0.649 -1.859,0.649 -0.72,0 -1.312,-0.213 -1.776,-0.638 -0.464,-0.425 -0.697,-0.962 -0.697,-1.611 0,-1.252 0.675,-2.466 2.025,-3.641 1.185,-1.028 2.241,-1.544 3.171,-1.544 0.972,-10e-4 1.459,0.379 1.459,1.137 z m -1.179,-0.279 c 0,-0.348 -0.172,-0.521 -0.515,-0.521 -0.354,0 -0.703,0.135 -1.046,0.403 -0.62,0.493 -1.189,1.228 -1.71,2.203 0.133,0.012 0.282,0.017 0.448,0.017 0.62,0 1.223,-0.19 1.81,-0.571 0.675,-0.427 1.013,-0.938 1.013,-1.531 z"
           id="path91"
           inkscape:connector-curvature="0"
           style="fill:#5d7132;stroke:#5d7132;stroke-width:0.125;stroke-miterlimit:10" /><path
           stroke-miterlimit="10"
           d="m 379.641,155.876 c 0,0.271 -0.144,0.738 -0.432,1.402 l -1.345,3.093 c -0.155,0.36 -0.232,0.603 -0.232,0.727 0,0.236 0.13,0.354 0.389,0.354 0.314,0 0.776,-0.258 1.384,-0.773 0.056,-0.033 0.102,-0.05 0.135,-0.05 0.068,0 0.102,0.027 0.102,0.084 0,0.134 -0.185,0.33 -0.554,0.588 -0.503,0.348 -1.039,0.521 -1.609,0.521 -0.347,0 -0.632,-0.076 -0.855,-0.228 -0.223,-0.152 -0.335,-0.347 -0.335,-0.583 0,-0.191 0.105,-0.53 0.315,-1.015 l 1.328,-3.024 c 0.321,-0.732 0.481,-1.228 0.481,-1.487 0,-0.383 -0.193,-0.574 -0.581,-0.574 -0.509,0 -1.106,0.37 -1.793,1.109 -0.521,0.562 -0.996,1.346 -1.428,2.354 l -1.361,3.195 c -0.056,0.168 -0.127,0.252 -0.216,0.252 -0.022,0 -0.144,0 -0.365,0 -0.033,0 -0.1,0 -0.199,0 -0.089,0 -0.238,0 -0.448,0 -0.033,0 -0.072,0 -0.116,0 -0.077,0 -0.116,-0.027 -0.116,-0.084 0,-0.021 0.017,-0.056 0.05,-0.1 l 0.116,-0.251 2.54,-6.16 c 0.033,-0.056 0.061,-0.105 0.083,-0.15 -0.011,-0.078 -0.149,-0.123 -0.415,-0.134 -0.332,-0.011 -0.498,-0.072 -0.498,-0.185 0,-0.078 0.061,-0.117 0.183,-0.117 0.077,0 0.199,0.012 0.365,0.034 0.166,0.022 0.293,0.033 0.382,0.033 0.598,0 0.99,-0.045 1.179,-0.135 0.077,-0.033 0.127,-0.05 0.149,-0.05 0.066,0 0.1,0.033 0.1,0.101 0,0.034 -0.006,0.062 -0.017,0.084 l -0.614,1.581 c 0.089,-0.103 0.216,-0.246 0.382,-0.429 0.819,-0.892 1.61,-1.337 2.374,-1.337 0.442,0 0.803,0.127 1.079,0.38 0.274,0.256 0.413,0.58 0.413,0.974 z"
           id="path93"
           inkscape:connector-curvature="0"
           style="fill:#5d7132;stroke:#5d7132;stroke-width:0.125;stroke-miterlimit:10" /><path
           stroke-miterlimit="10"
           d="m 386.746,155.819 c 0,0.549 -0.227,0.824 -0.681,0.824 -0.155,0 -0.293,-0.06 -0.415,-0.177 -0.122,-0.118 -0.183,-0.25 -0.183,-0.396 0,-0.269 0.149,-0.403 0.448,-0.403 l 0.133,0.017 c 0.077,0.033 0.144,0.057 0.199,0.067 0.089,0 0.133,-0.062 0.133,-0.186 0,-0.179 -0.107,-0.339 -0.323,-0.479 -0.216,-0.141 -0.457,-0.211 -0.723,-0.211 -0.819,0 -1.61,0.615 -2.374,1.846 -0.786,1.264 -1.179,2.443 -1.179,3.539 0,0.939 0.421,1.409 1.262,1.409 0.631,0 1.268,-0.382 1.909,-1.146 0.11,-0.133 0.199,-0.199 0.266,-0.199 0.056,0 0.083,0.033 0.083,0.1 0,0.134 -0.144,0.344 -0.432,0.633 -0.631,0.633 -1.339,0.949 -2.125,0.949 -0.72,0 -1.298,-0.21 -1.734,-0.629 -0.438,-0.42 -0.656,-0.977 -0.656,-1.67 0,-1.175 0.62,-2.377 1.859,-3.607 1.019,-1.018 2.069,-1.527 3.154,-1.527 0.409,0 0.741,0.115 0.996,0.345 0.256,0.231 0.383,0.531 0.383,0.901 z"
           id="path95"
           inkscape:connector-curvature="0"
           style="fill:#5d7132;stroke:#5d7132;stroke-width:0.125;stroke-miterlimit:10" /><path
           stroke-miterlimit="10"
           d="m 392.889,155.712 c 0,0.603 -0.321,1.102 -0.963,1.498 -0.642,0.396 -1.455,0.594 -2.44,0.594 -0.354,0 -0.747,-0.022 -1.179,-0.067 -0.409,0.859 -0.614,1.657 -0.614,2.395 0,0.993 0.438,1.49 1.312,1.49 0.675,0 1.334,-0.354 1.976,-1.062 0.144,-0.155 0.238,-0.232 0.282,-0.232 0.056,0 0.083,0.027 0.083,0.083 0,0.255 -0.26,0.571 -0.78,0.949 -0.598,0.433 -1.218,0.649 -1.859,0.649 -0.72,0 -1.312,-0.213 -1.776,-0.638 -0.464,-0.425 -0.697,-0.962 -0.697,-1.611 0,-1.252 0.675,-2.466 2.025,-3.641 1.185,-1.028 2.241,-1.544 3.171,-1.544 0.971,-10e-4 1.459,0.379 1.459,1.137 z m -1.179,-0.279 c 0,-0.348 -0.172,-0.521 -0.515,-0.521 -0.354,0 -0.703,0.135 -1.046,0.403 -0.62,0.493 -1.189,1.228 -1.71,2.203 0.133,0.012 0.282,0.017 0.448,0.017 0.62,0 1.223,-0.19 1.81,-0.571 0.675,-0.427 1.013,-0.938 1.013,-1.531 z"
           id="path97"
           inkscape:connector-curvature="0"
           style="fill:#5d7132;stroke:#5d7132;stroke-width:0.125;stroke-miterlimit:10" /></g></g></g><g
     id="g99"
     transform="translate(-23.427,-43.943787)"><path
       d="m 103.232,111.046 c 0,0 3.217,10.071 -2.518,22.022 -5.15,10.725 -34.49,10.914 -22.653,32.719 5.979,11.009 -10.744,-15.419 -10.696,-23.914 0.035,-6.26 2.849,-15.088 10.697,-22.02 0,0 8.583,-4.984 10.042,-5.654 1.104,-0.508 4.611,-1.775 6.556,-2.896 3.288,-1.894 4.637,-2.927 4.797,-4.033 0,0 -0.79,12.942 -13.359,17.616 0,0 3.411,2.683 11.786,-3.774 2.844,-2.192 4.459,-6.072 4.459,-6.072 l 0.889,-3.994 z"
       id="path101"
       inkscape:connector-curvature="0"
       style="fill:#afc66b" /><path
       d="m 95.207,102.618 c 0,0 -8.431,7.751 -21.332,10.897 -12.898,3.148 -28.625,-11.013 -48.446,7.867 0,0 0.314,-7.238 10.696,-18.88 10.38,-11.638 18.076,-13.196 29.599,-12.151 l 13.188,3.346 c 0,0 11.642,2.83 11.642,3.146 0,0.313 -6.295,4.706 -18.881,5.649 0,0 -18.487,0.495 5.735,2.845 0,0 10.629,-0.468 12.516,-1.335 1.885,-0.867 5.283,-1.384 5.283,-1.384 z"
       id="path103"
       inkscape:connector-curvature="0"
       style="fill:#7e923a" /><path
       d="m 102.822,87.051 c 0,0 -0.543,0 -1.662,-0.953 0,0 -3.791,-4.016 -7.147,-10.371 -5.977,-11.328 -3.459,-12.9 -20.45,-22.653 -16.99,-9.751 -31.776,-9.122 -31.776,-9.122 0,0 5.661,4.09 9.752,16.359 4.091,12.269 15.731,22.336 16.988,22.021 1.889,1.572 20.766,8.183 23.912,8.809 3.148,0.628 -15.099,-5.979 -17.302,-20.135 -0.245,-1.57 0.586,10.253 23.594,15.73 6.606,1.575 4.091,0.315 4.091,0.315 z"
       id="path105"
       inkscape:connector-curvature="0"
       style="fill:#5d7132" /><path
       d="m 109.987,98.449 c 0,0 -10.82,-14.649 -13.58,-2.226 1.186,13.85 17.47,11.504 15.055,8.744 0,0 0.423,2.322 -0.597,-4.226 -0.265,-1.727 -2.887,-4.939 -0.878,-2.292 z"
       id="path107"
       inkscape:connector-curvature="0"
       style="fill:#806041" /><path
       stroke-miterlimit="10"
       d="m 110.213,103.255 c -0.667,-1.439 -2.117,-6.092 -9.543,-10.63"
       id="path109"
       inkscape:connector-curvature="0"
       style="fill:none;stroke:#000000;stroke-width:0.1;stroke-miterlimit:10" /><path
       stroke-miterlimit="10"
       d="m 106.922,105.843 c -0.729,-0.032 -8.316,-0.391 -9.04,-10.429"
       id="path111"
       inkscape:connector-curvature="0"
       style="fill:none;stroke:#000000;stroke-width:0.1;stroke-miterlimit:10" /><path
       stroke-miterlimit="10"
       d="m 100.283,96.784 c 0,0 2.334,4.062 6.44,6.756"
       id="path113"
       inkscape:connector-curvature="0"
       style="fill:none;stroke:#000000;stroke-width:0.1;stroke-miterlimit:10" /></g></svg>