<?xml version="1.0" encoding="utf-8"?>
<!-- Generator: Adobe Illustrator 16.0.0, SVG Export Plug-In . SVG Version: 6.00 Build 0)  -->
<!DOCTYPE svg PUBLIC "-//W3C//DTD SVG 1.1//EN" "http://www.w3.org/Graphics/SVG/1.1/DTD/svg11.dtd">
<svg version="1.1" id="Layer_1" xmlns="http://www.w3.org/2000/svg" xmlns:xlink="http://www.w3.org/1999/xlink" x="0px" y="0px"
	 width="261px" height="219.5px" viewBox="0 0 261 219.5" style="enable-background:new 0 0 261 219.5;" xml:space="preserve">
<style type="text/css">
<![CDATA[
	.st0{fill:#919195;}
	.st1{fill:none;}
	.st2{fill:#0084A9;}
]]>
</style>
<g>
	<polygon class="st1" points="152.3,78.1 149.2,69.9 146.1,78.1 	"/>
	<path class="st1" d="M166.2,52.1c4,0,7-3,7-7s-3-7-7-7s-7,3-7,7S162.2,52.1,166.2,52.1z"/>
	<path class="st1" d="M204.6,83.4c4,0,7-3,7-7s-3-7-7-7s-7,3-7,7S200.6,83.4,204.6,83.4z"/>
	<path class="st1" d="M124.8,20.7c4,0,7-3,7-7c0-4-3-7-7-7c-4,0-7,3-7,7C117.8,17.7,120.9,20.7,124.8,20.7z"/>
	<path class="st1" d="M192.2,52.1c4,0,7-3,7-7s-3-7-7-7c-4,0-7,3-7,7S188.3,52.1,192.2,52.1z"/>
	<path class="st1" d="M49.9,83.4c4,0,7-3,7-7s-3-7-7-7s-7,3-7,7S45.9,83.4,49.9,83.4z"/>
	<path class="st1" d="M133,76.4c0-2.1-0.9-4.1-2.4-5.4c-1.1-0.9-2.3-1.3-4.9-1.3h-3.6v13.4h3.3c2.6,0,3.9-0.3,5.1-1.3
		C132,80.6,133,78.4,133,76.4z"/>
	<path class="st2" d="M134.2,154.4c12.3-24.3,54-42.6,103.9-43.2c2.3,0,4.7,0,7,0l-4.6-8C185.5,104.1,140.5,126.4,134.2,154.4z"/>
	<path class="st2" d="M133.7,164.9c-0.2,1-0.4,2.1-0.5,3.1c0.2-0.6,0.5-1.2,0.7-1.7c11.3-25.1,54-43.9,105.2-44.1
		c4.2,0,8.4,0.1,12.6,0.3l-4.7-8.2c-1.9,0-3.9-0.1-5.8-0.1C185.5,114.5,139.9,136.6,133.7,164.9z"/>
	<path class="st2" d="M253.4,125.6c-4.1-0.2-8.2-0.4-12.4-0.4c-52.3,0-95.9,19.5-106.1,45.4c-0.7,1.8-1.3,3.6-1.6,5.5
		c-0.3,1.5-0.5,3-0.6,4.5c0,0.5,0,1,0,1.6c0,0.1,0,0.1,0,0.2c0.1-0.4,0.2-0.7,0.3-1.1c0.2-0.8,0.5-1.6,0.8-2.4
		c0.6-1.7,1.4-3.3,2.3-4.9c13.3-23.5,54.7-40.7,103.8-40.7c6.2,0,12.3,0.3,18.2,0.8L253.4,125.6z"/>
	<path class="st2" d="M24,111.2c49.9,0.7,91.6,18.9,103.9,43.2c-6.3-28.1-51.3-50.3-106.3-51.2l-4.6,8
		C19.3,111.2,21.6,111.2,24,111.2z"/>
	<path class="st2" d="M128.2,166.3c0.3,0.6,0.5,1.2,0.7,1.7c-0.1-1.1-0.3-2.1-0.5-3.1c-6.2-28.3-51.8-50.4-107.3-50.7
		c-2,0-3.9,0-5.8,0.1l-4.7,8.2c4.1-0.2,8.3-0.3,12.6-0.3C74.2,122.4,116.9,141.2,128.2,166.3z"/>
	<path class="st2" d="M128.8,176.1c-0.4-1.9-0.9-3.7-1.6-5.5c-10.1-25.9-53.8-45.4-106.1-45.4c-4.2,0-8.3,0.1-12.4,0.4l-4.8,8.4
		c5.9-0.5,12-0.8,18.2-0.8c49.1,0,90.6,17.2,103.8,40.7c0.9,1.6,1.7,3.3,2.3,4.9c0.3,0.8,0.6,1.6,0.8,2.4c0.1,0.4,0.2,0.7,0.3,1.1
		c0-0.1,0-0.1,0-0.2c0-0.5,0-1,0-1.6C129.3,179.1,129.1,177.6,128.8,176.1z"/>
	<path class="st0" d="M133.4,83c1.6-1.7,2.6-4.3,2.6-6.6c0-2.3-1.1-5-2.6-6.6c-1.7-1.7-4-2.5-7.5-2.5h-6.7v18.1h6.7
		C129.4,85.5,131.7,84.7,133.4,83z M122.1,83.1V69.7h3.6c2.5,0,3.7,0.3,4.9,1.3c1.5,1.3,2.4,3.3,2.4,5.4c0,2-0.9,4.2-2.4,5.4
		c-1.3,1-2.5,1.3-5.1,1.3H122.1z"/>
	<path class="st0" d="M194.6,76.4c0,5.5,4.2,9.4,10.1,9.4c5.8,0,10.1-3.9,10.1-9.4c0-5.4-4.2-9.4-10.1-9.4
		C198.8,67,194.6,71,194.6,76.4z M204.6,69.4c4,0,7,3,7,7s-3,7-7,7s-7-3-7-7S200.6,69.4,204.6,69.4z"/>
	<polygon class="st0" points="161.2,69.7 167.6,69.7 167.6,85.5 170.5,85.5 170.5,69.7 176.9,69.7 176.9,67.3 161.2,67.3 	"/>
	<polygon class="st0" points="25.5,77.6 32.4,77.6 32.4,75.2 25.5,75.2 25.5,69.7 33.8,69.7 33.8,67.3 22.6,67.3 22.6,85.5 
		25.5,85.5 	"/>
	<path class="st0" d="M140.4,85.5h2.9l2-5h7.8l2.1,5h2.8l-7.4-18.6h-2.8L140.4,85.5z M152.3,78.1h-6.2l3.1-8.1L152.3,78.1z"/>
	<path class="st0" d="M225.5,70.9c0.1,0.5,0.3,0.9,0.9,1.7l10.2,13.1h2.6V67.3h-2.6v14.6c-0.1-0.6-0.4-1.3-0.7-1.7l-10.2-12.9h-2.9
		v18.1h2.7V70.9z"/>
	<path class="st0" d="M67.5,67.3v10.7c0,3.6,0.7,5.5,2.6,6.6c1.4,0.8,3.4,1.4,5.2,1.4h0.1c1.7,0,3.8-0.6,5.1-1.4
		c1.9-1.1,2.7-3,2.7-6.6V67.3h-2.8v11.2c0,3.3-1.7,5-5,5s-5-1.7-5-5V67.3H67.5z"/>
	<path class="st0" d="M95.6,70.9c0.1,0.5,0.3,0.9,0.9,1.7l10.2,13.1h2.6V67.3h-2.6v14.6c-0.1-0.6-0.4-1.3-0.7-1.7L95.8,67.3h-2.9
		v18.1h2.7V70.9z"/>
	<path class="st0" d="M49.9,85.8c5.8,0,10.1-3.9,10.1-9.4c0-5.4-4.2-9.4-10.1-9.4c-5.8,0-10.1,4-10.1,9.4
		C39.8,81.9,44,85.8,49.9,85.8z M49.9,69.4c4,0,7,3,7,7s-3,7-7,7s-7-3-7-7S45.9,69.4,49.9,69.4z"/>
	<rect x="183.5" y="67.3" class="st0" width="2.9" height="18.1"/>
	<polygon class="st0" points="221.9,51.7 213.3,51.7 213.3,36 210.5,36 210.5,54.1 221.9,54.1 	"/>
	<path class="st0" d="M117.7,54.5c1.8,0,3.4-0.3,5.4-1.2l-0.8-2.1c-1.5,0.8-2.3,0.9-4,0.9c-2.7,0-4.3-0.6-5.7-1.9
		c-1.4-1.4-2.2-3.3-2.2-5.4c0-4,2.8-6.8,6.9-6.8c1.1,0,2.2,0.2,3,0.5c0.6,0.2,1,0.5,1.8,1.1l1.4-2.2c-2-1.2-3.8-1.7-6.1-1.7
		c-5.7,0-10.1,4-10.1,9.3C107.4,50.6,111.7,54.5,117.7,54.5z"/>
	<path class="st0" d="M156.1,45c0,5.5,4.2,9.4,10.1,9.4c5.8,0,10.1-3.9,10.1-9.4c0-5.4-4.2-9.4-10.1-9.4
		C160.3,35.6,156.1,39.6,156.1,45z M166.2,38.1c4,0,7,3,7,7s-3,7-7,7s-7-3-7-7S162.2,38.1,166.2,38.1z"/>
	<path class="st0" d="M192.2,54.5c5.8,0,10.1-3.9,10.1-9.4c0-5.4-4.3-9.4-10.1-9.4c-5.8,0-10.1,4-10.1,9.4
		C182.2,50.5,186.4,54.5,192.2,54.5z M192.2,38.1c4,0,7,3,7,7s-3,7-7,7c-4,0-7-3-7-7S188.3,38.1,192.2,38.1z"/>
	<path class="st0" d="M94.9,52.1c-1,0-2.1-0.2-3-0.6c-0.7-0.3-1.2-0.6-2.4-1.4l-1.3,2.5c1.3,0.8,1.8,1.1,2.6,1.4
		c1.1,0.4,2.4,0.6,3.7,0.6c4.1,0,6.6-1.9,6.6-5.2c0-2.2-1.1-3.5-4.5-5.2c-3.5-1.7-4.1-2-4.7-2.8c-0.2-0.2-0.2-0.6-0.2-0.9
		c0-1.4,1.4-2.2,3.7-2.2c0.8,0,1.6,0.1,2.5,0.4c0.9,0.3,1.3,0.5,2.3,1.1l1-2.4c-1.1-0.6-1.6-0.8-2.4-1.1c-1-0.3-2.2-0.5-3.4-0.5
		c-4,0-6.6,1.9-6.6,4.9c0,1.9,1.3,3.5,4,4.8l3.3,1.6c1.4,0.7,2,1.5,2,2.7C98.3,51.2,97,52.1,94.9,52.1z"/>
	<polygon class="st0" points="130.7,36 130.7,54.1 133.6,54.1 133.6,46 145.1,46 145.1,54.1 147.9,54.1 147.9,36 145.1,36 
		145.1,43.6 133.6,43.6 133.6,36 	"/>
	<path class="st0" d="M232.9,52.1c-1,0-2.1-0.2-3-0.6c-0.7-0.3-1.2-0.6-2.4-1.4l-1.3,2.5c1.3,0.8,1.8,1.1,2.6,1.4
		c1.1,0.4,2.4,0.6,3.7,0.6c4.1,0,6.6-1.9,6.6-5.2c0-2.2-1.1-3.5-4.5-5.2c-3.5-1.7-4.1-2-4.7-2.8c-0.2-0.2-0.2-0.6-0.2-0.9
		c0-1.4,1.4-2.2,3.7-2.2c0.8,0,1.6,0.1,2.5,0.4c0.9,0.3,1.3,0.5,2.3,1.1l1-2.4c-1.1-0.6-1.6-0.8-2.4-1.1c-1-0.3-2.2-0.5-3.4-0.5
		c-4,0-6.6,1.9-6.6,4.9c0,1.9,1.3,3.5,4,4.8l3.3,1.6c1.4,0.7,2,1.5,2,2.7C236.3,51.2,235,52.1,232.9,52.1z"/>
	<path class="st0" d="M25.2,8.2c0.1,0.5,0.3,0.9,0.9,1.7L36.4,23H39V4.6h-2.6v14.6c-0.1-0.6-0.4-1.3-0.7-1.7L25.5,4.6h-2.9v18.1h2.7
		V8.2z"/>
	<path class="st0" d="M124.8,23.1c5.8,0,10.1-3.9,10.1-9.4c0-5.4-4.2-9.4-10.1-9.4c-5.8,0-10.1,4-10.1,9.4
		C114.8,19.2,119,23.1,124.8,23.1z M124.8,6.7c4,0,7,3,7,7c0,4-3,7-7,7c-4,0-7-3-7-7C117.8,9.7,120.9,6.7,124.8,6.7z"/>
	<polygon class="st0" points="60.1,20.4 51.6,20.4 51.6,14.6 58.5,14.6 58.5,12.3 51.6,12.3 51.6,7 59.9,7 59.9,4.6 48.7,4.6 
		48.7,22.8 60.1,22.8 	"/>
	<path class="st0" d="M145.7,8.2c0.1,0.5,0.3,0.9,0.9,1.7L156.9,23h2.6V4.6h-2.6v14.6c-0.1-0.6-0.4-1.3-0.7-1.7L145.9,4.6h-2.9v18.1
		h2.7V8.2z"/>
	<polygon class="st0" points="74.2,23.1 77.7,14.9 81.5,23.1 83,23.1 90.6,4.6 87.8,4.6 82.3,18.7 79.2,11.8 82.3,4.6 79.6,4.6 
		78,8.9 76.1,4.6 73.4,4.6 76.5,12 73.7,18.7 68,4.6 64.8,4.6 72.8,23.1 	"/>
	<polygon class="st0" points="101.1,22.8 104,22.8 104,7 110.4,7 110.4,4.6 94.7,4.6 94.7,7 101.1,7 	"/>
</g>
<g>
	<path class="st0" d="M28,207.7h-4.1l-0.4,2.4h3.3l-0.2,1.6h-3.4l-0.4,2.6h4.2l-0.2,1.6h-6.1l1.5-9.8h6L28,207.7z"/>
	<path class="st0" d="M38.4,212.9c-1.1,2-2.9,3-5.4,3h-3.6l1.6-9.8h3.6c1.8,0,2.9,0.4,3.7,1.5c0.6,0.7,0.9,1.7,0.9,2.7
		C39.1,211.1,38.9,212,38.4,212.9z M34.1,207.7h-1.5l-1,6.5h1.5c2.4,0,4-1.6,4-4C37.1,208.4,36.2,207.7,34.1,207.7z"/>
	<path class="st0" d="M49.3,212c-0.3,1.9-0.7,2.6-1.9,3.3c-0.8,0.5-1.6,0.7-2.8,0.7c-2.3,0-3.6-1-3.6-2.7c0-0.4,0-0.9,0.1-1.3l0.9-6
		h1.9l-1,6.1c0,0.2-0.1,0.4-0.1,0.6c0,1.1,0.6,1.6,1.9,1.6c1.5,0,2.4-0.8,2.6-2.2l1-6h1.9L49.3,212z"/>
	<path class="st0" d="M59.6,208.2c-0.4-0.3-0.5-0.4-0.9-0.5c-0.4-0.1-0.8-0.2-1.3-0.2c-2.1,0-3.8,1.8-3.8,4.1c0,1.7,1.1,2.8,3,2.8
		c0.3,0,0.7,0,1-0.1c0.4-0.1,0.7-0.2,1.2-0.4l0.4,1.5c-0.7,0.3-1,0.5-1.6,0.6c-0.5,0.1-1,0.1-1.5,0.1c-2.8,0-4.5-1.6-4.5-4.3
		c0-0.9,0.2-1.8,0.6-2.6c0.4-0.7,0.9-1.4,1.5-1.9c1.1-0.9,2.3-1.3,3.8-1.3c0.8,0,1.4,0.1,2,0.3c0.4,0.1,0.6,0.3,1.1,0.6L59.6,208.2z
		"/>
	<path class="st0" d="M67.1,215.9l-0.4-2.4h-3.3l-1.2,2.4h-2l5.1-9.8H67l2,9.8H67.1z M65.8,208.3l-1.7,3.5h2.3L65.8,208.3z"/>
	<path class="st0" d="M77.9,207.7H75l-1.3,8.2h-1.9l1.3-8.2h-2.9l0.2-1.6h7.7L77.9,207.7z"/>
	<path class="st0" d="M86.1,207.7H82l-0.4,2.4h3.3l-0.2,1.6h-3.4l-0.4,2.6h4.2l-0.2,1.6h-6.1l1.5-9.8h6L86.1,207.7z"/>
	<path class="st0" d="M91.5,213.2c-1,0-1.7-0.8-1.7-1.7s0.8-1.7,1.7-1.7c1,0,1.7,0.8,1.7,1.7S92.5,213.2,91.5,213.2z"/>
	<path class="st0" d="M99.7,215.9h-1.9l1.5-9.8h1.9L99.7,215.9z"/>
	<path class="st0" d="M111.6,215.9h-2l-2.9-5.7c-0.1-0.2-0.2-0.5-0.3-0.7c-0.2-0.5-0.2-0.7-0.3-1.4l-0.2,1.8l-0.9,6.1h-1.8l1.5-9.8
		h2.1l2.9,6.1c0.1,0.2,0.2,0.4,0.3,0.6c0.1,0.4,0.1,0.5,0.2,1l0.2-2.1l0.9-5.7h1.8L111.6,215.9z"/>
	<path class="st0" d="M123.6,215.9h-2l-2.9-5.7c-0.1-0.2-0.2-0.5-0.3-0.7c-0.2-0.5-0.2-0.7-0.3-1.4l-0.2,1.8l-0.9,6.1h-1.8l1.5-9.8
		h2.1l2.9,6.1c0.1,0.2,0.2,0.4,0.3,0.6c0.1,0.4,0.1,0.5,0.2,1l0.2-2.1l0.9-5.7h1.8L123.6,215.9z"/>
	<path class="st0" d="M131.5,216c-2.7,0-4.5-1.7-4.5-4.3c0-0.3,0-0.5,0.1-0.8c0.5-3,2.8-5.1,5.9-5.1c2.8,0,4.5,1.6,4.5,4.3
		C137.5,213.4,134.8,216,131.5,216z M132.8,207.5c-2.1,0-3.9,1.9-3.9,4.3c0,1.6,1.1,2.7,2.6,2.7c2.1,0,3.9-1.9,3.9-4.3
		C135.5,208.6,134.4,207.5,132.8,207.5z"/>
	<path class="st0" d="M142.9,215.9h-1.5l-2-9.8h2l1.2,6.6c0,0,0,0.1,0,0.1c0,0.1,0,0.1,0,0.2v0v0.1c0-0.2,0-0.3,0.1-0.4l0.1-0.1
		l3.2-6.6h2L142.9,215.9z"/>
	<path class="st0" d="M153.3,215.9l-0.4-2.4h-3.3l-1.2,2.4h-2l5.1-9.8h1.7l2,9.8H153.3z M152.1,208.3l-1.7,3.5h2.3L152.1,208.3z"/>
	<path class="st0" d="M164.1,207.7h-2.9l-1.3,8.2H158l1.3-8.2h-2.9l0.2-1.6h7.7L164.1,207.7z"/>
	<path class="st0" d="M172.3,207.7h-4.1l-0.4,2.4h3.3l-0.2,1.6h-3.4l-0.4,2.6h4.2l-0.2,1.6H165l1.5-9.8h6L172.3,207.7z"/>
	<path class="st0" d="M177.7,213.2c-1,0-1.7-0.8-1.7-1.7s0.8-1.7,1.7-1.7s1.7,0.8,1.7,1.7S178.7,213.2,177.7,213.2z"/>
	<path class="st0" d="M186,215.9h-1.9l1.5-9.8h1.9L186,215.9z"/>
	<path class="st0" d="M197.9,215.9h-2l-2.9-5.7c-0.1-0.2-0.2-0.5-0.3-0.7c-0.2-0.5-0.2-0.7-0.3-1.4l-0.2,1.8l-0.9,6.1h-1.8l1.5-9.8
		h2.1l2.9,6.1c0.1,0.2,0.2,0.4,0.3,0.6c0.1,0.4,0.1,0.5,0.2,1l0.2-2.1l0.9-5.7h1.8L197.9,215.9z"/>
	<path class="st0" d="M208,208.2c-0.6-0.3-0.8-0.3-1.2-0.5c-0.4-0.1-0.8-0.2-1.2-0.2c-0.9,0-1.6,0.5-1.6,1.2c0,0.3,0.2,0.7,0.7,0.9
		l1.5,0.9c1.2,0.8,1.6,1.4,1.6,2.3c0,1.9-1.5,3.1-3.7,3.1c-0.6,0-1.4-0.1-2-0.3c-0.4-0.1-0.7-0.2-1.3-0.4l0.7-1.7
		c0.6,0.3,0.9,0.4,1.4,0.6c0.5,0.1,1,0.2,1.3,0.2c0.9,0,1.7-0.7,1.7-1.3c0-0.1,0-0.3-0.1-0.4c-0.1-0.2-0.3-0.4-0.5-0.5
		c-0.2-0.1-0.7-0.4-1.4-0.9c-1.4-0.9-1.9-1.5-1.9-2.4c0-1.7,1.6-3,3.7-3c0.4,0,0.9,0,1.3,0.1c0.7,0.1,1,0.2,1.7,0.4L208,208.2z"/>
	<path class="st0" d="M213.7,212.6c-0.5,0-0.9,0-1.3-0.1l-0.5,3.4H210l1.5-9.8h3.4c1.9,0,3,1,3,2.7
		C217.9,211.1,216.3,212.6,213.7,212.6z M214.5,207.7h-1.3l-0.5,3.3l0.2,0c0.3,0,0.5,0,0.7,0c0.9,0,1.3-0.1,1.7-0.5
		c0.4-0.3,0.6-0.9,0.6-1.6C215.9,208.1,215.4,207.7,214.5,207.7z"/>
	<path class="st0" d="M220.8,215.9h-1.9l1.5-9.8h1.9L220.8,215.9z"/>
	<path class="st0" d="M231.2,210.8c-0.4,0.5-0.8,0.7-1.7,0.9l1.9,4.2h-2.1l-1.6-3.9h-0.9l-0.6,3.9h-1.9l1.5-9.8h3.3
		c2.1,0,3.1,0.8,3.1,2.4C232,209.4,231.7,210.2,231.2,210.8z M229.7,207.9c-0.3-0.3-0.5-0.3-1.2-0.3h-1.2l-0.4,2.8h1.2
		c1.2,0,1.9-0.6,1.9-1.6C230,208.4,229.9,208.1,229.7,207.9z"/>
	<path class="st0" d="M240.8,207.7h-4.1l-0.4,2.4h3.3l-0.2,1.6h-3.4l-0.4,2.6h4.2l-0.2,1.6h-6.1l1.5-9.8h6L240.8,207.7z"/>
</g>
</svg>
