<?xml version="1.0" encoding="UTF-8" standalone="no"?>
<!-- Generator: Adobe Illustrator 16.0.0, SVG Export Plug-In . SVG Version: 6.00 Build 0)  -->

<svg
   xmlns:dc="http://purl.org/dc/elements/1.1/"
   xmlns:cc="http://creativecommons.org/ns#"
   xmlns:rdf="http://www.w3.org/1999/02/22-rdf-syntax-ns#"
   xmlns:svg="http://www.w3.org/2000/svg"
   xmlns="http://www.w3.org/2000/svg"
   xmlns:sodipodi="http://sodipodi.sourceforge.net/DTD/sodipodi-0.dtd"
   xmlns:inkscape="http://www.inkscape.org/namespaces/inkscape"
   version="1.1"
   id="Layer_1"
   x="0px"
   y="0px"
   width="294.19998"
   height="269.79999"
   viewBox="0 0 294.19999 269.79998"
   xml:space="preserve"
   inkscape:version="0.48.4 r9939"
   sodipodi:docname="NewtonSchoolsFoundation_CMYK_50the Anniversary logo white.svg"><metadata
     id="metadata3363"><rdf:RDF><cc:Work
         rdf:about=""><dc:format>image/svg+xml</dc:format><dc:type
           rdf:resource="http://purl.org/dc/dcmitype/StillImage" /><dc:title></dc:title></cc:Work></rdf:RDF></metadata><defs
     id="defs3361" /><sodipodi:namedview
     pagecolor="#ffffff"
     bordercolor="#666666"
     borderopacity="1"
     objecttolerance="10"
     gridtolerance="10"
     guidetolerance="10"
     inkscape:pageopacity="0"
     inkscape:pageshadow="2"
     inkscape:window-width="1920"
     inkscape:window-height="1028"
     id="namedview3359"
     showgrid="false"
     fit-margin-top="20"
     fit-margin-left="20"
     fit-margin-right="20"
     fit-margin-bottom="20"
     inkscape:zoom="1.1919192"
     inkscape:cx="101.08959"
     inkscape:cy="117.96561"
     inkscape:window-x="0"
     inkscape:window-y="0"
     inkscape:window-maximized="1"
     inkscape:current-layer="Layer_1" /><style
     type="text/css"
     id="style3195">
	.st0{fill:#FFFFFF;}
	.st1{fill:none;}
	.st2{fill:#0084A9;}
</style><g
     id="g3197"
     transform="translate(-158.9,-242.3)"><polygon
       class="st1"
       points="327.3,336.1 324.2,327.9 321.1,336.1 "
       id="polygon3199"
       style="fill:none" /><path
       class="st1"
       d="m 341.2,310.1 c 4,0 7,-3 7,-7 0,-4 -3,-7 -7,-7 -4,0 -7,3 -7,7 0,4 3,7 7,7 z"
       id="path3201"
       inkscape:connector-curvature="0"
       style="fill:none" /><path
       class="st1"
       d="m 379.6,341.4 c 4,0 7,-3 7,-7 0,-4 -3,-7 -7,-7 -4,0 -7,3 -7,7 0,4 3,7 7,7 z"
       id="path3203"
       inkscape:connector-curvature="0"
       style="fill:none" /><path
       class="st1"
       d="m 299.8,278.7 c 4,0 7,-3 7,-7 0,-4 -3,-7 -7,-7 -4,0 -7,3 -7,7 0,4 3.1,7 7,7 z"
       id="path3205"
       inkscape:connector-curvature="0"
       style="fill:none" /><path
       class="st1"
       d="m 367.2,310.1 c 4,0 7,-3 7,-7 0,-4 -3,-7 -7,-7 -4,0 -7,3 -7,7 0,4 3.1,7 7,7 z"
       id="path3207"
       inkscape:connector-curvature="0"
       style="fill:none" /><path
       class="st1"
       d="m 224.9,341.4 c 4,0 7,-3 7,-7 0,-4 -3,-7 -7,-7 -4,0 -7,3 -7,7 0,4 3,7 7,7 z"
       id="path3209"
       inkscape:connector-curvature="0"
       style="fill:none" /><path
       class="st1"
       d="m 308,334.4 c 0,-2.1 -0.9,-4.1 -2.4,-5.4 -1.1,-0.9 -2.3,-1.3 -4.9,-1.3 h -3.6 v 13.4 h 3.3 c 2.6,0 3.9,-0.3 5.1,-1.3 1.5,-1.2 2.5,-3.4 2.5,-5.4 z"
       id="path3211"
       inkscape:connector-curvature="0"
       style="fill:none" /><path
       class="st2"
       d="m 309.2,412.4 c 12.3,-24.3 54,-42.6 103.9,-43.2 2.3,0 4.7,0 7,0 l -4.6,-8 c -55,0.9 -100,23.2 -106.3,51.2 z"
       id="path3213"
       inkscape:connector-curvature="0"
       style="fill:#0084a9" /><path
       class="st2"
       d="m 308.7,422.9 c -0.2,1 -0.4,2.1 -0.5,3.1 0.2,-0.6 0.5,-1.2 0.7,-1.7 11.3,-25.1 54,-43.9 105.2,-44.1 4.2,0 8.4,0.1 12.6,0.3 l -4.7,-8.2 c -1.9,0 -3.9,-0.1 -5.8,-0.1 -55.7,0.3 -101.3,22.4 -107.5,50.7 z"
       id="path3215"
       inkscape:connector-curvature="0"
       style="fill:#0084a9" /><path
       class="st2"
       d="m 428.4,383.6 c -4.1,-0.2 -8.2,-0.4 -12.4,-0.4 -52.3,0 -95.9,19.5 -106.1,45.4 -0.7,1.8 -1.3,3.6 -1.6,5.5 -0.3,1.5 -0.5,3 -0.6,4.5 0,0.5 0,1 0,1.6 0,0.1 0,0.1 0,0.2 0.1,-0.4 0.2,-0.7 0.3,-1.1 0.2,-0.8 0.5,-1.6 0.8,-2.4 0.6,-1.7 1.4,-3.3 2.3,-4.9 13.3,-23.5 54.7,-40.7 103.8,-40.7 6.2,0 12.3,0.3 18.2,0.8 l -4.7,-8.5 z"
       id="path3217"
       inkscape:connector-curvature="0"
       style="fill:#0084a9" /><path
       class="st2"
       d="m 199,369.2 c 49.9,0.7 91.6,18.9 103.9,43.2 -6.3,-28.1 -51.3,-50.3 -106.3,-51.2 l -4.6,8 c 2.3,0 4.6,0 7,0 z"
       id="path3219"
       inkscape:connector-curvature="0"
       style="fill:#0084a9" /><path
       class="st2"
       d="m 303.2,424.3 c 0.3,0.6 0.5,1.2 0.7,1.7 -0.1,-1.1 -0.3,-2.1 -0.5,-3.1 -6.2,-28.3 -51.8,-50.4 -107.3,-50.7 -2,0 -3.9,0 -5.8,0.1 l -4.7,8.2 c 4.1,-0.2 8.3,-0.3 12.6,-0.3 51,0.2 93.7,19 105,44.1 z"
       id="path3221"
       inkscape:connector-curvature="0"
       style="fill:#0084a9" /><path
       class="st2"
       d="m 303.8,434.1 c -0.4,-1.9 -0.9,-3.7 -1.6,-5.5 -10.1,-25.9 -53.8,-45.4 -106.1,-45.4 -4.2,0 -8.3,0.1 -12.4,0.4 l -4.8,8.4 c 5.9,-0.5 12,-0.8 18.2,-0.8 49.1,0 90.6,17.2 103.8,40.7 0.9,1.6 1.7,3.3 2.3,4.9 0.3,0.8 0.6,1.6 0.8,2.4 0.1,0.4 0.2,0.7 0.3,1.1 0,-0.1 0,-0.1 0,-0.2 0,-0.5 0,-1 0,-1.6 0,-1.4 -0.2,-2.9 -0.5,-4.4 z"
       id="path3223"
       inkscape:connector-curvature="0"
       style="fill:#0084a9" /><path
       class="st0"
       d="m 308.4,341 c 1.6,-1.7 2.6,-4.3 2.6,-6.6 0,-2.3 -1.1,-5 -2.6,-6.6 -1.7,-1.7 -4,-2.5 -7.5,-2.5 h -6.7 v 18.1 h 6.7 c 3.5,0.1 5.8,-0.7 7.5,-2.4 z m -11.3,0.1 v -13.4 h 3.6 c 2.5,0 3.7,0.3 4.9,1.3 1.5,1.3 2.4,3.3 2.4,5.4 0,2 -0.9,4.2 -2.4,5.4 -1.3,1 -2.5,1.3 -5.1,1.3 h -3.4 z"
       id="path3225"
       inkscape:connector-curvature="0"
       style="fill:#ffffff" /><path
       class="st0"
       d="m 369.6,334.4 c 0,5.5 4.2,9.4 10.1,9.4 5.8,0 10.1,-3.9 10.1,-9.4 0,-5.4 -4.2,-9.4 -10.1,-9.4 -5.9,0 -10.1,4 -10.1,9.4 z m 10,-7 c 4,0 7,3 7,7 0,4 -3,7 -7,7 -4,0 -7,-3 -7,-7 0,-4 3,-7 7,-7 z"
       id="path3227"
       inkscape:connector-curvature="0"
       style="fill:#ffffff" /><polygon
       class="st0"
       points="342.6,327.7 342.6,343.5 345.5,343.5 345.5,327.7 351.9,327.7 351.9,325.3 336.2,325.3 336.2,327.7 "
       id="polygon3229"
       style="fill:#ffffff" /><polygon
       class="st0"
       points="200.5,343.5 200.5,335.6 207.4,335.6 207.4,333.2 200.5,333.2 200.5,327.7 208.8,327.7 208.8,325.3 197.6,325.3 197.6,343.5 "
       id="polygon3231"
       style="fill:#ffffff" /><path
       class="st0"
       d="m 315.4,343.5 h 2.9 l 2,-5 h 7.8 l 2.1,5 h 2.8 l -7.4,-18.6 h -2.8 l -7.4,18.6 z m 11.9,-7.4 h -6.2 l 3.1,-8.1 3.1,8.1 z"
       id="path3233"
       inkscape:connector-curvature="0"
       style="fill:#ffffff" /><path
       class="st0"
       d="m 400.5,328.9 c 0.1,0.5 0.3,0.9 0.9,1.7 l 10.2,13.1 h 2.6 v -18.4 h -2.6 v 14.6 c -0.1,-0.6 -0.4,-1.3 -0.7,-1.7 l -10.2,-12.9 h -2.9 v 18.1 h 2.7 v -14.5 z"
       id="path3235"
       inkscape:connector-curvature="0"
       style="fill:#ffffff" /><path
       class="st0"
       d="M 242.5,325.3 V 336 c 0,3.6 0.7,5.5 2.6,6.6 1.4,0.8 3.4,1.4 5.2,1.4 h 0.1 c 1.7,0 3.8,-0.6 5.1,-1.4 1.9,-1.1 2.7,-3 2.7,-6.6 v -10.7 h -2.8 v 11.2 c 0,3.3 -1.7,5 -5,5 -3.3,0 -5,-1.7 -5,-5 v -11.2 h -2.9 z"
       id="path3237"
       inkscape:connector-curvature="0"
       style="fill:#ffffff" /><path
       class="st0"
       d="m 270.6,328.9 c 0.1,0.5 0.3,0.9 0.9,1.7 l 10.2,13.1 h 2.6 v -18.4 h -2.6 v 14.6 c -0.1,-0.6 -0.4,-1.3 -0.7,-1.7 l -10.2,-12.9 h -2.9 v 18.1 h 2.7 v -14.5 z"
       id="path3239"
       inkscape:connector-curvature="0"
       style="fill:#ffffff" /><path
       class="st0"
       d="m 224.9,343.8 c 5.8,0 10.1,-3.9 10.1,-9.4 0,-5.4 -4.2,-9.4 -10.1,-9.4 -5.8,0 -10.1,4 -10.1,9.4 0,5.5 4.2,9.4 10.1,9.4 z m 0,-16.4 c 4,0 7,3 7,7 0,4 -3,7 -7,7 -4,0 -7,-3 -7,-7 0,-4 3,-7 7,-7 z"
       id="path3241"
       inkscape:connector-curvature="0"
       style="fill:#ffffff" /><rect
       x="358.5"
       y="325.29999"
       class="st0"
       width="2.9000001"
       height="18.1"
       id="rect3243"
       style="fill:#ffffff" /><polygon
       class="st0"
       points="385.5,294 385.5,312.1 396.9,312.1 396.9,309.7 388.3,309.7 388.3,294 "
       id="polygon3245"
       style="fill:#ffffff" /><path
       class="st0"
       d="m 292.7,312.5 c 1.8,0 3.4,-0.3 5.4,-1.2 l -0.8,-2.1 c -1.5,0.8 -2.3,0.9 -4,0.9 -2.7,0 -4.3,-0.6 -5.7,-1.9 -1.4,-1.4 -2.2,-3.3 -2.2,-5.4 0,-4 2.8,-6.8 6.9,-6.8 1.1,0 2.2,0.2 3,0.5 0.6,0.2 1,0.5 1.8,1.1 l 1.4,-2.2 c -2,-1.2 -3.8,-1.7 -6.1,-1.7 -5.7,0 -10.1,4 -10.1,9.3 0.1,5.6 4.4,9.5 10.4,9.5 z"
       id="path3247"
       inkscape:connector-curvature="0"
       style="fill:#ffffff" /><path
       class="st0"
       d="m 331.1,303 c 0,5.5 4.2,9.4 10.1,9.4 5.8,0 10.1,-3.9 10.1,-9.4 0,-5.4 -4.2,-9.4 -10.1,-9.4 -5.9,0 -10.1,4 -10.1,9.4 z m 10.1,-6.9 c 4,0 7,3 7,7 0,4 -3,7 -7,7 -4,0 -7,-3 -7,-7 0,-4 3,-7 7,-7 z"
       id="path3249"
       inkscape:connector-curvature="0"
       style="fill:#ffffff" /><path
       class="st0"
       d="m 367.2,312.5 c 5.8,0 10.1,-3.9 10.1,-9.4 0,-5.4 -4.3,-9.4 -10.1,-9.4 -5.8,0 -10.1,4 -10.1,9.4 0.1,5.4 4.3,9.4 10.1,9.4 z m 0,-16.4 c 4,0 7,3 7,7 0,4 -3,7 -7,7 -4,0 -7,-3 -7,-7 0,-4 3.1,-7 7,-7 z"
       id="path3251"
       inkscape:connector-curvature="0"
       style="fill:#ffffff" /><path
       class="st0"
       d="m 269.9,310.1 c -1,0 -2.1,-0.2 -3,-0.6 -0.7,-0.3 -1.2,-0.6 -2.4,-1.4 l -1.3,2.5 c 1.3,0.8 1.8,1.1 2.6,1.4 1.1,0.4 2.4,0.6 3.7,0.6 4.1,0 6.6,-1.9 6.6,-5.2 0,-2.2 -1.1,-3.5 -4.5,-5.2 -3.5,-1.7 -4.1,-2 -4.7,-2.8 -0.2,-0.2 -0.2,-0.6 -0.2,-0.9 0,-1.4 1.4,-2.2 3.7,-2.2 0.8,0 1.6,0.1 2.5,0.4 0.9,0.3 1.3,0.5 2.3,1.1 l 1,-2.4 c -1.1,-0.6 -1.6,-0.8 -2.4,-1.1 -1,-0.3 -2.2,-0.5 -3.4,-0.5 -4,0 -6.6,1.9 -6.6,4.9 0,1.9 1.3,3.5 4,4.8 l 3.3,1.6 c 1.4,0.7 2,1.5 2,2.7 0.2,1.4 -1.1,2.3 -3.2,2.3 z"
       id="path3253"
       inkscape:connector-curvature="0"
       style="fill:#ffffff" /><polygon
       class="st0"
       points="320.1,301.6 308.6,301.6 308.6,294 305.7,294 305.7,312.1 308.6,312.1 308.6,304 320.1,304 320.1,312.1 322.9,312.1 322.9,294 320.1,294 "
       id="polygon3255"
       style="fill:#ffffff" /><path
       class="st0"
       d="m 407.9,310.1 c -1,0 -2.1,-0.2 -3,-0.6 -0.7,-0.3 -1.2,-0.6 -2.4,-1.4 l -1.3,2.5 c 1.3,0.8 1.8,1.1 2.6,1.4 1.1,0.4 2.4,0.6 3.7,0.6 4.1,0 6.6,-1.9 6.6,-5.2 0,-2.2 -1.1,-3.5 -4.5,-5.2 -3.5,-1.7 -4.1,-2 -4.7,-2.8 -0.2,-0.2 -0.2,-0.6 -0.2,-0.9 0,-1.4 1.4,-2.2 3.7,-2.2 0.8,0 1.6,0.1 2.5,0.4 0.9,0.3 1.3,0.5 2.3,1.1 l 1,-2.4 c -1.1,-0.6 -1.6,-0.8 -2.4,-1.1 -1,-0.3 -2.2,-0.5 -3.4,-0.5 -4,0 -6.6,1.9 -6.6,4.9 0,1.9 1.3,3.5 4,4.8 l 3.3,1.6 c 1.4,0.7 2,1.5 2,2.7 0.2,1.4 -1.1,2.3 -3.2,2.3 z"
       id="path3257"
       inkscape:connector-curvature="0"
       style="fill:#ffffff" /><path
       class="st0"
       d="m 200.2,266.2 c 0.1,0.5 0.3,0.9 0.9,1.7 l 10.2,13.1 h 2.6 v -18.4 h -2.6 v 14.6 c -0.1,-0.6 -0.4,-1.3 -0.7,-1.7 l -10.2,-12.9 h -2.9 v 18.1 h 2.7 v -14.5 z"
       id="path3259"
       inkscape:connector-curvature="0"
       style="fill:#ffffff" /><path
       class="st0"
       d="m 299.8,281.1 c 5.8,0 10.1,-3.9 10.1,-9.4 0,-5.4 -4.2,-9.4 -10.1,-9.4 -5.8,0 -10.1,4 -10.1,9.4 0.1,5.5 4.3,9.4 10.1,9.4 z m 0,-16.4 c 4,0 7,3 7,7 0,4 -3,7 -7,7 -4,0 -7,-3 -7,-7 0,-4 3.1,-7 7,-7 z"
       id="path3261"
       inkscape:connector-curvature="0"
       style="fill:#ffffff" /><polygon
       class="st0"
       points="223.7,262.6 223.7,280.8 235.1,280.8 235.1,278.4 226.6,278.4 226.6,272.6 233.5,272.6 233.5,270.3 226.6,270.3 226.6,265 234.9,265 234.9,262.6 "
       id="polygon3263"
       style="fill:#ffffff" /><path
       class="st0"
       d="m 320.7,266.2 c 0.1,0.5 0.3,0.9 0.9,1.7 l 10.2,13.1 h 2.6 v -18.4 h -2.6 v 14.6 c -0.1,-0.6 -0.4,-1.3 -0.7,-1.7 L 320.9,262.6 H 318 v 18.1 h 2.7 v -14.5 z"
       id="path3265"
       inkscape:connector-curvature="0"
       style="fill:#ffffff" /><polygon
       class="st0"
       points="254.6,262.6 253,266.9 251.1,262.6 248.4,262.6 251.5,270 248.7,276.7 243,262.6 239.8,262.6 247.8,281.1 249.2,281.1 252.7,272.9 256.5,281.1 258,281.1 265.6,262.6 262.8,262.6 257.3,276.7 254.2,269.8 257.3,262.6 "
       id="polygon3267"
       style="fill:#ffffff" /><polygon
       class="st0"
       points="279,280.8 279,265 285.4,265 285.4,262.6 269.7,262.6 269.7,265 276.1,265 276.1,280.8 "
       id="polygon3269"
       style="fill:#ffffff" /></g><g
     id="g3271"
     transform="translate(-158.9,-242.3)"><path
       class="st0"
       d="m 203,483.7 h -4.1 l -0.4,2.4 h 3.3 l -0.2,1.6 h -3.4 l -0.4,2.6 h 4.2 l -0.2,1.6 h -6.1 l 1.5,-9.8 h 6 l -0.2,1.6 z"
       id="path3273"
       inkscape:connector-curvature="0"
       style="fill:#ffffff" /><path
       class="st0"
       d="m 213.4,488.9 c -1.1,2 -2.9,3 -5.4,3 h -3.6 l 1.6,-9.8 h 3.6 c 1.8,0 2.9,0.4 3.7,1.5 0.6,0.7 0.9,1.7 0.9,2.7 -0.1,0.8 -0.3,1.7 -0.8,2.6 z m -4.3,-5.2 h -1.5 l -1,6.5 h 1.5 c 2.4,0 4,-1.6 4,-4 0,-1.8 -0.9,-2.5 -3,-2.5 z"
       id="path3275"
       inkscape:connector-curvature="0"
       style="fill:#ffffff" /><path
       class="st0"
       d="m 224.3,488 c -0.3,1.9 -0.7,2.6 -1.9,3.3 -0.8,0.5 -1.6,0.7 -2.8,0.7 -2.3,0 -3.6,-1 -3.6,-2.7 0,-0.4 0,-0.9 0.1,-1.3 l 0.9,-6 h 1.9 l -1,6.1 c 0,0.2 -0.1,0.4 -0.1,0.6 0,1.1 0.6,1.6 1.9,1.6 1.5,0 2.4,-0.8 2.6,-2.2 l 1,-6 h 1.9 l -0.9,5.9 z"
       id="path3277"
       inkscape:connector-curvature="0"
       style="fill:#ffffff" /><path
       class="st0"
       d="m 234.6,484.2 c -0.4,-0.3 -0.5,-0.4 -0.9,-0.5 -0.4,-0.1 -0.8,-0.2 -1.3,-0.2 -2.1,0 -3.8,1.8 -3.8,4.1 0,1.7 1.1,2.8 3,2.8 0.3,0 0.7,0 1,-0.1 0.4,-0.1 0.7,-0.2 1.2,-0.4 l 0.4,1.5 c -0.7,0.3 -1,0.5 -1.6,0.6 -0.5,0.1 -1,0.1 -1.5,0.1 -2.8,0 -4.5,-1.6 -4.5,-4.3 0,-0.9 0.2,-1.8 0.6,-2.6 0.4,-0.7 0.9,-1.4 1.5,-1.9 1.1,-0.9 2.3,-1.3 3.8,-1.3 0.8,0 1.4,0.1 2,0.3 0.4,0.1 0.6,0.3 1.1,0.6 l -1,1.3 z"
       id="path3279"
       inkscape:connector-curvature="0"
       style="fill:#ffffff" /><path
       class="st0"
       d="m 242.1,491.9 -0.4,-2.4 h -3.3 l -1.2,2.4 h -2 l 5.1,-9.8 h 1.7 l 2,9.8 h -1.9 z m -1.3,-7.6 -1.7,3.5 h 2.3 l -0.6,-3.5 z"
       id="path3281"
       inkscape:connector-curvature="0"
       style="fill:#ffffff" /><path
       class="st0"
       d="M 252.9,483.7 H 250 l -1.3,8.2 h -1.9 l 1.3,-8.2 h -2.9 l 0.2,-1.6 h 7.7 l -0.2,1.6 z"
       id="path3283"
       inkscape:connector-curvature="0"
       style="fill:#ffffff" /><path
       class="st0"
       d="M 261.1,483.7 H 257 l -0.4,2.4 h 3.3 l -0.2,1.6 h -3.4 l -0.4,2.6 h 4.2 l -0.2,1.6 h -6.1 l 1.5,-9.8 h 6 l -0.2,1.6 z"
       id="path3285"
       inkscape:connector-curvature="0"
       style="fill:#ffffff" /><path
       class="st0"
       d="m 266.5,489.2 c -1,0 -1.7,-0.8 -1.7,-1.7 0,-0.9 0.8,-1.7 1.7,-1.7 1,0 1.7,0.8 1.7,1.7 0,0.9 -0.7,1.7 -1.7,1.7 z"
       id="path3287"
       inkscape:connector-curvature="0"
       style="fill:#ffffff" /><path
       class="st0"
       d="m 274.7,491.9 h -1.9 l 1.5,-9.8 h 1.9 l -1.5,9.8 z"
       id="path3289"
       inkscape:connector-curvature="0"
       style="fill:#ffffff" /><path
       class="st0"
       d="m 286.6,491.9 h -2 l -2.9,-5.7 c -0.1,-0.2 -0.2,-0.5 -0.3,-0.7 -0.2,-0.5 -0.2,-0.7 -0.3,-1.4 l -0.2,1.8 -0.9,6.1 h -1.8 l 1.5,-9.8 h 2.1 l 2.9,6.1 c 0.1,0.2 0.2,0.4 0.3,0.6 0.1,0.4 0.1,0.5 0.2,1 l 0.2,-2.1 0.9,-5.7 h 1.8 l -1.5,9.8 z"
       id="path3291"
       inkscape:connector-curvature="0"
       style="fill:#ffffff" /><path
       class="st0"
       d="m 298.6,491.9 h -2 l -2.9,-5.7 c -0.1,-0.2 -0.2,-0.5 -0.3,-0.7 -0.2,-0.5 -0.2,-0.7 -0.3,-1.4 l -0.2,1.8 -0.9,6.1 h -1.8 l 1.5,-9.8 h 2.1 l 2.9,6.1 c 0.1,0.2 0.2,0.4 0.3,0.6 0.1,0.4 0.1,0.5 0.2,1 l 0.2,-2.1 0.9,-5.7 h 1.8 l -1.5,9.8 z"
       id="path3293"
       inkscape:connector-curvature="0"
       style="fill:#ffffff" /><path
       class="st0"
       d="m 306.5,492 c -2.7,0 -4.5,-1.7 -4.5,-4.3 0,-0.3 0,-0.5 0.1,-0.8 0.5,-3 2.8,-5.1 5.9,-5.1 2.8,0 4.5,1.6 4.5,4.3 0,3.3 -2.7,5.9 -6,5.9 z m 1.3,-8.5 c -2.1,0 -3.9,1.9 -3.9,4.3 0,1.6 1.1,2.7 2.6,2.7 2.1,0 3.9,-1.9 3.9,-4.3 0.1,-1.6 -1,-2.7 -2.6,-2.7 z"
       id="path3295"
       inkscape:connector-curvature="0"
       style="fill:#ffffff" /><path
       class="st0"
       d="m 317.9,491.9 h -1.5 l -2,-9.8 h 2 l 1.2,6.6 c 0,0 0,0.1 0,0.1 0,0.1 0,0.1 0,0.2 v 0 0.1 c 0,-0.2 0,-0.3 0.1,-0.4 l 0.1,-0.1 3.2,-6.6 h 2 l -5.1,9.9 z"
       id="path3297"
       inkscape:connector-curvature="0"
       style="fill:#ffffff" /><path
       class="st0"
       d="m 328.3,491.9 -0.4,-2.4 h -3.3 l -1.2,2.4 h -2 l 5.1,-9.8 h 1.7 l 2,9.8 h -1.9 z m -1.2,-7.6 -1.7,3.5 h 2.3 l -0.6,-3.5 z"
       id="path3299"
       inkscape:connector-curvature="0"
       style="fill:#ffffff" /><path
       class="st0"
       d="m 339.1,483.7 h -2.9 l -1.3,8.2 H 333 l 1.3,-8.2 h -2.9 l 0.2,-1.6 h 7.7 l -0.2,1.6 z"
       id="path3301"
       inkscape:connector-curvature="0"
       style="fill:#ffffff" /><path
       class="st0"
       d="m 347.3,483.7 h -4.1 l -0.4,2.4 h 3.3 l -0.2,1.6 h -3.4 l -0.4,2.6 h 4.2 l -0.2,1.6 H 340 l 1.5,-9.8 h 6 l -0.2,1.6 z"
       id="path3303"
       inkscape:connector-curvature="0"
       style="fill:#ffffff" /><path
       class="st0"
       d="m 352.7,489.2 c -1,0 -1.7,-0.8 -1.7,-1.7 0,-0.9 0.8,-1.7 1.7,-1.7 0.9,0 1.7,0.8 1.7,1.7 0,0.9 -0.7,1.7 -1.7,1.7 z"
       id="path3305"
       inkscape:connector-curvature="0"
       style="fill:#ffffff" /><path
       class="st0"
       d="m 361,491.9 h -1.9 l 1.5,-9.8 h 1.9 l -1.5,9.8 z"
       id="path3307"
       inkscape:connector-curvature="0"
       style="fill:#ffffff" /><path
       class="st0"
       d="m 372.9,491.9 h -2 l -2.9,-5.7 c -0.1,-0.2 -0.2,-0.5 -0.3,-0.7 -0.2,-0.5 -0.2,-0.7 -0.3,-1.4 l -0.2,1.8 -0.9,6.1 h -1.8 l 1.5,-9.8 h 2.1 l 2.9,6.1 c 0.1,0.2 0.2,0.4 0.3,0.6 0.1,0.4 0.1,0.5 0.2,1 l 0.2,-2.1 0.9,-5.7 h 1.8 l -1.5,9.8 z"
       id="path3309"
       inkscape:connector-curvature="0"
       style="fill:#ffffff" /><path
       class="st0"
       d="m 383,484.2 c -0.6,-0.3 -0.8,-0.3 -1.2,-0.5 -0.4,-0.1 -0.8,-0.2 -1.2,-0.2 -0.9,0 -1.6,0.5 -1.6,1.2 0,0.3 0.2,0.7 0.7,0.9 l 1.5,0.9 c 1.2,0.8 1.6,1.4 1.6,2.3 0,1.9 -1.5,3.1 -3.7,3.1 -0.6,0 -1.4,-0.1 -2,-0.3 -0.4,-0.1 -0.7,-0.2 -1.3,-0.4 l 0.7,-1.7 c 0.6,0.3 0.9,0.4 1.4,0.6 0.5,0.1 1,0.2 1.3,0.2 0.9,0 1.7,-0.7 1.7,-1.3 0,-0.1 0,-0.3 -0.1,-0.4 -0.1,-0.2 -0.3,-0.4 -0.5,-0.5 -0.2,-0.1 -0.7,-0.4 -1.4,-0.9 -1.4,-0.9 -1.9,-1.5 -1.9,-2.4 0,-1.7 1.6,-3 3.7,-3 0.4,0 0.9,0 1.3,0.1 0.7,0.1 1,0.2 1.7,0.4 l -0.7,1.9 z"
       id="path3311"
       inkscape:connector-curvature="0"
       style="fill:#ffffff" /><path
       class="st0"
       d="m 388.7,488.6 c -0.5,0 -0.9,0 -1.3,-0.1 l -0.5,3.4 H 385 l 1.5,-9.8 h 3.4 c 1.9,0 3,1 3,2.7 0,2.3 -1.6,3.8 -4.2,3.8 z m 0.8,-4.9 h -1.3 l -0.5,3.3 0.2,0 c 0.3,0 0.5,0 0.7,0 0.9,0 1.3,-0.1 1.7,-0.5 0.4,-0.3 0.6,-0.9 0.6,-1.6 0,-0.8 -0.5,-1.2 -1.4,-1.2 z"
       id="path3313"
       inkscape:connector-curvature="0"
       style="fill:#ffffff" /><path
       class="st0"
       d="m 395.8,491.9 h -1.9 l 1.5,-9.8 h 1.9 l -1.5,9.8 z"
       id="path3315"
       inkscape:connector-curvature="0"
       style="fill:#ffffff" /><path
       class="st0"
       d="m 406.2,486.8 c -0.4,0.5 -0.8,0.7 -1.7,0.9 l 1.9,4.2 h -2.1 l -1.6,-3.9 h -0.9 l -0.6,3.9 h -1.9 l 1.5,-9.8 h 3.3 c 2.1,0 3.1,0.8 3.1,2.4 -0.2,0.9 -0.5,1.7 -1,2.3 z m -1.5,-2.9 c -0.3,-0.3 -0.5,-0.3 -1.2,-0.3 h -1.2 l -0.4,2.8 h 1.2 c 1.2,0 1.9,-0.6 1.9,-1.6 0,-0.4 -0.1,-0.7 -0.3,-0.9 z"
       id="path3317"
       inkscape:connector-curvature="0"
       style="fill:#ffffff" /><path
       class="st0"
       d="m 415.8,483.7 h -4.1 l -0.4,2.4 h 3.3 l -0.2,1.6 H 411 l -0.4,2.6 h 4.2 l -0.2,1.6 h -6.1 l 1.5,-9.8 h 6 l -0.2,1.6 z"
       id="path3319"
       inkscape:connector-curvature="0"
       style="fill:#ffffff" /></g><g
     id="g3321"
     transform="translate(-158.9,-242.3)"><g
       id="g3323"><path
         class="st2"
         d="m 201.5,465.6 c -1,0 -2,-0.1 -3,-0.3 -1.5,-0.3 -2.3,-0.5 -4.2,-1.3 l 1.6,-4.3 c 2.2,1.1 3.4,1.4 4.9,1.4 2.7,0 4.8,-2.1 4.8,-4.9 0,-3.9 -2.5,-5.3 -9.4,-5.3 h -0.3 V 437 H 210 v 4.2 h -9 v 5.6 c 2.1,0 3,0.2 4.4,0.6 3.6,1.2 5.6,4.1 5.6,8.1 0,5.8 -4.1,10.1 -9.5,10.1 z"
         id="path3325"
         inkscape:connector-curvature="0"
         style="fill:#0084a9" /><path
         class="st2"
         d="m 227.8,465.7 c -5.6,0 -9.7,-6.2 -9.7,-14.8 0,-8.6 4.1,-14.8 9.7,-14.8 5.6,0 9.7,6.2 9.7,14.8 0,8.6 -4,14.8 -9.7,14.8 z m 0,-24.8 c -2.3,0 -4.2,4.5 -4.2,10 0,5.6 1.9,10.1 4.2,10.1 2.3,0 4.2,-4.5 4.2,-10.1 0,-5.6 -1.8,-10 -4.2,-10 z"
         id="path3327"
         inkscape:connector-curvature="0"
         style="fill:#0084a9" /></g><g
       id="g3329"><path
         class="st2"
         d="m 258.4,467 -1.1,-3.6 h -4.9 l -1.2,3.6 h -2.9 l 5.3,-14.6 h 2.5 l 5.3,14.6 h -3 z m -3.6,-11.2 -1.7,5.3 h 3.4 l -1.7,-5.3 z"
         id="path3331"
         inkscape:connector-curvature="0"
         style="fill:#0084a9" /><path
         class="st2"
         d="m 275.9,467.1 -6.2,-9.4 c 0,-0.1 -0.1,-0.3 -0.3,-0.6 -0.1,-0.2 -0.2,-0.3 -0.2,-0.3 -0.1,-0.2 -0.1,-0.3 -0.2,-0.5 V 467 h -2.6 v -14.6 h 3.2 l 6.1,9.6 c 0,0 0.1,0.2 0.2,0.3 0.1,0.2 0.1,0.2 0.1,0.3 l 0.1,0.4 0.1,0.3 v -10.8 h 2.6 v 14.7 h -2.9 z"
         id="path3333"
         inkscape:connector-curvature="0"
         style="fill:#0084a9" /><path
         class="st2"
         d="m 295.5,467.1 -6.2,-9.4 c 0,-0.1 -0.1,-0.3 -0.3,-0.6 -0.1,-0.2 -0.2,-0.3 -0.2,-0.3 -0.1,-0.2 -0.1,-0.3 -0.2,-0.5 V 467 H 286 v -14.6 h 3.2 l 6.1,9.6 c 0,0 0.1,0.2 0.2,0.3 0.1,0.2 0.1,0.2 0.1,0.3 l 0.1,0.4 0.1,0.3 v -10.8 h 2.6 v 14.7 h -2.9 z"
         id="path3335"
         inkscape:connector-curvature="0"
         style="fill:#0084a9" /><path
         class="st2"
         d="m 305.4,467 v -14.6 h 2.8 V 467 h -2.8 z"
         id="path3337"
         inkscape:connector-curvature="0"
         style="fill:#0084a9" /><path
         class="st2"
         d="m 320.3,467.4 h -1.9 l -5.4,-15 h 3 l 3.3,9.8 0,0.2 0,0.2 0.1,0.3 0,-0.2 c 0,-0.2 0,-0.3 0.1,-0.4 l 0.1,-0.2 3.2,-9.8 h 2.9 l -5.4,15.1 z"
         id="path3339"
         inkscape:connector-curvature="0"
         style="fill:#0084a9" /><path
         class="st2"
         d="m 330.6,467 v -14.6 h 8.9 v 2.4 h -6.1 v 3.6 h 5 v 2.4 h -5 v 3.9 h 6.4 v 2.4 h -9.2 z"
         id="path3341"
         inkscape:connector-curvature="0"
         style="fill:#0084a9" /><path
         class="st2"
         d="m 352.9,467 -3.3,-5.8 h -1.4 v 5.8 h -2.8 v -14.6 h 4.9 c 2.1,0 3.1,0.3 3.9,1.1 0.8,0.7 1.2,1.8 1.2,3.2 0,1.1 -0.3,2 -0.8,2.7 -0.6,0.7 -1.1,1 -2.3,1.3 l 3.6,6.2 h -3 z M 350,454.8 h -1.8 v 4 h 1.8 c 1.8,0 2.5,-0.6 2.5,-2.1 0,-1.4 -0.7,-1.9 -2.5,-1.9 z"
         id="path3343"
         inkscape:connector-curvature="0"
         style="fill:#0084a9" /><path
         class="st2"
         d="m 369.2,455.9 c -1.5,-0.7 -2.8,-1 -3.8,-1 -1.3,0 -2.1,0.5 -2.1,1.3 0,0.6 0.4,1 1.4,1.5 2.2,1.2 3.7,2.1 4.4,2.8 0.6,0.6 1,1.6 1,2.6 0,2.6 -1.9,4.1 -5.1,4.1 -2.1,0 -3.4,-0.6 -5.3,-1.5 l 1.2,-2.6 c 1.3,0.7 2.6,1.4 4.2,1.4 1.3,0 2.1,-0.6 2.1,-1.5 0,-0.6 -0.3,-1 -1.3,-1.6 l -2.3,-1.3 c -2.6,-1.5 -3.4,-2.4 -3.4,-4 0,-3 2.8,-4.1 5.3,-4.1 1.9,0 3.2,0.4 4.8,1.2 l -1.1,2.7 z"
         id="path3345"
         inkscape:connector-curvature="0"
         style="fill:#0084a9" /><path
         class="st2"
         d="m 384,467 -1.1,-3.6 H 378 l -1.2,3.6 h -2.9 l 5.3,-14.6 h 2.5 L 387,467 h -3 z m -3.6,-11.2 -1.7,5.3 h 3.4 l -1.7,-5.3 z"
         id="path3347"
         inkscape:connector-curvature="0"
         style="fill:#0084a9" /><path
         class="st2"
         d="m 399.3,467 -3.3,-5.8 h -1.4 v 5.8 h -2.8 v -14.6 h 4.9 c 2.1,0 3.1,0.3 3.9,1.1 0.8,0.7 1.2,1.8 1.2,3.2 0,1.1 -0.3,2 -0.8,2.7 -0.6,0.7 -1.1,1 -2.3,1.3 l 3.6,6.2 h -3 z m -2.9,-12.2 h -1.8 v 4 h 1.8 c 1.8,0 2.5,-0.6 2.5,-2.1 0,-1.4 -0.7,-1.9 -2.5,-1.9 z"
         id="path3349"
         inkscape:connector-curvature="0"
         style="fill:#0084a9" /><path
         class="st2"
         d="M 412.8,460.8 V 467 H 410 v -6.2 l -4.4,-8.3 h 3 l 2.9,5.7 3.1,-5.7 h 3 l -4.8,8.3 z"
         id="path3351"
         inkscape:connector-curvature="0"
         style="fill:#0084a9" /></g><g
       id="g3353"><path
         class="st2"
         d="m 244.9,437.1 v 6.6 h -1.5 v -6.6 H 241 v -1.3 h 6.2 v 1.3 h -2.3 z"
         id="path3355"
         inkscape:connector-curvature="0"
         style="fill:#0084a9" /><path
         class="st2"
         d="m 255.5,443.6 v -3.4 h -4 v 3.4 H 250 v -7.9 h 1.5 v 3.1 h 4 v -3.1 h 1.5 v 7.9 h -1.5 z"
         id="path3357"
         inkscape:connector-curvature="0"
         style="fill:#0084a9" /></g></g></svg>