<?xml version="1.0" encoding="utf-8"?>
<!-- Generator: Adobe Illustrator 16.0.0, SVG Export Plug-In . SVG Version: 6.00 Build 0)  -->
<!DOCTYPE svg PUBLIC "-//W3C//DTD SVG 1.1//EN" "http://www.w3.org/Graphics/SVG/1.1/DTD/svg11.dtd">
<svg version="1.1" id="Layer_1" xmlns="http://www.w3.org/2000/svg" xmlns:xlink="http://www.w3.org/1999/xlink" x="0px" y="0px"
	 width="255.7px" height="232.25px" viewBox="10.5 17.75 255.7 232.25" enable-background="new 10.5 17.75 255.7 232.25"
	 xml:space="preserve">
<g>
	<polygon fill="none" points="160.4,92.9 157.3,84.7 154.2,92.9 	"/>
	<path fill="none" d="M174.3,66.9c4,0,7-3,7-7s-3-7-7-7s-7,3-7,7S170.3,66.9,174.3,66.9z"/>
	<path fill="none" d="M212.7,98.2c4,0,7-3,7-7s-3-7-7-7s-7,3-7,7S208.7,98.2,212.7,98.2z"/>
	<path fill="none" d="M132.9,35.5c4,0,7-3,7-7s-3-7-7-7s-7,3-7,7S129,35.5,132.9,35.5z"/>
	<path fill="none" d="M200.3,66.9c4,0,7-3,7-7s-3-7-7-7s-7,3-7,7S196.4,66.9,200.3,66.9z"/>
	<path fill="none" d="M58,98.2c4,0,7-3,7-7s-3-7-7-7s-7,3-7,7S54,98.2,58,98.2z"/>
	<path fill="none" d="M141.1,91.2c0-2.1-0.899-4.1-2.399-5.4c-1.101-0.9-2.3-1.3-4.9-1.3h-3.6v13.4h3.3c2.6,0,3.9-0.3,5.1-1.3
		C140.1,95.4,141.1,93.2,141.1,91.2z"/>
	<path fill="#0084A9" d="M142.3,169.2c12.3-24.3,54-42.601,103.9-43.2c2.3,0,4.7,0,7,0l-4.601-8
		C193.6,118.9,148.6,141.2,142.3,169.2z"/>
	<path fill="#0084A9" d="M141.8,179.7c-0.2,1-0.399,2.1-0.5,3.1c0.2-0.6,0.5-1.2,0.7-1.7C153.3,156,196,137.2,247.2,137
		c4.2,0,8.399,0.1,12.6,0.3l-4.7-8.2c-1.899,0-3.899-0.1-5.8-0.1C193.6,129.3,148,151.4,141.8,179.7z"/>
	<path fill="#0084A9" d="M261.5,140.4c-4.1-0.2-8.2-0.4-12.4-0.4c-52.3,0-95.899,19.5-106.1,45.4c-0.7,1.8-1.3,3.6-1.6,5.5
		c-0.301,1.5-0.5,3-0.601,4.5c0,0.5,0,1,0,1.6c0,0.1,0,0.1,0,0.2c0.101-0.4,0.2-0.7,0.3-1.101c0.2-0.8,0.5-1.6,0.801-2.399
		c0.6-1.7,1.399-3.3,2.3-4.9c13.3-23.5,54.7-40.7,103.8-40.7c6.2,0,12.3,0.301,18.2,0.801L261.5,140.4z"/>
	<path fill="#0084A9" d="M32.1,126c49.9,0.7,91.6,18.9,103.9,43.2C129.7,141.1,84.7,118.9,29.7,118l-4.6,8
		C27.4,126,29.7,126,32.1,126z"/>
	<path fill="#0084A9" d="M136.3,181.1c0.3,0.601,0.5,1.2,0.7,1.7c-0.1-1.1-0.3-2.1-0.5-3.1c-6.2-28.3-51.8-50.4-107.3-50.7
		c-2,0-3.9,0-5.8,0.1l-4.7,8.2c4.1-0.2,8.3-0.3,12.6-0.3C82.3,137.2,125,156,136.3,181.1z"/>
	<path fill="#0084A9" d="M136.9,190.9c-0.4-1.9-0.9-3.7-1.601-5.5C125.2,159.5,81.5,140,29.2,140c-4.2,0-8.3,0.1-12.4,0.4L12,148.8
		c5.9-0.5,12-0.8,18.2-0.8c49.1,0,90.6,17.2,103.8,40.7c0.9,1.6,1.7,3.3,2.3,4.899c0.3,0.801,0.601,1.601,0.8,2.4
		c0.101,0.4,0.2,0.7,0.301,1.1c0-0.1,0-0.1,0-0.199c0-0.5,0-1,0-1.601C137.4,193.9,137.2,192.4,136.9,190.9z"/>
	<path fill="#919195" d="M141.5,97.8c1.6-1.7,2.6-4.3,2.6-6.6c0-2.3-1.1-5-2.6-6.6c-1.7-1.7-4-2.5-7.5-2.5h-6.7v18.1h6.7
		C137.5,100.3,139.8,99.5,141.5,97.8z M130.2,97.9V84.5h3.6c2.5,0,3.7,0.3,4.9,1.3c1.5,1.3,2.399,3.3,2.399,5.4
		c0,2-0.899,4.2-2.399,5.4c-1.3,1-2.5,1.3-5.101,1.3H130.2L130.2,97.9z"/>
	<path fill="#919195" d="M202.7,91.2c0,5.5,4.2,9.4,10.1,9.4c5.8,0,10.101-3.9,10.101-9.4c0-5.4-4.2-9.4-10.101-9.4
		C206.9,81.8,202.7,85.8,202.7,91.2z M212.7,84.2c4,0,7,3,7,7s-3,7-7,7s-7-3-7-7S208.7,84.2,212.7,84.2z"/>
	<polygon fill="#919195" points="169.3,84.5 175.7,84.5 175.7,100.3 178.6,100.3 178.6,84.5 185,84.5 185,82.1 169.3,82.1 	"/>
	<polygon fill="#919195" points="33.6,92.4 40.5,92.4 40.5,90 33.6,90 33.6,84.5 41.9,84.5 41.9,82.1 30.7,82.1 30.7,100.3 
		33.6,100.3 	"/>
	<path fill="#919195" d="M148.5,100.3h2.9l2-5h7.8l2.1,5h2.8L158.7,81.7h-2.8L148.5,100.3z M160.4,92.9h-6.2l3.1-8.1L160.4,92.9z"/>
	<path fill="#919195" d="M233.6,85.7c0.101,0.5,0.301,0.9,0.9,1.7l10.2,13.1h2.6V82.1h-2.6v14.6c-0.101-0.6-0.4-1.3-0.7-1.7
		l-10.2-12.9H230.9v18.1h2.699V85.7L233.6,85.7z"/>
	<path fill="#919195" d="M75.6,82.1v10.7c0,3.6,0.7,5.5,2.6,6.6c1.4,0.8,3.4,1.4,5.2,1.4h0.1c1.7,0,3.8-0.6,5.1-1.4
		c1.9-1.1,2.7-3,2.7-6.6V82.1h-2.8v11.2c0,3.3-1.7,5-5,5s-5-1.7-5-5V82.1H75.6z"/>
	<path fill="#919195" d="M103.7,85.7c0.1,0.5,0.3,0.9,0.9,1.7l10.2,13.1h2.6V82.1h-2.6v14.6c-0.1-0.6-0.4-1.3-0.7-1.7l-10.2-12.9
		H101v18.1h2.7V85.7z"/>
	<path fill="#919195" d="M58,100.6c5.8,0,10.1-3.9,10.1-9.4c0-5.4-4.2-9.4-10.1-9.4c-5.8,0-10.1,4-10.1,9.4
		C47.9,96.7,52.1,100.6,58,100.6z M58,84.2c4,0,7,3,7,7s-3,7-7,7s-7-3-7-7S54,84.2,58,84.2z"/>
	<rect x="191.6" y="82.1" fill="#919195" width="2.9" height="18.1"/>
	<polygon fill="#919195" points="230,66.5 221.4,66.5 221.4,50.8 218.6,50.8 218.6,68.9 230,68.9 	"/>
	<path fill="#919195" d="M125.8,69.3c1.8,0,3.4-0.3,5.4-1.2l-0.8-2.1c-1.5,0.8-2.301,0.9-4,0.9c-2.7,0-4.3-0.6-5.7-1.9
		c-1.4-1.4-2.2-3.3-2.2-5.4c0-4,2.8-6.8,6.9-6.8c1.1,0,2.199,0.2,3,0.5c0.6,0.2,1,0.5,1.8,1.1l1.399-2.2c-2-1.2-3.8-1.7-6.1-1.7
		c-5.7,0-10.1,4-10.1,9.3C115.5,65.4,119.8,69.3,125.8,69.3z"/>
	<path fill="#919195" d="M164.2,59.8c0,5.5,4.2,9.4,10.1,9.4c5.8,0,10.101-3.9,10.101-9.4c0-5.4-4.2-9.4-10.101-9.4
		C168.4,50.4,164.2,54.4,164.2,59.8z M174.3,52.9c4,0,7,3,7,7s-3,7-7,7s-7-3-7-7S170.3,52.9,174.3,52.9z"/>
	<path fill="#919195" d="M200.3,69.3c5.8,0,10.101-3.9,10.101-9.4c0-5.4-4.301-9.4-10.101-9.4s-10.1,4-10.1,9.4
		C190.3,65.3,194.5,69.3,200.3,69.3z M200.3,52.9c4,0,7,3,7,7s-3,7-7,7s-7-3-7-7S196.4,52.9,200.3,52.9z"/>
	<path fill="#919195" d="M103,66.9c-1,0-2.1-0.2-3-0.6c-0.7-0.3-1.2-0.6-2.4-1.4l-1.3,2.5c1.3,0.8,1.8,1.1,2.6,1.4
		c1.1,0.4,2.4,0.6,3.7,0.6c4.1,0,6.6-1.9,6.6-5.2c0-2.2-1.1-3.5-4.5-5.2c-3.5-1.7-4.1-2-4.7-2.8c-0.2-0.2-0.2-0.6-0.2-0.9
		c0-1.4,1.4-2.2,3.7-2.2c0.8,0,1.6,0.1,2.5,0.4s1.3,0.5,2.3,1.1l1-2.4c-1.1-0.6-1.6-0.8-2.4-1.1c-1-0.3-2.2-0.5-3.4-0.5
		c-4,0-6.6,1.9-6.6,4.9c0,1.9,1.3,3.5,4,4.8l3.3,1.6c1.4,0.7,2,1.5,2,2.7C106.4,66,105.1,66.9,103,66.9z"/>
	<polygon fill="#919195" points="138.8,50.8 138.8,68.9 141.7,68.9 141.7,60.8 153.2,60.8 153.2,68.9 156,68.9 156,50.8 153.2,50.8 
		153.2,58.4 141.7,58.4 141.7,50.8 	"/>
	<path fill="#919195" d="M241,66.9c-1,0-2.1-0.2-3-0.6c-0.7-0.3-1.2-0.6-2.4-1.4l-1.3,2.5c1.3,0.8,1.8,1.1,2.601,1.4
		c1.1,0.4,2.399,0.6,3.699,0.6c4.101,0,6.601-1.9,6.601-5.2c0-2.2-1.101-3.5-4.5-5.2c-3.5-1.7-4.101-2-4.7-2.8
		c-0.2-0.2-0.2-0.6-0.2-0.9c0-1.4,1.4-2.2,3.7-2.2c0.8,0,1.6,0.1,2.5,0.4s1.3,0.5,2.3,1.1l1-2.4c-1.1-0.6-1.6-0.8-2.399-1.1
		c-1-0.3-2.2-0.5-3.4-0.5c-4,0-6.6,1.9-6.6,4.9c0,1.9,1.3,3.5,4,4.8l3.3,1.6c1.399,0.7,2,1.5,2,2.7C244.4,66,243.1,66.9,241,66.9z"
		/>
	<path fill="#919195" d="M33.3,23c0.1,0.5,0.3,0.9,0.9,1.7l10.2,13.1H47V19.4h-2.6V34c-0.1-0.6-0.4-1.3-0.7-1.7L33.5,19.4h-2.9v18.1
		h2.7V23z"/>
	<path fill="#919195" d="M132.9,37.9c5.8,0,10.1-3.9,10.1-9.4c0-5.4-4.2-9.4-10.1-9.4c-5.801,0-10.101,4-10.101,9.4
		C122.9,34,127.1,37.9,132.9,37.9z M132.9,21.5c4,0,7,3,7,7s-3,7-7,7s-7-3-7-7S129,21.5,132.9,21.5z"/>
	<polygon fill="#919195" points="68.2,35.2 59.7,35.2 59.7,29.4 66.6,29.4 66.6,27.1 59.7,27.1 59.7,21.8 68,21.8 68,19.4 
		56.8,19.4 56.8,37.6 68.2,37.6 	"/>
	<path fill="#919195" d="M153.8,23c0.101,0.5,0.3,0.9,0.9,1.7l10.2,13.1h2.6V19.4h-2.6V34c-0.101-0.6-0.4-1.3-0.7-1.7L154,19.4h-2.9
		v18.1h2.7V23z"/>
	<polygon fill="#919195" points="82.3,37.9 85.8,29.7 89.6,37.9 91.1,37.9 98.7,19.4 95.9,19.4 90.4,33.5 87.3,26.6 90.4,19.4 
		87.7,19.4 86.1,23.7 84.2,19.4 81.5,19.4 84.6,26.8 81.8,33.5 76.1,19.4 72.9,19.4 80.9,37.9 	"/>
	<polygon fill="#919195" points="109.2,37.6 112.1,37.6 112.1,21.8 118.5,21.8 118.5,19.4 102.8,19.4 102.8,21.8 109.2,21.8 	"/>
</g>
<g>
	<path fill="#919195" d="M36.1,240.5H32l-0.4,2.4h3.3l-0.2,1.6h-3.4l-0.4,2.6h4.2l-0.2,1.601h-6.1l1.5-9.8h6L36.1,240.5z"/>
	<path fill="#919195" d="M46.5,245.7c-1.1,2-2.9,3-5.4,3h-3.6l1.6-9.8h3.6c1.8,0,2.9,0.399,3.7,1.5c0.6,0.699,0.9,1.699,0.9,2.699
		C47.2,243.9,47,244.8,46.5,245.7z M42.2,240.5h-1.5l-1,6.5h1.5c2.4,0,4-1.6,4-4C45.2,241.2,44.3,240.5,42.2,240.5z"/>
	<path fill="#919195" d="M57.4,244.8c-0.3,1.9-0.7,2.601-1.9,3.3c-0.8,0.5-1.6,0.7-2.8,0.7c-2.3,0-3.6-1-3.6-2.7
		c0-0.399,0-0.899,0.1-1.3l0.9-6H52l-1,6.101c0,0.199-0.1,0.399-0.1,0.6c0,1.1,0.6,1.6,1.9,1.6c1.5,0,2.4-0.8,2.6-2.199l1-6h1.9
		L57.4,244.8z"/>
	<path fill="#919195" d="M67.7,241c-0.4-0.3-0.5-0.4-0.9-0.5c-0.4-0.1-0.8-0.2-1.3-0.2c-2.1,0-3.8,1.8-3.8,4.101
		c0,1.699,1.1,2.8,3,2.8c0.3,0,0.7,0,1-0.101c0.4-0.1,0.7-0.199,1.2-0.399l0.4,1.5c-0.7,0.3-1,0.5-1.6,0.6
		c-0.5,0.101-1,0.101-1.5,0.101c-2.8,0-4.5-1.601-4.5-4.301c0-0.899,0.2-1.8,0.6-2.6c0.4-0.7,0.9-1.4,1.5-1.9
		c1.1-0.899,2.3-1.3,3.8-1.3c0.8,0,1.4,0.101,2,0.3c0.4,0.101,0.6,0.301,1.1,0.601L67.7,241z"/>
	<path fill="#919195" d="M75.2,248.7l-0.4-2.4h-3.3l-1.2,2.4h-2l5.1-9.8h1.7l2,9.8H75.2z M73.9,241.1l-1.7,3.5h2.3L73.9,241.1z"/>
	<path fill="#919195" d="M86,240.5h-2.9l-1.3,8.2h-1.9l1.3-8.2h-2.9l0.2-1.6h7.7L86,240.5z"/>
	<path fill="#919195" d="M94.2,240.5h-4.1l-0.4,2.4H93l-0.2,1.6h-3.4l-0.4,2.6h4.2L93,248.7h-6.1l1.5-9.8h6L94.2,240.5z"/>
	<path fill="#919195" d="M99.6,246c-1,0-1.7-0.8-1.7-1.7c0-0.899,0.8-1.7,1.7-1.7c1,0,1.7,0.801,1.7,1.7
		C101.3,245.2,100.6,246,99.6,246z"/>
	<path fill="#919195" d="M107.8,248.7h-1.9l1.5-9.8h1.9L107.8,248.7z"/>
	<path fill="#919195" d="M119.7,248.7h-2l-2.9-5.7c-0.1-0.2-0.2-0.5-0.3-0.7c-0.2-0.5-0.2-0.7-0.3-1.399l-0.2,1.8l-0.9,6.1h-1.8
		l1.5-9.8h2.1l2.9,6.1c0.1,0.2,0.2,0.4,0.3,0.601c0.1,0.399,0.1,0.5,0.2,1l0.2-2.101l0.9-5.699h1.8L119.7,248.7z"/>
	<path fill="#919195" d="M131.7,248.7h-2l-2.9-5.7c-0.1-0.2-0.2-0.5-0.3-0.7c-0.2-0.5-0.2-0.7-0.3-1.399l-0.2,1.8l-0.9,6.1h-1.8
		l1.5-9.8h2.101l2.899,6.1c0.101,0.2,0.2,0.4,0.3,0.601c0.101,0.399,0.101,0.5,0.2,1l0.2-2.101l0.9-5.699h1.8L131.7,248.7z"/>
	<path fill="#919195" d="M139.6,248.8c-2.699,0-4.5-1.7-4.5-4.3c0-0.3,0-0.5,0.101-0.8c0.5-3,2.8-5.101,5.899-5.101
		c2.801,0,4.5,1.601,4.5,4.301C145.6,246.2,142.9,248.8,139.6,248.8z M140.9,240.3c-2.101,0-3.9,1.9-3.9,4.3
		c0,1.601,1.1,2.7,2.6,2.7c2.101,0,3.9-1.899,3.9-4.3C143.6,241.4,142.5,240.3,140.9,240.3z"/>
	<path fill="#919195" d="M151,248.7h-1.5l-2-9.8h2l1.2,6.6v0.1c0,0.101,0,0.101,0,0.2l0,0v0.101c0-0.2,0-0.301,0.1-0.4l0.101-0.1
		l3.199-6.601h2L151,248.7z"/>
	<path fill="#919195" d="M161.4,248.7l-0.4-2.4h-3.3l-1.2,2.4h-2l5.1-9.8h1.7l2,9.8H161.4z M160.2,241.1l-1.7,3.5h2.3L160.2,241.1z"
		/>
	<path fill="#919195" d="M172.2,240.5h-2.9l-1.3,8.2h-1.9l1.301-8.2h-2.9l0.2-1.6h7.7L172.2,240.5z"/>
	<path fill="#919195" d="M180.4,240.5H176.3l-0.399,2.4h3.3l-0.2,1.6h-3.4l-0.399,2.6h4.2l-0.2,1.601H173.1l1.5-9.8h6L180.4,240.5z"
		/>
	<path fill="#919195" d="M185.8,246c-1,0-1.7-0.8-1.7-1.7c0-0.899,0.801-1.7,1.7-1.7c0.9,0,1.7,0.801,1.7,1.7
		C187.5,245.2,186.8,246,185.8,246z"/>
	<path fill="#919195" d="M194.1,248.7H192.2l1.5-9.8h1.899L194.1,248.7z"/>
	<path fill="#919195" d="M206,248.7h-2l-2.9-5.7c-0.1-0.2-0.199-0.5-0.3-0.7c-0.2-0.5-0.2-0.7-0.3-1.399l-0.2,1.8l-0.899,6.1H197.6
		l1.5-9.8h2.101l2.899,6.1c0.101,0.2,0.2,0.4,0.301,0.601c0.1,0.399,0.1,0.5,0.199,1l0.2-2.101l0.9-5.699h1.8L206,248.7z"/>
	<path fill="#919195" d="M216.1,241c-0.6-0.3-0.8-0.3-1.199-0.5c-0.4-0.1-0.801-0.2-1.2-0.2c-0.9,0-1.601,0.5-1.601,1.2
		c0,0.3,0.2,0.7,0.7,0.9l1.5,0.899c1.2,0.8,1.601,1.4,1.601,2.3c0,1.9-1.5,3.101-3.7,3.101c-0.601,0-1.4-0.101-2-0.3
		c-0.4-0.101-0.7-0.2-1.3-0.4l0.699-1.7c0.601,0.3,0.9,0.4,1.4,0.601c0.5,0.1,1,0.199,1.3,0.199c0.9,0,1.7-0.699,1.7-1.3
		c0-0.1,0-0.3-0.1-0.399c-0.101-0.2-0.301-0.4-0.5-0.5c-0.2-0.101-0.7-0.4-1.4-0.9c-1.4-0.9-1.9-1.5-1.9-2.4c0-1.699,1.601-3,3.7-3
		c0.4,0,0.9,0,1.3,0.101c0.7,0.1,1,0.2,1.7,0.399L216.1,241z"/>
	<path fill="#919195" d="M221.8,245.4c-0.5,0-0.899,0-1.3-0.101l-0.5,3.4h-1.9l1.5-9.8h3.4c1.9,0,3,1,3,2.699
		C226,243.9,224.4,245.4,221.8,245.4z M222.6,240.5h-1.3l-0.5,3.3h0.2c0.3,0,0.5,0,0.7,0c0.899,0,1.3-0.1,1.7-0.5
		c0.399-0.3,0.6-0.899,0.6-1.6C224,240.9,223.5,240.5,222.6,240.5z"/>
	<path fill="#919195" d="M228.9,248.7H227l1.5-9.8h1.9L228.9,248.7z"/>
	<path fill="#919195" d="M239.3,243.6c-0.399,0.5-0.8,0.7-1.7,0.9l1.9,4.2h-2.1l-1.601-3.9H234.9l-0.601,3.9H232.4l1.5-9.8h3.3
		c2.1,0,3.1,0.8,3.1,2.399C240.1,242.2,239.8,243,239.3,243.6z M237.8,240.7c-0.3-0.3-0.5-0.3-1.2-0.3H235.4l-0.4,2.8h1.2
		c1.2,0,1.899-0.601,1.899-1.601C238.1,241.2,238,240.9,237.8,240.7z"/>
	<path fill="#919195" d="M248.9,240.5H244.8l-0.399,2.4h3.3l-0.2,1.6h-3.4l-0.399,2.6h4.2l-0.2,1.601H241.6l1.5-9.8h6L248.9,240.5z"
		/>
</g>
<g>
	<g>
		<path fill="#0084A9" d="M34.6,222.4c-1,0-2-0.101-3-0.301c-1.5-0.3-2.3-0.5-4.2-1.3l1.6-4.3c2.2,1.1,3.4,1.4,4.9,1.4
			c2.7,0,4.8-2.101,4.8-4.9c0-3.9-2.5-5.3-9.4-5.3H29v-13.9h14.1v4.2h-9v5.6c2.1,0,3,0.2,4.4,0.601c3.6,1.2,5.6,4.1,5.6,8.1
			C44.1,218.1,40,222.4,34.6,222.4z"/>
		<path fill="#0084A9" d="M60.9,222.5c-5.6,0-9.7-6.2-9.7-14.8c0-8.601,4.1-14.8,9.7-14.8s9.7,6.199,9.7,14.8
			C70.6,216.3,66.6,222.5,60.9,222.5z M60.9,197.7c-2.3,0-4.2,4.5-4.2,10c0,5.6,1.9,10.1,4.2,10.1c2.3,0,4.2-4.5,4.2-10.1
			C65.1,202.1,63.3,197.7,60.9,197.7z"/>
	</g>
	<g>
		<path fill="#0084A9" d="M91.5,223.8l-1.1-3.6h-4.9l-1.2,3.6h-2.9l5.3-14.6h2.5l5.3,14.6H91.5z M87.9,212.6l-1.7,5.301h3.4
			L87.9,212.6z"/>
		<path fill="#0084A9" d="M109,223.9l-6.2-9.4c0-0.1-0.1-0.3-0.3-0.6c-0.1-0.2-0.2-0.301-0.2-0.301c-0.1-0.199-0.1-0.3-0.2-0.5v10.7
			h-2.6v-14.6h3.2l6.1,9.6c0,0,0.1,0.2,0.2,0.3c0.1,0.2,0.1,0.2,0.1,0.301l0.1,0.399l0.1,0.3v-10.8h2.6V224H109V223.9L109,223.9z"/>
		<path fill="#0084A9" d="M128.6,223.9l-6.2-9.4c0-0.1-0.1-0.3-0.3-0.6c-0.1-0.2-0.2-0.301-0.2-0.301c-0.1-0.199-0.1-0.3-0.2-0.5
			v10.7h-2.6v-14.6h3.2l6.101,9.6c0,0,0.1,0.2,0.199,0.3c0.101,0.2,0.101,0.2,0.101,0.301l0.1,0.399l0.101,0.3v-10.8h2.6V224h-2.9
			V223.9L128.6,223.9z"/>
		<path fill="#0084A9" d="M138.5,223.8v-14.6h2.8v14.6H138.5z"/>
		<path fill="#0084A9" d="M153.4,224.2h-1.9l-5.4-15h3l3.301,9.8v0.2v0.2l0.1,0.3v-0.2c0-0.2,0-0.3,0.1-0.4l0.101-0.199l3.2-9.801
			h2.899L153.4,224.2z"/>
		<path fill="#0084A9" d="M163.7,223.8v-14.6h8.899v2.399h-6.1v3.601h5v2.399h-5v3.9h6.4v2.4L163.7,223.8L163.7,223.8L163.7,223.8z"
			/>
		<path fill="#0084A9" d="M186,223.8l-3.3-5.8h-1.4v5.8h-2.8v-14.6h4.9c2.1,0,3.1,0.3,3.899,1.1c0.8,0.7,1.2,1.8,1.2,3.2
			c0,1.1-0.3,2-0.8,2.7c-0.601,0.7-1.101,1-2.3,1.3l3.6,6.2L186,223.8L186,223.8L186,223.8z M183.1,211.6h-1.8v4h1.8
			c1.801,0,2.5-0.6,2.5-2.1C185.6,212.1,184.9,211.6,183.1,211.6z"/>
		<path fill="#0084A9" d="M202.3,212.7c-1.5-0.7-2.8-1-3.8-1c-1.3,0-2.1,0.5-2.1,1.3c0,0.6,0.399,1,1.399,1.5
			c2.2,1.2,3.7,2.1,4.4,2.8c0.6,0.601,1,1.601,1,2.601c0,2.6-1.9,4.1-5.101,4.1c-2.1,0-3.399-0.6-5.3-1.5l1.2-2.6
			c1.3,0.699,2.6,1.399,4.2,1.399c1.3,0,2.1-0.6,2.1-1.5c0-0.6-0.3-1-1.3-1.6l-2.3-1.3c-2.601-1.5-3.4-2.4-3.4-4
			c0-3,2.8-4.101,5.3-4.101c1.9,0,3.2,0.4,4.801,1.2L202.3,212.7z"/>
		<path fill="#0084A9" d="M217.1,223.8l-1.1-3.6h-4.9l-1.199,3.6H207l5.3-14.6h2.5l5.3,14.6H217.1z M213.5,212.6l-1.7,5.301h3.4
			L213.5,212.6z"/>
		<path fill="#0084A9" d="M232.4,223.8L229.1,218H227.7v5.8h-2.8v-14.6h4.899c2.101,0,3.101,0.3,3.9,1.1c0.8,0.7,1.2,1.8,1.2,3.2
			c0,1.1-0.301,2-0.801,2.7c-0.6,0.7-1.1,1-2.3,1.3l3.601,6.2L232.4,223.8L232.4,223.8L232.4,223.8z M229.5,211.6h-1.8v4h1.8
			c1.8,0,2.5-0.6,2.5-2.1C232,212.1,231.3,211.6,229.5,211.6z"/>
		<path fill="#0084A9" d="M245.9,217.6v6.2H243.1v-6.2l-4.399-8.3h3l2.899,5.7l3.101-5.7h3L245.9,217.6z"/>
	</g>
	<g>
		<path fill="#0084A9" d="M78,193.9v6.6h-1.5v-6.6h-2.4V192.6h6.2v1.301H78z"/>
		<path fill="#0084A9" d="M88.6,200.4V197h-4v3.4h-1.5v-7.9h1.5v3.1h4v-3.1h1.5v7.9H88.6L88.6,200.4z"/>
	</g>
</g>
</svg>
