<?xml version="1.0" encoding="utf-8"?>
<!-- Generator: Adobe Illustrator 16.0.0, SVG Export Plug-In . SVG Version: 6.00 Build 0)  -->
<!DOCTYPE svg PUBLIC "-//W3C//DTD SVG 1.1//EN" "http://www.w3.org/Graphics/SVG/1.1/DTD/svg11.dtd">
<svg version="1.1" id="Layer_1" xmlns="http://www.w3.org/2000/svg" xmlns:xlink="http://www.w3.org/1999/xlink" x="0px" y="0px"
	 width="99px" height="82px" viewBox="0 0 99 82" enable-background="new 0 0 99 82" xml:space="preserve">
<path fill-rule="evenodd" clip-rule="evenodd" fill="#939598" d="M95.593,36.126c0.098-5.196-3.745-6.473-7.68-7.44
	c-2.082-0.512-4.624,0.638-5.761-0.24c-1.707-0.096-2.386,0.346-1.92,1.68c-4.2,1.009-6.7,4.482-10.8,5.52c-1.439,0-2.88,0-4.319,0
	c-5.24,0.024-7.378-0.136-11.521-1.44c-5.22-1.644-12.454-2.645-18.96-2.64c-8.852,0.006-18.015,8.293-24,0
	c-0.56-1.12-1.12-2.24-1.68-3.36c-0.511-1.401-0.657-3.753-0.24-5.28c2.063-7.549,7.954-4.855,11.04-9.84
	c2.453-3.961-2.338-10.694-4.8-11.52c-0.368-0.251-0.983-0.254-1.68-0.24c-0.4,0.4-0.8,0.8-1.2,1.2
	c-1.244,2.897,3.401,3.266,2.4,6.48c-0.75,2.408-3.581,2.797-5.52,4.08c-2.655,1.756-5.441,4.821-6.72,7.92
	c-3.429,8.306,3.104,15.361,7.68,18.24c1.912,1.203,4.454,1.569,5.76,3.36c0.825,1.13,0.28,2.071,0.72,3.84
	c0.438,1.765,1.611,3.379,2.88,4.32c1.547,1.147,5.812,3.127,6.48,4.8c0.249,0.577-2.434,4.493-3.12,5.28
	c0.123,1.619,1.269,2.553,2.64,2.88c-0.578,1.541-1.663,1.757-1.68,4.079c3.478,3.372,9.219,7.255,15.12,7.921
	c-0.543,1.199-0.989,1.831-2.16,2.399c0.054,0.557,0.047,0.677,0.24,0.96c0.654,1.349,4.06,2.082,6.48,1.44
	c2.411-0.64,9.437-3.524,10.56-5.28c0.24-0.88,0.48-1.761,0.72-2.641c5.309,0.063,13.12,0.405,14.4-3.6
	c1.013-1.598-1.609-6.172-2.4-6.96c0.012-0.74,0.084-1.229,0.24-1.68c2.11-0.515,5.989-0.343,7.68-1.44
	c3.56-2.311,4.387-7.914,7.44-10.8c2.067-1.953,5.612-2.362,7.2-4.8c1.051,0.16,2.352,0.637,3.119,1.2c0.721,0,1.44,0,2.161,0
	c0.663-0.29,3.974-4.125,3.839-5.04C98.186,39.165,95.948,36.47,95.593,36.126z M49.514,63.486
	c-0.729,2.959,0.547,5.975-0.961,7.921c-0.558,0.796-1.468,1.033-2.16,1.68c-4.18-0.185-9.185-2.997-12.48-4.56
	c-0.136-0.655-0.244-1.242-0.24-2.16c1.677,0.049,3.627,0.036,4.8,0.72c1.707,0.995,4.617,5.16,7.92,2.88c0.16,0,0.32,0,0.48,0
	c-0.32-1.199-0.64-2.4-0.96-3.6c-1.385-2.397-5.477-3.742-8.88-4.08c1.229-2.11,2.343-4.185,4.32-5.52
	c-0.021-1.322-0.082-3.225,0.48-4.081c0.479,0.1,1.845,1.399,2.64,1.92c2.089,1.368,4.104,2.033,6.72,2.88
	C50.991,59.577,49.981,61.585,49.514,63.486z M62.713,67.566c-2.05,0.467-4.303,0.99-6.48,0.721c0.845-1.721,2.175-3.369,2.641-5.28
	c1.179,0.885,3.112,2.821,3.6,4.32c0.08,0,0.16,0,0.24,0C62.713,67.407,62.713,67.486,62.713,67.566z"/>
</svg>
