<?xml version="1.0" encoding="utf-8"?>
<!-- Generator: Adobe Illustrator 16.0.0, SVG Export Plug-In . SVG Version: 6.00 Build 0)  -->
<!DOCTYPE svg PUBLIC "-//W3C//DTD SVG 1.1//EN" "http://www.w3.org/Graphics/SVG/1.1/DTD/svg11.dtd">
<svg version="1.1" id="Layer_1" xmlns="http://www.w3.org/2000/svg" xmlns:xlink="http://www.w3.org/1999/xlink" x="0px" y="0px"
	 width="99px" height="80.8px" viewBox="0 0 99 80.8" style="enable-background:new 0 0 99 80.8;" xml:space="preserve">
<style type="text/css">
<![CDATA[
	.st0{fill-rule:evenodd;clip-rule:evenodd;}
]]>
</style>
<path class="st0" d="M95.3,34.8c0.1-5.2-3.7-6.5-7.7-7.4c-2.1-0.5-4.6,0.6-5.8-0.2c-1.7-0.1-2.4,0.3-1.9,1.7
	c-4.2,1-6.7,4.5-10.8,5.5c-1.4,0-2.9,0-4.3,0c-5.2,0-7.4-0.1-11.5-1.4c-5.2-1.6-12.5-2.6-19-2.6c-8.9,0-18,8.3-24,0
	c-0.6-1.1-1.1-2.2-1.7-3.4c-0.5-1.4-0.7-3.8-0.2-5.3c2.1-7.5,8-4.9,11-9.8c2.5-4-2.3-10.7-4.8-11.5C14.3,0,13.6,0,12.9,0
	c-0.4,0.4-0.8,0.8-1.2,1.2c-1.2,2.9,3.4,3.3,2.4,6.5c-0.8,2.4-3.6,2.8-5.5,4.1c-2.7,1.8-5.4,4.8-6.7,7.9C-1.5,28,5,35,9.6,37.9
	c1.9,1.2,4.5,1.6,5.8,3.4c0.8,1.1,0.3,2.1,0.7,3.8c0.4,1.8,1.6,3.4,2.9,4.3c1.5,1.1,5.8,3.1,6.5,4.8c0.2,0.6-2.4,4.5-3.1,5.3
	c0.1,1.6,1.3,2.6,2.6,2.9c-0.6,1.5-1.7,1.8-1.7,4.1c3.5,3.4,9.2,7.3,15.1,7.9c-0.5,1.2-1,1.8-2.2,2.4c0.1,0.6,0,0.7,0.2,1
	c0.7,1.3,4.1,2.1,6.5,1.4c2.4-0.6,9.4-3.5,10.6-5.3c0.2-0.9,0.5-1.8,0.7-2.6c5.3,0.1,13.1,0.4,14.4-3.6c1-1.6-1.6-6.2-2.4-7
	c0-0.7,0.1-1.2,0.2-1.7c2.1-0.5,6-0.3,7.7-1.4c3.6-2.3,4.4-7.9,7.4-10.8c2.1-2,5.6-2.4,7.2-4.8c1.1,0.2,2.4,0.6,3.1,1.2
	c0.7,0,1.4,0,2.2,0c0.7-0.3,4-4.1,3.8-5C97.9,37.8,95.6,35.1,95.3,34.8z M49.2,62.2c-0.7,3,0.5,6-1,7.9c-0.6,0.8-1.5,1-2.2,1.7
	c-4.2-0.2-9.2-3-12.5-4.6c-0.1-0.7-0.2-1.2-0.2-2.2c1.7,0,3.6,0,4.8,0.7c1.7,1,4.6,5.2,7.9,2.9c0.2,0,0.3,0,0.5,0
	c-0.3-1.2-0.6-2.4-1-3.6c-1.4-2.4-5.5-3.7-8.9-4.1c1.2-2.1,2.3-4.2,4.3-5.5c0-1.3-0.1-3.2,0.5-4.1c0.5,0.1,1.8,1.4,2.6,1.9
	c2.1,1.4,4.1,2,6.7,2.9C50.7,58.3,49.6,60.3,49.2,62.2z M62.4,66.2c-2,0.5-4.3,1-6.5,0.7c0.8-1.7,2.2-3.4,2.6-5.3
	c1.2,0.9,3.1,2.8,3.6,4.3c0.1,0,0.2,0,0.2,0C62.4,66.1,62.4,66.2,62.4,66.2z"/>
</svg>
