<?xml version="1.0" encoding="utf-8"?>
<!-- Generator: Adobe Illustrator 16.0.0, SVG Export Plug-In . SVG Version: 6.00 Build 0)  -->
<!DOCTYPE svg PUBLIC "-//W3C//DTD SVG 1.1//EN" "http://www.w3.org/Graphics/SVG/1.1/DTD/svg11.dtd">
<svg version="1.1" id="Layer_1" xmlns="http://www.w3.org/2000/svg" xmlns:xlink="http://www.w3.org/1999/xlink" x="0px" y="0px"
	 width="1920px" height="764px" viewBox="0 157.5 1920 764" style="enable-background:new 0 157.5 1920 764;" xml:space="preserve">
<style type="text/css">
<![CDATA[
	.st0{fill:#5DB646;}
]]>
</style>
<title>ptc-master-color-CS5</title>
<g id="_Group_">
	<g id="_Group_2">
		<polygon id="_Path_" points="323.7,166.5 0,353.5 0,518.7 323.7,330.5 505.8,434.9 469.5,456 323.7,372.1 196.9,445.5 
			486.7,613.3 647.4,519.3 647.4,353.5 		"/>
		<polygon id="_Path_2" class="st0" points="323.7,913.5 647.4,726.9 647.4,561.3 323.7,749.5 141.6,645.1 177.9,624 323.7,707.9 
			450.5,634.5 160.7,466.7 0,560.7 0,726.9 		"/>
	</g>
	<path d="M971.1,412.4c29.1-42.7,72.6-64.1,130.4-64.1c48.5-1.7,95.2,18.3,127.4,54.6c65.1,76.9,65.1,189.6,0,266.5
		c-32.5,36.4-76.2,54.6-131.1,54.6s-97.1-21.6-126.7-64.8v203.2h-54.6V354.1h54.6V412.4z M1094.2,397.8
		c-35.7-1.6-70.1,13.5-93.2,40.7c-43.7,57.7-43.7,137.4,0,195.2c23.1,27.3,57.5,42.3,93.2,40.7c36,1.2,70.7-13.7,94.6-40.7
		c45.6-57,45.6-138.1,0-195.2C1164.9,411.6,1130.3,396.7,1094.2,397.8L1094.2,397.8z"/>
	<path d="M1391.4,718.7V402.2H1317v-48.1h74.3V223.8h54.6v130.4h83.7v48.1h-83.7v316.5H1391.4z"/>
	<path d="M1759.9,674.6c22.2,0.4,44-6.5,61.9-19.7c17.8-12.9,31.4-30.6,39.3-51h59c-10.4,34.8-31.9,65.3-61.2,86.7
		c-32.4,22.7-71.2,34.5-110.7,33.5c-49.3,1.7-97-18.2-130.4-54.6c-65.1-76.9-65.1-189.6,0-266.5c33.4-36.4,81-56.3,130.4-54.6
		c39.5-1,78.3,10.8,110.7,33.5c29.3,21.4,50.8,51.9,61.2,86.7h-59c-7.9-20.4-21.6-38.2-39.3-51c-18-13.1-39.7-20-61.9-19.7
		c-20.3-0.6-40.5,3.1-59.3,10.9c-15.7,6.9-29.7,17.1-41.1,29.8c-47.6,56.4-47.6,138.8,0,195.2C1683.7,661,1717.2,674.6,1759.9,674.6
		z"/>
</g>
</svg>
