<?xml version="1.0" encoding="utf-8"?>
<!-- Generator: Adobe Illustrator 16.0.0, SVG Export Plug-In . SVG Version: 6.00 Build 0)  -->
<!DOCTYPE svg PUBLIC "-//W3C//DTD SVG 1.1//EN" "http://www.w3.org/Graphics/SVG/1.1/DTD/svg11.dtd">
<svg version="1.1" id="Layer_1" xmlns="http://www.w3.org/2000/svg" xmlns:xlink="http://www.w3.org/1999/xlink" x="0px" y="0px"
	 width="234.25px" height="125.25px" viewBox="0 0 234.25 125.25" enable-background="new 0 0 234.25 125.25" xml:space="preserve">
<path fill-rule="evenodd" clip-rule="evenodd" fill="#939598" d="M226.29,55.34c-0.39,5.094-8.633,3.389-11.28,1.44
	c-0.873-0.643-1.26-2.634-2.16-3.12c-0.96,0-1.92,0-2.88,0c-0.543-0.366-1.505-0.169-2.159-0.48
	c-7.386-3.504-8.938,1.572-15.36,2.64c-0.041,3.852,0.396,6.652-0.48,9.84c-0.763,2.772-2.324,4.96-0.96,8.159
	c2.053,4.812,6.302,9.454,9.84,12.961c1.36,1.12,2.721,2.239,4.081,3.359c1.043,1.536,1.146,3.466,1.919,5.28
	c0.815,1.914,2.668,3.157,3.601,4.8c0.556,0.979,0.288,1.979,0.72,3.12c1.432,3.782,4.618,5.421,4.561,10.32
	c-1.389,0.908-1.925,3.146-3.601,3.6c-2.305,0.623-4.089-1.69-5.04-2.64c-1.9-1.896-3.486-3.987-4.56-6.72
	c-0.32-1.6-0.641-3.201-0.961-4.8c-0.8-0.641-1.6-1.281-2.399-1.92c-0.16-0.721-0.32-1.441-0.48-2.161
	c-1.024-1.617-5.393-3.212-7.199-4.319c-1.909-1.172-3.921-2.92-6-3.84c-2.221-0.982-4.426-1.433-6.48-2.641
	c-1.669-0.981-2.709-2.879-4.32-3.84c-1.069-0.638-1.902-0.625-3.12-1.199c-2.226-1.052-1.1-4.918-3.839-5.521
	c-1.391,1.62-3.386,2.393-4.561,4.32c-0.459,0.752-0.309,1.542-0.72,2.399c-0.638,1.331-1.674,2.792-2.16,4.32
	c-1.075,3.378-0.285,8.525-0.24,12.239c-0.08,2.56-0.16,5.121-0.239,7.681c0.352,1.273,1.505,2.265,1.92,3.36
	c0.331,0.877,0.024,2.162,0.479,2.88c1.062,0.614,3.101,0.026,4.32,0.479c1.014,0.376,0.967,1.365,1.68,1.92
	c1.867,1.455,2.702,0.403,2.64,4.08c-0.192,0.245-0.085,0.066-0.239,0.479c-0.676,0.426-1.342,1.2-2.16,1.44c-1.12,0-2.24,0-3.36,0
	c-4.471,1.828-9.634,0.435-11.76-3.12c-0.636-1.062-0.471-2.104-0.96-3.359c-0.806-2.069-2.898-3.228-3.601-5.521
	c-0.319-2.479-0.64-4.96-0.959-7.44c-1.022-4.255-1.45-9.009-2.4-13.199c-0.947-4.178,0.697-11.353-1.44-14.16
	c-0.963-0.625-3.843-0.271-5.28-0.24c-1.963,1.238-7.998-0.101-10.799,0.48c-2.219,0.46-6.349,0.018-8.64-0.48
	c-2.32-0.08-4.64-0.159-6.96-0.239c-2.865-0.649-6.171-1.323-9.36-1.44c0,0.16,0,0.32,0,0.479c-1.69,2.592-1.308,8.998-1.2,12.721
	c0.105,3.607-1.821,6.914-2.64,10.079c-1.165,4.504,3.929,10.297,6,11.761c2.572,1.817,4.615-0.333,8.4,0.72
	c1.602,0.445,2.615,1.335,3.6,2.4c0.976,1.056,1.638,1.499,1.68,3.6c-0.193,0.245-0.085,0.065-0.24,0.48
	c-1.164,0.678-2.265,2.221-3.36,2.64c-1.602,0.613-9.404,0.562-11.04,0c-2.174-0.747-3.32-2.869-5.04-4.08
	c-4.791-3.374-8.238-5.382-11.76-10.08c-0.892-1.189-2.378-2.254-2.88-3.84c-0.417-1.318,0.298-2.85,0.48-3.601
	c-0.08-2.559-0.16-5.12-0.24-7.68c-0.61-2.567-1.103-5.592-2.16-7.92c-0.489-1.077-1.628-2.285-2.16-3.359
	c-0.78-1.574-0.511-3.651-1.44-5.041c-0.72-0.719-1.44-1.439-2.16-2.159c-0.08,0.08-0.16,0.159-0.24,0.24
	c-1.04,0.88-2.08,1.76-3.12,2.64c-2.095,1.172-4.182,1.934-6,3.36c-1.639,1.285-2.354,3.781-4.08,5.039
	c-1.627,1.188-3.452,1.929-5.04,3.121c-1.76,1.999-3.52,4-5.28,6c-2.289,2.271-5.499,3.888-7.44,6.479
	c-0.917,1.225-2.29,2.693-2.88,4.08c-1.068,2.51-1.481,9.156,0.96,10.08c0.812,0.607,2.581,0.602,3.6,0.96
	c0.202,0.451,0.148,1.334,0.48,1.92c0.653,1.151,1.746,0.295,1.92,2.64c-0.764,0.525-0.982,1.361-1.68,1.92
	c-1.148,0.87-2.104-0.364-3.36,0c-0.24,0.32-0.48,0.641-0.72,0.961c-1.52,0.648-5.637-0.697-6.72-0.961
	c-1.041-1.583-2.448-3.009-3.12-5.039c-1.418-4.289-0.717-9.645-0.72-14.641c-0.002-3.874-0.726-6.834-0.48-10.56
	c3.249-2.18,5.871-6.08,7.2-10.081c0.32-1.519,0.64-3.039,0.96-4.56c1.054-2.764,3.123-5.577,4.8-7.92
	c0.713-0.996,1.995-2.093,2.4-3.36c0.242-0.758-0.154-2.009-0.24-2.4c0.08-1.92,0.16-3.84,0.24-5.76c-0.16,0-0.32,0-0.48,0
	c-3.38,3.219-15.962,3.289-21.36,1.68c-12.865-3.834-19.961-13.583-24-26.16c-0.4-2.399-0.8-4.8-1.2-7.2
	c-0.341-1.585-0.035-4.311,0.24-5.52c0.42-1.847,0.183-3.154,0.72-4.8c1.566-4.798,4.872-8.938,9.12-11.04
	c2.535-1.254,9.798-2.189,12,0c0.434,0.432,0.54,1.239,0.96,1.68c0.015,1.038-0.086,1.898-0.24,2.64
	c-5.104,3.198-13.226,4.168-15.6,10.08c-1.623,4.04,0.403,9.259,1.44,12.24c2.876,8.268,6.695,14.797,13.92,18.72
	c2.308,1.253,6.963,2.93,11.28,1.92c1.963-0.459,4.236-0.675,6-1.44c6.827-2.961,10.487-10.308,16.32-14.4
	c6.391-4.484,14.537-6.124,23.28-8.4c4.492-1.169,15.472-0.548,19.68,0.48c2.497,0.61,5.381-0.08,7.68,0.48
	c5.359,0.08,10.72,0.16,16.08,0.24c3.625,0.807,7.984-0.115,11.761,0.72c2.706,0.598,11.245,1.129,13.92,0.48
	c4.007-0.973,7.135-2.851,10.8-3.84c3.258-0.879,6.993,0.451,9.84,0.48c3.84-0.08,7.681-0.16,11.52-0.24
	c6.116,0,12.633,0.271,17.521-0.96c1.842-0.464,8.638,0.375,9.12,0c2.197-1.595,2.676-4.517,6.479-4.56
	c0.982,1.689,1.438,3.67,1.44,6.48c2.794,1.417,4.591,4.351,6.72,6.48c0.96,0.96,1.92,1.92,2.88,2.88c0.08,0.8,0.16,1.6,0.24,2.4
	c0.438,1.332,1.112,3.431,1.92,4.56c1.145,1.599,5.499,4.426,4.8,7.44c-0.495,2.139-4.039,4.583-5.52,6
	C227.09,55.34,226.689,55.34,226.29,55.34z"/>
</svg>
