<?xml version="1.0" encoding="utf-8"?>
<!-- Generator: Adobe Illustrator 16.0.0, SVG Export Plug-In . SVG Version: 6.00 Build 0)  -->
<!DOCTYPE svg PUBLIC "-//W3C//DTD SVG 1.1//EN" "http://www.w3.org/Graphics/SVG/1.1/DTD/svg11.dtd">
<svg version="1.1" id="Layer_1" xmlns="http://www.w3.org/2000/svg" xmlns:xlink="http://www.w3.org/1999/xlink" x="0px" y="0px"
	 width="234.2px" height="125.2px" viewBox="0 0 234.2 125.2" style="enable-background:new 0 0 234.2 125.2;" xml:space="preserve"
	>
<style type="text/css">
<![CDATA[
	.st0{fill-rule:evenodd;clip-rule:evenodd;}
]]>
</style>
<path class="st0" d="M226.3,55.3c-0.4,5.1-8.6,3.4-11.3,1.4c-0.9-0.6-1.3-2.6-2.2-3.1c-1,0-1.9,0-2.9,0c-0.5-0.4-1.5-0.2-2.2-0.5
	c-7.4-3.5-8.9,1.6-15.4,2.6c0,3.9,0.4,6.7-0.5,9.8c-0.8,2.8-2.3,5-1,8.2c2.1,4.8,6.3,9.5,9.8,13c1.4,1.1,2.7,2.2,4.1,3.4
	c1,1.5,1.1,3.5,1.9,5.3c0.8,1.9,2.7,3.2,3.6,4.8c0.6,1,0.3,2,0.7,3.1c1.4,3.8,4.6,5.4,4.6,10.3c-1.4,0.9-1.9,3.1-3.6,3.6
	c-2.3,0.6-4.1-1.7-5-2.6c-1.9-1.9-3.5-4-4.6-6.7c-0.3-1.6-0.6-3.2-1-4.8c-0.8-0.6-1.6-1.3-2.4-1.9c-0.2-0.7-0.3-1.4-0.5-2.2
	c-1-1.6-5.4-3.2-7.2-4.3c-1.9-1.2-3.9-2.9-6-3.8c-2.2-1-4.4-1.4-6.5-2.6c-1.7-1-2.7-2.9-4.3-3.8c-1.1-0.6-1.9-0.6-3.1-1.2
	c-2.2-1.1-1.1-4.9-3.8-5.5c-1.4,1.6-3.4,2.4-4.6,4.3c-0.5,0.8-0.3,1.5-0.7,2.4c-0.6,1.3-1.7,2.8-2.2,4.3c-1.1,3.4-0.3,8.5-0.2,12.2
	c-0.1,2.6-0.2,5.1-0.2,7.7c0.4,1.3,1.5,2.3,1.9,3.4c0.3,0.9,0,2.2,0.5,2.9c1.1,0.6,3.1,0,4.3,0.5c1,0.4,1,1.4,1.7,1.9
	c1.9,1.5,2.7,0.4,2.6,4.1c-0.2,0.2-0.1,0.1-0.2,0.5c-0.7,0.4-1.3,1.2-2.2,1.4c-1.1,0-2.2,0-3.4,0c-4.5,1.8-9.6,0.4-11.8-3.1
	c-0.6-1.1-0.5-2.1-1-3.4c-0.8-2.1-2.9-3.2-3.6-5.5c-0.3-2.5-0.6-5-1-7.4c-1-4.3-1.4-9-2.4-13.2c-0.9-4.2,0.7-11.4-1.4-14.2
	c-1-0.6-3.8-0.3-5.3-0.2c-2,1.2-8-0.1-10.8,0.5c-2.2,0.5-6.3,0-8.6-0.5c-2.3-0.1-4.6-0.2-7-0.2c-2.9-0.6-6.2-1.3-9.4-1.4
	c0,0.2,0,0.3,0,0.5c-1.7,2.6-1.3,9-1.2,12.7c0.1,3.6-1.8,6.9-2.6,10.1c-1.2,4.5,3.9,10.3,6,11.8c2.6,1.8,4.6-0.3,8.4,0.7
	c1.6,0.4,2.6,1.3,3.6,2.4c1,1.1,1.6,1.5,1.7,3.6c-0.2,0.2-0.1,0.1-0.2,0.5c-1.2,0.7-2.3,2.2-3.4,2.6c-1.6,0.6-9.4,0.6-11,0
	c-2.2-0.7-3.3-2.9-5-4.1c-4.8-3.4-8.2-5.4-11.8-10.1c-0.9-1.2-2.4-2.3-2.9-3.8c-0.4-1.3,0.3-2.8,0.5-3.6c-0.1-2.6-0.2-5.1-0.2-7.7
	c-0.6-2.6-1.1-5.6-2.2-7.9c-0.5-1.1-1.6-2.3-2.2-3.4c-0.8-1.6-0.5-3.7-1.4-5c-0.7-0.7-1.4-1.4-2.2-2.2c-0.1,0.1-0.2,0.2-0.2,0.2
	c-1,0.9-2.1,1.8-3.1,2.6c-2.1,1.2-4.2,1.9-6,3.4c-1.6,1.3-2.4,3.8-4.1,5c-1.6,1.2-3.5,1.9-5,3.1c-1.8,2-3.5,4-5.3,6
	c-2.3,2.3-5.5,3.9-7.4,6.5c-0.9,1.2-2.3,2.7-2.9,4.1c-1.1,2.5-1.5,9.2,1,10.1c0.8,0.6,2.6,0.6,3.6,1c0.2,0.5,0.1,1.3,0.5,1.9
	c0.7,1.2,1.7,0.3,1.9,2.6c-0.8,0.5-1,1.4-1.7,1.9c-1.1,0.9-2.1-0.4-3.4,0c-0.2,0.3-0.5,0.6-0.7,1c-1.5,0.6-5.6-0.7-6.7-1
	c-1-1.6-2.4-3-3.1-5c-1.4-4.3-0.7-9.6-0.7-14.6c0-3.9-0.7-6.8-0.5-10.6c3.2-2.2,5.9-6.1,7.2-10.1c0.3-1.5,0.6-3,1-4.6
	c1.1-2.8,3.1-5.6,4.8-7.9c0.7-1,2-2.1,2.4-3.4c0.2-0.8-0.2-2-0.2-2.4c0.1-1.9,0.2-3.8,0.2-5.8c-0.2,0-0.3,0-0.5,0
	c-3.4,3.2-16,3.3-21.4,1.7c-12.9-3.8-20-13.6-24-26.2c-0.4-2.4-0.8-4.8-1.2-7.2c-0.3-1.6,0-4.3,0.2-5.5c0.4-1.8,0.2-3.2,0.7-4.8
	C3.7,9,7,4.9,11.2,2.8c2.5-1.3,9.8-2.2,12,0c0.4,0.4,0.5,1.2,1,1.7c0,1-0.1,1.9-0.2,2.6c-5.1,3.2-13.2,4.2-15.6,10.1
	c-1.6,4,0.4,9.3,1.4,12.2c2.9,8.3,6.7,14.8,13.9,18.7c2.3,1.3,7,2.9,11.3,1.9c2-0.5,4.2-0.7,6-1.4c6.8-3,10.5-10.3,16.3-14.4
	c6.4-4.5,14.5-6.1,23.3-8.4c4.5-1.2,15.5-0.5,19.7,0.5c2.5,0.6,5.4-0.1,7.7,0.5c5.4,0.1,10.7,0.2,16.1,0.2c3.6,0.8,8-0.1,11.8,0.7
	c2.7,0.6,11.2,1.1,13.9,0.5c4-1,7.1-2.9,10.8-3.8c3.3-0.9,7,0.5,9.8,0.5c3.8-0.1,7.7-0.2,11.5-0.2c6.1,0,12.6,0.3,17.5-1
	c1.8-0.5,8.6,0.4,9.1,0c2.2-1.6,2.7-4.5,6.5-4.6c1,1.7,1.4,3.7,1.4,6.5c2.8,1.4,4.6,4.4,6.7,6.5c1,1,1.9,1.9,2.9,2.9
	c0.1,0.8,0.2,1.6,0.2,2.4c0.4,1.3,1.1,3.4,1.9,4.6c1.1,1.6,5.5,4.4,4.8,7.4c-0.5,2.1-4,4.6-5.5,6C227.1,55.3,226.7,55.3,226.3,55.3z
	"/>
</svg>
