<?xml version="1.0" encoding="utf-8"?>
<!-- Generator: Adobe Illustrator 16.0.0, SVG Export Plug-In . SVG Version: 6.00 Build 0)  -->
<!DOCTYPE svg PUBLIC "-//W3C//DTD SVG 1.1//EN" "http://www.w3.org/Graphics/SVG/1.1/DTD/svg11.dtd">
<svg version="1.1" id="Layer_1" xmlns="http://www.w3.org/2000/svg" xmlns:xlink="http://www.w3.org/1999/xlink" x="0px" y="0px"
	 width="91.124px" height="20.917px" viewBox="171.958 99 91.124 20.917" enable-background="new 171.958 99 91.124 20.917"
	 xml:space="preserve">
<rect x="220.746" y="99.164" width="0.545" height="20.564"/>
<g>
	<g>
		<path d="M248.4,119.072l2.836-1.908l0.055-0.164c0.027-0.109,0.9-2.482,0.9-5.836v-6.41l-0.246-0.272v6.682
			c0,3.3-0.846,5.672-0.9,5.754L251.018,117l-2.973,1.99L248.4,119.072z"/>
	</g>
	<polygon points="224.563,116.728 227.018,116.264 227.018,108.437 226.773,108.082 226.773,116.072 224.346,116.51 	"/>
	<polygon points="233.863,103.118 233.863,115.01 232.2,115.173 232.363,115.418 234.137,115.228 234.137,103.309 	"/>
	<polygon points="236.154,114.955 238.254,114.709 238.254,103.691 238.01,103.473 238.01,114.464 235.937,114.709 	"/>
	<polygon points="246.409,114.055 248.236,113.945 248.236,104.618 247.99,104.318 247.99,113.7 246.191,113.809 	"/>
	<polygon points="242.1,108.518 242.1,114.082 239.863,114.327 240.082,114.545 242.346,114.3 242.346,108.955 	"/>
	<polygon points="256.964,109.609 257.646,107.782 257.563,107.4 256.691,109.609 	"/>
	<polygon points="255.928,111.846 255.354,113.373 252.818,113.482 252.9,113.754 255.545,113.646 256.2,111.846 	"/>
	<polygon points="259.036,104.7 262.5,113.209 259.99,113.209 260.127,113.455 262.882,113.455 259.391,104.918 	"/>
	<polygon points="232.063,114.928 226.527,107.291 226.527,115.827 224.154,116.264 224.154,101.482 226.036,101.836 231.382,109.8 
		231.382,102.654 233.591,102.955 233.591,114.764 	"/>
	<polygon points="237.736,114.219 237.736,103.445 235.854,103.227 235.854,114.464 	"/>
	<polygon points="241.363,103.8 239.891,103.691 239.891,114.055 241.854,113.836 241.854,107.754 246.137,113.536 247.719,113.455 
		247.719,104.291 245.727,104.127 245.727,109.664 	"/>
	<path d="M258.764,109.854h-2.428l1.228-3.136L258.764,109.854z M256.391,104.673l-3.545,8.563l2.346-0.109l0.572-1.555h3.572
		l0.546,1.364h2.209l-3.327-8.209L256.391,104.673z"/>
	<g>
		<path d="M250.8,116.809c0,0,0.873-2.372,0.873-5.645v-6.709l-2.101-0.109v6.791c0,4.582-1.663,7.582-1.663,7.582L250.8,116.809z"
			/>
	</g>
</g>
<g>
	<path d="M182.836,106.854c0.055-2.836-2.155-3.764-4.609-3.764c-2.318,0-4.854,1.2-4.854,3.791c0,1.909,1.364,2.646,2.755,3.136
		c1.609,0.519,2.782,0.655,2.782,1.473c0,0.764-0.846,1.119-1.555,1.119c-0.573,0-1.009-0.027-1.309-0.301
		c-0.3-0.299-0.437-0.682-0.437-1.309h-3.436c-0.137,2.918,2.236,4.146,4.882,4.146c2.509,0,5.209-1.31,5.209-4.063
		c0-1.363-0.682-2.455-2.673-3.164c-1.118-0.409-2.864-0.463-2.864-1.309c0-0.763,0.764-0.927,1.364-0.927
		c0.409,0,0.764,0.055,1.037,0.246c0.245,0.191,0.409,0.491,0.409,0.955h3.3V106.854z"/>
	<path d="M182.073,114.873h3.191l0.927-4.418c0.191-0.873,0.545-1.582,1.555-1.582c0.518,0,0.9,0.272,0.9,0.818
		c0,0.326-0.164,0.899-0.246,1.391l-0.818,3.846h3.191l1.009-4.719c0.136-0.6,0.218-1.227,0.218-1.582
		c0-1.636-1.254-2.263-2.727-2.263c-0.9,0-1.909,0.463-2.482,1.282h-0.027l0.873-4.282h-3.191L182.073,114.873z"/>
	<path d="M196.036,109.036c0.191-0.627,0.627-0.845,1.282-0.845c0.491,0,1.009,0.136,1.009,0.737c0,1.036-1.445,0.899-2.345,0.954
		c-2.4,0.19-4.064,0.764-4.064,2.973c0,1.582,1.282,2.209,2.7,2.209c0.927,0,2.018-0.327,2.591-1.009h0.027
		c-0.027,0.272,0.027,0.545,0.109,0.818h3.137c-0.082-0.191-0.137-0.437-0.137-0.736c0-0.546,1.009-4.31,1.009-5.592
		c0-2.018-2.563-2.208-4.063-2.208c-2.045,0-3.791,0.518-4.282,2.727h3.027V109.036z M195.136,112.473
		c0-0.6,0.491-0.873,1.037-0.928c0.573-0.055,1.172-0.108,1.691-0.381c-0.191,1.227-0.627,2.018-1.718,2.018
		C195.627,113.209,195.136,113.045,195.136,112.473"/>
	<path d="M201.3,114.873h3.191l0.736-3.491c0.382-1.745,1.037-2.346,2.4-2.346c0.409,0,0.845,0.055,1.227,0.218l0.6-2.809
		c-0.3-0.109-0.6-0.136-1.118-0.136c-0.818,0-1.882,0.627-2.427,1.5h-0.027l0.272-1.309h-3.109L201.3,114.873z"/>
	<polygon points="210.545,103.364 208.146,114.873 211.336,114.873 211.854,112.5 212.563,111.846 213.709,114.873 217.173,114.873 
		215.045,109.882 218.809,106.527 214.991,106.527 212.618,108.955 212.591,108.955 213.736,103.364 	"/>
</g>
</svg>
