<?xml version="1.0" encoding="utf-8"?>
<!-- Generator: Adobe Illustrator 16.0.0, SVG Export Plug-In . SVG Version: 6.00 Build 0)  -->
<!DOCTYPE svg PUBLIC "-//W3C//DTD SVG 1.1//EN" "http://www.w3.org/Graphics/SVG/1.1/DTD/svg11.dtd">
<svg version="1.1" id="svg2" xmlns:svg="http://www.w3.org/2000/svg"
	 xmlns="http://www.w3.org/2000/svg" xmlns:xlink="http://www.w3.org/1999/xlink" x="0px" y="0px" width="561px" height="93px"
	 viewBox="0 0 561 93" enable-background="new 0 0 561 93" xml:space="preserve">
<g id="g6">
	<g id="g8">
		<polyline id="polyline10" fill="#003280" points="133.928,89.051 133.928,67.869 105.442,67.869 105.442,56.156 133.928,56.156 
			133.928,34.974 106.185,34.974 106.185,23.26 133.928,23.26 133.928,2.074 77.792,2.074 77.792,89.051 133.928,89.051 		"/>
	</g>
	<g id="g12">
		<polyline id="polyline14" fill="#003280" points="164.856,45.751 133.928,89.051 163.169,89.051 179.292,66.371 195.601,89.051 
			225.589,89.051 194.66,44.626 224.464,2.074 195.785,2.074 180.04,24.381 164.294,2.074 133.928,2.074 164.856,45.751 		"/>
	</g>
	<g id="g16">
		<path id="path18" fill="#003280" d="M301.79,89.051h27.264v-64.67l4.834-0.044c20.093,0.044,14.846,25.915-1.925,23.381
			l28.863,41.333h29.057l-27.461-39.177c21.739-16.119,10.498-47.799-18.369-47.799h-42.175L301.79,89.051"/>
	</g>
	<g id="g20">
		<polyline id="polyline22" fill="#003280" points="505.714,89.051 505.714,44.438 537.117,89.051 559.701,89.051 559.701,2.074 
			531.492,2.074 531.492,39.942 504.971,2.074 480.129,2.074 480.129,89.051 505.714,89.051 		"/>
	</g>
	<g id="g24">
		<polyline id="polyline26" fill="#003280" points="0,2.074 0,23.26 22.496,23.26 22.496,89.051 50.893,89.051 50.893,23.26 
			77.695,23.26 62.895,2.074 0,2.074 		"/>
	</g>
	<g id="g28">
		<polyline id="polyline30" fill="#003280" points="224.002,2.074 224.002,23.26 246.489,23.26 246.489,89.051 274.883,89.051 
			274.883,23.26 301.689,23.26 286.884,2.074 224.002,2.074 		"/>
	</g>
	<g id="g32">
		<g id="g34">
			<path id="path36" fill="#003280" d="M380.588,46.129C380.588,20.654,401.242,0,426.713,0c25.477,0,46.125,20.654,46.125,46.129
				c0,25.471-20.648,46.121-46.125,46.121C401.242,92.25,380.588,71.6,380.588,46.129 M426.713,67.066
				c11.571,0,20.94-9.377,20.94-20.938c0-11.568-9.369-20.949-20.94-20.949c-11.57,0-20.943,9.38-20.943,20.949
				C405.77,57.689,415.143,67.066,426.713,67.066z"/>
		</g>
	</g>
</g>
</svg>
