<?xml version="1.0" encoding="utf-8"?>
<!-- Generator: Adobe Illustrator 16.0.0, SVG Export Plug-In . SVG Version: 6.00 Build 0)  -->
<!DOCTYPE svg PUBLIC "-//W3C//DTD SVG 1.1//EN" "http://www.w3.org/Graphics/SVG/1.1/DTD/svg11.dtd">
<svg version="1.1" id="Layer_1" xmlns="http://www.w3.org/2000/svg" xmlns:xlink="http://www.w3.org/1999/xlink" x="0px" y="0px"
	 width="92px" height="91.6px" viewBox="0 0 92 91.6" style="enable-background:new 0 0 92 91.6;" xml:space="preserve">
<style type="text/css">
<![CDATA[
	.st0{fill:#FFFFFF;}
	.st1{fill:#399549;}
	.st2{fill:#056F45;}
]]>
</style>
<g>
	<g>
		<circle class="st2" cx="45.9" cy="46" r="45"/>
		<g>
			<g>
				<path class="st0" d="M80.4,40.6c-0.2,0-0.4,0.1-0.6,0.4c0,0-0.1,0.1-0.2,0.4c-0.3,0.6-0.8,0.8-1.6,0.8l-2.2,0
					c-0.7,0-1,0-1.3-0.2c-0.3-0.1-0.4-0.4-0.4-1.5v-2.8c0-0.5,0.1-0.7,0.2-0.8c0.1-0.1,0.3-0.1,0.9-0.1h1c0.9,0,1,0.1,1.1,0.5l0,0.1
					c0.1,0.4,0.3,0.6,0.6,0.6c0.5,0,0.6-0.3,0.6-1v-1.8c0-0.8-0.2-1-0.6-1c-0.3,0-0.5,0.2-0.6,0.5l0,0.1c-0.1,0.4-0.2,0.5-1.1,0.5
					h-1c-0.6,0-0.8,0-0.9-0.1c-0.1-0.1-0.2-0.3-0.2-0.8v-2.6c0-1.2,0.1-1.3,1.3-1.3h2.1c1,0,1.5,0.1,1.7,0.6
					c0.1,0.3,0.2,0.4,0.2,0.5c0.1,0.3,0.3,0.3,0.6,0.3c0.4,0,0.6-0.3,0.5-0.9l-0.3-1.5c-0.1-0.4-0.3-0.5-0.8-0.5h-8.7
					c-0.7,0-1,0.2-1,0.6c0,0.3,0.3,0.6,0.6,0.6h0.4c0.1,0,0.3,0.1,0.3,0.3c0.1,0.2,0.1,0.3,0.1,0.9v9.8c0,0.6,0,0.7-0.1,0.9
					c0,0.1-0.2,0.3-0.3,0.3h-0.4c-0.3,0-0.5,0.3-0.5,0.6c0,0.5,0.2,0.6,1,0.6h8.6l0.6,0c0.4,0,0.7-0.1,0.8-0.5l0.3-1.7
					C81,40.9,80.8,40.6,80.4,40.6z"/>
				<path class="st0" d="M64.7,42.2c-0.9,0-1.2,0-1.4-0.2C63,41.9,63,41.6,63,40.7v-9.2c0-0.6,0-0.7,0.1-0.9
					c0.1-0.2,0.3-0.3,0.5-0.3H64c0.3,0,0.6-0.3,0.6-0.6c0-0.5-0.3-0.6-1.1-0.6h-4c-0.8,0-1,0.2-1,0.6c0,0.3,0.3,0.6,0.6,0.6h0.4
					c0.1,0,0.3,0.1,0.4,0.3c0.1,0.2,0.1,0.3,0.1,0.9v9.9c0,0.5,0,0.6-0.1,0.8c0,0.1-0.2,0.3-0.4,0.3h-0.4c-0.3,0-0.5,0.3-0.5,0.6
					c0,0.5,0.2,0.6,1,0.6h8.2c0.4,0,0.7-0.1,0.8-0.5l0.3-1.7c0.1-0.6-0.1-0.9-0.5-0.9c-0.2,0-0.4,0.1-0.6,0.4c0,0-0.1,0.1-0.2,0.4
					c-0.3,0.6-0.8,0.8-1.6,0.8H64.7z"/>
				<path class="st0" d="M29.8,30.4c-0.4,0.1-0.6,0.3-0.8,1.1l-3.5,11.2c-0.3,1.1-0.6,1.4-1.3,1.4c-0.7,0-1-0.3-1.2-1.1
					c0,0-1.8-5.4-1.9-5.6c-0.1-0.2-0.2-0.2-0.3,0c-0.1,0.2-2,5.6-2,5.6c-0.2,0.5-0.3,0.7-0.4,0.9c-0.2,0.1-0.5,0.2-0.7,0.2
					c-0.6,0-0.9-0.3-1.2-1.1l-4.3-11.5c-0.3-0.9-0.4-1-1.1-1.2c-0.5-0.1-0.6-0.2-0.6-0.6c0-0.4,0.2-0.6,0.7-0.6h4.5
					c0.5,0,0.7,0.2,0.7,0.6c0,0.4-0.2,0.5-0.8,0.6c-0.5,0-0.7,0.2-0.7,0.5c0,0.1,0,0.3,0.1,0.5l0.2,0.5c0,0,2.4,6.8,2.8,7.9
					c0.1,0.2,0.3,0.2,0.3,0c0.4-1.2,1.6-4.6,1.6-4.7c0.1-0.4,0.2-0.8,0-1.2c0-0.2-0.8-2.3-0.8-2.3c-0.1-0.2-0.1-0.4-0.2-0.5
					c-0.1-0.3-0.3-0.4-0.8-0.6c-0.4-0.1-0.6-0.3-0.6-0.6c0-0.4,0.3-0.7,0.8-0.7h4.3c0.5,0,0.7,0.2,0.7,0.6c0,0.3-0.2,0.5-0.7,0.6
					c-0.6,0.1-0.7,0.2-0.7,0.6c0,0.2,0,0.4,0.2,0.9c0,0,2.1,6.7,2.4,7.7c0.1,0.2,0.3,0.2,0.3,0c0.3-1.1,2.4-8.1,2.4-8.1
					c0.1-0.2,0.1-0.4,0.1-0.5c0-0.3-0.2-0.5-0.8-0.6c-0.5,0-0.7-0.3-0.7-0.6c0-0.4,0.2-0.6,0.8-0.6h7.6c0.7,0,1,0.1,1,0.6
					c0,0.4-0.2,0.6-0.5,0.6h-0.4c-0.2,0-0.3,0.1-0.4,0.3c0,0.2-0.1,0.3-0.1,0.9v2.8c0,1,0.1,1.1,0.9,1.1h3c0.4,0,0.7-0.1,0.8-0.2
					c0.1-0.1,0.1-0.2,0.1-1v-2.7c0-0.6,0-0.7-0.1-0.9c-0.1-0.2-0.2-0.3-0.4-0.3h-0.4c-0.3,0-0.6-0.3-0.6-0.6c0-0.5,0.3-0.6,1-0.6h4
					c0.7,0,1,0.1,1,0.6c0,0.4-0.3,0.6-0.6,0.6H42c-0.2,0-0.3,0.1-0.4,0.3c-0.1,0.2-0.1,0.3-0.1,0.9v9.8c0,0.6,0,0.7,0.1,0.9
					c0,0.2,0.2,0.3,0.4,0.3h0.4c0.3,0,0.6,0.3,0.6,0.6c0,0.5-0.2,0.6-1,0.6h-4c-0.7,0-1-0.1-1-0.6c0-0.3,0.3-0.6,0.6-0.6H38
					c0.1,0,0.3-0.1,0.4-0.3c0.1-0.2,0.1-0.3,0.1-0.9v-3.2c0-0.8,0-0.9-0.1-1c-0.1-0.1-0.3-0.2-0.8-0.2h-3c-0.8,0-0.9,0.1-0.9,1.1
					v3.3c0,0.6,0,0.7,0.1,0.9c0.1,0.2,0.2,0.3,0.4,0.3h0.4c0.3,0,0.5,0.3,0.5,0.6c0,0.5-0.2,0.6-0.9,0.6h-4c-0.7,0-1-0.1-1-0.6
					c0-0.3,0.3-0.6,0.6-0.6h0.4c0.2,0,0.3-0.1,0.4-0.3c0.1-0.2,0.1-0.3,0.1-0.9v-9.8C30.7,30.4,30.1,30.3,29.8,30.4z"/>
				<path class="st1" d="M47.5,25"/>
			</g>
		</g>
		<g>
			<path class="st0" d="M77.9,54.2c-0.7-0.7-1.3-1.2-3-2.4c-0.5-0.3-0.8-0.6-1.1-0.8c-0.4-0.3-0.8-0.7-1-1c-0.2-0.2-0.2-0.6-0.2-0.9
				c0-0.9,0.7-1.5,1.7-1.5c0.7,0,1.5,0.2,2.1,0.7c0.5,0.4,0.5,0.4,1,1.2c0.2,0.3,0.3,0.4,0.6,0.4c0.4,0,0.6-0.2,0.6-0.5
				c0-0.1,0-0.2,0-0.3L78,46.8c-0.1-0.4-0.3-0.6-0.6-0.6c-0.2,0-0.2,0-0.5,0.2c-0.2,0.1-0.4,0.2-0.5,0.2c-0.1,0-0.2,0-0.3,0
				c-0.3-0.1-0.5-0.1-0.6-0.1c-0.6-0.1-1.3-0.2-1.9-0.2c-2.4,0-4,1.4-4,3.5c0,0.9,0.3,1.7,0.8,2.3c0.7,0.8,0.9,0.9,2.9,2.4
				c1.3,0.9,1.8,1.4,2.3,1.9c0.5,0.5,0.7,1,0.7,1.6c0,1.2-1,1.9-2.4,1.9c-1.2,0-2.5-0.7-3.2-1.7l-0.3-0.4c-0.1-0.2-0.3-0.3-0.5-0.3
				c-0.4,0-0.7,0.3-0.7,0.7c0,0.1,0,0.3,0.1,0.4l0.5,2.2c0.1,0.5,0.3,0.7,0.7,0.7c0.2,0,0.3,0,0.5-0.2c0.2-0.2,0.3-0.2,0.5-0.2
				c0.1,0,0.2,0,0.5,0.1c0.6,0.2,1.5,0.3,2.3,0.3c2.9,0,4.8-1.7,4.8-4.2C79.1,56.1,78.6,55,77.9,54.2z"/>
			<path class="st0" d="M26.3,48.5L26,47c-0.1-0.4-0.3-0.5-0.8-0.5h-9.5c-0.7,0-1,0.2-1,0.6c0,0.3,0.3,0.6,0.6,0.6h0.4
				c0.1,0,0.3,0.1,0.4,0.3c0.1,0.2,0.1,0.3,0.1,0.9v9.8c0,0.6,0,0.7-0.1,0.8c-0.1,0.2-0.2,0.3-0.4,0.3h-0.4c-0.3,0-0.6,0.3-0.6,0.6
				c0,0.5,0.3,0.6,1,0.6h4c0.8,0,1.1-0.2,1.1-0.6c0-0.3-0.2-0.6-0.6-0.6h-0.5c-0.2,0-0.4-0.1-0.5-0.3c-0.1-0.2-0.1-0.3-0.1-0.8
				l0-3.6c0-0.5,0.1-0.7,0.2-0.8c0.1-0.1,0.3-0.1,0.9-0.1h1.8c0.9,0,1,0.1,1.1,0.5l0,0.1c0.1,0.4,0.3,0.6,0.6,0.6
				c0.5,0,0.6-0.3,0.6-1v-1.8c0-0.8-0.2-1-0.6-1c-0.3,0-0.5,0.2-0.6,0.5l0,0.1c-0.1,0.4-0.2,0.5-1.1,0.5h-1.8c-0.6,0-0.8,0-0.9-0.1
				c-0.1-0.1-0.2-0.3-0.2-0.8v-2.6c0-1.2,0.1-1.3,1.3-1.3h2.8c1,0,1.5,0.1,1.7,0.6c0.1,0.3,0.2,0.4,0.2,0.5c0.1,0.3,0.4,0.3,0.6,0.3
				C26.2,49.4,26.4,49.1,26.3,48.5z"/>
			<path class="st0" d="M47.6,46.2c-3.6,0-6.1,2-6.9,5.3c0,0,0,0,0,0c-0.1,0.4-0.4,0.4-0.5,0c-0.8-3.3-3.3-5.3-6.9-5.3
				c-4.4,0-7.2,3-7.2,7.6c0,4.6,2.8,7.5,7.1,7.5c3.6,0,6.1-2,7-5.2c0,0,0,0,0,0c0.1-0.4,0.4-0.4,0.5,0c0,0,0,0,0,0.1
				c0.8,3.2,3.3,5.2,6.8,5.2c4.4,0,7.2-3,7.2-7.7C54.8,49.1,52,46.2,47.6,46.2z M33.3,59.8c-2.5,0-3.9-2.2-3.9-6
				c0-3.8,1.5-6.1,3.9-6.1c2.4,0,3.9,2.3,3.9,6C37.2,57.5,35.7,59.8,33.3,59.8z M47.6,59.8c-2.5,0-3.9-2.2-3.9-6
				c0-3.8,1.5-6.1,3.9-6.1c2.4,0,3.9,2.3,3.9,6C51.5,57.5,50,59.8,47.6,59.8z"/>
		</g>
		<path class="st0" d="M52.2,30.3c1.9,0.7,2.6,2.8,2.6,5.9c0,3.8-1.6,6.3-4.1,6.3c-2.6,0-4.1-2.3-4.1-6.2c0-2.5,0.4-4.5,2.1-6.2
			c1.8-1.7,3.4-1.5,5-3.6c0.7-0.9,0.7-1.6,0.2-1.8c-0.5-0.1-0.8,0.5-1.3,0.8c-1.7,1.1-3.7,0.1-4.8-1.1c-1.1-1.2-2.5-1.2-3.3-1
			c-0.4,0.1-0.6-0.2-0.2-0.5c0.9-0.7,2.7-0.7,3.8,0.3c1,0.9,2.2,1.6,3.2,1.4c0.6-0.1,0.6-0.8,0-1c-1.8-0.6-1.6-2.7-4.1-3.4
			c-2.9-0.8-5.5,1.9-6.3,4.6c-0.2,0.8,0.3,1.2,1,0.9c2.4-1,3,0.4,5.1,1.2c0.9,0.4,2,0.3,2.6,0.2c0.5-0.1,0.5,0.4,0.2,0.5
			c-1.4,0.5-2.8,1.2-3.6,1.8c-2,1.3-3.1,3.7-3.1,6.8c0,4.8,2.9,7.9,7.5,7.9c4.6,0,7.6-3.1,7.6-8c0-2.8-0.9-4.9-2.7-6.2
			c-1-0.8-2-1.1-2.9-1C51.4,29,51.3,29.9,52.2,30.3z"/>
		<g>
			<path class="st0" d="M26,68.3l1.5-2.1c0.1-0.1,0.2-0.2,0.4-0.2c0.2,0,0.3,0,0.4,0.3l0.5,4.7c0,0.3-0.4,0.3-0.6,0.3
				c-0.1,0-0.4-0.1-0.4-0.2l-0.4-2.8c0-0.1-0.1-0.2-0.2-0.2c-0.1,0-0.1,0-0.2,0.1L26,69.9C25.9,70,25.8,70,25.7,70
				c-0.1,0-0.2,0-0.3-0.2l-1.2-1.6c0-0.1-0.1-0.1-0.2-0.1c-0.1,0-0.1,0.1-0.2,0.2l-0.4,2.7c0,0.2-0.3,0.3-0.5,0.3
				c-0.2,0-0.4-0.1-0.4-0.3l0.5-4.6c0.1-0.3,0.1-0.4,0.5-0.4c0.1,0,0.3,0,0.4,0.2l1.4,2c0.1,0.1,0.2,0.2,0.3,0.2
				C25.9,68.5,26,68.4,26,68.3z"/>
			<path class="st0" d="M34.1,66.3c0.1-0.1,0.2-0.2,0.4-0.2c0.2,0,0.3,0.1,0.4,0.2c0,0,2.2,4.7,2.3,4.8c0.1,0.2-0.4,0.3-0.5,0.3
				s-0.4,0-0.5-0.2l-0.3-0.7c0-0.1-0.1-0.2-0.2-0.2h-2.2c-0.1,0-0.3,0.1-0.3,0.3l-0.3,0.6c-0.1,0.2-0.4,0.2-0.5,0.2
				c-0.1,0-0.6,0-0.4-0.3L34.1,66.3z M33.8,69.5c0.4,0,0.9,0,1.3,0c0.1,0,0.2-0.1,0.1-0.2c0-0.1-0.6-1.2-0.6-1.3
				c-0.1-0.1-0.2-0.1-0.3,0c-0.1,0.2-0.6,1.2-0.6,1.3C33.7,69.4,33.7,69.5,33.8,69.5z"/>
			<path class="st0" d="M45.4,67.9c0,1-0.7,1.3-1,1.5c-0.1,0.1-0.2,0.2-0.1,0.3c0,0.1,0.8,1.1,0.9,1.3c0.2,0.2,0,0.4-0.5,0.4
				c-0.3,0-0.5-0.1-0.6-0.2l-0.8-1.3c-0.1-0.1-0.2-0.2-0.4-0.2h-1.2c-0.1,0-0.3,0.1-0.3,0.3l0,1.3c0,0.2-0.5,0.2-0.6,0.2
				c-0.2,0-0.3-0.1-0.3-0.3l0-4.8c0-0.1,0.1-0.2,0.2-0.2h2.8C44.6,66.1,45.4,66.8,45.4,67.9z M41.5,67.3v1.2c0,0.2,0.2,0.3,0.3,0.3
				h1.6c0.5,0,1-0.3,1-0.9c0-0.6-0.4-0.9-1-0.9h-1.6C41.7,67,41.5,67.1,41.5,67.3z"/>
			<path class="st0" d="M49.7,66.1c0.3,0,0.4,0.1,0.4,0.3v1.4c0,0.2,0.1,0.3,0.2,0.3c0.4,0,0.5-0.1,0.6-0.2c0.2-0.1,1.9-1.7,1.9-1.7
				c0.2-0.2,0.4-0.2,0.6,0c0.2,0.2,0.2,0.3,0.1,0.5c-0.1,0.1-1.6,1.5-1.6,1.5c-0.2,0.2-0.1,0.3,0,0.5c0,0,1.8,2,2,2.2
				c0.3,0.3,0,0.5-0.4,0.5c-0.4,0-0.6-0.1-0.7-0.2l-1.7-1.8c-0.2-0.2-0.5-0.2-0.8-0.2c-0.2,0-0.3,0.2-0.3,0.4v1.5
				c0,0.3-0.2,0.3-0.5,0.3c-0.3,0-0.4-0.1-0.4-0.3v-4.7C49.2,66.1,49.4,66.1,49.7,66.1z"/>
			<path class="st0" d="M57.3,66.1h4c0.2,0,0.3,0.2,0.3,0.4c0,0.3,0,0.5-0.3,0.5h-3.1c-0.1,0-0.2,0.1-0.2,0.2v0.7
				c0,0.2,0.1,0.2,0.2,0.2H60c0.2,0,0.3,0.2,0.3,0.5c0,0.2-0.1,0.5-0.3,0.5h-1.8c-0.1,0-0.3,0.1-0.3,0.3v0.8c0,0.2,0.1,0.3,0.2,0.3
				h3.1c0.2,0,0.3,0.1,0.3,0.5c0,0.2-0.1,0.4-0.3,0.4h-4c-0.2,0-0.3-0.1-0.3-0.4v-4.5C57,66.2,57.1,66.1,57.3,66.1z"/>
			<path class="st0" d="M68.8,66.1c0.2,0,0.3,0.1,0.3,0.4c0,0.3-0.1,0.5-0.3,0.5h-1.3c-0.2,0-0.3,0.1-0.3,0.3l0,3.8
				c0,0.3-0.2,0.3-0.5,0.3c-0.3,0-0.5,0-0.5-0.3v-3.8c0-0.2-0.1-0.3-0.3-0.3c-0.2,0-1.2,0-1.3,0c-0.2,0-0.3-0.2-0.3-0.4
				c0-0.2,0-0.5,0.3-0.5H68.8z"/>
		</g>
		<path class="st0" d="M66.8,48.1c-1.3-1.4-3-1.9-5.7-1.9c-2.7,0-4.5,0.2-5.1,0.3s-1,0.2-1,0.6c0,0.3,0.2,0.6,0.5,0.6h0.4
			c0.1,0,0.3,0.1,0.4,0.3c0,0.2,0.1,0.3,0.1,0.9v9.7c0,0.6,0,0.7-0.1,0.9c-0.1,0.2-0.2,0.3-0.4,0.3h-0.4c-0.3,0-0.5,0.3-0.5,0.6
			c0,0.5,0.3,0.5,1,0.6s2.4,0.3,5.1,0.3c2.4,0,4-0.5,5.2-1.5c1.6-1.3,2.5-3.5,2.5-6.1C68.8,51.4,68.1,49.4,66.8,48.1z M61.3,59.8
			c-1.1-0.1-1.9-0.1-1.9-1.4v-9.1c0-1.2,0.3-1.4,1.2-1.6c0.2,0,0.7-0.1,0.7-0.1c2.6,0,4.1,2.3,4.1,6.1C65.5,57.6,63.9,60,61.3,59.8z
			"/>
	</g>
	<path class="st0" d="M81.7,58.5c-1.2,0-2.2,1-2.2,2.2c0,1.2,1,2.2,2.2,2.2s2.2-1,2.2-2.2C83.9,59.5,82.9,58.5,81.7,58.5z
		 M81.7,62.4c-1,0-1.7-0.7-1.7-1.7c0-1,0.7-1.7,1.7-1.7c1,0,1.7,0.7,1.7,1.7C83.4,61.7,82.7,62.4,81.7,62.4z M82.1,60.8
		c0.4,0,0.6-0.2,0.6-0.7c0-0.5-0.3-0.8-0.9-0.8h-0.9v2.5h0.4v-1h0.2l0.7,1h0.5L82.1,60.8z M81.4,60.5v-0.7h0.4
		c0.3,0,0.6,0.1,0.6,0.4c0,0.3-0.3,0.4-0.7,0.4H81.4z"/>
</g>
</svg>
