<?xml version="1.0" encoding="utf-8"?>
<!-- Generator: Adobe Illustrator 16.0.0, SVG Export Plug-In . SVG Version: 6.00 Build 0)  -->
<!DOCTYPE svg PUBLIC "-//W3C//DTD SVG 1.1//EN" "http://www.w3.org/Graphics/SVG/1.1/DTD/svg11.dtd">
<svg version="1.1" id="Layer_1" xmlns="http://www.w3.org/2000/svg" xmlns:xlink="http://www.w3.org/1999/xlink" x="0px" y="0px"
	 width="551px" height="116px" viewBox="0 0 551 116" enable-background="new 0 0 551 116" xml:space="preserve">
<g>
	<defs>
		<rect id="SVGID_1_" x="-84" y="-50" width="720" height="216"/>
	</defs>
	<clipPath id="SVGID_2_">
		<use xlink:href="#SVGID_1_"  overflow="visible"/>
	</clipPath>
	<path clip-path="url(#SVGID_2_)" fill="#00345B" d="M249.367,100.035c0.079-1.024,0.14-2.108,0.182-3.251
		c0.043-1.143,0.064-2.352,0.064-3.625c0-1.438-0.021-2.718-0.064-3.838c-0.042-1.12-0.103-2.14-0.182-3.058
		c0.21,0.025,0.414,0.046,0.61,0.062c0.198,0.017,0.391,0.024,0.582,0.024c0.184,0,0.374-0.007,0.572-0.021
		c0.196-0.015,0.407-0.037,0.63-0.065c-0.079,0.852-0.138,1.812-0.177,2.878c-0.04,1.066-0.06,2.407-0.06,4.022
		c0,1.424,0.02,2.693,0.06,3.81c0.039,1.115,0.098,2.137,0.177,3.062c-0.165-0.032-0.343-0.058-0.537-0.073
		c-0.194-0.018-0.416-0.025-0.665-0.025c-0.25,0-0.471,0.008-0.665,0.025C249.7,99.978,249.524,100.003,249.367,100.035"/>
	<path clip-path="url(#SVGID_2_)" fill="#00345B" d="M255.863,100.055c0.111-0.965,0.195-2.374,0.251-4.227
		c0.056-1.852,0.084-4.107,0.084-6.768c0-0.46-0.005-0.946-0.015-1.458c-0.009-0.513-0.024-1.048-0.045-1.606h0.73
		c1.529,1.793,3.096,3.573,4.7,5.34c1.605,1.767,3.242,3.524,4.915,5.271V91.1c0-0.67-0.021-1.412-0.063-2.227
		c-0.043-0.814-0.101-1.688-0.173-2.62c0.136,0.02,0.276,0.034,0.422,0.044c0.145,0.01,0.286,0.015,0.421,0.015
		c0.149,0,0.291-0.006,0.426-0.018c0.136-0.012,0.264-0.025,0.386-0.041c-0.105,0.723-0.188,2.037-0.251,3.943
		c-0.062,1.906-0.094,4.249-0.094,7.029c0,0.302,0.005,0.705,0.015,1.208c0.01,0.502,0.024,1.115,0.045,1.838l-0.69,0.01
		c-0.453-0.604-0.971-1.242-1.552-1.916c-0.582-0.673-1.343-1.509-2.283-2.507l-5.82-6.236v5.487c0,0.939,0.021,1.817,0.064,2.636
		c0.043,0.817,0.106,1.588,0.192,2.31c-0.151-0.032-0.297-0.058-0.438-0.073c-0.142-0.017-0.278-0.025-0.41-0.025
		c-0.124,0-0.253,0.009-0.383,0.025C256.165,99.997,256.021,100.022,255.863,100.055"/>
	<path clip-path="url(#SVGID_2_)" fill="#00345B" d="M274.714,87.366h-1.231c-0.283,0-0.67,0.024-1.164,0.073
		c-0.492,0.05-1.086,0.127-1.783,0.231c0.033-0.124,0.056-0.244,0.07-0.359c0.012-0.115,0.019-0.238,0.019-0.369
		c0-0.132-0.008-0.255-0.024-0.37c-0.017-0.114-0.038-0.222-0.065-0.319c0.913,0.039,1.802,0.07,2.665,0.092
		c0.865,0.024,1.706,0.036,2.528,0.036c0.946,0,1.839-0.012,2.679-0.036c0.841-0.021,1.675-0.053,2.503-0.092
		c-0.033,0.203-0.055,0.353-0.064,0.448c-0.01,0.095-0.015,0.188-0.015,0.28c0,0.099,0.006,0.204,0.02,0.315
		c0.013,0.111,0.033,0.233,0.06,0.364c-0.71-0.099-1.317-0.172-1.823-0.222c-0.506-0.049-0.913-0.073-1.222-0.073h-1.132
		c-0.034,0.519-0.059,0.962-0.075,1.329c-0.016,0.368-0.024,0.696-0.024,0.985c0,2.674,0.021,4.86,0.064,6.562
		c0.042,1.701,0.106,2.966,0.191,3.793c-0.156-0.032-0.331-0.058-0.521-0.073c-0.19-0.018-0.404-0.025-0.64-0.025
		c-0.237,0-0.449,0.008-0.636,0.025c-0.187,0.016-0.366,0.041-0.536,0.073c0.085-0.899,0.147-2.054,0.186-3.463
		c0.04-1.408,0.06-3.193,0.06-5.354c0-0.952-0.007-1.704-0.02-2.256C274.77,88.41,274.746,87.878,274.714,87.366"/>
	<path clip-path="url(#SVGID_2_)" fill="#00345B" d="M283.693,100.035c0.085-0.985,0.148-2.047,0.191-3.187s0.064-2.37,0.064-3.689
		c0-1.478-0.02-2.772-0.06-3.882c-0.039-1.11-0.104-2.115-0.196-3.014c0.662,0.012,1.312,0.023,1.947,0.033
		c0.637,0.01,1.263,0.015,1.88,0.015c0.629,0,1.241-0.005,1.835-0.015s1.169-0.024,1.727-0.044c-0.02,0.118-0.035,0.232-0.045,0.345
		c-0.01,0.111-0.015,0.227-0.015,0.345c0,0.104,0.005,0.218,0.015,0.34c0.01,0.121,0.025,0.248,0.045,0.379
		c-0.479-0.111-0.992-0.195-1.539-0.251c-0.548-0.056-1.14-0.084-1.775-0.084h-1.858v2.817v2.08h2.036
		c0.426,0,0.87-0.016,1.332-0.044c0.462-0.031,0.952-0.075,1.47-0.134c-0.02,0.138-0.031,0.251-0.034,0.34
		c-0.004,0.088-0.005,0.176-0.005,0.261c0,0.132,0.01,0.345,0.029,0.641v0.108c-0.655-0.06-1.22-0.104-1.69-0.134
		c-0.473-0.029-0.859-0.044-1.161-0.044h-1.977v2.138c0,0.46,0.007,0.999,0.021,1.617c0.013,0.616,0.032,1.279,0.059,1.989h1.839
		c0.544,0,1.093-0.028,1.646-0.084c0.555-0.056,1.113-0.14,1.677-0.251c-0.02,0.085-0.031,0.178-0.034,0.275
		c-0.003,0.099-0.005,0.246-0.005,0.444c0,0.196,0.003,0.343,0.01,0.438c0.007,0.096,0.014,0.179,0.02,0.251
		c-0.558-0.02-1.133-0.034-1.727-0.044s-1.205-0.016-1.835-0.016c-0.623,0-1.258,0.006-1.903,0.016
		C285.029,100.001,284.368,100.016,283.693,100.035"/>
	<path clip-path="url(#SVGID_2_)" fill="#00345B" d="M294.83,100.035c0.085-0.985,0.148-2.047,0.191-3.187s0.064-2.37,0.064-3.689
		c0-1.478-0.02-2.772-0.06-3.882c-0.039-1.11-0.104-2.118-0.196-3.024c0.17,0.025,0.354,0.046,0.546,0.059
		c0.194,0.014,0.402,0.02,0.626,0.02c0.229,0,0.441-0.006,0.636-0.02c0.193-0.013,0.376-0.033,0.546-0.059
		c-0.045,0.794-0.08,1.622-0.103,2.482c-0.022,0.861-0.035,1.855-0.035,2.986c0,1.877,0.007,3.391,0.021,4.54
		c0.013,1.149,0.032,2.05,0.059,2.7h2.039c0.552,0,1.105-0.028,1.66-0.084c0.556-0.056,1.112-0.14,1.67-0.251
		c-0.02,0.118-0.034,0.237-0.044,0.359c-0.01,0.121-0.015,0.241-0.015,0.36c0,0.125,0.005,0.242,0.015,0.354
		c0.01,0.112,0.024,0.224,0.044,0.335c-0.598-0.02-1.208-0.034-1.832-0.044s-1.258-0.016-1.901-0.016
		c-0.638,0-1.284,0.006-1.941,0.016C296.163,100.001,295.5,100.016,294.83,100.035"/>
	<path clip-path="url(#SVGID_2_)" fill="#00345B" d="M305.139,100.035c0.085-0.985,0.148-2.047,0.191-3.187s0.064-2.37,0.064-3.689
		c0-1.478-0.02-2.772-0.06-3.882c-0.039-1.11-0.104-2.118-0.196-3.024c0.17,0.025,0.354,0.046,0.546,0.059
		c0.194,0.014,0.402,0.02,0.626,0.02c0.229,0,0.441-0.006,0.636-0.02c0.193-0.013,0.376-0.033,0.546-0.059
		c-0.045,0.794-0.08,1.622-0.103,2.482c-0.022,0.861-0.035,1.855-0.035,2.986c0,1.877,0.007,3.391,0.021,4.54
		c0.013,1.149,0.032,2.05,0.059,2.7h2.039c0.552,0,1.105-0.028,1.66-0.084c0.556-0.056,1.112-0.14,1.67-0.251
		c-0.02,0.118-0.034,0.237-0.044,0.359c-0.01,0.121-0.015,0.241-0.015,0.36c0,0.125,0.005,0.242,0.015,0.354
		c0.01,0.112,0.024,0.224,0.044,0.335c-0.598-0.02-1.208-0.034-1.832-0.044s-1.258-0.016-1.901-0.016
		c-0.638,0-1.284,0.006-1.941,0.016C306.472,100.001,305.809,100.016,305.139,100.035"/>
	<path clip-path="url(#SVGID_2_)" fill="#00345B" d="M315.447,100.035c0.085-0.985,0.148-2.047,0.191-3.187s0.064-2.37,0.064-3.689
		c0-1.478-0.02-2.772-0.06-3.882c-0.039-1.11-0.104-2.115-0.196-3.014c0.662,0.012,1.312,0.023,1.947,0.033
		c0.637,0.01,1.263,0.015,1.88,0.015c0.629,0,1.241-0.005,1.835-0.015s1.169-0.024,1.727-0.044c-0.02,0.118-0.035,0.232-0.045,0.345
		c-0.01,0.111-0.015,0.227-0.015,0.345c0,0.104,0.005,0.218,0.015,0.34c0.01,0.121,0.025,0.248,0.045,0.379
		c-0.479-0.111-0.992-0.195-1.539-0.251c-0.548-0.056-1.14-0.084-1.775-0.084h-1.858v2.817v2.08h2.036
		c0.426,0,0.87-0.016,1.332-0.044c0.462-0.031,0.952-0.075,1.47-0.134c-0.02,0.138-0.031,0.251-0.034,0.34
		c-0.004,0.088-0.005,0.176-0.005,0.261c0,0.132,0.01,0.345,0.029,0.641v0.108c-0.655-0.06-1.22-0.104-1.69-0.134
		c-0.473-0.029-0.859-0.044-1.161-0.044h-1.977v2.138c0,0.46,0.007,0.999,0.021,1.617c0.013,0.616,0.032,1.279,0.059,1.989h1.839
		c0.544,0,1.093-0.028,1.646-0.084c0.555-0.056,1.113-0.14,1.677-0.251c-0.02,0.085-0.031,0.178-0.034,0.275
		c-0.003,0.099-0.005,0.246-0.005,0.444c0,0.196,0.003,0.343,0.01,0.438c0.007,0.096,0.014,0.179,0.02,0.251
		c-0.558-0.02-1.133-0.034-1.727-0.044s-1.205-0.016-1.835-0.016c-0.623,0-1.258,0.006-1.903,0.016
		C316.783,100.001,316.122,100.016,315.447,100.035"/>
	<path clip-path="url(#SVGID_2_)" fill="#00345B" d="M337.45,89.139h-0.217c-0.446-0.748-1.007-1.305-1.68-1.67
		c-0.673-0.364-1.473-0.546-2.398-0.546c-1.597,0-2.846,0.541-3.749,1.625s-1.354,2.585-1.354,4.503
		c0,1.911,0.471,3.432,1.413,4.561c0.942,1.131,2.202,1.695,3.778,1.695c0.814,0,1.581-0.169,2.301-0.508
		c0.72-0.338,1.404-0.855,2.054-1.552l0.227,0.108c-0.059,0.263-0.104,0.532-0.138,0.808c-0.033,0.276-0.056,0.562-0.068,0.857
		c-0.782,0.44-1.566,0.767-2.356,0.98c-0.787,0.213-1.602,0.32-2.442,0.32c-2.206,0-3.938-0.641-5.196-1.921
		c-1.258-1.281-1.887-3.035-1.887-5.262c0-2.2,0.661-3.934,1.984-5.201c1.324-1.268,3.135-1.901,5.435-1.901
		c0.801,0,1.599,0.088,2.394,0.266s1.612,0.45,2.453,0.817c-0.138,0.276-0.251,0.58-0.34,0.911
		C337.573,88.362,337.503,88.731,337.45,89.139"/>
	<path clip-path="url(#SVGID_2_)" fill="#00345B" d="M343.81,87.366h-1.231c-0.282,0-0.67,0.024-1.163,0.073
		c-0.492,0.05-1.087,0.127-1.783,0.231c0.033-0.124,0.056-0.244,0.069-0.359c0.013-0.115,0.02-0.238,0.02-0.369
		c0-0.132-0.008-0.255-0.024-0.37c-0.017-0.114-0.038-0.222-0.064-0.319c0.913,0.039,1.802,0.07,2.665,0.092
		c0.864,0.024,1.706,0.036,2.527,0.036c0.946,0,1.84-0.012,2.68-0.036c0.841-0.021,1.675-0.053,2.503-0.092
		c-0.033,0.203-0.055,0.353-0.064,0.448c-0.01,0.095-0.015,0.188-0.015,0.28c0,0.099,0.006,0.204,0.02,0.315
		c0.013,0.111,0.033,0.233,0.06,0.364c-0.71-0.099-1.317-0.172-1.823-0.222c-0.506-0.049-0.913-0.073-1.222-0.073h-1.132
		c-0.034,0.519-0.059,0.962-0.075,1.329c-0.016,0.368-0.024,0.696-0.024,0.985c0,2.674,0.021,4.86,0.064,6.562
		c0.042,1.701,0.106,2.966,0.191,3.793c-0.156-0.032-0.331-0.058-0.521-0.073c-0.19-0.018-0.404-0.025-0.641-0.025
		s-0.448,0.008-0.636,0.025c-0.187,0.016-0.366,0.041-0.536,0.073c0.085-0.899,0.147-2.054,0.187-3.463
		c0.04-1.408,0.06-3.193,0.06-5.354c0-0.952-0.007-1.704-0.02-2.256C343.865,88.41,343.842,87.878,343.81,87.366"/>
	<path clip-path="url(#SVGID_2_)" fill="#00345B" d="M352.67,86.253c0.178,0.025,0.366,0.046,0.567,0.059
		c0.2,0.014,0.411,0.02,0.635,0.02s0.434-0.006,0.631-0.02c0.197-0.013,0.384-0.033,0.562-0.059
		c-0.072,0.84-0.127,1.543-0.164,2.107c-0.035,0.565-0.053,1.028-0.053,1.39v3.547c0,0.959,0.028,1.738,0.084,2.34
		c0.056,0.601,0.143,1.053,0.26,1.354c0.303,0.769,0.74,1.327,1.312,1.675c0.571,0.349,1.336,0.522,2.295,0.522
		c0.696,0,1.325-0.098,1.887-0.291s1.043-0.481,1.443-0.862c0.388-0.374,0.664-0.842,0.828-1.403s0.246-1.532,0.246-2.911v-0.443
		v-2.946c0-0.88-0.019-1.642-0.054-2.285c-0.037-0.644-0.094-1.242-0.173-1.793c0.138,0.025,0.279,0.046,0.423,0.059
		c0.146,0.014,0.3,0.02,0.464,0.02c0.171,0,0.329-0.006,0.478-0.02c0.148-0.013,0.284-0.033,0.409-0.059
		c-0.086,0.577-0.149,1.272-0.192,2.083c-0.043,0.812-0.063,1.752-0.063,2.823v3.447c0,1.898-0.505,3.322-1.513,4.271
		s-2.518,1.423-4.527,1.423c-1.188,0-2.182-0.167-2.979-0.502c-0.799-0.335-1.411-0.841-1.838-1.517
		c-0.27-0.414-0.461-0.887-0.576-1.419s-0.173-1.344-0.173-2.434V93.74v-4.02c0-0.638-0.018-1.243-0.054-1.818
		C352.797,87.328,352.742,86.778,352.67,86.253"/>
	<path clip-path="url(#SVGID_2_)" fill="#00345B" d="M366.557,100.035c0.959-2.147,1.929-4.376,2.911-6.685
		c0.981-2.309,2.008-4.76,3.078-7.354c0.091,0.02,0.18,0.035,0.262,0.045s0.155,0.015,0.222,0.015c0.078,0,0.157-0.005,0.236-0.015
		c0.078-0.01,0.154-0.025,0.227-0.045c0.899,2.367,1.826,4.72,2.778,7.06s1.928,4.666,2.926,6.979
		c-0.256-0.029-0.492-0.053-0.709-0.071c-0.217-0.017-0.424-0.027-0.621-0.027s-0.398,0.011-0.606,0.027
		c-0.207,0.019-0.422,0.042-0.645,0.071c-0.289-0.967-0.581-1.884-0.877-2.749s-0.602-1.689-0.916-2.473
		c-0.368-0.025-0.742-0.044-1.123-0.054s-0.766-0.015-1.153-0.015c-0.4,0-0.812,0.005-1.236,0.015
		c-0.425,0.01-0.861,0.028-1.315,0.054l-0.778,2.158c-0.17,0.473-0.331,0.965-0.482,1.478s-0.295,1.041-0.434,1.586
		c-0.151-0.032-0.299-0.058-0.443-0.073c-0.145-0.018-0.285-0.025-0.424-0.025c-0.131,0-0.268,0.008-0.408,0.025
		C366.883,99.978,366.728,100.003,366.557,100.035 M370.448,93.76c0.36,0.021,0.714,0.034,1.059,0.044s0.685,0.015,1.02,0.015
		c0.322,0,0.639-0.005,0.951-0.015c0.312-0.01,0.612-0.023,0.901-0.044l-1.941-5.005L370.448,93.76z"/>
	<path clip-path="url(#SVGID_2_)" fill="#00345B" d="M381.634,100.035c0.085-0.985,0.148-2.047,0.191-3.187s0.064-2.37,0.064-3.689
		c0-1.478-0.02-2.772-0.06-3.882c-0.039-1.11-0.104-2.118-0.196-3.024c0.17,0.025,0.353,0.046,0.546,0.059
		c0.194,0.014,0.402,0.02,0.626,0.02c0.229,0,0.441-0.006,0.636-0.02c0.193-0.013,0.376-0.033,0.546-0.059
		c-0.045,0.794-0.08,1.622-0.103,2.482c-0.023,0.861-0.035,1.855-0.035,2.986c0,1.877,0.007,3.391,0.021,4.54
		c0.013,1.149,0.032,2.05,0.059,2.7h2.039c0.552,0,1.105-0.028,1.66-0.084c0.556-0.056,1.112-0.14,1.67-0.251
		c-0.02,0.118-0.034,0.237-0.044,0.359c-0.01,0.121-0.016,0.241-0.016,0.36c0,0.125,0.006,0.242,0.016,0.354
		c0.01,0.112,0.024,0.224,0.044,0.335c-0.598-0.02-1.208-0.034-1.832-0.044s-1.258-0.016-1.901-0.016
		c-0.638,0-1.285,0.006-1.941,0.016S382.304,100.016,381.634,100.035"/>
	<path clip-path="url(#SVGID_2_)" fill="#00345B" d="M398.518,100.025c0.072-1.398,0.126-2.781,0.162-4.147s0.055-2.719,0.055-4.06
		c0-1.143-0.019-2.17-0.055-3.083s-0.09-1.747-0.162-2.503c0.222,0.026,0.455,0.046,0.694,0.06c0.24,0.013,0.484,0.02,0.734,0.02
		c0.407,0,0.954-0.013,1.64-0.039c0.687-0.026,1.178-0.04,1.474-0.04c1.458,0,2.567,0.304,3.33,0.912
		c0.762,0.607,1.142,1.489,1.142,2.645c0,1.241-0.48,2.223-1.442,2.946c-0.963,0.723-2.281,1.083-3.956,1.083
		c-0.367,0-0.66-0.001-0.877-0.005c-0.216-0.003-0.423-0.005-0.62-0.005v1.685c0,0.722,0.008,1.457,0.024,2.207
		c0.017,0.751,0.041,1.525,0.074,2.325c-0.151-0.03-0.317-0.052-0.498-0.066s-0.383-0.022-0.605-0.022
		c-0.236,0-0.443,0.008-0.621,0.025C398.833,99.978,398.668,99.999,398.518,100.025 M400.636,92.991
		c0.072,0.007,0.154,0.012,0.246,0.015c0.092,0.004,0.227,0.005,0.404,0.005c1.346,0,2.364-0.266,3.054-0.798
		s1.034-1.32,1.034-2.364c0-0.887-0.284-1.576-0.852-2.069c-0.568-0.492-1.365-0.738-2.39-0.738c-0.145,0-0.336,0.005-0.576,0.015
		c-0.239,0.01-0.514,0.027-0.822,0.054c-0.033,0.525-0.058,1.023-0.074,1.493s-0.024,0.885-0.024,1.246V92.991z"/>
	<path clip-path="url(#SVGID_2_)" fill="#00345B" d="M412.462,95.493c0,0.592,0.01,1.243,0.03,1.956
		c0.02,0.713,0.056,1.575,0.108,2.586c-0.151-0.032-0.317-0.058-0.498-0.072c-0.181-0.019-0.383-0.026-0.605-0.026
		c-0.23,0-0.433,0.01-0.606,0.027c-0.174,0.019-0.337,0.042-0.487,0.071c0.072-1.394,0.126-2.776,0.162-4.15
		s0.055-2.747,0.055-4.121c0-1.091-0.019-2.087-0.055-2.987s-0.09-1.748-0.162-2.544c0.223,0.026,0.451,0.046,0.685,0.06
		c0.233,0.013,0.475,0.02,0.725,0.02c0.406,0,0.95-0.013,1.629-0.039c0.681-0.026,1.155-0.04,1.425-0.04
		c1.419,0,2.502,0.273,3.251,0.818s1.123,1.336,1.123,2.374c0,0.926-0.34,1.698-1.02,2.315s-1.657,1.041-2.931,1.271
		c0.887,1.183,1.779,2.358,2.68,3.527c0.899,1.169,1.806,2.335,2.719,3.497c-0.263-0.032-0.517-0.058-0.764-0.072
		c-0.246-0.019-0.48-0.026-0.704-0.026c-0.217,0-0.44,0.008-0.67,0.026c-0.229,0.015-0.482,0.04-0.759,0.072
		c-0.703-1.162-1.458-2.304-2.266-3.423c-0.808-1.12-1.669-2.226-2.581-3.315h-0.483V95.493z M412.462,92.567
		c0.079,0.007,0.168,0.012,0.267,0.015c0.099,0.004,0.236,0.006,0.413,0.006c1.32,0,2.324-0.247,3.01-0.739
		c0.687-0.493,1.03-1.215,1.03-2.168c0-0.854-0.294-1.511-0.882-1.97c-0.588-0.46-1.431-0.69-2.527-0.69
		c-0.21,0-0.415,0.007-0.61,0.021c-0.197,0.013-0.385,0.036-0.562,0.068c-0.047,0.335-0.081,0.688-0.104,1.055
		c-0.023,0.367-0.035,0.866-0.035,1.497V92.567z"/>
	<path clip-path="url(#SVGID_2_)" fill="#00345B" d="M429.639,100.301c-2.332,0-4.17-0.638-5.513-1.916
		c-1.344-1.277-2.015-3.02-2.015-5.226c0-2.221,0.67-3.969,2.01-5.247c1.34-1.277,3.172-1.916,5.497-1.916
		c2.371,0,4.215,0.628,5.532,1.882c1.316,1.255,1.976,3.015,1.976,5.281c0,2.239-0.659,3.989-1.976,5.251
		C433.833,99.671,431.996,100.301,429.639,100.301 M429.618,86.883c-1.668,0-2.96,0.537-3.877,1.611
		c-0.916,1.073-1.374,2.593-1.374,4.557c0,2.061,0.45,3.639,1.35,4.728c0.9,1.092,2.2,1.637,3.901,1.637
		c1.682,0,2.976-0.54,3.882-1.621c0.906-1.08,1.359-2.625,1.359-4.635c0-2.017-0.453-3.567-1.359-4.65
		C432.594,87.425,431.3,86.883,429.618,86.883"/>
	<path clip-path="url(#SVGID_2_)" fill="#00345B" d="M440.568,100.025c0.072-1.398,0.126-2.781,0.162-4.147s0.055-2.719,0.055-4.06
		c0-1.143-0.019-2.17-0.055-3.083s-0.09-1.747-0.162-2.503c0.222,0.026,0.455,0.046,0.694,0.06c0.24,0.013,0.484,0.02,0.734,0.02
		c0.407,0,0.954-0.013,1.64-0.039c0.687-0.026,1.178-0.04,1.474-0.04c1.458,0,2.567,0.304,3.33,0.912
		c0.762,0.607,1.142,1.489,1.142,2.645c0,1.241-0.48,2.223-1.442,2.946c-0.963,0.723-2.281,1.083-3.956,1.083
		c-0.367,0-0.66-0.001-0.877-0.005c-0.216-0.003-0.423-0.005-0.62-0.005v1.685c0,0.722,0.008,1.457,0.024,2.207
		c0.017,0.751,0.041,1.525,0.074,2.325c-0.151-0.03-0.317-0.052-0.498-0.066s-0.383-0.022-0.605-0.022
		c-0.236,0-0.443,0.008-0.621,0.025C440.884,99.978,440.719,99.999,440.568,100.025 M442.687,92.991
		c0.072,0.007,0.154,0.012,0.246,0.015c0.092,0.004,0.227,0.005,0.404,0.005c1.346,0,2.364-0.266,3.054-0.798
		s1.034-1.32,1.034-2.364c0-0.887-0.284-1.576-0.852-2.069c-0.568-0.492-1.364-0.738-2.39-0.738c-0.145,0-0.336,0.005-0.576,0.015
		c-0.239,0.01-0.514,0.027-0.822,0.054c-0.033,0.525-0.058,1.023-0.074,1.493s-0.024,0.885-0.024,1.246V92.991z"/>
	<path clip-path="url(#SVGID_2_)" fill="#00345B" d="M452.415,100.035c0.085-0.985,0.147-2.047,0.19-3.187s0.065-2.37,0.065-3.689
		c0-1.478-0.02-2.772-0.06-3.882c-0.039-1.11-0.104-2.115-0.196-3.014c0.662,0.012,1.312,0.023,1.947,0.033
		c0.637,0.01,1.263,0.015,1.88,0.015c0.629,0,1.241-0.005,1.835-0.015s1.169-0.024,1.727-0.044c-0.02,0.118-0.035,0.232-0.045,0.345
		c-0.01,0.111-0.015,0.227-0.015,0.345c0,0.104,0.005,0.218,0.015,0.34c0.01,0.121,0.025,0.248,0.045,0.379
		c-0.479-0.111-0.993-0.195-1.539-0.251c-0.548-0.056-1.14-0.084-1.775-0.084h-1.858v2.817v2.08h2.036
		c0.426,0,0.87-0.016,1.332-0.044c0.462-0.031,0.952-0.075,1.47-0.134c-0.02,0.138-0.032,0.251-0.034,0.34
		c-0.004,0.088-0.005,0.176-0.005,0.261c0,0.132,0.01,0.345,0.029,0.641v0.108c-0.655-0.06-1.22-0.104-1.691-0.134
		c-0.472-0.029-0.858-0.044-1.16-0.044h-1.977v2.138c0,0.46,0.007,0.999,0.021,1.617c0.013,0.616,0.032,1.279,0.059,1.989h1.839
		c0.544,0,1.093-0.028,1.646-0.084c0.555-0.056,1.113-0.14,1.677-0.251c-0.021,0.085-0.031,0.178-0.034,0.275
		c-0.003,0.099-0.005,0.246-0.005,0.444c0,0.196,0.003,0.343,0.01,0.438c0.007,0.096,0.013,0.179,0.02,0.251
		c-0.558-0.02-1.134-0.034-1.727-0.044c-0.594-0.01-1.205-0.016-1.835-0.016c-0.623,0-1.258,0.006-1.904,0.016
		C453.751,100.001,453.09,100.016,452.415,100.035"/>
	<path clip-path="url(#SVGID_2_)" fill="#00345B" d="M465.649,95.493c0,0.592,0.01,1.243,0.03,1.956
		c0.02,0.713,0.056,1.575,0.108,2.586c-0.151-0.032-0.317-0.058-0.498-0.072c-0.181-0.019-0.383-0.026-0.605-0.026
		c-0.23,0-0.433,0.01-0.606,0.027c-0.174,0.019-0.337,0.042-0.487,0.071c0.072-1.394,0.126-2.776,0.162-4.15
		s0.055-2.747,0.055-4.121c0-1.091-0.019-2.087-0.055-2.987s-0.09-1.748-0.162-2.544c0.223,0.026,0.451,0.046,0.685,0.06
		c0.233,0.013,0.475,0.02,0.725,0.02c0.406,0,0.95-0.013,1.629-0.039c0.681-0.026,1.155-0.04,1.425-0.04
		c1.419,0,2.502,0.273,3.251,0.818s1.123,1.336,1.123,2.374c0,0.926-0.34,1.698-1.02,2.315s-1.657,1.041-2.931,1.271
		c0.887,1.183,1.779,2.358,2.68,3.527c0.899,1.169,1.806,2.335,2.719,3.497c-0.263-0.032-0.517-0.058-0.764-0.072
		c-0.246-0.019-0.48-0.026-0.704-0.026c-0.217,0-0.44,0.008-0.67,0.026c-0.229,0.015-0.482,0.04-0.759,0.072
		c-0.703-1.162-1.458-2.304-2.267-3.423c-0.807-1.12-1.668-2.226-2.58-3.315h-0.483V95.493z M465.649,92.567
		c0.079,0.007,0.168,0.012,0.267,0.015c0.099,0.004,0.236,0.006,0.413,0.006c1.32,0,2.324-0.247,3.009-0.739
		c0.688-0.493,1.031-1.215,1.031-2.168c0-0.854-0.294-1.511-0.882-1.97c-0.588-0.46-1.431-0.69-2.527-0.69
		c-0.21,0-0.415,0.007-0.61,0.021c-0.197,0.013-0.385,0.036-0.562,0.068c-0.047,0.335-0.081,0.688-0.104,1.055
		c-0.023,0.367-0.035,0.866-0.035,1.497V92.567z"/>
	<path clip-path="url(#SVGID_2_)" fill="#00345B" d="M478.865,87.366h-1.231c-0.282,0-0.67,0.024-1.164,0.073
		c-0.491,0.05-1.086,0.127-1.782,0.231c0.032-0.124,0.056-0.244,0.069-0.359c0.013-0.115,0.02-0.238,0.02-0.369
		c0-0.132-0.008-0.255-0.024-0.37c-0.017-0.114-0.038-0.222-0.064-0.319c0.913,0.039,1.802,0.07,2.665,0.092
		c0.864,0.024,1.706,0.036,2.527,0.036c0.946,0,1.839-0.012,2.68-0.036c0.841-0.021,1.675-0.053,2.503-0.092
		c-0.033,0.203-0.055,0.353-0.064,0.448c-0.01,0.095-0.015,0.188-0.015,0.28c0,0.099,0.006,0.204,0.02,0.315
		c0.013,0.111,0.033,0.233,0.06,0.364c-0.71-0.099-1.317-0.172-1.823-0.222c-0.506-0.049-0.913-0.073-1.222-0.073h-1.133
		c-0.033,0.519-0.058,0.962-0.074,1.329c-0.016,0.368-0.024,0.696-0.024,0.985c0,2.674,0.021,4.86,0.064,6.562
		c0.042,1.701,0.106,2.966,0.191,3.793c-0.157-0.032-0.331-0.058-0.521-0.073c-0.19-0.018-0.404-0.025-0.641-0.025
		s-0.448,0.008-0.636,0.025c-0.188,0.016-0.366,0.041-0.536,0.073c0.085-0.899,0.147-2.054,0.187-3.463
		c0.04-1.408,0.06-3.193,0.06-5.354c0-0.952-0.007-1.704-0.02-2.256C478.921,88.41,478.897,87.878,478.865,87.366"/>
	<path clip-path="url(#SVGID_2_)" fill="#00345B" d="M490.445,100.025c0.064-0.525,0.116-1.121,0.152-1.788
		c0.035-0.666,0.055-1.407,0.055-2.222v-1.694c-0.756-1.393-1.537-2.762-2.345-4.108c-0.809-1.347-1.643-2.666-2.503-3.96
		c0.203,0.025,0.419,0.046,0.646,0.059c0.226,0.014,0.461,0.02,0.704,0.02c0.25,0,0.478-0.006,0.685-0.02
		c0.207-0.013,0.402-0.033,0.587-0.059c0.209,0.538,0.47,1.121,0.778,1.748c0.309,0.629,0.676,1.309,1.104,2.046l1.714,2.944
		c0.631-1.038,1.233-2.116,1.808-3.236c0.575-1.12,1.128-2.287,1.66-3.502c0.125,0.025,0.26,0.046,0.404,0.059
		c0.145,0.014,0.299,0.02,0.463,0.02c0.171,0,0.33-0.006,0.478-0.02c0.148-0.013,0.284-0.033,0.409-0.059
		c-0.499,0.781-0.983,1.55-1.448,2.305c-0.467,0.756-0.91,1.494-1.33,2.217l-1.862,3.123v2.591c0,0.59,0.01,1.181,0.029,1.773
		c0.021,0.593,0.05,1.181,0.089,1.764c-0.211-0.03-0.412-0.052-0.605-0.066c-0.194-0.015-0.38-0.022-0.557-0.022
		c-0.171,0-0.35,0.008-0.537,0.026C490.834,99.978,490.643,99.999,490.445,100.025"/>
	<path clip-path="url(#SVGID_2_)" fill="#00345B" d="M505.862,100.035c0.085-0.985,0.147-2.047,0.191-3.187
		c0.043-1.14,0.064-2.37,0.064-3.689c0-1.478-0.02-2.772-0.06-3.882c-0.039-1.11-0.104-2.118-0.196-3.024
		c0.17,0.025,0.353,0.046,0.546,0.059c0.194,0.014,0.402,0.02,0.626,0.02c0.229,0,0.441-0.006,0.636-0.02
		c0.193-0.013,0.376-0.033,0.546-0.059c-0.045,0.794-0.081,1.622-0.103,2.482c-0.023,0.861-0.035,1.855-0.035,2.986
		c0,1.877,0.007,3.391,0.021,4.54c0.013,1.149,0.032,2.05,0.059,2.7h2.039c0.552,0,1.104-0.028,1.66-0.084s1.112-0.14,1.67-0.251
		c-0.02,0.118-0.034,0.237-0.044,0.359c-0.01,0.121-0.016,0.241-0.016,0.36c0,0.125,0.006,0.242,0.016,0.354
		c0.01,0.112,0.024,0.224,0.044,0.335c-0.598-0.02-1.208-0.034-1.832-0.044s-1.258-0.016-1.901-0.016
		c-0.638,0-1.285,0.006-1.941,0.016S506.532,100.016,505.862,100.035"/>
	<path clip-path="url(#SVGID_2_)" fill="#00345B" d="M514.289,100.035c0.959-2.147,1.929-4.376,2.912-6.685
		c0.98-2.309,2.007-4.76,3.077-7.354c0.092,0.02,0.18,0.035,0.262,0.045s0.155,0.015,0.222,0.015c0.078,0,0.157-0.005,0.236-0.015
		s0.154-0.025,0.227-0.045c0.899,2.367,1.826,4.72,2.778,7.06s1.928,4.666,2.926,6.979c-0.256-0.029-0.492-0.053-0.709-0.071
		c-0.217-0.017-0.424-0.027-0.621-0.027s-0.397,0.011-0.606,0.027c-0.206,0.019-0.422,0.042-0.645,0.071
		c-0.289-0.967-0.581-1.884-0.877-2.749s-0.601-1.689-0.916-2.473c-0.368-0.025-0.742-0.044-1.123-0.054s-0.766-0.015-1.153-0.015
		c-0.4,0-0.812,0.005-1.236,0.015c-0.425,0.01-0.861,0.028-1.315,0.054l-0.778,2.158c-0.17,0.473-0.331,0.965-0.482,1.478
		s-0.295,1.041-0.433,1.586c-0.152-0.032-0.3-0.058-0.444-0.073c-0.145-0.018-0.285-0.025-0.424-0.025
		c-0.13,0-0.268,0.008-0.408,0.025C514.615,99.978,514.46,100.003,514.289,100.035 M518.181,93.76
		c0.36,0.021,0.714,0.034,1.059,0.044s0.685,0.015,1.02,0.015c0.322,0,0.639-0.005,0.951-0.015c0.312-0.01,0.612-0.023,0.901-0.044
		l-1.941-5.005L518.181,93.76z"/>
	<path clip-path="url(#SVGID_2_)" fill="#00345B" d="M532.016,100.035c-0.571-2.146-1.215-4.374-1.931-6.68
		c-0.716-2.305-1.501-4.673-2.354-7.103c0.177,0.025,0.356,0.046,0.537,0.059c0.181,0.014,0.379,0.02,0.596,0.02
		c0.224,0,0.432-0.006,0.626-0.02c0.193-0.013,0.379-0.033,0.557-0.059c0.17,0.762,0.382,1.601,0.635,2.517s0.565,1.976,0.94,3.178
		l1.755,5.567c0.676-1.827,1.309-3.678,1.896-5.553c0.587-1.875,1.134-3.778,1.64-5.709c0.125,0.025,0.253,0.046,0.385,0.059
		c0.131,0.014,0.266,0.02,0.403,0.02c0.145,0,0.282-0.006,0.414-0.02c0.132-0.013,0.255-0.033,0.374-0.059
		c0.539,1.911,1.107,3.802,1.705,5.669c0.598,1.869,1.225,3.727,1.882,5.571l1.714-5.182c0.348-1.064,0.646-2.101,0.896-3.108
		s0.45-1.991,0.602-2.95c0.138,0.025,0.276,0.046,0.418,0.059c0.142,0.014,0.297,0.02,0.468,0.02s0.33-0.006,0.479-0.02
		c0.147-0.013,0.29-0.033,0.429-0.059c-0.913,2.252-1.764,4.53-2.552,6.832s-1.508,4.619-2.159,6.95
		c-0.144-0.032-0.279-0.058-0.407-0.073c-0.129-0.018-0.259-0.025-0.39-0.025c-0.119,0-0.244,0.008-0.374,0.025
		c-0.132,0.016-0.276,0.041-0.434,0.073c-0.282-1.07-0.566-2.077-0.853-3.02c-0.285-0.942-0.579-1.841-0.882-2.694l-1.812-5.123
		l-2.207,6.581c-0.289,0.874-0.543,1.662-0.765,2.364c-0.219,0.704-0.407,1.334-0.565,1.892c-0.157-0.032-0.305-0.058-0.443-0.073
		c-0.138-0.018-0.272-0.025-0.403-0.025c-0.125,0-0.254,0.008-0.385,0.025C532.318,99.978,532.174,100.003,532.016,100.035"/>
	<polygon clip-path="url(#SVGID_2_)" fill="#00345B" points="65.736,100.432 53.453,114.156 53.453,15.568 65.736,1.844 	"/>
	<polygon clip-path="url(#SVGID_2_)" fill="#225E84" points="42.695,100.233 30.411,113.958 30.411,40.457 42.695,26.732 	"/>
	<polygon clip-path="url(#SVGID_2_)" fill="#7E9CB9" points="19.335,100.321 7.052,114.047 7.052,60.896 19.335,47.171 	"/>
	<polygon clip-path="url(#SVGID_2_)" fill="#AA273E" points="88.335,30.515 82.25,30.515 82.25,29.855 101.531,29.855 
		101.531,30.441 96.032,30.441 109.741,68.929 120.591,36.013 118.538,30.515 112.6,30.515 112.6,29.928 131.881,29.928 
		131.881,30.515 126.236,30.515 139.944,69.294 152.773,30.515 147.715,30.515 147.715,29.928 159.298,29.928 159.298,30.515 
		153.58,30.515 137.379,79.704 136.206,79.704 121.031,37.258 107.029,79.704 106.003,79.704 	"/>
	<path clip-path="url(#SVGID_2_)" fill="#AA273E" d="M167.068,79.266c-6.745,0-9.97-4.766-9.97-14.956
		c0-2.712,0.366-5.131,0.953-7.257c1.099-3.959,4.765-6.745,8.724-6.745c6.451,0,9.969,5.279,9.969,14.809
		C176.744,74.061,173.152,79.266,167.068,79.266 M166.628,79.852c9.457,0,16.348-6.158,16.348-14.735
		c0-8.651-7.038-15.322-16.348-15.322c-9.09,0-16.055,6.378-16.055,14.735C150.573,73.181,157.611,79.852,166.628,79.852"/>
	<polygon clip-path="url(#SVGID_2_)" fill="#AA273E" points="187.446,78.239 191.478,78.239 191.478,29.195 188.033,29.195 
		188.033,28.609 197.416,28.609 197.416,78.166 201.008,78.166 201.008,78.825 187.446,78.825 	"/>
	<path clip-path="url(#SVGID_2_)" fill="#AA273E" d="M204.82,78.239h4.692V51.554h-3.739v-0.733h3.739l0.22-7.77v-0.66
		c0-8.211,3.592-13.856,8.87-13.856c3.592,0,6.525,2.786,6.525,6.305c0,2.053-1.174,3.592-2.786,3.592
		c-1.467,0-2.713-1.393-2.713-3.006c0-1.172,0.367-1.979,1.54-3.225c0.513-0.513,0.733-0.88,0.733-1.173
		c0-1.1-1.613-2.126-3.446-2.126c-3.005,0-4.765,2.273-4.765,6.231c0,1.466,0.147,2.199,0.807,5.572
		c0.513,2.859,0.806,4.985,0.806,6.964v0.44v2.712h4.105v0.66h-4.105v26.685l4.032,0.073v0.586H204.82V78.239z"/>
	<path clip-path="url(#SVGID_2_)" fill="#AA273E" d="M289.417,37.699c-4.104-4.692-10.263-7.111-16.494-7.111
		c-12.462,0-21.113,8.211-21.113,23.019c0,14.515,7.478,23.532,21.919,23.532c3.959,0,8.064-0.733,11.436-2.492v-18.84
		c1.027,0.073,2.126,0.219,3.227,0.219c1.025,0,2.053-0.146,3.226-0.219v20.746c-6.378,2.199-13.123,3.372-19.94,3.372
		c-18.547,0-27.051-11.069-27.051-25.951c0-17.155,12.316-26.172,28.59-26.172c10.923,0,17.081,3.226,18.694,4.252
		c-0.66,1.833-1.173,3.739-1.686,5.645H289.417z"/>
	<path clip-path="url(#SVGID_2_)" fill="#AA273E" d="M299.827,44.003c0.952,0.073,1.906,0.22,2.933,0.22
		c0.953,0,1.832-0.147,2.932-0.22v7.331l0.367-0.88c2.419-3.812,5.571-6.891,9.237-6.891c1.024,0,1.611,0.073,2.271,0.367
		l-1.025,6.158c-1.101-0.294-2.2-1.174-3.445-1.174c-1.613,0-3.593,0.587-4.692,1.833c-2.565,2.932-2.713,5.352-2.713,9.311v18.987
		c-1.1-0.074-1.979-0.221-2.932-0.221c-1.026,0-1.98,0.146-2.933,0.221V44.003z"/>
	<path clip-path="url(#SVGID_2_)" fill="#AA273E" d="M324.458,58.592c0.44-6.158,3.446-12.756,10.337-12.756
		c7.257,0,9.018,6.378,9.163,12.756H324.458z M347.99,71.494c-1.979,1.906-5.864,5.059-10.849,5.059
		c-8.871,0-13.344-7.038-12.684-15.249h10.337c4.912,0,9.896,0.074,14.881,0.221c0.733-12.243-6.743-17.961-14.881-17.961
		c-10.924,0-16.788,7.844-16.788,18.035c0,11.362,7.185,18.033,17.301,18.033c4.473,0,9.018-1.759,12.609-4.325L347.99,71.494z"/>
	<path clip-path="url(#SVGID_2_)" fill="#AA273E" d="M358.18,58.592c0.44-6.158,3.446-12.756,10.337-12.756
		c7.257,0,9.017,6.378,9.163,12.756H358.18z M381.712,71.494c-1.979,1.906-5.864,5.059-10.85,5.059
		c-8.87,0-13.342-7.038-12.683-15.249h10.337c4.911,0,9.897,0.074,14.882,0.221c0.732-12.243-6.745-17.961-14.882-17.961
		c-10.923,0-16.788,7.844-16.788,18.035c0,11.362,7.185,18.033,17.301,18.033c4.473,0,9.018-1.759,12.609-4.325L381.712,71.494z"/>
	<path clip-path="url(#SVGID_2_)" fill="#AA273E" d="M390.068,44.003c0.953,0.073,1.907,0.22,2.934,0.22
		c0.952,0,1.832-0.147,2.932-0.22v6.671c2.566-4.472,6.598-7.111,11.803-7.111c8.503,0,11.803,4.619,11.803,14.295v21.188
		c-1.1-0.074-1.979-0.221-2.933-0.221c-1.027,0-1.979,0.146-2.933,0.221V59.545c0-6.817-1.245-12.169-8.137-12.169
		c-7.697,0-9.604,5.645-9.604,14.662v17.009c-1.1-0.074-1.979-0.221-2.932-0.221c-1.026,0-1.98,0.146-2.934,0.221V44.003z"/>
	<path clip-path="url(#SVGID_2_)" fill="#AA273E" d="M428.702,46.789h-5.058c0.22-0.88,0.22-1.833,0-2.786h5.058l0.146-0.586
		c1.1-8.211,4.912-20.6,15.469-19.427c-0.367,1.906-0.44,4.179-0.367,5.865l-0.366,0.293l-1.467-0.733
		c-0.806-0.294-1.686-0.367-2.565-0.367c-7.331,0-6.744,8.284-5.131,14.955h7.477c-0.22,0.953-0.22,1.906,0,2.786h-7.331v32.256
		c-1.1-0.073-1.979-0.22-2.932-0.22c-1.026,0-1.979,0.146-2.933,0.22V46.789z"/>
	<path clip-path="url(#SVGID_2_)" fill="#AA273E" d="M452.821,79.045c-1.101-0.073-1.98-0.22-2.934-0.22
		c-1.025,0-1.979,0.146-2.932,0.22V44.003c0.953,0.074,1.906,0.22,2.932,0.22c0.953,0,1.833-0.146,2.934-0.22V79.045z
		 M449.888,35.206c-2.053,0-3.737-1.686-3.737-3.739c0-2.052,1.685-3.738,3.737-3.738c1.979,0,3.739,1.686,3.739,3.738
		C453.627,33.52,451.867,35.206,449.888,35.206"/>
	<path clip-path="url(#SVGID_2_)" fill="#AA273E" d="M467.557,58.592c0.438-6.158,3.444-12.756,10.336-12.756
		c7.257,0,9.017,6.378,9.162,12.756H467.557z M491.088,71.494c-1.979,1.906-5.865,5.059-10.85,5.059
		c-8.87,0-13.342-7.038-12.682-15.249h10.336c4.911,0,9.896,0.074,14.882,0.221c0.732-12.243-6.744-17.961-14.882-17.961
		c-10.924,0-16.788,7.844-16.788,18.035c0,11.362,7.184,18.033,17.301,18.033c4.472,0,9.017-1.759,12.61-4.325L491.088,71.494z"/>
	<path clip-path="url(#SVGID_2_)" fill="#AA273E" d="M499.591,23.99c0.953,0.074,1.907,0.22,2.933,0.22
		c0.953,0,1.832-0.146,2.933-0.22v55.055c-1.101-0.073-1.979-0.22-2.933-0.22c-1.025,0-1.979,0.146-2.932,0.22L499.591,23.99z"/>
	<path clip-path="url(#SVGID_2_)" fill="#AA273E" d="M541.084,60.571c0,6.745-2.272,16.422-10.776,16.422
		c-7.697,0-10.043-7.771-10.043-14.076c0-7.551,1.539-16.348,10.923-16.348C538.664,46.569,541.084,54.413,541.084,60.571
		 M546.948,23.99c-1.1,0.074-1.979,0.22-2.933,0.22c-1.025,0-1.979-0.146-2.933-0.22l0.001,26.684
		c-2.565-4.398-6.379-7.111-11.51-7.111c-9.677,0-15.762,8.211-15.762,18.327c0,11.95,6.379,17.741,14.662,17.741
		c5.499,0,9.604-2.492,12.609-7.624v7.038c0.952-0.073,1.906-0.22,2.932-0.22c0.954,0,1.833,0.146,2.933,0.22V23.99z"/>
</g>
</svg>
